<svg width="57" height="57" viewBox="0 0 57 57" fill="none" xmlns="http://www.w3.org/2000/svg">
<path d="M28.5 7.125C41.5625 7.125 52.25 15.6275 52.25 26.125C52.25 36.6225 41.5625 45.125 28.5 45.125C25.555 45.125 22.7288 44.6975 20.1163 43.9375C13.1813 49.875 4.75 49.875 4.75 49.875C10.2838 44.3413 11.1625 40.6125 11.2813 39.1875C7.24375 35.7913 4.75 31.1838 4.75 26.125C4.75 15.6275 15.4375 7.125 28.5 7.125ZM40.375 28.5V23.75H35.625V28.5H40.375ZM30.875 28.5V23.75H26.125V28.5H30.875ZM21.375 28.5V23.75H16.625V28.5H21.375Z" fill="#36E324"/>
</svg>
