<svg width="57" height="57" viewBox="0 0 57 57" fill="none" xmlns="http://www.w3.org/2000/svg">
<path d="M43.035 34.295L35.34 30.4475C38.4037 28.0725 40.375 24.3675 40.375 20.1875C40.375 12.9913 34.5087 7.125 27.3125 7.125C20.1162 7.125 14.25 12.9913 14.25 20.1875C14.25 25.2463 17.1475 29.64 21.375 31.8013V39.5438L17.005 38.6175L16.7675 38.57C16.53 38.5225 16.2925 38.4987 16.0075 38.4987C14.7487 38.4987 13.5612 38.9975 12.6587 39.9L9.33374 43.2725L21.4225 55.3612C22.4437 56.4062 23.8687 57 25.3412 57H40.3037C42.6312 57 44.6025 55.3375 44.9825 53.0337L46.8825 41.8475C47.405 38.76 45.8612 35.72 43.035 34.295ZM42.2037 41.0638L40.3037 52.25H25.3412C25.1275 52.25 24.9375 52.155 24.7712 52.0125L16.0312 43.2725L26.125 45.3863V20.1875C26.125 19.5225 26.6475 19 27.3125 19C27.9775 19 28.5 19.5225 28.5 20.1875V34.4375H32.68L40.8975 38.5462C41.8475 39.0212 42.37 40.0425 42.2037 41.0638ZM19 20.1875C19 15.6038 22.7287 11.875 27.3125 11.875C31.8962 11.875 35.625 15.6038 35.625 20.1875C35.625 22.4438 34.7225 24.4862 33.25 25.9825V20.1875C33.25 16.91 30.59 14.25 27.3125 14.25C24.035 14.25 21.375 16.91 21.375 20.1875V25.9825C19.9025 24.4862 19 22.4438 19 20.1875Z" fill="#36E324"/>
</svg>
