<?xml version="1.0" standalone="no"?>
<!DOCTYPE svg PUBLIC "-//W3C//DTD SVG 20010904//EN"
 "http://www.w3.org/TR/2001/REC-SVG-20010904/DTD/svg10.dtd">
<svg version="1.0" xmlns="http://www.w3.org/2000/svg"
 width="512.000000pt" height="512.000000pt" viewBox="0 0 512.000000 512.000000"
 preserveAspectRatio="xMidYMid meet">
<metadata>
Created by potrace 1.11, written by Peter Selinger 2001-2013
</metadata>
<g transform="translate(0.000000,512.000000) scale(0.100000,-0.100000)"
fill="#000000" stroke="none">
<path d="M96 4959 c-12 -116 -7 -4826 5 -4852 6 -14 22 -30 36 -36 34 -16
4812 -16 4846 0 14 6 30 22 36 36 12 26 17 4736 5 4852 l-7 61 -2457 0 -2457
0 -7 -61z m3791 -506 c-4 -17 -122 -280 -665 -1493 -110 -245 -198 -446 -197
-448 1 -1 22 9 46 22 134 73 366 108 574 87 365 -37 572 -199 656 -516 17 -63
22 -119 26 -270 4 -168 2 -202 -16 -294 -35 -168 -86 -273 -184 -378 -90 -96
-220 -164 -381 -199 -91 -20 -325 -23 -426 -5 -299 53 -484 221 -560 508 -12
43 -26 142 -33 219 l-11 142 -258 -577 c-142 -317 -259 -579 -260 -583 -3 -9
-358 -24 -358 -16 0 3 113 260 251 569 138 310 512 1150 830 1867 319 717 587
1319 596 1337 l16 34 106 4 c273 8 254 9 248 -10z m-2057 -903 c41 -12 94 -32
117 -46 l41 -24 104 35 c57 19 143 41 192 50 112 19 319 19 410 0 65 -14 210
-77 222 -97 6 -10 -216 -478 -227 -478 -4 0 -9 21 -12 46 -9 81 -75 142 -187
170 -86 22 -217 16 -282 -14 l-48 -21 0 -555 0 -556 -214 0 -215 0 -3 488 c-4
512 -5 519 -50 585 -11 15 -43 40 -71 55 -48 25 -61 27 -167 26 -91 0 -126 -4
-165 -20 l-50 -20 -3 -557 -2 -557 -215 0 -215 0 0 680 0 679 48 21 c101 45
301 96 492 126 132 20 405 12 500 -16z"/>
<path d="M3430 2247 c-69 -16 -107 -36 -146 -79 -71 -75 -97 -175 -97 -378 -1
-330 102 -471 342 -470 214 2 324 137 338 415 14 275 -58 451 -203 498 -69 23
-169 29 -234 14z"/>
</g>
</svg>
