<svg width="40" height="40" viewBox="0 0 40 40" fill="none" xmlns="http://www.w3.org/2000/svg">
<path d="M33.0457 6.96562C29.701 3.63225 25.0942 1.56106 20.0002 1.56106C14.9063 1.56106 10.299 3.63225 6.96561 6.96562C3.63224 10.299 1.56148 14.9058 1.56148 20.0002C1.56148 25.0946 3.63224 29.701 6.96561 33.0457C10.299 36.3791 14.9063 38.4389 20.0002 38.4389C25.0942 38.4389 29.701 36.3791 33.0457 33.0457C36.3791 29.701 38.4389 25.0946 38.4389 20.0002C38.4389 14.9058 36.3791 10.299 33.0457 6.96562ZM20.0002 0C25.5259 0 30.5205 2.23679 34.1419 5.85813C37.7632 9.47988 40 14.4741 40 20.0002C40 25.5259 37.7632 30.5205 34.1419 34.1419C30.5205 37.7632 25.5259 40 20.0002 40C18.8237 40 17.6709 39.8986 16.5509 39.7039C13.8864 39.2411 11.404 38.2511 9.2133 36.8447C7.99918 36.0656 6.87475 35.1581 5.85814 34.1419C2.2372 30.5205 0 25.5259 0 20.0002C0 14.4741 2.2372 9.47988 5.85814 5.85813C9.47949 2.23679 14.4741 0 20.0002 0Z" fill="white" fill-opacity="0.7"/>
<path fill-rule="evenodd" clip-rule="evenodd" d="M21.527 15.9133V14.2743C21.527 13.4879 22.0477 13.3001 22.4245 13.3001C22.7896 13.3001 24.7166 13.3001 24.7166 13.3001V9.80029H21.5605C18.0499 9.80029 17.2639 12.3917 17.2639 14.0751V15.9133H15.2258V18.3827V19.9999H17.2857C17.2857 24.6399 17.2857 30.2105 17.2857 30.2105H21.3724C21.3724 30.2105 21.3724 24.5623 21.3724 19.9999H24.3955L24.5288 18.394L24.772 15.9133H21.527Z" fill="white" fill-opacity="0.7"/>
</svg>
