<svg width="40" height="40" viewBox="0 0 40 40" fill="none" xmlns="http://www.w3.org/2000/svg">
<path fill-rule="evenodd" clip-rule="evenodd" d="M33.0458 6.96555C29.7011 3.63221 25.0943 1.56105 20 1.56105C14.917 1.56105 10.2993 3.63221 6.96595 6.96555C3.63262 10.2989 1.56186 14.9057 1.56186 20C1.56186 25.0943 3.63262 29.7007 6.96595 33.0454C10.2993 36.3787 14.917 38.4385 20 38.4385C25.0943 38.4385 29.7011 36.3787 33.0458 33.0454C36.3791 29.7007 38.4385 25.0943 38.4385 20C38.4385 14.9057 36.3791 10.2989 33.0458 6.96555ZM20 0C25.5261 0 30.5315 2.23676 34.1419 5.85848C37.7632 9.47979 40 14.4739 40 20C40 25.5257 37.7632 30.5202 34.1419 34.1415C30.5315 37.7628 25.5261 39.9996 20 39.9996C14.4852 39.9996 9.48019 37.7628 5.85848 34.1415C2.23717 30.5202 0 25.5257 0 20C0 14.4739 2.23717 9.47979 5.85848 5.85848C9.48019 2.23676 14.4852 0 20 0Z" fill="white" fill-opacity="0.7"/>
<path fill-rule="evenodd" clip-rule="evenodd" d="M26.4676 20.0002C26.4676 16.4343 23.5774 13.5331 20.0001 13.5331C16.4341 13.5331 13.5329 16.4343 13.5329 20.0002C13.5329 23.5771 16.4341 26.4674 20.0001 26.4674C23.5774 26.4674 26.4676 23.5771 26.4676 20.0002ZM26.3457 12.6579C25.7701 12.6579 25.3048 13.1231 25.3048 13.6987C25.3048 14.2746 25.7701 14.7399 26.3457 14.7399C26.9216 14.7399 27.3869 14.2746 27.3869 13.6987C27.3869 13.1231 26.9216 12.6579 26.3457 12.6579ZM14.718 11.1631H25.2939C27.254 11.1631 28.8486 12.7576 28.8486 14.7181V25.2937C28.8486 27.2538 27.254 28.8483 25.2939 28.8483H14.718C12.7575 28.8483 11.1633 27.2538 11.1633 25.2937V14.7181C11.1633 12.7576 12.7575 11.1631 14.718 11.1631ZM25.2939 9.97803H14.718C12.1157 9.97803 9.97827 12.1041 9.97827 14.7181V25.2937C9.97827 27.896 12.1157 30.0334 14.718 30.0334H25.2939C27.9075 30.0334 30.0336 27.896 30.0336 25.2937V14.7181C30.0336 12.1041 27.9075 9.97803 25.2939 9.97803ZM14.884 20.0002C14.884 17.1762 17.1765 14.8728 20.0001 14.8728C22.8354 14.8728 25.1275 17.1762 25.1275 20.0002C25.1275 22.8348 22.8354 25.1277 20.0001 25.1277C17.1765 25.1277 14.884 22.8348 14.884 20.0002Z" fill="white" fill-opacity="0.7"/>
</svg>
