<svg width="40" height="40" viewBox="0 0 40 40" fill="none" xmlns="http://www.w3.org/2000/svg">
<g clip-path="url(#clip0)">
<path fill-rule="evenodd" clip-rule="evenodd" d="M33.1656 7.35324C29.8318 4.009 25.2258 1.94915 20.1315 1.94915C15.0364 1.94915 10.4304 4.009 7.09665 7.35324C3.75282 10.6866 1.69256 15.2934 1.69256 20.3873C1.69256 25.4816 3.75282 30.0888 7.09665 33.4217C10.4304 36.7664 15.0364 38.8258 20.1315 38.8258C25.2258 38.8258 29.8318 36.7664 33.1656 33.4217C36.5098 30.0888 38.5696 25.4816 38.5696 20.3873C38.5696 15.2934 36.5098 10.6866 33.1656 7.35324ZM20.1315 0.387695C25.6572 0.387695 30.6517 2.62446 34.273 6.24577C37.8943 9.86707 40.1311 14.8616 40.1311 20.3873C40.1311 25.9134 37.8943 30.9079 34.273 34.5292C30.6517 38.1505 25.6572 40.3877 20.1315 40.3877C14.605 40.3877 9.61089 38.1505 5.98998 34.5292C2.36787 30.9079 0.131104 25.9134 0.131104 20.3873C0.131104 14.8616 2.36787 9.86707 5.98998 6.24577C9.61089 2.62446 14.605 0.387695 20.1315 0.387695Z" fill="white" fill-opacity="0.7"/>
<path fill-rule="evenodd" clip-rule="evenodd" d="M13.2099 11.3618C12.0471 11.3618 11.1056 12.3032 11.1056 13.466C11.1056 14.6289 12.0471 15.5703 13.2099 15.5703C14.3727 15.5703 15.3138 14.6289 15.3138 13.466C15.3138 12.3032 14.3727 11.3618 13.2099 11.3618ZM29.057 21.0742C28.78 18.7926 27.7395 17.3753 24.6607 17.3753C22.8553 17.3753 21.6371 18.0397 21.1278 19.0034H21.0725V17.3753H17.7165V29.413H21.2276V23.4442C21.2276 21.8711 21.5374 20.3544 23.4651 20.3544C25.4022 20.3544 25.546 22.1481 25.546 23.5545V29.413H29.1564V22.8016C29.1564 22.1813 29.1229 21.6057 29.057 21.0742ZM11.1056 20.5758V29.413H15.3138V17.3753H11.1056V20.5758Z" fill="white" fill-opacity="0.7"/>
</g>
<defs>
<clipPath id="clip0">
<rect width="40" height="40" fill="white"/>
</clipPath>
</defs>
</svg>
