<svg width="40" height="40" viewBox="0 0 40 40" fill="none" xmlns="http://www.w3.org/2000/svg">
<path d="M33.0345 6.96365C29.7007 3.63082 25.0947 1.57193 20.0004 1.57193C14.9053 1.57193 10.2993 3.63082 6.96554 6.96365C3.6217 10.2961 1.56144 14.9129 1.56144 20.0054C1.56144 25.0871 3.6217 29.7039 6.96554 33.0364C10.2993 36.3684 14.9053 38.439 20.0004 38.439C25.0947 38.439 29.7007 36.3684 33.0345 33.0364C36.3787 29.7039 38.4386 25.0871 38.4386 20.0054C38.4386 14.9129 36.3787 10.2961 33.0345 6.96365ZM20.0004 0C25.5261 0 30.5206 2.24705 34.1419 5.85647C37.7632 9.4768 40 14.4809 40 20.0054C40 25.5187 37.7632 30.5232 34.1419 34.1431C30.5206 37.7525 25.5261 40 20.0004 40C14.4739 40 9.47978 37.7525 5.85887 34.1431C2.23675 30.5232 0 25.5187 0 20.0054C0 14.4809 2.23675 9.4768 5.85887 5.85647C9.47978 2.24705 14.4739 0 20.0004 0Z" fill="white" fill-opacity="0.7"/>
<path fill-rule="evenodd" clip-rule="evenodd" d="M30.2107 13.7723C29.4684 14.0937 28.6606 14.315 27.808 14.4256C28.6824 13.9056 29.3464 13.1081 29.6574 12.1338C28.8488 12.6098 27.9408 12.953 26.9884 13.1412C26.2344 12.3332 25.139 11.835 23.9209 11.835C21.6175 11.835 19.7345 13.6839 19.7345 15.9532C19.7345 16.2855 19.7903 16.5956 19.8565 16.8948C16.3685 16.7284 13.2783 15.0899 11.2185 12.5876C10.8642 13.2078 10.6429 13.9056 10.6429 14.6582C10.6429 16.0973 11.3957 17.3595 12.5028 18.0904C11.8166 18.0791 11.174 17.8909 10.6098 17.5808C10.6098 17.603 10.6098 17.6143 10.6098 17.6361C10.6098 18.1675 10.7095 18.6549 10.8973 19.1196C11.4071 20.4154 12.5699 21.3893 13.9766 21.6663C13.6103 21.766 13.2561 21.8209 12.8687 21.8209C12.603 21.8209 12.3372 21.7878 12.082 21.7325C12.6252 23.3711 14.164 24.5667 15.9921 24.6111C14.5518 25.7183 12.7581 26.3716 10.798 26.3716C10.4543 26.3716 10.1336 26.349 9.79028 26.3159C11.6506 27.4787 13.8542 28.1648 16.2134 28.1648C22.7581 28.1648 26.8003 23.6367 27.8516 18.9315C28.0406 18.0904 28.1286 17.2598 28.1286 16.4405C28.1286 16.2633 28.1286 16.0755 28.1286 15.9091C28.9372 15.3224 29.6574 14.5916 30.2107 13.7723Z" fill="white" fill-opacity="0.7"/>
</svg>
