<svg width="40" height="40" viewBox="0 0 40 40" fill="none" xmlns="http://www.w3.org/2000/svg">
<path d="M33.034 6.96569C29.7007 3.63229 25.0943 1.56108 19.9992 1.56108C14.9053 1.56108 10.2989 3.63229 6.95424 6.96569C3.62131 10.2991 1.56145 14.906 1.56145 20C1.56145 25.0944 3.62131 29.7009 6.95424 33.0456C10.2989 36.379 14.9053 38.4389 19.9992 38.4389C25.0943 38.4389 29.7007 36.379 33.034 33.0456C36.3674 29.7009 38.4381 25.0944 38.4381 20C38.4381 14.906 36.3674 10.2991 33.034 6.96569ZM19.9992 0C25.5148 0 30.5202 2.2364 34.1411 5.85819C37.7624 9.47957 40 14.4742 40 20C40 25.5258 37.7624 30.5204 34.1411 34.1418C30.5202 37.7632 25.5148 40 19.9992 40C14.4735 40 9.46767 37.7632 5.85807 34.1418C2.23676 30.5204 0 25.5258 0 20C0 14.4742 2.23676 9.47957 5.85807 5.85819C9.46767 2.2364 14.4735 0 19.9992 0Z" fill="white" fill-opacity="0.7"/>
<path fill-rule="evenodd" clip-rule="evenodd" d="M20.1778 28.1059C18.4722 28.1059 16.878 27.5966 15.5488 26.7218L12.3152 27.7517L13.3561 24.6396C12.3487 23.2664 11.7506 21.5611 11.7506 19.7334C11.7506 19.4568 11.7615 19.2023 11.7946 18.9252C12.2155 14.6843 15.8141 11.3731 20.1778 11.3731C24.6073 11.3731 28.2504 14.7727 28.5828 19.0803C28.605 19.3021 28.6051 19.5234 28.6051 19.7334C28.6051 24.3408 24.829 28.1059 20.1778 28.1059ZM24.7733 21.7497C24.5193 21.6273 23.3233 21.0296 23.1012 20.9411C22.8572 20.8749 22.7025 20.8191 22.5365 21.074C22.381 21.3175 21.9049 21.86 21.7619 22.0151C21.6173 22.1924 21.4731 22.2037 21.2413 22.0922C20.9759 21.9707 20.1887 21.7162 19.259 20.8749C18.517 20.221 18.0186 19.435 17.8857 19.2023C17.7528 18.9365 17.8631 18.8259 17.9851 18.6821C18.1071 18.5823 18.2395 18.4159 18.3619 18.2608C18.395 18.2281 18.4281 18.1946 18.4504 18.1502C18.517 18.0504 18.5497 17.9728 18.6051 17.8622C18.6935 17.6962 18.6604 17.5524 18.5832 17.4413C18.5388 17.3193 18.0408 16.1016 17.8296 15.625C17.6309 15.1274 17.42 15.2154 17.288 15.2154C17.1321 15.2154 16.9774 15.1936 16.8114 15.1936C16.6336 15.1936 16.3796 15.2489 16.1583 15.5034C15.9139 15.7469 15.283 16.3233 15.283 17.5411C15.283 17.8177 15.3384 18.1057 15.4268 18.361C15.6595 19.2358 16.2132 19.9334 16.2911 20.0554C16.4131 20.221 17.9851 22.7571 20.4876 23.7317C23.0014 24.7063 23.0014 24.3739 23.4445 24.3408C23.8876 24.3072 24.8953 23.7648 25.1057 23.1779C25.3048 22.6133 25.3048 22.1262 25.2386 22.0151C25.1833 21.9379 25.0169 21.86 24.7733 21.7497ZM30.1996 19.4903C30.0558 14.1083 25.6259 9.80029 20.1778 9.80029C14.7963 9.80029 10.3992 13.9972 10.1778 19.3021C10.1556 19.435 10.1556 19.5901 10.1556 19.7334C10.1556 21.6055 10.6871 23.3661 11.5955 24.8723L9.77917 30.2103L15.3384 28.4492C16.7778 29.2356 18.4281 29.6787 20.1778 29.6787C25.7152 29.6787 30.2105 25.2378 30.2105 19.7334C30.2105 19.6454 30.1996 19.5788 30.1996 19.4903Z" fill="white" fill-opacity="0.7"/>
</svg>
