<svg width="477" height="537" viewBox="0 0 477 537" fill="none" xmlns="http://www.w3.org/2000/svg">
<path fill-rule="evenodd" clip-rule="evenodd" d="M215.502 536.746C130.532 536.746 61.6523 525.875 61.6523 512.465C61.6523 499.056 130.532 488.185 215.502 488.185C300.47 488.185 369.35 499.056 369.35 512.465C369.35 525.875 300.47 536.746 215.502 536.746Z" fill="#D5CBC1"/>
<path fill-rule="evenodd" clip-rule="evenodd" d="M351.461 470.66C323.275 470.66 300.427 465.674 300.427 459.522C300.427 453.37 323.275 448.385 351.461 448.385C379.645 448.385 402.494 453.37 402.494 459.522C402.494 465.674 379.645 470.66 351.461 470.66Z" fill="#D5CBC1"/>
<path fill-rule="evenodd" clip-rule="evenodd" d="M363.488 321.159C368.152 312.741 375.18 306.498 382.228 300.125C390.094 293.013 396.886 285.468 399.459 274.892C402.29 263.255 400.633 250.982 399.019 239.293C398.761 237.428 401.697 237.435 401.953 239.282C403.339 249.308 404.627 259.512 403.373 269.622C402.211 278.987 398.55 287.333 392.269 294.386C385.851 301.594 377.818 307.171 371.573 314.545C365.42 321.813 361.531 330.849 359.959 340.206C358.159 350.918 359.574 362.123 364.189 371.965C364.987 373.664 362.463 375.168 361.661 373.456C353.919 356.946 354.648 337.12 363.488 321.159Z" fill="#16394B"/>
<path fill-rule="evenodd" clip-rule="evenodd" d="M340.41 326.112C341.147 319.069 343.358 312.375 347.322 306.487C351.182 300.754 356.237 295.784 359.283 289.521C367.146 273.351 354.08 257.12 348.175 242.696C345.251 235.555 343.389 227.662 345.303 220.005C346.921 213.534 351.092 208.216 355.334 203.237C360.749 196.884 366.068 190.781 368.3 182.53C370.563 174.167 369.832 165.168 366.193 157.305C365.405 155.602 367.928 154.099 368.721 155.814C374.608 168.535 373.555 183.69 365.547 195.276C361.568 201.033 356.391 205.848 352.455 211.632C347.612 218.749 346.416 226.518 348.592 234.841C352.652 250.367 365.517 263.693 364.596 280.491C363.769 295.593 349.329 304.095 345.039 317.862C339.275 336.353 347.075 355.274 354.169 372.183C354.899 373.924 352.063 374.696 351.342 372.976C345.132 358.173 338.698 342.516 340.41 326.112Z" fill="#16394B"/>
<path fill-rule="evenodd" clip-rule="evenodd" d="M335.762 290.226C340.298 284.069 345.822 279.101 351.983 274.618C358.621 269.79 365.784 265.075 369.633 257.554C373.795 249.421 371.7 241.232 364.842 235.44C358.234 229.857 349.571 227.663 342.434 222.917C336.529 218.99 330.824 212.655 331.148 205.09C331.423 198.689 336.014 192.688 342.621 192.235C344.507 192.106 344.511 195.042 342.634 195.17C334.45 195.732 332.562 205.84 335.76 211.875C339.424 218.787 346.812 222.319 353.557 225.515C359.897 228.52 366.397 231.7 370.787 237.386C374.785 242.567 375.866 249.039 373.774 255.25C368.91 269.703 353.326 275.379 343.434 285.639C333.228 296.224 326.88 310.568 326.139 325.273C325.386 340.218 330.32 355.081 339.522 366.769C339.919 356.499 343.542 346.522 349.81 338.342C357.583 328.196 368.487 322.917 380.358 318.947C392.499 314.884 406.701 311.237 414.536 300.206C418.187 295.068 420.293 288.514 418.763 282.246C417.147 275.62 411.733 270.704 406.47 266.787C396.511 259.375 382.522 250.652 385.714 236.047C386.117 234.202 388.95 234.97 388.547 236.816C385.362 251.392 402.124 259.246 411.236 266.812C415.428 270.294 419.208 274.508 421.064 279.714C422.976 285.088 422.321 290.996 420.133 296.175C409.679 320.916 376.553 317.631 358.526 333.301C348.261 342.225 342.295 355.493 342.418 369.081C342.422 369.42 342.327 369.696 342.174 369.915C342.61 370.401 343.053 370.882 343.507 371.354C344.814 372.716 342.751 374.805 341.44 373.438C319.822 350.921 317.193 315.441 335.762 290.226Z" fill="#16394B"/>
<path fill-rule="evenodd" clip-rule="evenodd" d="M386.733 228.128C398.616 242.545 400.478 255.005 394.519 260.535L351.003 207.745C355.572 208.98 375.979 215.083 386.733 228.128Z" fill="#64A6B0"/>
<path fill-rule="evenodd" clip-rule="evenodd" d="M350.076 207.504C350.076 207.504 350.406 207.583 351.003 207.745L394.519 260.535C394.382 260.662 394.246 260.79 394.101 260.91C387.638 266.239 375.486 262.173 363.329 247.425C351.172 232.678 350.076 207.504 350.076 207.504Z" fill="#1A8498"/>
<path fill-rule="evenodd" clip-rule="evenodd" d="M384.387 248.921C381.473 245.358 378.546 241.805 375.623 238.247C369.777 231.133 364.007 223.958 358.279 216.747L358.451 216.606C362.494 221.333 366.507 226.086 370.503 230.855C371.064 227.808 371.815 224.534 373.059 221.483C373.123 221.326 373.398 221.307 373.379 221.462C373.006 224.588 371.944 228.046 370.828 231.246C372.637 233.406 374.451 235.561 376.246 237.732C379.18 241.281 382.111 244.832 385.052 248.373C387.977 251.893 391.263 255.242 393.777 259.08C393.955 259.353 393.467 259.757 393.232 259.528C389.945 256.329 387.285 252.464 384.387 248.921Z" fill="#16394B"/>
<path fill-rule="evenodd" clip-rule="evenodd" d="M380.964 244.272C381.898 239.124 383.299 233.761 385.163 228.553C385.21 228.422 385.395 228.409 385.373 228.54C384.496 233.68 383.055 239.047 381.245 244.254C381.183 244.428 380.934 244.446 380.964 244.272Z" fill="#16394B"/>
<path fill-rule="evenodd" clip-rule="evenodd" d="M363.212 238.471C365.399 238.205 367.568 238.024 369.742 237.821C371.7 237.636 373.701 237.373 375.529 237.591C375.675 237.608 375.611 237.847 375.451 237.885C373.438 238.361 371.508 238.361 369.577 238.439C367.435 238.525 365.285 238.635 363.163 238.657C363.04 238.658 363.086 238.487 363.212 238.471Z" fill="#16394B"/>
<path fill-rule="evenodd" clip-rule="evenodd" d="M374.582 251.779C378.335 251.397 382.199 250.822 385.814 250.934C386.033 250.94 385.955 251.235 385.724 251.271C381.918 251.882 378.225 251.814 374.54 251.932L374.582 251.779Z" fill="#16394B"/>
<path fill-rule="evenodd" clip-rule="evenodd" d="M389.402 255.564C390.083 251.372 391.399 246.904 392.882 242.655C392.932 242.513 393.135 242.499 393.109 242.64C392.355 246.841 391.309 251.29 389.752 255.54C389.672 255.761 389.368 255.781 389.402 255.564Z" fill="#16394B"/>
<path fill-rule="evenodd" clip-rule="evenodd" d="M346.869 182.105C346.95 194.489 342.695 201.674 337.318 202.025L337.023 156.678C338.857 159.225 346.796 170.9 346.869 182.105Z" fill="#64A6B0"/>
<path fill-rule="evenodd" clip-rule="evenodd" d="M336.648 156.166C336.648 156.166 336.783 156.346 337.023 156.678L337.318 202.025C337.194 202.032 337.071 202.041 336.946 202.042C331.394 202.079 326.847 194.905 326.765 182.235C326.682 169.568 336.648 156.166 336.648 156.166Z" fill="#1A8498"/>
<path fill-rule="evenodd" clip-rule="evenodd" d="M336.966 191.815C336.958 188.763 336.939 185.712 336.924 182.66C336.895 176.557 336.928 170.453 337 164.349H337.147C337.248 168.472 337.324 172.594 337.383 176.717C338.947 175.385 340.702 174.017 342.618 172.968L342.791 173.092C341.292 174.543 339.299 175.876 337.388 177.054C337.413 178.922 337.445 180.79 337.46 182.656C337.486 185.708 337.506 188.759 337.538 191.811C337.569 194.845 337.859 197.941 337.545 200.966C337.522 201.181 337.103 201.185 337.078 200.969C336.726 197.949 336.974 194.848 336.966 191.815Z" fill="#16394B"/>
<path fill-rule="evenodd" clip-rule="evenodd" d="M337.152 187.993C339.784 185.736 342.748 183.565 345.885 181.668L345.999 181.747C343.397 184.024 340.412 186.18 337.304 188.1L337.152 187.993Z" fill="#16394B"/>
<path fill-rule="evenodd" clip-rule="evenodd" d="M330.449 177.584C331.686 178.362 332.877 179.176 334.08 179.98C335.163 180.704 336.302 181.406 337.152 182.283L336.988 182.402C335.754 181.805 334.761 180.998 333.736 180.229C332.598 179.378 331.447 178.535 330.347 177.658L330.449 177.584Z" fill="#16394B"/>
<path fill-rule="evenodd" clip-rule="evenodd" d="M330.73 189.182C332.819 190.556 335.047 191.877 336.86 193.446C336.969 193.541 336.806 193.66 336.672 193.582C334.459 192.304 332.589 190.724 330.646 189.243L330.73 189.182Z" fill="#16394B"/>
<path fill-rule="evenodd" clip-rule="evenodd" d="M336.767 197.328C338.87 195.456 341.414 193.711 343.955 192.146L344.078 192.234C341.933 194.078 339.535 195.927 336.956 197.462C336.823 197.542 336.658 197.424 336.767 197.328Z" fill="#16394B"/>
<path fill-rule="evenodd" clip-rule="evenodd" d="M390.935 295.831C393.65 309.768 390.379 318.766 384.396 320.301L374.451 269.269C377.056 271.749 388.477 283.221 390.935 295.831Z" fill="#64A6B0"/>
<path fill-rule="evenodd" clip-rule="evenodd" d="M373.92 268.772C373.92 268.772 374.111 268.944 374.451 269.269L384.396 320.301C384.258 320.336 384.121 320.373 383.98 320.4C377.733 321.617 371.088 314.498 368.31 300.241C365.532 285.985 373.92 268.772 373.92 268.772Z" fill="#1A8498"/>
<path fill-rule="evenodd" clip-rule="evenodd" d="M381.835 308.872C381.179 305.435 380.511 302.001 379.847 298.565C378.52 291.694 377.264 284.81 376.051 277.918L376.216 277.885C377.205 282.509 378.163 287.139 379.105 291.773C380.585 289.94 382.273 288.025 384.207 286.438L384.43 286.54C383.048 288.493 381.085 290.417 379.181 292.15C379.606 294.25 380.037 296.346 380.45 298.448C381.125 301.881 381.796 305.315 382.478 308.746C383.157 312.158 384.138 315.585 384.426 319.06C384.447 319.308 383.975 319.4 383.9 319.162C382.863 315.834 382.487 312.287 381.835 308.872Z" fill="#16394B"/>
<path fill-rule="evenodd" clip-rule="evenodd" d="M381.233 304.526C383.722 301.425 386.601 298.35 389.733 295.547L389.878 295.613C387.429 298.73 384.522 301.792 381.428 304.614L381.233 304.526Z" fill="#16394B"/>
<path fill-rule="evenodd" clip-rule="evenodd" d="M371.475 294.218C373.033 294.832 374.548 295.497 376.073 296.148C377.448 296.735 378.88 297.284 380.023 298.093C380.114 298.157 379.984 298.294 379.864 298.261C378.347 297.85 377.057 297.151 375.739 296.503C374.277 295.784 372.801 295.078 371.375 294.324L371.475 294.218Z" fill="#16394B"/>
<path fill-rule="evenodd" clip-rule="evenodd" d="M374.249 307.227C376.895 308.333 379.685 309.348 382.06 310.733C382.203 310.816 382.044 310.985 381.876 310.926C379.113 309.955 376.671 308.571 374.166 307.315L374.249 307.227Z" fill="#16394B"/>
<path fill-rule="evenodd" clip-rule="evenodd" d="M382.778 315.127C384.752 312.572 387.249 310.065 389.779 307.764L389.936 307.836C387.911 310.368 385.6 312.961 383.02 315.237C382.888 315.354 382.676 315.259 382.778 315.127Z" fill="#16394B"/>
<path fill-rule="evenodd" clip-rule="evenodd" d="M349.055 272.411C358.818 284.254 360.348 294.492 355.452 299.036L319.7 255.665C323.455 256.68 340.221 261.694 349.055 272.411Z" fill="#64A6B0"/>
<path fill-rule="evenodd" clip-rule="evenodd" d="M318.939 255.467C318.939 255.467 319.21 255.533 319.7 255.665L355.452 299.036C355.339 299.141 355.228 299.245 355.108 299.344C349.799 303.722 339.815 300.382 329.827 288.266C319.84 276.149 318.939 255.467 318.939 255.467Z" fill="#1A8498"/>
<path fill-rule="evenodd" clip-rule="evenodd" d="M347.127 289.495C344.732 286.566 342.327 283.648 339.927 280.724C335.124 274.88 330.383 268.985 325.678 263.061L325.818 262.945C329.14 266.828 332.438 270.734 335.719 274.652C336.182 272.148 336.798 269.458 337.819 266.952C337.872 266.822 338.099 266.808 338.083 266.935C337.776 269.502 336.904 272.343 335.987 274.973C337.473 276.748 338.964 278.519 340.439 280.302C342.85 283.217 345.257 286.135 347.674 289.044C350.077 291.935 352.776 294.688 354.841 297.841C354.989 298.065 354.588 298.396 354.394 298.209C351.693 295.58 349.507 292.405 347.127 289.495Z" fill="#16394B"/>
<path fill-rule="evenodd" clip-rule="evenodd" d="M344.317 285.675C345.082 281.446 346.234 277.039 347.766 272.761L347.938 272.749C347.217 276.973 346.033 281.382 344.547 285.659C344.496 285.803 344.291 285.817 344.317 285.675Z" fill="#16394B"/>
<path fill-rule="evenodd" clip-rule="evenodd" d="M329.73 280.909C331.527 280.69 333.309 280.542 335.094 280.373C336.704 280.223 338.348 280.006 339.85 280.185C339.969 280.199 339.917 280.396 339.786 280.427C338.132 280.818 336.546 280.818 334.96 280.882C333.2 280.953 331.434 281.043 329.689 281.062L329.73 280.909Z" fill="#16394B"/>
<path fill-rule="evenodd" clip-rule="evenodd" d="M339.071 291.842C342.156 291.529 345.331 291.056 348.3 291.147C348.48 291.152 348.417 291.395 348.227 291.425C345.1 291.927 342.065 291.87 339.038 291.968L339.071 291.842Z" fill="#16394B"/>
<path fill-rule="evenodd" clip-rule="evenodd" d="M351.247 294.952C351.806 291.507 352.888 287.837 354.106 284.346C354.147 284.229 354.314 284.218 354.293 284.334C353.673 287.785 352.813 291.44 351.535 294.933C351.469 295.113 351.218 295.13 351.247 294.952Z" fill="#16394B"/>
<path fill-rule="evenodd" clip-rule="evenodd" d="M447.17 293.319C432.122 296.338 422.376 292.855 420.68 286.395L475.785 275.337C473.118 278.169 460.787 290.586 447.17 293.319Z" fill="#64A6B0"/>
<path fill-rule="evenodd" clip-rule="evenodd" d="M476.318 274.76C476.318 274.76 476.132 274.968 475.785 275.337L420.679 286.395C420.64 286.246 420.601 286.098 420.57 285.946C419.216 279.198 426.873 271.971 442.268 268.882C457.661 265.793 476.318 274.76 476.318 274.76Z" fill="#1A8498"/>
<path fill-rule="evenodd" clip-rule="evenodd" d="M433.02 283.557C436.732 282.827 440.44 282.084 444.148 281.347C451.568 279.87 459.003 278.472 466.445 277.119L466.48 277.297C461.489 278.394 456.49 279.458 451.488 280.503C453.477 282.092 455.557 283.906 457.284 285.989L457.175 286.23C455.056 284.747 452.964 282.637 451.078 280.588C448.813 281.061 446.548 281.539 444.279 281.998C440.572 282.748 436.865 283.494 433.159 284.252C429.476 285.006 425.777 286.088 422.022 286.421C421.755 286.444 421.652 285.934 421.908 285.853C425.5 284.712 429.332 284.283 433.02 283.557Z" fill="#16394B"/>
<path fill-rule="evenodd" clip-rule="evenodd" d="M437.713 282.881C441.08 285.552 444.422 288.647 447.47 292.017L447.399 292.174C444.016 289.545 440.688 286.421 437.619 283.091C437.515 282.979 437.601 282.792 437.713 282.881Z" fill="#16394B"/>
<path fill-rule="evenodd" clip-rule="evenodd" d="M448.798 272.269C448.142 273.957 447.433 275.598 446.738 277.252C446.112 278.741 445.526 280.294 444.66 281.534C444.592 281.633 444.442 281.494 444.477 281.363C444.913 279.72 445.661 278.322 446.353 276.893C447.121 275.308 447.876 273.708 448.682 272.16L448.798 272.269Z" fill="#16394B"/>
<path fill-rule="evenodd" clip-rule="evenodd" d="M434.753 275.346C433.574 278.213 432.493 281.236 431.01 283.812C430.921 283.967 430.737 283.797 430.8 283.615C431.833 280.621 433.314 277.972 434.657 275.256L434.753 275.346Z" fill="#16394B"/>
<path fill-rule="evenodd" clip-rule="evenodd" d="M426.264 284.615C429.037 286.733 431.762 289.419 434.264 292.141L434.187 292.311C431.438 290.136 428.621 287.653 426.146 284.877C426.018 284.734 426.121 284.505 426.264 284.615Z" fill="#16394B"/>
<path fill-rule="evenodd" clip-rule="evenodd" d="M322.235 368.829L377.019 368.61L377.055 377.374L322.27 377.592L322.235 368.829Z" fill="#EFEBE5"/>
<path fill-rule="evenodd" clip-rule="evenodd" d="M322.27 377.592L377.055 377.375L377.07 381.17L322.285 381.388L322.27 377.592Z" fill="#64A7AE"/>
<path fill-rule="evenodd" clip-rule="evenodd" d="M322.46 425.482L322.285 381.388L377.069 381.17L377.159 403.654L353.946 425.356L322.46 425.482Z" fill="#EFEBE5"/>
<path fill-rule="evenodd" clip-rule="evenodd" d="M353.946 425.356L377.159 403.654L377.246 425.263L353.946 425.356Z" fill="#AAB7B9"/>
<path fill-rule="evenodd" clip-rule="evenodd" d="M377.245 425.263L377.26 429.06L351.376 429.163L355.454 425.35L377.245 425.263Z" fill="#1A8498"/>
<path fill-rule="evenodd" clip-rule="evenodd" d="M322.46 425.482L355.454 425.35L351.376 429.163L322.476 429.278L322.46 425.482Z" fill="#64A7AE"/>
<path fill-rule="evenodd" clip-rule="evenodd" d="M322.523 441.088L322.477 429.278L349.869 429.169L325.604 451.852C323.659 448.673 322.539 445.003 322.523 441.088Z" fill="#EFEBE5"/>
<path fill-rule="evenodd" clip-rule="evenodd" d="M349.868 429.169L377.26 429.06L377.307 440.87C377.356 453.038 366.759 462.943 353.64 462.996L346.365 463.025C337.467 463.06 329.7 458.552 325.604 451.852L349.868 429.169Z" fill="#AAB7B9"/>
<path fill-rule="evenodd" clip-rule="evenodd" d="M403.071 184.65C384.79 188.492 372.888 184.362 370.754 176.517L437.7 162.448C434.486 165.925 419.615 181.174 403.071 184.65Z" fill="#64A6B0"/>
<path fill-rule="evenodd" clip-rule="evenodd" d="M438.344 161.739C438.344 161.739 438.12 161.995 437.7 162.448L370.754 176.517C370.705 176.336 370.655 176.156 370.616 175.971C368.894 167.773 378.132 158.893 396.835 154.962C415.537 151.033 438.344 161.739 438.344 161.739Z" fill="#1A8498"/>
<path fill-rule="evenodd" clip-rule="evenodd" d="M385.741 172.927C390.249 171.997 394.755 171.053 399.261 170.113C408.275 168.234 417.307 166.45 426.352 164.72L426.397 164.938C420.333 166.327 414.262 167.678 408.184 169.005C410.623 170.917 413.174 173.102 415.3 175.617C415.409 175.748 415.298 176 415.169 175.911C412.574 174.132 410.004 171.586 407.686 169.113C404.934 169.713 402.184 170.321 399.427 170.905C394.924 171.859 390.419 172.807 385.918 173.771C381.443 174.73 376.953 176.088 372.386 176.534C372.061 176.566 371.931 175.946 372.242 175.844C376.601 174.414 381.259 173.85 385.741 172.927Z" fill="#16394B"/>
<path fill-rule="evenodd" clip-rule="evenodd" d="M391.446 172.052C395.573 175.267 399.674 178.996 403.421 183.062L403.337 183.256C399.19 180.094 395.104 176.327 391.333 172.309C391.205 172.173 391.307 171.943 391.446 172.052Z" fill="#16394B"/>
<path fill-rule="evenodd" clip-rule="evenodd" d="M404.82 159.012C404.042 161.075 403.196 163.08 402.368 165.1C401.623 166.921 400.927 168.815 399.887 170.335C399.804 170.456 399.621 170.288 399.662 170.129C400.175 168.126 401.069 166.414 401.896 164.667C402.813 162.73 403.713 160.774 404.678 158.883C404.733 158.774 404.865 158.894 404.82 159.012Z" fill="#16394B"/>
<path fill-rule="evenodd" clip-rule="evenodd" d="M387.758 162.913C386.355 166.415 385.072 170.107 383.297 173.258C383.189 173.449 382.964 173.243 383.038 173.022C384.263 169.366 386.037 166.126 387.641 162.807L387.758 162.913Z" fill="#16394B"/>
<path fill-rule="evenodd" clip-rule="evenodd" d="M377.53 174.289C380.928 176.836 384.274 180.074 387.35 183.36C387.453 183.47 387.371 183.656 387.259 183.569C383.888 180.951 380.433 177.96 377.388 174.61C377.232 174.436 377.354 174.157 377.53 174.289Z" fill="#16394B"/>
<path fill-rule="evenodd" clip-rule="evenodd" d="M428.154 226.168C417.713 241.66 406.298 246.987 399.302 242.847L437.538 186.113C437.653 190.847 437.602 212.148 428.154 226.168Z" fill="#64A6B0"/>
<path fill-rule="evenodd" clip-rule="evenodd" d="M437.506 185.157C437.506 185.157 437.523 185.495 437.538 186.113L399.302 242.847C399.14 242.751 398.979 242.656 398.823 242.551C391.878 237.869 392.322 225.061 403.003 209.212C413.685 193.363 437.506 185.157 437.506 185.157Z" fill="#1A8498"/>
<path fill-rule="evenodd" clip-rule="evenodd" d="M407.554 229.829C410.141 226.021 412.717 222.205 415.295 218.392C420.454 210.764 425.691 203.191 430.976 195.65L431.16 195.773C427.778 200.995 424.362 206.194 420.926 211.38C424.007 211.053 427.359 210.842 430.636 211.167C430.806 211.183 430.901 211.443 430.749 211.47C427.646 211.999 424.029 211.964 420.645 211.804C419.088 214.152 417.537 216.504 415.965 218.843C413.399 222.665 410.827 226.484 408.268 230.311C405.726 234.117 403.45 238.219 400.485 241.72C400.273 241.97 399.748 241.616 399.9 241.326C402.032 237.264 404.982 233.614 407.554 229.829Z" fill="#16394B"/>
<path fill-rule="evenodd" clip-rule="evenodd" d="M411.039 225.227C416.239 224.659 421.779 224.477 427.3 224.784C427.439 224.792 427.504 224.966 427.373 224.981C422.196 225.602 416.642 225.745 411.137 225.489C410.951 225.481 410.864 225.246 411.039 225.227Z" fill="#16394B"/>
<path fill-rule="evenodd" clip-rule="evenodd" d="M411.553 206.555C412.43 208.577 413.22 210.605 414.034 212.63C414.768 214.455 415.588 216.3 415.9 218.115C415.925 218.26 415.676 218.267 415.594 218.124C414.567 216.329 414.017 214.479 413.394 212.649C412.702 210.619 411.986 208.589 411.36 206.559C411.325 206.443 411.503 206.438 411.553 206.555Z" fill="#16394B"/>
<path fill-rule="evenodd" clip-rule="evenodd" d="M402.027 221.24C403.459 224.73 405.11 228.272 406.031 231.769C406.088 231.982 405.782 231.991 405.681 231.78C404.014 228.304 403.03 224.743 401.869 221.243L402.027 221.24Z" fill="#16394B"/>
<path fill-rule="evenodd" clip-rule="evenodd" d="M402.613 236.526C406.825 235.987 411.481 235.978 415.976 236.194C416.128 236.201 416.199 236.392 416.056 236.408C411.815 236.877 407.252 237.139 402.735 236.855C402.501 236.841 402.395 236.554 402.613 236.526Z" fill="#16394B"/>
<path fill-rule="evenodd" clip-rule="evenodd" d="M370 122.926C376.297 140.516 373.827 152.87 366.348 156.055L343.289 91.6415C347.17 94.3522 364.302 107.009 370 122.926Z" fill="#64A6B0"/>
<path fill-rule="evenodd" clip-rule="evenodd" d="M342.498 91.1008C342.498 91.1008 342.781 91.2868 343.289 91.6415L366.348 156.055C366.175 156.128 366.004 156.203 365.827 156.266C357.94 159.089 347.885 151.146 341.443 133.152C335.001 115.157 342.498 91.1008 342.498 91.1008Z" fill="#1A8498"/>
<path fill-rule="evenodd" clip-rule="evenodd" d="M360.749 141.695C359.214 137.354 357.664 133.019 356.12 128.682C353.03 120.007 350.031 111.301 347.086 102.576L347.294 102.501C349.498 108.319 351.663 114.152 353.806 119.993C355.367 117.315 357.184 114.489 359.385 112.04C359.5 111.914 359.766 111.99 359.696 112.13C358.286 114.944 356.115 117.837 353.98 120.47C354.95 123.115 355.928 125.758 356.88 128.41C358.44 132.741 359.993 137.075 361.561 141.404C363.12 145.706 365.079 149.97 366.143 154.434C366.219 154.752 365.623 154.966 365.479 154.671C363.469 150.548 362.275 146.009 360.749 141.695Z" fill="#16394B"/>
<path fill-rule="evenodd" clip-rule="evenodd" d="M359.105 136.161C361.727 131.634 364.862 127.062 368.379 122.795C368.469 122.686 368.647 122.737 368.581 122.852C366.015 127.392 362.841 131.952 359.375 136.237C359.258 136.383 359.017 136.313 359.105 136.161Z" fill="#16394B"/>
<path fill-rule="evenodd" clip-rule="evenodd" d="M344.366 124.687C346.514 125.178 348.617 125.743 350.73 126.287C352.636 126.778 354.607 127.208 356.254 128.032C356.384 128.098 356.244 128.302 356.081 128.284C354.025 128.049 352.209 127.396 350.366 126.814C348.322 126.169 346.262 125.544 344.256 124.846C344.141 124.806 344.243 124.659 344.366 124.687Z" fill="#16394B"/>
<path fill-rule="evenodd" clip-rule="evenodd" d="M350.555 141.061C354.216 141.974 358.047 142.741 361.41 144.071C361.614 144.151 361.441 144.402 361.211 144.359C357.423 143.642 353.971 142.327 350.465 141.191L350.555 141.061Z" fill="#16394B"/>
<path fill-rule="evenodd" clip-rule="evenodd" d="M363.217 149.644C365.278 145.929 368.029 142.172 370.865 138.677C370.959 138.56 371.154 138.616 371.083 138.74C368.95 142.436 366.459 146.268 363.554 149.74C363.404 149.919 363.111 149.836 363.217 149.644Z" fill="#16394B"/>
<path fill-rule="evenodd" clip-rule="evenodd" d="M113.288 134.648L124.803 161.271C127.164 156.034 129.422 150.792 131.249 145.414L113.288 134.648Z" fill="#781D3B"/>
<path fill-rule="evenodd" clip-rule="evenodd" d="M131.249 145.414C129.422 150.792 127.164 156.034 124.804 161.27L129.763 172.738L166.571 186.589L172.021 169.856L131.249 145.414Z" fill="#EFA48B"/>
<path fill-rule="evenodd" clip-rule="evenodd" d="M22.9865 158.269C39.4026 164.398 44.5224 184.012 44.7622 199.802C45.0606 219.446 41.2091 239.304 38.2921 258.661C33.3032 291.769 28.291 337.581 63.0166 356.588C71.6332 361.304 81.1854 363.638 90.8318 365.119C96.1069 365.929 101.414 366.232 106.72 366.756C112.584 367.334 118.388 368.413 124.234 369.002C128.207 369.402 128.169 374.705 124.234 375.154C119.197 375.732 114.311 376.836 109.221 377.101C104.22 377.361 99.2515 377.238 94.2577 376.853C84.8925 376.134 75.5972 374.387 66.8265 370.965C50.6831 364.666 37.4812 353.611 30.5525 337.49C14.7833 300.796 28.2262 259.442 32.6843 221.884C33.9428 211.281 35.2564 200.04 33.3435 189.438C31.5321 179.411 26.4845 171.909 18.8476 165.378C15.6872 162.676 19.0458 156.797 22.9865 158.269Z" fill="#1B1A19"/>
<path fill-rule="evenodd" clip-rule="evenodd" d="M81.0997 509.567C81.5461 506.454 86.2782 503.633 93.7696 501.512C102.292 499.1 114.376 497.59 127.787 497.59C150.343 497.59 169.165 501.852 173.552 507.519C174.184 508.336 174.52 509.183 174.52 510.05C174.52 510.646 174.352 511.232 174.049 511.804C173.956 511.98 173.847 512.154 173.727 512.327L173.688 512.385C173.572 512.548 173.441 512.711 173.301 512.872L173.229 512.954C173.089 513.112 172.937 513.267 172.774 513.421L172.679 513.511C172.514 513.664 172.338 513.815 172.15 513.966L172.042 514.053C171.848 514.204 171.647 514.355 171.432 514.504L171.331 514.573C171.105 514.728 170.87 514.882 170.622 515.034L170.574 515.061C169.208 515.89 167.514 516.67 165.534 517.393L165.459 517.421C165.125 517.543 164.78 517.661 164.432 517.779L164.147 517.875C163.826 517.98 163.495 518.084 163.161 518.187C163.027 518.229 162.895 518.27 162.76 518.311C162.44 518.407 162.115 518.5 161.786 518.593C161.625 518.64 161.462 518.685 161.297 518.732C160.978 518.818 160.652 518.905 160.324 518.99C160.139 519.037 159.951 519.085 159.764 519.133C159.44 519.214 159.114 519.294 158.782 519.373C158.578 519.42 158.371 519.468 158.165 519.514C157.834 519.59 157.504 519.665 157.167 519.737C156.949 519.785 156.725 519.83 156.502 519.876C156.166 519.947 155.83 520.017 155.485 520.084C155.251 520.131 155.011 520.175 154.774 520.219C154.432 520.285 154.09 520.35 153.741 520.412C153.49 520.458 153.232 520.499 152.979 520.543C152.372 520.646 151.756 520.746 151.131 520.843C150.804 520.893 150.48 520.946 150.149 520.993C149.843 521.037 149.53 521.079 149.22 521.122C148.885 521.168 148.554 521.215 148.214 521.259C147.907 521.299 147.593 521.336 147.283 521.374C146.931 521.417 146.581 521.461 146.224 521.501C145.914 521.536 145.601 521.569 145.288 521.604C144.922 521.643 144.557 521.682 144.187 521.72C143.873 521.751 143.555 521.78 143.237 521.81C142.86 521.846 142.483 521.88 142.103 521.912C141.784 521.94 141.463 521.966 141.142 521.991C140.754 522.022 140.365 522.051 139.972 522.08C139.651 522.103 139.328 522.126 139.003 522.147C138.601 522.174 138.198 522.197 137.792 522.221C137.473 522.24 137.155 522.258 136.833 522.275C136.41 522.297 135.984 522.317 135.557 522.336C135.245 522.35 134.933 522.365 134.619 522.377C134.171 522.394 133.719 522.407 133.268 522.422C132.969 522.432 132.672 522.443 132.371 522.45C131.872 522.462 131.368 522.472 130.864 522.481C130.606 522.484 130.351 522.492 130.091 522.495C129.328 522.505 128.56 522.51 127.787 522.51C101.979 522.51 81.0557 516.932 81.0557 510.05C81.0557 509.889 81.0752 509.727 81.0997 509.567Z" fill="#4F572B"/>
<path fill-rule="evenodd" clip-rule="evenodd" d="M123.088 352.776V498.892C123.088 500.531 124.416 501.859 126.055 501.859H128.342C129.982 501.859 131.311 500.531 131.311 498.892V352.776H123.088Z" fill="#A3A5A4"/>
<path fill-rule="evenodd" clip-rule="evenodd" d="M89.8948 344.317C80.5994 344.317 73.1178 339.183 67.6201 331.92C80.7841 327.128 99.447 324.131 120.164 324.131C155.004 324.131 184.077 332.594 190.852 343.853C158.095 354.512 123.21 344.317 89.8948 344.317Z" fill="#4F572B"/>
<path fill-rule="evenodd" clip-rule="evenodd" d="M67.6194 331.92C73.1171 339.183 80.5987 344.317 89.8941 344.317C123.209 344.317 158.094 354.512 190.852 343.853C191.829 345.477 192.345 347.158 192.345 348.882C192.345 362.551 160.029 373.633 120.163 373.633C80.2978 373.633 47.9805 362.551 47.9805 348.882C47.9805 342.315 55.451 336.351 67.6194 331.92Z" fill="#526D34"/>
<path fill-rule="evenodd" clip-rule="evenodd" d="M176.512 356.692C181.572 355.849 186.829 354.591 191.62 352.367C186.677 364.386 156.577 373.633 120.163 373.633C80.2978 373.633 47.9805 362.551 47.9805 348.882C47.9805 348.531 48.0159 348.182 48.0575 347.835C49.6108 348.822 51.191 349.713 52.7713 350.504C91.6614 370.835 134.971 363.764 176.512 356.692Z" fill="#4F572B"/>
<path fill-rule="evenodd" clip-rule="evenodd" d="M22.6423 158.664C20.409 152.566 22.7059 146.159 27.1762 140.432C34.1612 147.666 41.0337 159.034 46.0104 172.623C54.3787 195.477 54.6123 217.021 47.2616 224.754C30.8932 206.38 30.6449 180.518 22.6423 158.664Z" fill="#4F572B"/>
<path fill-rule="evenodd" clip-rule="evenodd" d="M27.1765 140.431C22.7061 146.159 20.4092 152.566 22.6425 158.664C30.6451 180.518 30.8934 206.38 47.2619 224.754C46.2015 225.869 44.9845 226.699 43.611 227.203C32.7097 231.195 16.1101 213.232 6.53462 187.082C-3.04208 160.932 -1.96699 136.495 8.93429 132.502C14.1703 130.586 20.7211 133.743 27.1765 140.431Z" fill="#526D34"/>
<path fill-rule="evenodd" clip-rule="evenodd" d="M33.5793 219.098C35.4665 222.17 37.7316 225.252 40.656 227.745C29.8856 228.013 15.2808 210.968 6.53462 187.082C-3.04208 160.932 -1.96699 136.495 8.93429 132.502C9.21438 132.401 9.50058 132.321 9.788 132.248C9.37338 133.554 9.0407 134.852 8.79119 136.12C1.91872 167.569 17.9606 193.914 33.5793 219.098Z" fill="#4F572B"/>
<path fill-rule="evenodd" clip-rule="evenodd" d="M201.745 250.049L198.238 249.532L185.292 487.666L188.8 488.185L201.745 250.049Z" fill="#334043"/>
<path fill-rule="evenodd" clip-rule="evenodd" d="M315.274 487.666L311.766 488.185L298.821 250.049L302.329 249.532L315.274 487.666Z" fill="#334043"/>
<path fill-rule="evenodd" clip-rule="evenodd" d="M260.125 331.04L217.607 394.777L172.109 452.391L166.91 446.239L166.98 446.087L211.768 344.795L231.95 329.73L209.325 308.992L221.823 294.621L243.286 301.248C250.319 302.999 255.946 308.268 258.166 315.164L259.67 319.826C260.828 323.454 260.994 327.33 260.125 331.04Z" fill="#EFA48B"/>
<path fill-rule="evenodd" clip-rule="evenodd" d="M169.302 442.567L160.558 444.218C159.17 444.481 157.889 445.145 156.875 446.13C154.609 448.331 154.038 451.75 155.467 454.567L160 463.501L157.575 486.018L171.459 500.314L179.135 503.726L172.308 489.371L174.436 448.866L169.302 442.567Z" fill="#EFA48B"/>
<path fill-rule="evenodd" clip-rule="evenodd" d="M255.988 332.419L252.237 347.054L218.09 480.597L210.85 477.094L214.394 367.439L227.812 331.109L228.737 328.613L197.293 333.303L207.237 294.696L219.124 297.648L239.149 302.626C246.182 304.378 251.809 309.648 254.029 316.544L255.532 321.206C256.692 324.833 256.857 328.709 255.988 332.419Z" fill="#F5C7B5"/>
<path fill-rule="evenodd" clip-rule="evenodd" d="M210.847 476.921L203.527 481.982C202.365 482.785 201.464 483.913 200.937 485.225C199.76 488.155 200.627 491.512 203.077 493.506L210.847 499.83L217.772 521.392L236.265 528.817H244.665L232.598 518.472L218.096 480.592L210.847 476.921Z" fill="#F5C7B5"/>
<path fill-rule="evenodd" clip-rule="evenodd" d="M172.51 485.528C164.211 474.269 164.631 456.849 164.673 443.44L160.558 444.218C159.17 444.481 157.889 445.145 156.875 446.13C154.609 448.331 154.038 451.75 155.467 454.567L160 463.501L157.575 486.019L171.459 500.314L179.135 503.726L172.308 489.371L172.51 485.528Z" fill="#781D3B"/>
<path fill-rule="evenodd" clip-rule="evenodd" d="M232.598 518.472L231.581 515.814C218.979 507.689 210.681 492.776 207.892 478.964L203.527 481.982C202.365 482.786 201.464 483.913 200.937 485.225C199.76 488.155 200.627 491.512 203.077 493.506L210.846 499.83L217.772 521.392L236.265 528.817H244.665L232.598 518.472Z" fill="#B02454"/>
<path fill-rule="evenodd" clip-rule="evenodd" d="M202.458 333.303C207.474 319.561 213.392 306.121 221.823 294.621C212.86 292.261 203.836 289.44 194.606 288.151C182.309 286.432 171.101 283.437 159.13 280.68C152.522 279.159 145.544 279.368 139.162 277.096L66.7598 287.441C68.6091 290.389 65.818 299.534 66.0345 303.956C66.377 310.972 68.8268 317.051 71.7781 323.325C81.2447 343.453 106.833 350.938 127.46 350.888C149.033 350.836 172.547 344.647 192.561 337.097C195.744 335.897 199.065 334.588 202.458 333.303Z" fill="#334043"/>
<path fill-rule="evenodd" clip-rule="evenodd" d="M104.672 125.624C114.002 135.6 162.685 182.658 132.451 191.434C131.586 191.685 130.92 192.303 131.412 193.056C138.609 204.061 128.959 220.756 131.766 232.632C135.332 247.723 139.261 262.951 145.645 276.628C133.826 290.758 110.081 293.647 92.6397 295.395C87.389 295.921 61.2934 296.867 62.9238 288.584C66.3986 270.925 76.9867 254.926 74.9136 236.019C72.7304 216.113 63.5182 195.69 57.7587 176.585C52.8407 160.272 46.3487 138.482 66.3643 130.282C73.7517 127.255 79.5589 127.52 86.9646 128.962C91.3444 129.816 104.672 125.624 104.672 125.624Z" fill="#B02454"/>
<path fill-rule="evenodd" clip-rule="evenodd" d="M139.835 74.7414C142.486 76.2814 145.46 78.8037 147.716 81.7407C149.983 84.6802 151.505 88.0147 151.496 91.1425C151.496 91.5205 151.474 91.896 151.43 92.2691C151.244 93.8654 150.461 95.4948 149.308 96.7877C148.158 98.0844 146.655 99.0263 145.115 99.3504C144.455 99.4911 144.033 100.141 144.172 100.801C144.313 101.462 144.963 101.884 145.623 101.743C147.771 101.284 149.682 100.045 151.135 98.4134C152.587 96.7779 153.599 94.7315 153.859 92.5566C153.915 92.0856 153.942 91.6134 153.942 91.1425C153.933 87.2257 152.121 83.463 149.654 80.2484C147.176 77.0337 144.017 74.3487 141.067 72.6264C140.482 72.2863 139.734 72.4845 139.394 73.068C139.054 73.6515 139.252 74.4013 139.835 74.7414Z" fill="#415358"/>
<path fill-rule="evenodd" clip-rule="evenodd" d="M137.785 21.927C140.695 26.7258 146.552 29.6517 148.79 35.5905C150.748 40.7868 149.864 46.1446 148.044 51.2027C145.98 56.9299 142.13 61.6503 141.559 67.901C141.147 72.4148 142.97 76.449 142.696 80.8673C142.343 86.5542 139.604 91.3615 136.087 95.7113C134.576 97.5792 132.994 98.4733 132.632 100.899C132.268 103.336 133.693 104.933 134.269 107.404C135.661 113.364 133.174 120.626 128.474 124.614C120.339 131.519 114.345 120.904 105.85 119.573C101.298 118.861 96.1656 119.852 91.6048 120.202C86.9253 120.561 84.9941 121.289 84.2516 116.093C83.6719 112.039 84.8436 108.684 85.8624 104.778C88.0004 96.5847 91.1657 88.537 93.9714 80.5346C99.863 63.7298 105.647 45.6516 117.346 31.8095C121.678 26.6842 126.814 22.3539 133.647 22.6169L137.785 21.927Z" fill="#1B1C1A"/>
<path fill-rule="evenodd" clip-rule="evenodd" d="M117.355 102.424C112.052 100.978 106.934 98.7216 104.972 97.0409C103.744 99.4617 103.357 106.938 103.044 112.915C101.479 104.534 100.609 95.8862 100.76 87.2465C104.61 93.9278 110.848 98.307 117.355 102.424Z" fill="#EFA48B"/>
<path fill-rule="evenodd" clip-rule="evenodd" d="M82.3981 110.495C82.2868 107.27 82.677 104.027 82.5693 100.8C81.8074 77.879 73.9674 48.64 84.8846 27.7875C90.0717 17.8781 100.531 10.6023 112.026 12.5607C117.196 13.4414 122.252 15.2408 126.651 17.872C135.431 23.1221 141.582 31.6945 140.724 42.9764C139.518 58.8344 132.707 102.796 129.085 103.6C127.997 103.841 126.695 103.895 125.288 103.824C122.862 103.701 120.085 103.168 117.355 102.424C110.848 98.307 104.61 93.9278 100.76 87.2465C100.608 95.8862 101.479 104.534 103.044 112.915C102.969 114.346 104.672 125.624 104.672 125.624C109.049 131.608 112.163 143.342 114.147 156.101C98.6296 135.989 89.7635 119.955 85.2626 117.244C80.9255 114.63 82.6048 116.444 82.3981 110.495Z" fill="#F5C7B5"/>
<path fill-rule="evenodd" clip-rule="evenodd" d="M118.513 84.1065C120.556 87.3823 123.537 89.5841 127.381 90.2349C128.002 90.3401 127.719 91.2746 127.105 91.1743C123.164 90.5272 119.552 88.1493 117.676 84.5762C117.387 84.027 118.186 83.5829 118.513 84.1065Z" fill="#72493A"/>
<path fill-rule="evenodd" clip-rule="evenodd" d="M136.376 60.8087C138.772 60.8503 138.711 64.5751 136.311 64.5322C133.915 64.4894 133.976 60.7659 136.376 60.8087Z" fill="#72493A"/>
<path fill-rule="evenodd" clip-rule="evenodd" d="M121.174 58.0723C123.921 58.1212 123.85 62.3903 121.098 62.3426C118.351 62.2937 118.422 58.0246 121.174 58.0723Z" fill="#72493A"/>
<path fill-rule="evenodd" clip-rule="evenodd" d="M116.878 51.9011C119.736 50.9775 122.965 50.9421 125.972 51.6124C127.137 51.8717 126.619 53.1255 125.445 52.8687C122.731 52.2742 120.198 52.4356 117.567 53.0766C116.591 53.3139 115.941 52.2044 116.878 51.9011Z" fill="#2B2C2A"/>
<path fill-rule="evenodd" clip-rule="evenodd" d="M136.98 53.9255C138.221 54.076 139.362 54.6301 140.171 55.5977C140.697 56.2252 139.855 57.0558 139.253 56.4846C138.539 55.8057 137.75 55.3947 136.787 55.1818C136.092 55.0277 136.258 53.8375 136.98 53.9255Z" fill="#2B2C2A"/>
<path fill-rule="evenodd" clip-rule="evenodd" d="M129.869 72.3254C129.99 71.5536 130.941 71.1377 131.629 71.326C132.442 71.5499 132.748 72.3156 132.627 73.085C132.446 74.241 132.787 75.5022 133.521 76.4122C134.009 77.019 134.115 77.8398 133.521 78.4355C133.014 78.9419 131.988 79.0434 131.498 78.4355C130.058 76.6459 129.514 74.5933 129.869 72.3254Z" fill="#E9866D"/>
<path fill-rule="evenodd" clip-rule="evenodd" d="M140.717 15.1845C140.002 14.2083 139.168 13.2836 138.234 12.409C135.942 10.2585 133.491 7.93682 130.392 6.74417C124.925 4.64143 119.251 6.79432 119.251 6.79432C113.91 5.15641 116.3 1.7656 104.036 0.234112C91.3391 -1.35242 78.9347 5.25427 72.5209 16.1215C67.2617 25.0327 66.9999 35.0828 65.1311 44.9433C63.623 52.8944 60.7145 60.5114 56.0619 67.1071C51.9402 72.9505 48.1034 78.3743 49.5747 86.0636C50.3648 90.1957 52.6716 93.1608 52.6312 97.5755C52.5921 101.756 51.6638 106.068 49.812 109.832C45.3441 118.917 34.1077 132.494 44.85 141.958C50.8565 147.251 54.5563 142.665 57.7938 137.712C66.3969 124.554 82.056 135.397 93.9003 135.717C96.1727 135.778 98.0795 135.289 99.568 134.381C101.637 131.224 102.961 127.711 100.781 124.027C99.3381 121.588 97.583 119.404 95.9905 117.066C93.2141 112.991 92.0387 108.488 92.2454 103.555C92.4729 98.1173 93.7914 92.6299 94.5962 87.2526C94.8971 85.2379 95.8425 82.4697 95.4866 80.4673C95.1931 78.8172 93.7119 77.4288 93.3181 75.7603C92.7787 73.4777 92.7616 71.019 92.8619 68.6888C92.9842 65.8631 93.142 58.9812 96.3207 57.5353C99.9178 55.8974 104.024 58.6056 107.812 58.3549C111.557 58.1066 115.237 56.7219 118.635 55.2112C125.424 52.1935 132.261 48.0919 137.664 42.9434C141.934 38.8736 143.123 32.5764 143.056 26.8639C143.013 23.2187 142.933 18.2083 140.717 15.1845Z" fill="#2B2C2A"/>
<path fill-rule="evenodd" clip-rule="evenodd" d="M92.3643 56.6424C91.3651 53.0045 90.8661 49.0987 90.8661 45.1244C90.8649 37.7972 92.5649 30.245 95.8856 23.7227C99.2087 17.198 104.133 11.713 110.585 8.40657C111.161 8.1081 112.107 7.82676 113.163 7.6237C114.75 7.313 116.59 7.14786 118.018 7.06713C118.733 7.02554 119.345 7.00474 119.777 6.99496C119.994 6.98884 120.165 6.98639 120.28 6.98517C120.396 6.98395 120.454 6.98395 120.454 6.98395C121.129 6.98272 121.675 6.43349 121.674 5.75827C121.673 5.08304 121.125 4.53625 120.449 4.53748C120.427 4.53748 118.548 4.53992 116.263 4.74176C115.118 4.84206 113.873 4.99252 112.694 5.22249C111.512 5.45613 110.402 5.75582 109.469 6.22921C102.483 9.81084 97.2151 15.7154 93.7061 22.6132C90.1946 29.5159 88.4211 37.4217 88.4199 45.1244C88.4199 49.303 88.9434 53.4228 90.0062 57.2907C90.1848 57.9427 90.8575 58.3256 91.5094 58.1457C92.1613 57.9671 92.5441 57.2944 92.3643 56.6424Z" fill="#415358"/>
<path fill-rule="evenodd" clip-rule="evenodd" d="M103.306 64.2069C103.306 69.8924 98.697 74.5016 93.0122 74.5016C87.3273 74.5016 82.7188 69.8924 82.7188 64.2069C82.7188 58.52 87.3273 53.9109 93.0122 53.9109C98.697 53.9109 103.306 58.52 103.306 64.2069Z" fill="#334043"/>
<path fill-rule="evenodd" clip-rule="evenodd" d="M98.4074 64.2069C98.4074 67.9488 95.3742 70.9812 91.6328 70.9812C87.8926 70.9812 84.8594 67.9488 84.8594 64.2069C84.8594 60.465 87.8926 57.4314 91.6328 57.4314C95.3742 57.4314 98.4074 60.465 98.4074 64.2069Z" fill="#415358"/>
<path fill-rule="evenodd" clip-rule="evenodd" d="M147.332 101.205C147.332 103.009 145.871 104.471 144.068 104.471C142.265 104.471 140.804 103.009 140.804 101.205C140.804 99.4017 142.265 97.9399 144.068 97.9399C145.871 97.9399 147.332 99.4017 147.332 101.205Z" fill="#242C2E"/>
<path fill-rule="evenodd" clip-rule="evenodd" d="M86.7424 157.617L126.432 221.035L205.974 222.202L204.565 230.824L123.038 243.586L64.6084 176.267L86.7424 157.617Z" fill="#F5C7B5"/>
<path fill-rule="evenodd" clip-rule="evenodd" d="M204.797 228C206.887 229.494 209.615 230.063 212.127 229.529C213.832 229.169 215.457 228.325 217.2 228.343C218.782 228.361 220.258 229.087 221.8 229.441C223.341 229.795 225.219 229.648 226.137 228.361C226.476 227.887 226.631 227.211 226.305 226.729C225.952 226.213 225.236 226.141 224.613 226.087C220.548 225.74 216.609 224.043 213.564 221.328L204.797 228Z" fill="#EB8E70"/>
<path fill-rule="evenodd" clip-rule="evenodd" d="M215.835 217.948C216.939 217.844 224.011 216.068 224.011 216.068L231.628 223.883C232.241 224.512 233.233 224.568 233.912 224.011C234.605 223.444 234.735 222.435 234.21 221.709L226.595 211.199C226.238 210.705 225.612 210.485 225.024 210.646L213.651 213.767L215.835 217.948Z" fill="#EB8E70"/>
<path fill-rule="evenodd" clip-rule="evenodd" d="M216.913 216.939C217.923 217.395 224.946 219.358 224.946 219.358L227.688 229.922C227.91 230.772 228.743 231.312 229.609 231.165C230.492 231.016 231.106 230.205 231.009 229.314L229.604 216.41C229.538 215.805 229.102 215.303 228.513 215.152L217.089 212.226L216.913 216.939Z" fill="#EFA48B"/>
<path fill-rule="evenodd" clip-rule="evenodd" d="M227.974 221.448L225.537 230.058C225.311 230.839 224.528 231.332 223.747 231.205L223.575 231.16C222.791 230.951 222.296 230.183 222.409 229.384L223.461 222.246L217.661 220.122L215.388 225.129C214.618 226.835 213.151 228.115 211.375 228.676L204.39 230.804L198.497 222.941L198.824 222.749L198.915 222.682L215.949 212.091C216.167 211.963 216.397 211.854 216.633 211.81C217.296 211.657 218.022 211.808 218.57 212.257L227.318 219.362C227.94 219.856 228.197 220.682 227.974 221.448Z" fill="#F5C7B5"/>
<path fill-rule="evenodd" clip-rule="evenodd" d="M325.648 247.04H175.704C173.669 247.04 172.021 245.391 172.021 243.356C172.021 241.321 173.669 239.671 175.704 239.671H325.648C327.682 239.671 329.331 241.321 329.331 243.356C329.331 245.391 327.682 247.04 325.648 247.04Z" fill="#D2C7BF"/>
<path fill-rule="evenodd" clip-rule="evenodd" d="M186.432 253.464H314.92V247.04H186.432V253.464Z" fill="#52676E"/>
<path fill-rule="evenodd" clip-rule="evenodd" d="M171.269 536.251L175.58 536.746L191.492 250.026L187.181 249.532L171.269 536.251Z" fill="#52676E"/>
<path fill-rule="evenodd" clip-rule="evenodd" d="M330.084 536.251L325.773 536.746L309.86 250.026L314.17 249.532L330.084 536.251Z" fill="#52676E"/>
<path fill-rule="evenodd" clip-rule="evenodd" d="M237.519 235.571H319.263L331.456 185.482C332.577 180.878 329.09 176.44 324.353 176.44H257.659C254.287 176.44 251.353 178.746 250.554 182.023L237.519 235.571Z" fill="#FFFFFE"/>
<path fill-rule="evenodd" clip-rule="evenodd" d="M240.963 235.571L254 182.023C254.797 178.746 257.731 176.44 261.103 176.44H327.798C330.255 176.44 332.37 177.64 333.686 179.432L277.554 235.571H240.963Z" fill="#CCD4D3"/>
<path fill-rule="evenodd" clip-rule="evenodd" d="M333.686 179.432C334.905 181.095 335.441 183.267 334.901 185.482L322.707 235.571H277.554L333.686 179.432Z" fill="#AAB7B9"/>
<path fill-rule="evenodd" clip-rule="evenodd" d="M203.859 235.567H274.359L270.241 239.686H199.741C199.741 237.412 201.584 235.567 203.859 235.567Z" fill="#AAB7B9"/>
<path fill-rule="evenodd" clip-rule="evenodd" d="M322.705 235.567C322.705 237.843 320.869 239.686 318.594 239.686H270.241L274.359 235.567H322.705Z" fill="#899CA2"/>
<path fill-rule="evenodd" clip-rule="evenodd" d="M199.741 239.686H236.849C239.124 239.686 240.96 237.843 240.96 235.569H203.859C201.584 235.569 199.741 237.412 199.741 239.686Z" fill="#FFFFFE"/>
<path fill-rule="evenodd" clip-rule="evenodd" d="M158.758 118.22C156.397 117.208 154.496 115.173 153.648 112.747C153.072 111.102 152.95 109.276 152.029 107.796C151.194 106.452 149.807 105.566 148.705 104.432C147.603 103.297 146.753 101.617 147.376 100.163C147.606 99.628 148.103 99.1436 148.684 99.1742C149.308 99.206 149.742 99.7822 150.11 100.287C152.518 103.582 156.011 106.068 159.913 107.263L158.758 118.22Z" fill="#EB8E70"/>
<path fill-rule="evenodd" clip-rule="evenodd" d="M161.623 103.567C161.139 102.57 158.987 95.6012 158.987 95.6012L148.355 93.1449C147.499 92.9468 146.936 92.1284 147.06 91.2587C147.186 90.3719 147.981 89.737 148.874 89.8092L161.808 90.866C162.416 90.915 162.928 91.3358 163.096 91.9217L166.33 103.265L161.623 103.567Z" fill="#EB8E70"/>
<path fill-rule="evenodd" clip-rule="evenodd" d="M161.927 102.121C161.012 101.495 155.689 96.5088 155.689 96.5088L145.238 99.6464C144.396 99.8984 143.502 99.4654 143.178 98.6495C142.848 97.8177 143.223 96.8709 144.034 96.4917L155.793 90.9982C156.345 90.7401 156.999 90.8514 157.434 91.2771L165.864 99.5253L161.927 102.121Z" fill="#EFA48B"/>
<path fill-rule="evenodd" clip-rule="evenodd" d="M152.333 95.0054L146.238 101.557C145.687 102.155 145.673 103.081 146.186 103.682L146.313 103.807C146.899 104.367 147.813 104.393 148.437 103.881L153.991 99.2782L158.817 103.134L155.716 107.676C154.658 109.218 154.325 111.139 154.767 112.947L156.574 120.024L166.352 120.981L166.347 120.603L166.356 120.489L166.57 100.43C166.566 100.179 166.541 99.9253 166.455 99.7002C166.242 99.0544 165.735 98.5112 165.067 98.2764L154.457 94.4843C153.711 94.2091 152.87 94.4183 152.333 95.0054Z" fill="#F5C7B5"/>
<path fill-rule="evenodd" clip-rule="evenodd" d="M156.574 120.024L158.047 176.918C158.097 178.895 158.909 180.774 160.313 182.166L165.493 187.297C169.372 191.143 175.915 189.81 177.982 184.753L180.399 178.842C181.036 177.284 181.142 175.56 180.702 173.936L166.353 120.981L156.574 120.024Z" fill="#F5C7B5"/>
</svg>
