<svg width="523" height="400" viewBox="0 0 523 400" fill="none" xmlns="http://www.w3.org/2000/svg">
<path fill-rule="evenodd" clip-rule="evenodd" d="M19.3286 400H515.884C519.797 400 523 396.769 523 392.819C523 388.869 519.797 385.637 515.884 385.637H19.3286C15.4148 385.637 12.2123 388.869 12.2123 392.819C12.2123 396.769 15.4148 400 19.3286 400Z" fill="#8D869B"/>
<path fill-rule="evenodd" clip-rule="evenodd" d="M130.369 103.27C134.009 99.5224 133.693 93.7396 129.665 90.354L129.209 89.9713C125.181 86.5858 118.965 86.8789 115.326 90.6264C111.686 94.3731 112.002 100.156 116.03 103.541L116.486 103.924C120.514 107.31 126.73 107.017 130.369 103.27Z" fill="#141D33"/>
<path fill-rule="evenodd" clip-rule="evenodd" d="M122.187 121.929L131.527 129.982L158.049 101.97L148.708 93.9184C142.237 88.3389 132.954 87.5972 125.75 91.4697C123.93 92.4444 122.247 93.7104 120.77 95.2697C117.111 99.1343 115.437 104.05 115.687 108.88C115.951 113.709 118.137 118.439 122.187 121.929Z" fill="#E15E3C"/>
<path fill-rule="evenodd" clip-rule="evenodd" d="M130.635 113.238L139.727 121.364L157.33 102.089L148.237 93.9633C141.938 88.3323 132.902 87.5839 125.889 91.492C124.684 94.2188 124.159 97.157 124.308 100.068C124.564 104.941 126.693 109.715 130.635 113.238Z" fill="#EFA448"/>
<path fill-rule="evenodd" clip-rule="evenodd" d="M131.657 129.97C134.391 132.489 142.472 128.281 149.706 120.553C156.94 112.826 160.597 104.517 157.858 101.99C155.702 99.9927 150.195 102.208 144.404 107.043C142.88 108.328 141.324 109.788 139.817 111.402C138.052 113.289 136.498 115.208 135.201 117.072C131.173 122.84 129.59 128.063 131.657 129.97Z" fill="#2D3253"/>
<path fill-rule="evenodd" clip-rule="evenodd" d="M135.06 116.913C137.187 119.266 140.803 119.938 143.733 118.335C147.081 116.506 148.265 112.382 146.37 109.136C145.865 108.27 145.189 107.547 144.402 107.002C142.855 108.272 141.276 109.715 139.746 111.31C137.955 113.175 136.377 115.072 135.06 116.913Z" fill="#FFFFFE"/>
<path d="M83.9658 194.614L59.628 117.124L108.912 84.7397L119.256 93.4139" stroke="#141D33" stroke-width="5.229"/>
<path fill-rule="evenodd" clip-rule="evenodd" d="M103.45 84.7392C103.45 87.9124 106.023 90.4846 109.197 90.4846C112.372 90.4846 114.944 87.9124 114.944 84.7392C114.944 81.5667 112.372 78.9945 109.197 78.9945C106.023 78.9945 103.45 81.5667 103.45 84.7392Z" fill="#141D33"/>
<path fill-rule="evenodd" clip-rule="evenodd" d="M104.886 84.7389C104.886 86.3256 106.494 87.6121 108.478 87.6121C110.462 87.6121 112.07 86.3256 112.07 84.7389C112.07 83.1529 110.462 81.8671 108.478 81.8671C106.494 81.8671 104.886 83.1529 104.886 84.7389Z" fill="#2D3253"/>
<path fill-rule="evenodd" clip-rule="evenodd" d="M60.3459 203.95H122.129C122.129 197.207 116.633 191.741 109.854 191.741H72.6204C65.8411 191.741 60.3459 197.207 60.3459 203.95Z" fill="#EFA448"/>
<path fill-rule="evenodd" clip-rule="evenodd" d="M108.479 192.46H96.985V188.869H108.479V192.46Z" fill="#141D33"/>
<path fill-rule="evenodd" clip-rule="evenodd" d="M51.0063 117.774C51.0063 122.136 54.8658 125.673 59.6272 125.673C64.3885 125.673 68.248 122.136 68.248 117.774C68.248 113.411 64.3885 109.874 59.6272 109.874C54.8658 109.874 51.0063 113.411 51.0063 117.774Z" fill="#141D33"/>
<path fill-rule="evenodd" clip-rule="evenodd" d="M55.317 117.415C55.317 119.596 57.4071 121.364 59.9862 121.364C62.5653 121.364 64.6562 119.596 64.6562 117.415C64.6562 115.233 62.5653 113.465 59.9862 113.465C57.4071 113.465 55.317 115.233 55.317 117.415Z" fill="#2D3253"/>
<path fill-rule="evenodd" clip-rule="evenodd" d="M25.123 185.996H81.1787V166.607H25.123C22.7535 166.607 20.8325 168.528 20.8325 170.897V181.707C20.8325 184.076 22.7535 185.996 25.123 185.996Z" fill="#4C1F33"/>
<path fill-rule="evenodd" clip-rule="evenodd" d="M45.2393 185.996H101.295V166.607H45.2393C42.8697 166.607 40.9487 168.528 40.9487 170.897V181.707C40.9487 184.076 42.8697 185.996 45.2393 185.996Z" fill="#4C1F33"/>
<path fill-rule="evenodd" clip-rule="evenodd" d="M47.5309 183.842H101.295V168.761H47.5309C45.4829 168.761 43.8223 170.438 43.8223 172.508V180.095C43.8223 182.164 45.4829 183.842 47.5309 183.842Z" fill="#E8EAE8"/>
<path fill-rule="evenodd" clip-rule="evenodd" d="M35.9199 175.943H23.707V174.506H35.9199V175.943Z" fill="#FFFFFE"/>
<path fill-rule="evenodd" clip-rule="evenodd" d="M35.9199 178.815H23.707V177.379H35.9199V178.815Z" fill="#FFFFFE"/>
<path fill-rule="evenodd" clip-rule="evenodd" d="M15.0664 151.526H71.1221V132.136H15.0664C12.6969 132.136 10.7758 134.056 10.7758 136.426V147.236C10.7758 149.605 12.6969 151.526 15.0664 151.526Z" fill="#4C1F33"/>
<path fill-rule="evenodd" clip-rule="evenodd" d="M35.1816 151.526H91.2373V132.136H35.1816C32.8121 132.136 30.8911 134.056 30.8911 136.426V147.236C30.8911 149.605 32.8121 151.526 35.1816 151.526Z" fill="#4C1F33"/>
<path fill-rule="evenodd" clip-rule="evenodd" d="M36.8453 149.372H92.6729V133.573H36.8453C34.7467 133.573 33.045 135.249 33.045 137.318V145.626C33.045 147.695 34.7467 149.372 36.8453 149.372Z" fill="#E8EAE8"/>
<path fill-rule="evenodd" clip-rule="evenodd" d="M28.7363 145.063H12.213V137.882H28.7363V145.063Z" fill="#E8EAE8"/>
<path fill-rule="evenodd" clip-rule="evenodd" d="M26.5801 140.754H14.3672V139.318H26.5801V140.754Z" fill="#141D33"/>
<path fill-rule="evenodd" clip-rule="evenodd" d="M26.5801 143.627H14.3672V142.19H26.5801V143.627Z" fill="#141D33"/>
<path fill-rule="evenodd" clip-rule="evenodd" d="M20.0947 204.668H76.1504V185.278H20.0947C17.7252 185.278 15.8042 187.199 15.8042 189.568V200.378C15.8042 202.747 17.7252 204.668 20.0947 204.668Z" fill="#141D33"/>
<path fill-rule="evenodd" clip-rule="evenodd" d="M40.9287 204.668H96.9844V185.278H40.9287C38.5592 185.278 36.6382 187.199 36.6382 189.568V200.378C36.6382 202.747 38.5592 204.668 40.9287 204.668Z" fill="#141D33"/>
<path fill-rule="evenodd" clip-rule="evenodd" d="M43.9381 201.795H97.7021V187.433H43.9381C41.8894 187.433 40.2296 189.111 40.2296 191.181V198.047C40.2296 200.118 41.8894 201.795 43.9381 201.795Z" fill="#E8EAE8"/>
<path fill-rule="evenodd" clip-rule="evenodd" d="M33.0459 198.205H16.5225V191.023H33.0459V198.205Z" fill="#E8EAE8"/>
<path fill-rule="evenodd" clip-rule="evenodd" d="M31.6094 194.614H19.3964V193.178H31.6094V194.614Z" fill="#141D33"/>
<path fill-rule="evenodd" clip-rule="evenodd" d="M31.6094 196.768H19.3964V195.332H31.6094V196.768Z" fill="#141D33"/>
<path fill-rule="evenodd" clip-rule="evenodd" d="M88.3643 151.526V166.607H22.7659C18.5267 166.607 15.0867 163.229 15.0867 159.066C15.0867 156.989 15.9467 155.102 17.3335 153.732C18.729 152.371 20.6506 151.526 22.7659 151.526H88.3643Z" fill="#BF3E36"/>
<path fill-rule="evenodd" clip-rule="evenodd" d="M95.5479 151.526V166.607H40.6783C36.4655 166.607 33.0464 163.229 33.0464 159.066C33.0464 156.989 33.9012 155.102 35.2788 153.732C36.6659 152.371 38.5765 151.526 40.6783 151.526H95.5479Z" fill="#E57451"/>
<path fill-rule="evenodd" clip-rule="evenodd" d="M96.2666 153.68V163.734H43.6674C40.9739 163.734 38.794 161.485 38.794 158.707C38.794 157.318 39.3406 156.064 40.2184 155.15C41.1048 154.245 42.321 153.68 43.6674 153.68H96.2666Z" fill="#E8EAE8"/>
<path d="M97.0137 199.282H40.4947M92.1023 136.086H35.9198H92.1023ZM92.1023 139.36H35.9198H92.1023ZM92.1023 142.633H35.9198H92.1023ZM92.1023 145.907H35.9198H92.1023ZM101.295 171.402H44.7766H101.295ZM101.295 174.676H44.7766H101.295ZM101.295 177.949H44.7766H101.295ZM101.295 181.223H44.7766H101.295ZM97.0137 190.181H40.4947H97.0137ZM97.0137 193.454H40.4947H97.0137ZM97.0137 196.008H40.4947H97.0137Z" stroke="#8D869B" stroke-width="1.438"/>
<path fill-rule="evenodd" clip-rule="evenodd" d="M418.113 400H400.872V221.185H418.113V400Z" fill="#17253C"/>
<path fill-rule="evenodd" clip-rule="evenodd" d="M244.258 273.379L343.233 280.79L370.697 141.705L304.217 141.472C285.592 141.408 269.477 154.395 265.623 172.577L244.258 273.379Z" fill="#563041"/>
<path fill-rule="evenodd" clip-rule="evenodd" d="M363.703 274.335L379.948 152.74C380.671 147.323 376.876 142.293 371.514 141.562C366.152 140.83 361.173 144.664 360.449 150.081L344.204 271.676C343.48 277.093 347.275 282.124 352.637 282.855C357.999 283.586 362.979 279.752 363.703 274.335Z" fill="#BF3E36"/>
<path fill-rule="evenodd" clip-rule="evenodd" d="M307.479 359.066H295.984V290.844H307.479V359.066Z" fill="#4B506B"/>
<path fill-rule="evenodd" clip-rule="evenodd" d="M295.984 294.435V309.515L307.479 305.138V294.927C304.602 294.794 299.066 294.567 295.984 294.435Z" fill="#141D33"/>
<path fill-rule="evenodd" clip-rule="evenodd" d="M275.27 295.871H326.756C329.587 295.871 331.904 293.609 331.904 290.844C331.904 288.079 329.587 285.817 326.756 285.817H275.27C272.438 285.817 270.121 288.079 270.121 290.844C270.121 293.609 272.438 295.871 275.27 295.871Z" fill="#222940"/>
<path fill-rule="evenodd" clip-rule="evenodd" d="M250.535 290.126H309.105C316.113 290.126 321.847 284.308 321.847 277.199C321.847 270.089 316.113 264.273 309.105 264.273H250.535C243.526 264.273 237.793 270.089 237.793 277.199C237.793 284.308 243.526 290.126 250.535 290.126Z" fill="#563041"/>
<path fill-rule="evenodd" clip-rule="evenodd" d="M302.425 290.126H349.887C356.987 290.126 362.795 284.309 362.795 277.199C362.795 270.09 356.987 264.273 349.887 264.273H302.425C295.326 264.273 289.517 270.09 289.517 277.199C289.517 284.309 295.326 290.126 302.425 290.126Z" fill="#BF3E36"/>
<path fill-rule="evenodd" clip-rule="evenodd" d="M252.879 381.329H260.106C260.106 372.659 267.13 365.606 275.764 365.606H328.416C337.05 365.606 344.074 372.659 344.074 381.329H351.301C351.301 368.657 341.035 358.348 328.416 358.348H275.764C263.145 358.348 252.879 368.657 252.879 381.329Z" fill="#141D33"/>
<path fill-rule="evenodd" clip-rule="evenodd" d="M310.352 358.348H293.11V347.576H310.352V358.348Z" fill="#141D33"/>
<path fill-rule="evenodd" clip-rule="evenodd" d="M341.962 388.869C341.962 392.24 344.535 394.973 347.709 394.973C350.882 394.973 353.456 392.24 353.456 388.869C353.456 385.498 350.882 382.765 347.709 382.765C344.535 382.765 341.962 385.498 341.962 388.869Z" fill="#141D33"/>
<path fill-rule="evenodd" clip-rule="evenodd" d="M338.37 388.51H355.611V386.624C355.611 382.113 351.9 378.456 347.321 378.456H346.66C342.081 378.456 338.37 382.113 338.37 386.624V388.51Z" fill="#2D3253"/>
<path fill-rule="evenodd" clip-rule="evenodd" d="M250.723 388.869C250.723 392.24 253.296 394.973 256.471 394.973C259.645 394.973 262.218 392.24 262.218 388.869C262.218 385.498 259.645 382.765 256.471 382.765C253.296 382.765 250.723 385.498 250.723 388.869Z" fill="#141D33"/>
<path fill-rule="evenodd" clip-rule="evenodd" d="M246.413 388.51H263.654V386.624C263.654 382.113 259.943 378.456 255.364 378.456H254.703C250.124 378.456 246.413 382.113 246.413 386.624V388.51Z" fill="#2D3253"/>
<path fill-rule="evenodd" clip-rule="evenodd" d="M306.04 382.765H296.701V361.221H306.04V382.765Z" fill="#141D33"/>
<path fill-rule="evenodd" clip-rule="evenodd" d="M294.546 388.869C294.546 392.24 297.119 394.973 300.293 394.973C303.467 394.973 306.04 392.24 306.04 388.869C306.04 385.498 303.467 382.765 300.293 382.765C297.119 382.765 294.546 385.498 294.546 388.869Z" fill="#141D33"/>
<path fill-rule="evenodd" clip-rule="evenodd" d="M293.11 388.51H310.352V386.624C310.352 382.113 306.64 378.456 302.061 378.456H301.4C296.821 378.456 293.11 382.113 293.11 386.624V388.51Z" fill="#2D3253"/>
<path fill-rule="evenodd" clip-rule="evenodd" d="M178.686 178.999L162.361 183.754C161.169 184.101 159.914 183.394 159.573 182.183C159.231 180.972 159.926 179.696 161.118 179.35L177.443 174.595C178.636 174.247 179.891 174.954 180.232 176.165C180.574 177.376 179.879 178.652 178.686 178.999Z" fill="#ED9B7B"/>
<path fill-rule="evenodd" clip-rule="evenodd" d="M175.78 184.143L162.418 188.06C161.202 188.417 159.922 187.691 159.574 186.449C159.226 185.206 159.935 183.897 161.15 183.542L174.514 179.624C175.729 179.268 177.008 179.993 177.357 181.236C177.705 182.479 176.996 183.787 175.78 184.143Z" fill="#ED9B7B"/>
<path fill-rule="evenodd" clip-rule="evenodd" d="M177.961 187.015L162.375 191.651C161.178 192.007 159.917 191.281 159.574 190.039C159.23 188.796 159.929 187.489 161.127 187.132L176.712 182.496C177.91 182.14 179.171 182.866 179.514 184.108C179.858 185.351 179.159 186.658 177.961 187.015Z" fill="#ED9B7B"/>
<path fill-rule="evenodd" clip-rule="evenodd" d="M191.465 188.349L175.071 191.698C173.874 191.942 172.699 191.138 172.46 189.911C172.221 188.684 173.006 187.479 174.203 187.235L190.598 183.886C191.795 183.641 192.969 184.445 193.208 185.672C193.447 186.9 192.662 188.104 191.465 188.349Z" fill="#ED9B7B"/>
<path fill-rule="evenodd" clip-rule="evenodd" d="M167.387 182.531C167.56 182.473 169.426 181.567 171.444 180.58C174.929 178.875 178.77 178.026 182.648 178.102L190.074 178.246C190.074 178.246 191.5 190.581 190.981 190.451C190.463 190.321 174.647 193.178 174.647 193.178L167.387 182.531Z" fill="#ED9B7B"/>
<path fill-rule="evenodd" clip-rule="evenodd" d="M194.688 196.05H186.786V177.379H194.688V196.05Z" fill="#E8EAE8"/>
<path fill-rule="evenodd" clip-rule="evenodd" d="M228.574 381.329L185.516 379.72C182.949 379.625 180.946 377.478 181.042 374.927C181.116 372.962 182.433 371.259 184.325 370.682L205.908 364.093L229.172 365.527L228.574 381.329Z" fill="#8D869B"/>
<path fill-rule="evenodd" clip-rule="evenodd" d="M185.506 380.878L229.747 382.765L229.89 379.76L182.478 377.738C182.399 379.397 183.755 380.803 185.506 380.878Z" fill="#141D33"/>
<path d="M200.56 373.429L195.406 367.288M207.619 370.228L203.039 364.812L207.619 370.228ZM204.026 371.571L199.446 366.154L204.026 371.571Z" stroke="#141D33" stroke-width="1.438" stroke-linecap="round"/>
<mask id="mask0" mask-type="alpha" maskUnits="userSpaceOnUse" x="203" y="226" width="74" height="141">
<path d="M231.434 366.073C228.937 324.114 229.611 285.321 232.881 277.464C236.235 272.586 256.373 260.585 276.206 251.691L265.06 226.837C251.14 233.074 217.839 249.163 209.271 263.854C205.654 270.054 202.185 282.162 203.88 324.947C204.767 347.356 205.862 364.911 205.862 364.911L231.434 366.073Z" fill="white"/>
</mask>
<g mask="url(#mask0)">
<path fill-rule="evenodd" clip-rule="evenodd" d="M231.434 366.073C228.937 324.114 229.611 285.321 232.881 277.464C236.235 272.586 256.373 260.585 276.206 251.691L265.06 226.837C251.14 233.074 217.839 249.163 209.271 263.854C205.654 270.054 202.185 282.162 203.88 324.947C204.767 347.356 205.861 364.911 205.861 364.911L231.434 366.073Z" fill="#141D33"/>
<path fill-rule="evenodd" clip-rule="evenodd" d="M279.91 237.698C279.91 237.698 229.281 255.945 223.426 270.405C217.571 284.865 219.637 365.772 219.637 365.772L236.513 366.46L292.653 234.944L279.91 237.698Z" fill="#141D33"/>
</g>
<path d="M272.276 118.492L250.324 173.995C246.462 182.262 238.058 187.521 228.852 187.431L191.096 187.061" stroke="#121B28" stroke-width="31.641"/>
<path fill-rule="evenodd" clip-rule="evenodd" d="M290.625 101.975H295.595C300.155 101.975 303.886 98.0842 303.886 93.3296V68.9681C303.886 64.2128 300.155 60.323 295.595 60.323H290.625C286.065 60.323 282.334 64.2128 282.334 68.9681V93.3296C282.334 98.0842 286.065 101.975 290.625 101.975Z" fill="#ED9B7B"/>
<path fill-rule="evenodd" clip-rule="evenodd" d="M248.661 39.3783C248.699 39.9239 248.748 40.4681 248.808 41.0123C249.114 43.6301 249.682 46.1737 250.497 48.5883C253.972 58.9233 261.853 67.1025 271.776 71.0329C276.704 72.9898 282.137 73.8929 287.78 73.495C290.57 73.2982 293.244 73.4943 295.783 73.6903C301.561 74.1365 306.645 74.5834 310.818 70.4044C312.754 68.4669 314.476 66.332 315.93 64.0155C316.501 63.103 317.038 62.1812 317.528 61.2297C320.52 55.4262 322.254 41.2127 321.764 34.2234C320.385 14.5127 303.784 -0.477813 284.309 0.0115862C283.754 0.0288845 283.199 0.0569944 282.644 0.0959157C270.338 0.963717 259.889 7.82972 253.915 17.6574L253.904 17.6689C252.156 20.5548 250.794 23.7038 249.879 27.023C248.805 30.9353 248.361 35.1049 248.661 39.3783Z" fill="#522E38"/>
<path fill-rule="evenodd" clip-rule="evenodd" d="M295.275 46.3C295.317 47.0579 295.499 47.7852 295.819 48.4512C296.181 49.2504 296.737 50.1009 297.42 50.695C298.658 51.7606 300.313 52.5086 302.106 52.416L305.959 52.2215L308.915 52.0783L308.477 43.6573H308.467L308.392 42.1001L308.328 40.8906L308.263 39.7844L308.253 39.4973H308.243L301.444 39.835C299.726 39.9176 298.199 40.6349 297.089 41.7304C296.417 42.3965 295.905 43.2163 295.594 44.1075C295.338 44.8041 295.232 45.5321 295.275 46.3Z" fill="#F4C2B6"/>
<path fill-rule="evenodd" clip-rule="evenodd" d="M250.788 42.4078L251.501 56.1625L251.606 58.2221C251.669 59.5778 251.847 60.9235 252.098 62.2174C254.488 74.3674 264.697 83.6929 277.222 85.2249C277.599 85.2868 277.988 85.3178 278.364 85.3386C279.706 85.4732 281.058 85.4833 282.442 85.4214C283.783 85.3595 285.083 85.1933 286.372 84.9558C288.888 84.5003 291.288 83.7238 293.52 82.6789L293.541 82.6681C303.268 78.1245 309.976 68.5406 310.332 57.6011C310.343 57.2693 310.353 56.9491 310.343 56.6181C310.364 56.2345 310.343 55.8416 310.322 55.4487V55.2414L310.28 54.3095L310.144 51.8571L309.724 43.4326L309.714 43.3498V43.339L309.63 41.7767L309.567 40.5548L309.505 39.4372L309.484 39.1472C309.368 37.2014 308.97 35.3182 308.393 33.517C308.006 32.254 307.523 31.0228 306.988 29.8426C306.915 29.6462 306.842 29.4807 306.758 29.3043C306.318 28.3314 305.805 27.3693 305.249 26.4583L305.239 26.4374C303.132 22.9602 300.291 19.9486 296.937 17.6192C296.266 17.1536 295.575 16.7089 294.872 16.2951C289.978 13.4591 284.234 11.9379 278.176 12.248C270.074 12.6618 262.81 16.2534 257.748 21.739C255.033 24.6679 253.251 28.104 251.952 31.9029C251.448 33.3515 251.123 34.8418 250.946 36.3638C250.704 38.319 250.673 40.3375 250.788 42.4078Z" fill="#F5C2A6"/>
<path fill-rule="evenodd" clip-rule="evenodd" d="M306.041 43.9348L306.449 52.4317L306.731 58.1687L308.862 58.0555C309.018 58.0448 309.174 58.0348 309.319 58.004C312.871 57.5514 315.546 54.1211 315.372 50.3513C315.284 48.3941 314.427 46.7671 313.124 45.531C311.956 44.4289 310.419 43.8417 308.745 43.8216H308.736C308.541 43.8008 308.376 43.8008 308.181 43.8216L306.041 43.9348Z" fill="#F4C2B6"/>
<path fill-rule="evenodd" clip-rule="evenodd" d="M261.859 53.8599C262.452 53.8599 262.937 53.3006 262.937 52.6175V48.6399C262.937 47.9561 262.452 47.3967 261.859 47.3967C261.266 47.3967 260.781 47.9561 260.781 48.6399V52.6175C260.781 53.3006 261.266 53.8599 261.859 53.8599Z" fill="#141D33"/>
<path fill-rule="evenodd" clip-rule="evenodd" d="M280.537 53.8599C281.129 53.8599 281.614 53.3006 281.614 52.6175V48.6399C281.614 47.9561 281.129 47.3967 280.537 47.3967C279.944 47.3967 279.459 47.9561 279.459 48.6399V52.6175C279.459 53.3006 279.944 53.8599 280.537 53.8599Z" fill="#141D33"/>
<path fill-rule="evenodd" clip-rule="evenodd" d="M282.333 85.4457C282.333 85.4457 287.486 85.7889 292.432 82.818L292.453 82.8072C302.016 78.2827 308.611 68.7393 308.961 57.8459C312.722 57.393 315.556 53.9606 315.371 50.1885C315.278 48.2301 314.371 46.6021 312.99 45.3652C311.754 44.2624 310.126 43.6748 308.353 43.6548V43.644L308.271 42.0883L308.209 40.8716L308.147 39.7587L308.137 39.4699H308.127C308.013 37.5323 307.622 35.6563 307.055 33.8634C303.159 31.6886 299.192 31.2766 296.935 36.1515C296.935 36.1515 297.162 38.3571 297.358 41.7164C297.513 44.2309 297.657 47.3853 297.678 50.7346C297.739 57.6195 297.327 65.3177 295.555 69.9869C291.783 79.9524 282.333 85.4457 282.333 85.4457Z" fill="#ED9B7B"/>
<path fill-rule="evenodd" clip-rule="evenodd" d="M249.797 22.9803H296.191C299.237 22.9803 301.73 20.5568 301.73 17.594C301.73 14.6319 299.237 12.2083 296.191 12.2083H249.797C246.75 12.2083 244.258 14.6319 244.258 17.594C244.258 20.5568 246.75 22.9803 249.797 22.9803Z" fill="#522E38"/>
<path fill-rule="evenodd" clip-rule="evenodd" d="M239.349 27.5372C238.895 30.0392 239.768 32.41 241.373 34.0168C242.693 35.3374 244.527 36.1631 246.527 36.1631H288.896C294.973 36.1631 299.9 41.0933 299.9 47.1756V54.0318C299.9 56.3072 301.759 58.1687 304.033 58.1687H305.012C307.295 58.1687 309.145 56.3165 309.145 54.0318V33.377C309.145 33.212 309.135 33.0578 309.115 32.9021C309.898 31.7465 310.352 30.3441 310.352 28.8585C310.352 26.8464 309.527 25.0208 308.207 23.6894C306.889 22.3688 305.053 21.5439 303.054 21.5439H246.827C243.241 21.5439 239.989 24.005 239.349 27.5372Z" fill="#522E38"/>
<path fill-rule="evenodd" clip-rule="evenodd" d="M254.491 43.806H263.481C264.367 43.806 265.092 42.9986 265.092 42.0107C265.092 41.0235 264.367 40.2153 263.481 40.2153H254.491C253.604 40.2153 252.879 41.0235 252.879 42.0107C252.879 42.9986 253.604 43.806 254.491 43.806Z" fill="#563041"/>
<path fill-rule="evenodd" clip-rule="evenodd" d="M275.324 43.806H284.314C285.2 43.806 285.926 42.9986 285.926 42.0107C285.926 41.0235 285.2 40.2153 284.314 40.2153H275.324C274.437 40.2153 273.713 41.0235 273.713 42.0107C273.713 42.9986 274.437 43.806 275.324 43.806Z" fill="#563041"/>
<path fill-rule="evenodd" clip-rule="evenodd" d="M274.97 55.2962L279.46 46.6786H276.227L271.557 54.9447L274.97 55.2962Z" fill="#FBDECD"/>
<path fill-rule="evenodd" clip-rule="evenodd" d="M255.574 55.2962L260.063 46.6786H256.831L252.161 54.9447L255.574 55.2962Z" fill="#FBDECD"/>
<path fill-rule="evenodd" clip-rule="evenodd" d="M254.128 56.0143H263.842C264.925 56.0143 265.811 55.1244 265.811 54.0376V48.6554C265.811 47.5685 264.925 46.6786 263.842 46.6786H254.128C253.046 46.6786 252.161 47.5685 252.161 48.6554V54.0376C252.161 55.1244 253.046 56.0143 254.128 56.0143Z" stroke="#141D33" stroke-width="1.297"/>
<path fill-rule="evenodd" clip-rule="evenodd" d="M273.55 56.0143H283.934C285.029 56.0143 285.926 55.089 285.926 53.9589V48.734C285.926 47.6039 285.029 46.6786 283.934 46.6786H273.55C272.454 46.6786 271.558 47.6039 271.558 48.734V53.9589C271.558 55.089 272.454 56.0143 273.55 56.0143Z" stroke="#141D33" stroke-width="1.349"/>
<path d="M265.091 67.5045C266.554 68.9341 268.821 69.7685 271.319 69.6473C273.412 69.5461 275.273 68.7928 276.586 67.6309" stroke="#E57451" stroke-width="1.438"/>
<path fill-rule="evenodd" clip-rule="evenodd" d="M265.091 59.2355L265.269 59.2305C265.312 60.6872 266.588 61.8444 269.749 61.7545L270.12 50.2693C266.749 54.5012 265.323 56.8527 265.091 59.2355Z" fill="#ED9B7B"/>
<path d="M270.12 51.2604L265.091 51.4327" stroke="#141D33" stroke-width="1.349"/>
<path fill-rule="evenodd" clip-rule="evenodd" d="M257.188 129.509V233.728L333.194 242.011L336.932 129.509C336.932 112.757 324.762 98.8228 308.754 96.0179C306.828 95.6873 304.852 95.5116 302.824 95.5116H291.296C272.462 95.5116 257.188 110.736 257.188 129.509Z" fill="#141D33"/>
<path fill-rule="evenodd" clip-rule="evenodd" d="M263.655 243.563C263.655 248.227 265.32 252.502 268.084 255.835C271.618 260.109 276.981 262.837 282.982 262.837H315.461C316.426 262.837 317.372 262.765 318.297 262.621C320.681 262.283 322.92 261.494 324.934 260.356C325.294 260.161 325.643 259.945 325.982 259.72C331.273 256.286 334.777 250.329 334.777 243.563L334.182 233.28L264.22 232.675L263.655 243.563Z" fill="#141D33"/>
<path fill-rule="evenodd" clip-rule="evenodd" d="M303.886 215.44H277.305V93.3572H303.886V215.44Z" fill="#E8EAE8"/>
<path fill-rule="evenodd" clip-rule="evenodd" d="M290.595 109.156L298.856 98.2835L291.245 94.0753L282.333 98.2835L290.595 109.156Z" fill="#141D33"/>
<path fill-rule="evenodd" clip-rule="evenodd" d="M287.768 218.312L296.702 206.801L293.116 104.129L287.569 104.637L279.46 206.381L287.768 218.312Z" fill="#141D33"/>
<path fill-rule="evenodd" clip-rule="evenodd" d="M276.586 103.411L289.03 95.2424L303.574 103.411L304.604 93.3572H276.586V103.411Z" fill="#FFFFFE"/>
<path fill-rule="evenodd" clip-rule="evenodd" d="M283.771 374.523L244.01 389.646C241.639 390.547 238.989 389.35 238.091 386.97C237.399 385.137 237.937 383.066 239.433 381.807L256.505 367.437L278.206 359.785L283.771 374.523Z" fill="#8D869B"/>
<path fill-rule="evenodd" clip-rule="evenodd" d="M243.276 390.472L284.488 375.59L283.394 372.711L239.229 388.66C239.833 390.25 241.645 391.061 243.276 390.472Z" fill="#141D33"/>
<path fill-rule="evenodd" clip-rule="evenodd" d="M251.601 323.582C252.166 345.8 254.12 366.118 254.202 366.966L268.558 365.56L281.186 364.331C277.525 326.453 277.69 288.348 281.505 280.218C285.926 276.035 303.11 268.412 319.091 262.668C321.342 261.863 323.574 261.098 325.734 260.386C326.114 260.252 326.495 260.127 326.875 260.003L326.783 259.745C326.783 259.745 313.534 236.37 285.624 244.413C279.742 246.108 274.913 251.719 268.836 255.83C265.689 257.948 263.005 260.127 261.051 262.286C255.478 268.443 250.48 280.125 251.601 323.582Z" fill="#17253C"/>
<path d="M255.733 377.738L248.568 374.161M260.781 371.543L254.43 368.402L260.781 371.543ZM258.095 374.422L251.743 371.282L258.095 374.422Z" stroke="#141D33" stroke-width="1.438" stroke-linecap="round"/>
<path fill-rule="evenodd" clip-rule="evenodd" d="M307.478 142.908L336.214 130.861V129.777C336.214 112.997 324.335 99.0393 308.71 96.2297C308.638 96.2908 308.558 96.3533 308.487 96.4151L307.478 142.908Z" fill="#17253C"/>
<path fill-rule="evenodd" clip-rule="evenodd" d="M267.933 365.53L280.527 364.304C276.876 326.517 277.04 288.503 280.845 280.393C285.254 276.22 302.391 268.615 318.328 262.885C320.708 262.545 322.943 261.752 324.953 260.608C325.332 260.474 325.712 260.351 326.091 260.227L325.999 259.969C331.28 256.517 334.777 250.53 334.777 243.729L334.183 233.393L323.045 234.929C323.312 235.732 324.819 243.626 322.071 248.366C321.302 249.717 320.184 250.809 318.595 251.417C314.236 253.086 297.653 257.167 284.454 263.102C275.922 266.946 268.794 271.573 267.318 276.838C263.852 289.204 267.369 355.421 267.933 365.53Z" fill="#141D33"/>
<path fill-rule="evenodd" clip-rule="evenodd" d="M119.871 203.232H187.886C192.335 203.232 195.275 198.636 193.387 194.633L169.666 144.348C167.597 139.964 163.164 137.163 158.291 137.163H95.6718C92.4277 137.163 90.2837 140.515 91.6605 143.434L119.871 203.232Z" fill="#A8A3B6"/>
<path fill-rule="evenodd" clip-rule="evenodd" d="M186.735 203.95H234.969C236.917 203.95 238.511 202.333 238.511 200.359C238.511 198.384 236.917 196.768 234.969 196.768H186.735C184.787 196.768 183.193 198.384 183.193 200.359C183.193 202.333 184.787 203.95 186.735 203.95Z" fill="#A8A3B6"/>
<path fill-rule="evenodd" clip-rule="evenodd" d="M211.211 201.795H203.308V199.641H211.211V201.795Z" fill="#141D33"/>
<path fill-rule="evenodd" clip-rule="evenodd" d="M218.396 201.795H213.367V199.641H218.396V201.795Z" fill="#141D33"/>
<path fill-rule="evenodd" clip-rule="evenodd" d="M120.646 203.232H187.799C190.21 203.232 191.803 200.704 190.78 198.502L165.616 144.348C163.578 139.964 159.211 137.163 154.411 137.163H92.7306C89.5351 137.163 87.424 140.515 88.7802 143.434L114.836 199.507C115.892 201.78 118.157 203.232 120.646 203.232Z" fill="#7B7584"/>
<path fill-rule="evenodd" clip-rule="evenodd" d="M135.304 174.293C136.872 177.958 139.802 180.22 141.849 179.345C143.897 178.472 144.286 174.793 142.719 171.128C141.151 167.464 138.219 165.203 136.172 166.076C134.124 166.951 133.736 170.63 135.304 174.293Z" fill="#FFFFFE"/>
<path fill-rule="evenodd" clip-rule="evenodd" d="M240.984 187.404L224.565 184.728C223.367 184.532 222.542 183.371 222.734 182.148C222.925 180.925 224.063 180.084 225.262 180.28L241.681 182.956C242.88 183.152 243.704 184.313 243.512 185.536C243.321 186.76 242.183 187.6 240.984 187.404Z" fill="#ED9B7B"/>
<path fill-rule="evenodd" clip-rule="evenodd" d="M235.902 191.714L222.449 189.626C221.224 189.436 220.383 188.308 220.579 187.121C220.775 185.933 221.936 185.115 223.159 185.306L236.613 187.393C237.837 187.584 238.678 188.711 238.483 189.899C238.287 191.087 237.125 191.904 235.902 191.714Z" fill="#ED9B7B"/>
<path fill-rule="evenodd" clip-rule="evenodd" d="M238.724 198.176L222.486 195.584C221.238 195.384 220.38 194.202 220.58 192.956C220.779 191.71 221.963 190.853 223.211 191.052L239.45 193.645C240.698 193.843 241.555 195.026 241.356 196.272C241.156 197.519 239.972 198.375 238.724 198.176Z" fill="#ED9B7B"/>
<path fill-rule="evenodd" clip-rule="evenodd" d="M233.482 183.172C233.656 183.194 235.655 183.165 237.819 183.127C241.557 183.062 245.256 183.931 248.611 185.662L255.034 188.976C255.034 188.976 251.355 200.428 250.848 200.525C238.464 202.873 234.215 196.975 234.215 196.975L233.482 183.172Z" fill="#ED9B7B"/>
<path fill-rule="evenodd" clip-rule="evenodd" d="M249.287 201.795H244.258V183.124H249.287V201.795Z" fill="#E8EAE8"/>
<path fill-rule="evenodd" clip-rule="evenodd" d="M286.673 203.95C299.998 203.95 312.18 196.137 317.778 183.968L318.054 183.367L335.495 129.868L314.011 122.801L297.015 174.936C294.999 178.826 290.944 181.288 286.558 181.24L249.51 180.871L249.286 203.579L286.335 203.948C286.447 203.949 286.561 203.95 286.673 203.95Z" fill="#17253C"/>
<path fill-rule="evenodd" clip-rule="evenodd" d="M299.575 233.393H280.178V226.93H299.575V233.393Z" fill="#8D869B"/>
<path fill-rule="evenodd" clip-rule="evenodd" d="M336.932 400H319.69V221.185H336.932V400Z" fill="#7B7584"/>
<path fill-rule="evenodd" clip-rule="evenodd" d="M125.721 400H108.479V221.185H125.721V400Z" fill="#7B7584"/>
<path fill-rule="evenodd" clip-rule="evenodd" d="M45.9785 400H28.7367V221.185H45.9785V400Z" fill="#7B7584"/>
<path fill-rule="evenodd" clip-rule="evenodd" d="M125.721 221.185H108.479V280.458L125.721 288.689V221.185Z" fill="#2D3253"/>
<path fill-rule="evenodd" clip-rule="evenodd" d="M28.7367 221.185V240.269L45.9785 248.474V221.185H28.7367Z" fill="#2D3253"/>
<path fill-rule="evenodd" clip-rule="evenodd" d="M319.69 221.185V240.268L336.932 248.474V221.185H319.69Z" fill="#2D3253"/>
<path fill-rule="evenodd" clip-rule="evenodd" d="M432.48 226.212H61.7822V211.209C61.7822 207.2 65.0389 203.95 69.0563 203.95H425.206C429.224 203.95 432.48 207.2 432.48 211.209V226.212Z" fill="#2D3253"/>
<path fill-rule="evenodd" clip-rule="evenodd" d="M379.318 203.95H298.138V186.714H379.318V203.95Z" fill="#BEBEBE"/>
<path fill-rule="evenodd" clip-rule="evenodd" d="M334.777 204.668H296.702V186.714H334.777V204.668Z" fill="#E8EAE8"/>
<path d="M378.6 200.729H296.701M378.6 190.653H296.701H378.6ZM378.6 194.012H296.701H378.6ZM378.6 197.37H296.701H378.6Z" stroke="#8D869B" stroke-width="1.769"/>
<path fill-rule="evenodd" clip-rule="evenodd" d="M512.941 400H398.715V254.219H512.941V400Z" fill="#563041"/>
<path fill-rule="evenodd" clip-rule="evenodd" d="M470.556 400H349.145V254.219H470.556V400Z" fill="#563041"/>
<path fill-rule="evenodd" clip-rule="evenodd" d="M461.217 303.77H356.329V264.991H461.217V303.77Z" fill="#E57451"/>
<path fill-rule="evenodd" clip-rule="evenodd" d="M461.217 349.013H356.329V310.233H461.217V349.013Z" fill="#E57451"/>
<path fill-rule="evenodd" clip-rule="evenodd" d="M461.217 394.255H356.329V355.476H461.217V394.255Z" fill="#E57451"/>
<path fill-rule="evenodd" clip-rule="evenodd" d="M390.692 286.535H416.797C417.915 286.535 418.831 285.565 418.831 284.38C418.831 283.195 417.915 282.226 416.797 282.226H390.692C389.573 282.226 388.658 283.195 388.658 284.38C388.658 285.565 389.573 286.535 390.692 286.535Z" fill="#FFFFFE"/>
<path fill-rule="evenodd" clip-rule="evenodd" d="M389.255 331.059H415.361C416.479 331.059 417.395 330.09 417.395 328.905C417.395 327.72 416.479 326.75 415.361 326.75H389.255C388.137 326.75 387.221 327.72 387.221 328.905C387.221 330.09 388.137 331.059 389.255 331.059Z" fill="#FFFFFE"/>
<path fill-rule="evenodd" clip-rule="evenodd" d="M389.255 376.302H415.361C416.479 376.302 417.395 375.332 417.395 374.148C417.395 372.962 416.479 371.993 415.361 371.993H389.255C388.137 371.993 387.221 372.962 387.221 374.148C387.221 375.332 388.137 376.302 389.255 376.302Z" fill="#FFFFFE"/>
<path fill-rule="evenodd" clip-rule="evenodd" d="M252.879 179.397V204.668H273.713V179.397C273.713 178.285 272.819 177.379 271.721 177.379H254.871C253.774 177.379 252.879 178.285 252.879 179.397Z" fill="#EFA448"/>
<path fill-rule="evenodd" clip-rule="evenodd" d="M274.607 200.359C274.897 200.199 281.693 196.376 282.299 189.679C282.531 187.125 281.524 185.544 280.64 184.666C278.207 182.253 274.164 182.392 273.712 182.415L273.888 185.523C274.71 185.486 277.126 185.646 278.319 186.837C278.927 187.445 279.173 188.286 279.072 189.409C278.61 194.506 273.049 197.629 272.994 197.66L274.607 200.359Z" fill="#E15E3C"/>
<path fill-rule="evenodd" clip-rule="evenodd" d="M258.832 193.896H264.885C266.982 193.896 268.684 192.128 268.684 189.946C268.684 187.765 266.982 185.996 264.885 185.996H258.832C256.734 185.996 255.034 187.765 255.034 189.946C255.034 192.128 256.734 193.896 258.832 193.896Z" fill="#BF3E36"/>
<path fill-rule="evenodd" clip-rule="evenodd" d="M262.936 204.668H274.431V179.397C274.431 178.285 273.505 177.379 272.367 177.379H271.673C271.641 178.697 271.273 188.778 268.378 196.039C265.862 202.361 263.62 204.225 262.936 204.668Z" fill="#E15E3C"/>
<path d="M97.7021 199.991H40.948M97.7021 190.673H40.948H97.7021ZM97.7021 194.024H40.948H97.7021ZM97.7021 196.639H40.948H97.7021Z" stroke="#8D869B" stroke-width="1.438"/>
<path fill-rule="evenodd" clip-rule="evenodd" d="M342.68 187.433L328.943 157.989L315.38 187.086L342.68 187.433Z" fill="#FFFFFE"/>
<path fill-rule="evenodd" clip-rule="evenodd" d="M353.456 185.996H329.749V157.989H353.456V185.996Z" fill="#FFFFFE"/>
<path fill-rule="evenodd" clip-rule="evenodd" d="M366.387 186.714L353.628 157.989L339.806 186.714H366.387Z" fill="#2D3253"/>
<path fill-rule="evenodd" clip-rule="evenodd" d="M344.117 163.016H331.904V161.58H344.117V163.016Z" fill="#8D869B"/>
<path fill-rule="evenodd" clip-rule="evenodd" d="M343.397 165.171H331.185V163.734H343.397V165.171Z" fill="#8D869B"/>
<path fill-rule="evenodd" clip-rule="evenodd" d="M340.448 169.068L334.897 182.75L322.712 182.44L328.633 169.17L340.448 169.068ZM335.552 183.842L341.961 168.043L328.01 168.1L321.127 183.417L335.552 183.842Z" fill="#8D869B"/>
<path d="M338.455 168.761L332.238 183.124M340.524 171.407H327.007H340.524ZM339.352 174.297H325.834H339.352ZM338.386 177.188H324.868H338.386ZM336.8 180.079H323.283H336.8ZM331.035 168.958L324.752 182.792L331.035 168.958ZM334.777 169.024L328.495 182.859L334.777 169.024Z" stroke="#8D869B" stroke-width="1.461"/>
<path fill-rule="evenodd" clip-rule="evenodd" d="M39.7643 184.56L43.1035 183.96L34.9482 137.163L31.609 137.764L39.7643 184.56Z" fill="#3D4F8F"/>
<path fill-rule="evenodd" clip-rule="evenodd" d="M32.7128 150.808L38.0742 149.873L35.5338 135.727L30.1717 136.662L32.7128 150.808Z" fill="#3D4F8F"/>
<path fill-rule="evenodd" clip-rule="evenodd" d="M46.6238 190.305L50.2871 190.016L46.048 142.366L43.8322 139.318L42.3846 142.655L46.6238 190.305Z" fill="#563041"/>
<path fill-rule="evenodd" clip-rule="evenodd" d="M50.2881 192.518L53.6009 193.178L62.501 146.399L61.3521 142.908L59.1882 145.739L50.2881 192.518Z" fill="#17253C"/>
<path fill-rule="evenodd" clip-rule="evenodd" d="M42.7699 203.232H57.0878L61.7822 164.452H38.0748L42.7699 203.232Z" fill="#E15E3C"/>
<path fill-rule="evenodd" clip-rule="evenodd" d="M37.1186 203.232H51.7258L53.8809 164.452H32.3286L37.1186 203.232Z" fill="#EFA448"/>
<path fill-rule="evenodd" clip-rule="evenodd" d="M398.716 234.829V254.219H458.111C462.259 254.219 465.803 251.534 467.128 247.784C467.483 246.769 467.683 245.67 467.683 244.52C467.683 241.852 466.615 239.427 464.884 237.666C463.145 235.912 460.752 234.829 458.111 234.829H398.716Z" fill="#3D4F8F"/>
<path fill-rule="evenodd" clip-rule="evenodd" d="M421.705 247.756V254.219H458.677C462.82 254.219 466.359 251.523 467.683 247.756H421.705Z" fill="#31406B"/>
<path fill-rule="evenodd" clip-rule="evenodd" d="M377.163 234.829V254.219L436.56 254.218C441.843 254.218 446.13 249.875 446.13 244.524C446.13 241.853 445.058 239.427 443.33 237.666C441.591 235.915 439.196 234.829 436.56 234.829H377.163Z" fill="#141D33"/>
<path fill-rule="evenodd" clip-rule="evenodd" d="M375.726 238.42V250.628L433.432 250.628C436.876 250.628 439.664 247.897 439.664 244.524C439.664 242.838 438.964 241.314 437.842 240.204C436.709 239.105 435.154 238.42 433.432 238.42H375.726Z" fill="#E8EAE8"/>
<path fill-rule="evenodd" clip-rule="evenodd" d="M397.279 196.769V216.158L456.676 216.157C461.959 216.157 466.246 211.815 466.246 206.463C466.246 203.793 465.174 201.366 463.446 199.605C461.707 197.854 459.312 196.768 456.676 196.768L397.279 196.769Z" fill="#EFA448"/>
<path fill-rule="evenodd" clip-rule="evenodd" d="M419.55 202.513V196.05H456.523C460.666 196.05 464.206 198.747 465.528 202.513H419.55Z" fill="#FAD141"/>
<path fill-rule="evenodd" clip-rule="evenodd" d="M377.163 196.769V216.158H436.56C441.843 216.158 446.13 211.815 446.13 206.463C446.13 203.793 445.058 201.366 443.33 199.605C441.591 197.854 439.196 196.768 436.56 196.768L377.163 196.769Z" fill="#E57451"/>
<path fill-rule="evenodd" clip-rule="evenodd" d="M375.726 200.359V212.567H433.432C436.876 212.567 439.664 209.836 439.664 206.463C439.664 204.776 438.964 203.254 437.842 202.143C436.709 201.044 435.154 200.359 433.432 200.359H375.726Z" fill="#E8EAE8"/>
<path fill-rule="evenodd" clip-rule="evenodd" d="M393.687 216.158V235.548H453.091C458.374 235.548 462.654 231.203 462.654 225.853C462.654 224.209 462.249 222.658 461.537 221.299C461.089 220.452 460.518 219.672 459.855 218.993C458.117 217.24 455.724 216.158 453.091 216.158H393.687Z" fill="#98C63F"/>
<path fill-rule="evenodd" clip-rule="evenodd" d="M403.026 216.158V221.185H462.654C462.199 220.357 461.619 219.594 460.945 218.93C459.178 217.216 456.745 216.158 454.068 216.158H403.026Z" fill="#6A9640"/>
<path fill-rule="evenodd" clip-rule="evenodd" d="M403.026 235.548V230.521H462.654C462.199 231.349 461.619 232.112 460.945 232.776C459.178 234.49 456.745 235.548 454.068 235.548H403.026Z" fill="#6A9640"/>
<path fill-rule="evenodd" clip-rule="evenodd" d="M364.231 216.159V235.548H423.628C428.911 235.548 433.198 231.204 433.198 225.853C433.198 223.182 432.127 220.756 430.398 218.995C428.66 217.244 426.264 216.158 423.628 216.158L364.231 216.159Z" fill="#4C7E3C"/>
<path fill-rule="evenodd" clip-rule="evenodd" d="M363.513 219.749V231.957H421.219C424.663 231.957 427.451 229.226 427.451 225.852C427.451 224.166 426.751 222.643 425.629 221.533C424.496 220.434 422.941 219.749 421.219 219.749H363.513Z" fill="#E8EAE8"/>
<path fill-rule="evenodd" clip-rule="evenodd" d="M456.67 202.722C464.679 213.629 480.749 215.44 480.749 215.44C480.749 215.44 483.831 199.567 475.821 188.66C467.811 177.752 451.742 175.943 451.742 175.943C451.742 175.943 448.66 191.816 456.67 202.722Z" fill="#51793A"/>
<path fill-rule="evenodd" clip-rule="evenodd" d="M489.711 196.878C482.373 204.011 482.773 216.147 482.773 216.147C482.773 216.147 495.071 216.718 502.409 209.585C509.747 202.452 509.347 190.316 509.347 190.316C509.347 190.316 497.049 189.745 489.711 196.878Z" fill="#3A6238"/>
<path fill-rule="evenodd" clip-rule="evenodd" d="M472.135 191.146C470.656 204.631 481.167 216.876 481.167 216.876C481.167 216.876 494.078 207.257 495.558 193.773C497.036 180.288 486.525 168.043 486.525 168.043C486.525 168.043 473.615 177.661 472.135 191.146Z" fill="#5BAA56"/>
<path fill-rule="evenodd" clip-rule="evenodd" d="M471.758 254.219H499.527L508.632 213.286H462.654L471.758 254.219Z" fill="#563041"/>
<path fill-rule="evenodd" clip-rule="evenodd" d="M462.415 254.219H490.168L494.264 213.286H453.314L462.415 254.219Z" fill="#914E3B"/>
<path fill-rule="evenodd" clip-rule="evenodd" d="M350.583 226.212H0.000183105V211.209C0.000183105 207.2 3.26181 203.95 7.28528 203.95H343.298C347.321 203.95 350.583 207.2 350.583 211.209V226.212Z" fill="#4E6EA7"/>
</svg>
