<svg width="220" height="141" viewBox="0 0 220 141" fill="none" xmlns="http://www.w3.org/2000/svg">
<circle cx="136" cy="68" r="60" fill="#707986"/>
<path fill-rule="evenodd" clip-rule="evenodd" d="M171.02 21.051C171.056 21.051 171.089 21.0544 171.121 21.0577C171.089 21.0544 171.056 21.051 171.02 21.051Z" fill="#FBF3CF"/>
<path fill-rule="evenodd" clip-rule="evenodd" d="M171.673 21.0845C171.735 21.0878 171.794 21.0912 171.85 21.0945C171.794 21.0912 171.735 21.0878 171.673 21.0845Z" fill="#FBF3CF"/>
<path fill-rule="evenodd" clip-rule="evenodd" d="M94.2871 74.8585C94.9139 73.9529 95.521 73.0508 96.138 72.1587C95.521 73.0508 94.9139 73.9529 94.2871 74.8585Z" fill="#FBF3CF"/>
<path fill-rule="evenodd" clip-rule="evenodd" d="M93.5847 75.871C93.778 75.596 93.968 75.321 94.1548 75.0493C93.968 75.321 93.778 75.596 93.5847 75.871Z" fill="#FBF3CF"/>
<path fill-rule="evenodd" clip-rule="evenodd" d="M92.6365 77.1926C92.8892 76.8472 93.1386 76.5018 93.3814 76.1597C93.1386 76.5018 92.8892 76.8472 92.6365 77.1926Z" fill="#FBF3CF"/>
<path fill-rule="evenodd" clip-rule="evenodd" d="M156.43 68.2383C156.485 68.2416 156.534 68.245 156.584 68.245C156.534 68.245 156.485 68.2416 156.43 68.2383Z" fill="#FBF3CF"/>
<path fill-rule="evenodd" clip-rule="evenodd" d="M156.633 68.2483C156.695 68.2516 156.757 68.255 156.816 68.2583C156.757 68.255 156.695 68.2516 156.633 68.2483Z" fill="#FBF3CF"/>
<path fill-rule="evenodd" clip-rule="evenodd" d="M82.3817 69.0463C82.3749 68.8887 82.3647 68.731 82.3579 68.5701C82.3647 68.731 82.3749 68.8887 82.3817 69.0463Z" fill="#FBF3CF"/>
<path fill-rule="evenodd" clip-rule="evenodd" d="M82.3556 68.5499C82.3488 68.4024 82.342 68.2514 82.3318 68.0972C82.342 68.2514 82.3488 68.4024 82.3556 68.5499Z" fill="#FBF3CF"/>
<path fill-rule="evenodd" clip-rule="evenodd" d="M82.4311 69.9821C82.4243 69.8513 82.4175 69.7172 82.4106 69.583C82.4175 69.7172 82.4243 69.8513 82.4311 69.9821Z" fill="#FBF3CF"/>
<path fill-rule="evenodd" clip-rule="evenodd" d="M82.4076 69.519C82.3977 69.3681 82.3912 69.2172 82.3813 69.0596C82.3912 69.2172 82.3977 69.3681 82.4076 69.519Z" fill="#FBF3CF"/>
<path fill-rule="evenodd" clip-rule="evenodd" d="M82.4833 70.8465C82.4799 70.783 82.4765 70.7161 82.4697 70.6526C82.4765 70.7161 82.4799 70.783 82.4833 70.8465Z" fill="#FBF3CF"/>
<path fill-rule="evenodd" clip-rule="evenodd" d="M82.4574 70.4212C82.4506 70.3105 82.4438 70.1931 82.437 70.0791C82.4438 70.1931 82.4506 70.3105 82.4574 70.4212Z" fill="#FBF3CF"/>
<path fill-rule="evenodd" clip-rule="evenodd" d="M155.179 68.2043C155.248 68.2043 155.317 68.2077 155.379 68.2077C155.313 68.2077 155.248 68.2043 155.179 68.2043Z" fill="#FBF3CF"/>
<path fill-rule="evenodd" clip-rule="evenodd" d="M155.465 68.2114C155.527 68.2114 155.586 68.2114 155.648 68.2148C155.586 68.2114 155.527 68.2114 155.465 68.2114Z" fill="#FBF3CF"/>
<path fill-rule="evenodd" clip-rule="evenodd" d="M96.9026 71.0618C97.05 70.8506 97.2007 70.6393 97.3514 70.428C97.2007 70.6393 97.05 70.8506 96.9026 71.0618Z" fill="#FBF3CF"/>
<path fill-rule="evenodd" clip-rule="evenodd" d="M156.216 68.2314C156.265 68.2314 156.314 68.2348 156.363 68.2348C156.314 68.2348 156.265 68.2314 156.216 68.2314Z" fill="#FBF3CF"/>
<path fill-rule="evenodd" clip-rule="evenodd" d="M96.2002 72.0682C96.364 71.8301 96.5278 71.5954 96.6916 71.3606C96.5278 71.5954 96.364 71.8301 96.2002 72.0682Z" fill="#FBF3CF"/>
<path fill-rule="evenodd" clip-rule="evenodd" d="M155.98 68.2249C156.035 68.2249 156.085 68.2282 156.137 68.2282C156.085 68.2282 156.032 68.2249 155.98 68.2249Z" fill="#FBF3CF"/>
<path fill-rule="evenodd" clip-rule="evenodd" d="M155.73 68.218C155.786 68.218 155.845 68.218 155.897 68.2214C155.845 68.218 155.786 68.218 155.73 68.218Z" fill="#FBF3CF"/>
<path fill-rule="evenodd" clip-rule="evenodd" d="M154.812 68.198C154.91 68.198 155.005 68.2013 155.097 68.2013C155.005 68.2013 154.91 68.198 154.812 68.198Z" fill="#FBF3CF"/>
<path fill-rule="evenodd" clip-rule="evenodd" d="M82.5095 71.2592C82.5061 71.2157 82.5027 71.1689 82.4993 71.1255C82.5027 71.1689 82.5061 71.2157 82.5095 71.2592Z" fill="#FBF3CF"/>
<path fill-rule="evenodd" clip-rule="evenodd" d="M92.0293 74.4258C91.99 74.4826 91.9507 74.5361 91.9114 74.5929C91.9507 74.5361 91.99 74.4826 92.0293 74.4258Z" fill="#FBF3CF"/>
<path fill-rule="evenodd" clip-rule="evenodd" d="M92.6429 73.5874C92.6036 73.6375 92.5675 73.6877 92.5315 73.7378C92.5675 73.6877 92.6036 73.6375 92.6429 73.5874Z" fill="#FBF3CF"/>
<path fill-rule="evenodd" clip-rule="evenodd" d="M92.9645 73.1479C92.935 73.1914 92.9023 73.2315 92.8728 73.275C92.9023 73.2315 92.935 73.1914 92.9645 73.1479Z" fill="#FBF3CF"/>
<path fill-rule="evenodd" clip-rule="evenodd" d="M156.833 68.2581C156.885 68.2614 156.935 68.2647 156.984 68.2681C156.935 68.2647 156.885 68.2614 156.833 68.2581Z" fill="#FBF3CF"/>
<path fill-rule="evenodd" clip-rule="evenodd" d="M93.2994 72.6987C93.2765 72.7288 93.2568 72.7556 93.2339 72.7856C93.2568 72.7556 93.2765 72.7288 93.2994 72.6987Z" fill="#FBF3CF"/>
<path fill-rule="evenodd" clip-rule="evenodd" d="M95.1011 70.3008C95.0979 70.3008 95.0979 70.3042 95.0946 70.3042C96.7682 68.0974 98.4025 65.9946 99.177 65.0053C99.177 65.0053 99.387 55.7657 99.3673 55.1922C99.1376 49.2326 98.9407 43.2696 98.6421 37.3134C98.5994 36.4078 99.0064 35.12 97.6248 34.7243C96.1185 34.2883 96.3908 33.4331 96.9717 32.3833C97.4672 31.4912 97.8381 30.5287 98.2811 29.6064C98.583 28.9826 98.9046 28.3253 99.7644 28.5399C100.582 28.7412 100.68 29.3985 100.67 30.1397C100.634 32.7791 100.68 35.4218 100.595 38.0579C100.358 45.141 100.926 55.0212 101.002 62.1479C102.715 59.4749 112.038 44.5206 112.917 45.188C113.735 45.8084 102.715 62.3089 102.311 63.1272C101.645 64.472 100.601 65.5922 103.479 65.7968C105.396 65.9175 105.799 65.951 106.01 65.8068C106.026 65.7934 106.042 65.78 106.059 65.7666V65.7632C106.098 65.7263 106.137 65.6794 106.18 65.6257C106.19 65.6157 106.197 65.6056 106.203 65.5989C106.21 65.5888 106.216 65.5821 106.223 65.5754L106.226 65.5721C106.229 65.5687 106.233 65.562 106.239 65.5586C106.246 65.5486 106.256 65.5385 106.262 65.5285C106.269 65.5251 106.272 65.5184 106.275 65.515C106.279 65.5117 106.285 65.505 106.288 65.5016C106.295 65.4949 106.305 65.4849 106.311 65.4781C106.321 65.4647 106.331 65.4547 106.344 65.4446C106.351 65.4379 106.357 65.4312 106.364 65.4245C106.367 65.4211 106.37 65.4178 106.374 65.4144C106.387 65.4044 106.397 65.3943 106.41 65.3809C106.42 65.3708 106.43 65.3641 106.439 65.3541C106.449 65.3474 106.459 65.3373 106.469 65.3306C106.476 65.3239 106.482 65.3172 106.489 65.3105H106.492C106.502 65.3038 106.512 65.2937 106.521 65.287C106.548 65.2635 106.581 65.24 106.613 65.2132C108.382 63.8885 114.654 55.551 115.74 53.7233C116.675 52.2878 117.676 52.8714 123.357 54.2431C125.253 54.6992 126.159 53.8775 126.727 52.3549C127.761 49.5747 129.159 46.942 129.818 44.0041C130.412 41.3613 131.223 40.8549 133.874 41.0964C134.99 41.2004 136.106 41.4385 137.222 41.4452C140.848 41.4586 141.143 41.6028 141.993 38.1115C142.4 36.4514 143.355 35.4319 144.881 35.167C149.308 34.3922 153.732 33.6444 157.952 31.9809C158.339 31.83 158.858 31.7629 159.18 32.2157C159.554 32.7422 159.413 33.2989 159.189 33.8322C158.809 34.7377 157.982 34.6974 157.211 34.8483C154.126 35.4487 151.064 36.1999 147.963 36.6795C145.964 36.9914 144.494 37.9808 143.851 39.7884C142.83 42.6525 140.95 43.6083 138.137 43.3199C137.146 43.216 136.093 43.6251 135.125 43.4541C133.139 43.1053 132.24 44.1617 131.6 45.8051C130.478 48.6826 128.916 52.4388 127.751 55.2962C126.773 57.7008 120.127 56.1547 117.683 55.6349C117.66 55.6315 117.633 55.6315 117.604 55.6315C117.591 55.6315 117.574 55.6382 117.561 55.6382C117.545 55.6416 117.528 55.6416 117.512 55.6483C117.495 55.6517 117.479 55.6584 117.466 55.6617C117.456 55.6651 117.45 55.6651 117.443 55.6684C117.43 55.6751 117.417 55.6751 117.404 55.6818C117.381 55.6919 117.354 55.702 117.328 55.712C117.325 55.7154 117.322 55.7154 117.318 55.7187C117.305 55.7254 117.292 55.7288 117.279 55.7355C117.246 55.7523 117.207 55.7724 117.171 55.7925C117.167 55.7959 117.161 55.7959 117.157 55.7992C117.151 55.8026 117.148 55.8059 117.141 55.8093C117.102 55.8294 117.059 55.8562 117.016 55.8864C117.013 55.8864 117.01 55.8864 117.01 55.8898C117.003 55.8931 116.997 55.8965 116.99 55.8998C116.944 55.93 116.898 55.9602 116.849 55.9937C116.842 56.0005 116.833 56.0072 116.823 56.0139C116.773 56.0474 116.718 56.0876 116.665 56.1279C116.659 56.1346 116.652 56.138 116.642 56.1447C116.583 56.1916 116.518 56.2419 116.452 56.2956C116.383 56.3492 116.317 56.4063 116.245 56.47C114.969 57.5633 113 59.7533 110.607 63.1875C110.601 63.1942 110.597 63.201 110.594 63.2077C110.463 63.3955 110.332 63.5866 110.197 63.7812C110.194 63.7845 110.194 63.7879 110.19 63.7912C110.066 63.9757 109.938 64.1635 109.813 64.3513C109.8 64.3681 109.79 64.3848 109.777 64.4049C109.652 64.5928 109.524 64.7839 109.396 64.9784C109.383 64.9986 109.373 65.0153 109.36 65.0355C109.235 65.2233 109.111 65.4144 108.986 65.6089C108.963 65.6458 108.94 65.6794 108.917 65.7163C108.907 65.733 108.894 65.7498 108.884 65.7699C110.794 66.1321 113.111 66.226 114.982 66.1623C119.77 65.998 151.615 67.2322 156.387 66.2529C156.597 66.2093 158.169 65.4379 158.366 65.5184C158.369 65.5184 158.376 65.5184 158.379 65.5217C161.257 62.6878 162.977 59.0725 164.256 55.0983C165.113 52.4421 165.746 49.7222 166.452 47.0225C167.315 43.7291 168.178 40.4223 168.667 37.0451C169.435 31.7696 169.704 26.3399 169.98 20.9974C169.99 20.9974 169.996 20.9974 170.003 20.9974C163.859 20.6754 148.222 19.837 143.066 19.9275C137.008 20.0315 90.2081 19.3976 85.8271 19.4278C82.8145 19.4479 82.1122 20.6318 81.9186 23.5596C81.6068 28.2448 81.0883 32.9334 81.3082 37.6487C81.4329 40.3586 81.8496 58.1636 82.332 68.0438C84.5177 68.8151 86.8083 69.3249 89.0398 69.6536C91.0614 69.9521 93.0763 70.16 95.1011 70.3008Z" fill="#FBF3CF"/>
<path fill-rule="evenodd" clip-rule="evenodd" d="M161.342 66.0983C160.276 65.83 158.746 65.659 158.379 65.5215C158.746 65.659 160.276 65.83 161.342 66.0983Z" fill="#FBF3CF"/>
<path fill-rule="evenodd" clip-rule="evenodd" d="M94.7431 70.7734C94.7366 70.7766 94.7334 70.7829 94.7302 70.7861C94.7334 70.7829 94.7366 70.7766 94.7431 70.7734Z" fill="#FBF3CF"/>
<path fill-rule="evenodd" clip-rule="evenodd" d="M91.4711 75.2107C91.4351 75.2608 91.3991 75.3143 91.363 75.3645C91.3991 75.3143 91.4351 75.2608 91.4711 75.2107Z" fill="#FBF3CF"/>
<path fill-rule="evenodd" clip-rule="evenodd" d="M91.7405 74.8315C91.7045 74.8817 91.6685 74.9352 91.6292 74.9853C91.6685 74.9352 91.7045 74.8817 91.7405 74.8315Z" fill="#FBF3CF"/>
<path fill-rule="evenodd" clip-rule="evenodd" d="M90.7691 76.2302C90.7429 76.267 90.7134 76.3105 90.6904 76.3472C90.7134 76.3105 90.7429 76.267 90.7691 76.2302Z" fill="#FBF3CF"/>
<path fill-rule="evenodd" clip-rule="evenodd" d="M90.569 76.5286C90.5493 76.5587 90.5297 76.5921 90.51 76.6222C90.5297 76.5921 90.5493 76.5587 90.569 76.5286Z" fill="#FBF3CF"/>
<path fill-rule="evenodd" clip-rule="evenodd" d="M120.787 70.5352H142.026C146.279 70.5352 150.956 70.2636 154.812 68.1977C144.527 68.0266 110.164 68.7041 101.005 67.8388C100.24 67.7684 99.364 67.5303 98.8717 68.3989C98.3434 69.0696 97.8413 69.7471 97.3523 70.4279C98.9078 70.4983 100.467 70.5319 102.035 70.5352C108.284 70.552 114.535 70.5352 120.787 70.5352Z" fill="#FBF3CF"/>
<path fill-rule="evenodd" clip-rule="evenodd" d="M162.343 66.5144C162.353 66.5277 162.363 66.5409 162.373 66.5509C162.363 66.5409 162.353 66.5277 162.343 66.5144Z" fill="#FBF3CF"/>
<path fill-rule="evenodd" clip-rule="evenodd" d="M161.49 66.1387C161.447 66.1253 161.404 66.1153 161.359 66.1052C161.404 66.1153 161.447 66.1253 161.49 66.1387Z" fill="#FBF3CF"/>
<path fill-rule="evenodd" clip-rule="evenodd" d="M90.9824 75.9116C90.9529 75.9551 90.9201 76.0019 90.8906 76.0453C90.9201 76.0019 90.9529 75.9551 90.9824 75.9116Z" fill="#FBF3CF"/>
<path fill-rule="evenodd" clip-rule="evenodd" d="M91.2185 75.5693C91.1858 75.6195 91.1497 75.6696 91.1169 75.7164C91.1497 75.6696 91.1858 75.6195 91.2185 75.5693Z" fill="#FBF3CF"/>
<path fill-rule="evenodd" clip-rule="evenodd" d="M92.3311 74.0166C92.2885 74.0701 92.2524 74.1236 92.2131 74.1771C92.2524 74.1236 92.2885 74.0701 92.3311 74.0166Z" fill="#FBF3CF"/>
<path fill-rule="evenodd" clip-rule="evenodd" d="M157.434 68.3052C157.453 68.3085 157.473 68.3085 157.49 68.3119C157.473 68.3085 157.453 68.3085 157.434 68.3052Z" fill="#FBF3CF"/>
<path fill-rule="evenodd" clip-rule="evenodd" d="M161.634 66.1789C161.591 66.1655 161.552 66.1555 161.509 66.1421C161.552 66.1555 161.591 66.1655 161.634 66.1789Z" fill="#FBF3CF"/>
<path fill-rule="evenodd" clip-rule="evenodd" d="M157.604 68.3289C157.621 68.3322 157.634 68.3355 157.648 68.3388C157.634 68.3355 157.621 68.3322 157.604 68.3289Z" fill="#FBF3CF"/>
<path fill-rule="evenodd" clip-rule="evenodd" d="M157.663 68.3455C157.683 68.3488 157.697 68.3521 157.707 68.3587C157.697 68.3521 157.683 68.3488 157.663 68.3455Z" fill="#FBF3CF"/>
<path fill-rule="evenodd" clip-rule="evenodd" d="M157.033 68.2683C157.069 68.2717 157.102 68.275 157.135 68.2783C157.102 68.275 157.069 68.2717 157.033 68.2683Z" fill="#FBF3CF"/>
<path fill-rule="evenodd" clip-rule="evenodd" d="M162.406 66.6209C162.403 66.6043 162.393 66.5844 162.383 66.5679C162.393 66.5844 162.403 66.6043 162.406 66.6209Z" fill="#FBF3CF"/>
<path fill-rule="evenodd" clip-rule="evenodd" d="M157.188 68.2817C157.214 68.2817 157.243 68.2851 157.27 68.2884C157.243 68.2851 157.214 68.2817 157.188 68.2817Z" fill="#FBF3CF"/>
<path fill-rule="evenodd" clip-rule="evenodd" d="M157.319 68.2917C157.342 68.2951 157.365 68.2984 157.388 68.2984C157.365 68.2984 157.342 68.2951 157.319 68.2917Z" fill="#FBF3CF"/>
<path fill-rule="evenodd" clip-rule="evenodd" d="M157.526 68.3186C157.545 68.3186 157.562 68.3219 157.578 68.3253C157.562 68.3219 157.545 68.3186 157.526 68.3186Z" fill="#FBF3CF"/>
<path fill-rule="evenodd" clip-rule="evenodd" d="M161.995 66.3063C161.969 66.2929 161.939 66.2829 161.91 66.2695C161.939 66.2829 161.969 66.2929 161.995 66.3063Z" fill="#FBF3CF"/>
<path fill-rule="evenodd" clip-rule="evenodd" d="M161.883 66.2628C161.854 66.2495 161.821 66.2394 161.788 66.2261C161.821 66.2394 161.854 66.2495 161.883 66.2628Z" fill="#FBF3CF"/>
<path fill-rule="evenodd" clip-rule="evenodd" d="M162.324 66.4973C162.311 66.4873 162.301 66.4741 162.284 66.4641C162.301 66.4741 162.311 66.4873 162.324 66.4973Z" fill="#FBF3CF"/>
<path fill-rule="evenodd" clip-rule="evenodd" d="M161.762 66.219C161.726 66.2056 161.69 66.1956 161.654 66.1855C161.69 66.1956 161.726 66.2056 161.762 66.219Z" fill="#FBF3CF"/>
<path fill-rule="evenodd" clip-rule="evenodd" d="M162.262 66.4434C162.245 66.4335 162.228 66.4235 162.212 66.4136C162.228 66.4235 162.245 66.4335 162.262 66.4434Z" fill="#FBF3CF"/>
<path fill-rule="evenodd" clip-rule="evenodd" d="M162.186 66.397C162.166 66.3869 162.146 66.3736 162.123 66.3635C162.146 66.3736 162.166 66.3869 162.186 66.397Z" fill="#FBF3CF"/>
<path fill-rule="evenodd" clip-rule="evenodd" d="M162.097 66.3501C162.074 66.3401 162.051 66.3267 162.025 66.3167C162.051 66.3267 162.074 66.3401 162.097 66.3501Z" fill="#FBF3CF"/>
<path fill-rule="evenodd" clip-rule="evenodd" d="M101.595 130.608C101.54 130.581 101.487 130.547 101.435 130.514C101.487 130.547 101.54 130.581 101.595 130.608Z" fill="#C1A972"/>
<path fill-rule="evenodd" clip-rule="evenodd" d="M101.802 130.695C101.769 130.685 101.74 130.675 101.71 130.665C101.74 130.675 101.769 130.685 101.802 130.695Z" fill="#C1A972"/>
<path fill-rule="evenodd" clip-rule="evenodd" d="M101.385 130.477C101.349 130.45 101.313 130.42 101.281 130.39C101.313 130.42 101.349 130.45 101.385 130.477Z" fill="#C1A972"/>
<path fill-rule="evenodd" clip-rule="evenodd" d="M115.165 79.9661C115.224 79.9761 115.283 79.9828 115.339 79.9928C115.283 79.9828 115.224 79.9761 115.165 79.9661Z" fill="#C1A972"/>
<path fill-rule="evenodd" clip-rule="evenodd" d="M114.893 79.926C114.968 79.9361 115.044 79.9494 115.116 79.9594C115.044 79.9494 114.968 79.9361 114.893 79.926Z" fill="#C1A972"/>
<path fill-rule="evenodd" clip-rule="evenodd" d="M115.395 80.0029C115.451 80.0096 115.503 80.0196 115.556 80.0263C115.503 80.0196 115.451 80.0096 115.395 80.0029Z" fill="#C1A972"/>
<path fill-rule="evenodd" clip-rule="evenodd" d="M102.258 130.792C102.229 130.792 102.203 130.786 102.177 130.782C102.203 130.786 102.229 130.792 102.258 130.792Z" fill="#C1A972"/>
<path fill-rule="evenodd" clip-rule="evenodd" d="M117.085 80.6067C117.099 80.6266 117.112 80.6431 117.125 80.663C117.112 80.6431 117.099 80.6266 117.085 80.6067Z" fill="#C1A972"/>
<path fill-rule="evenodd" clip-rule="evenodd" d="M117.184 80.7744C117.194 80.7976 117.204 80.8175 117.214 80.8407C117.204 80.8175 117.194 80.7976 117.184 80.7744Z" fill="#C1A972"/>
<path fill-rule="evenodd" clip-rule="evenodd" d="M117.223 80.8718C117.23 80.895 117.236 80.9182 117.243 80.9414C117.236 80.9182 117.23 80.895 117.223 80.8718Z" fill="#C1A972"/>
<path fill-rule="evenodd" clip-rule="evenodd" d="M115.602 80.0369C115.651 80.0436 115.703 80.0536 115.753 80.0636C115.703 80.0536 115.651 80.0436 115.602 80.0369Z" fill="#C1A972"/>
<path fill-rule="evenodd" clip-rule="evenodd" d="M114.263 90.3159C114.529 86.8548 114.686 83.3904 114.89 79.926C114.778 79.9092 114.667 79.8924 114.548 79.8757C112.038 79.5135 111.726 79.7214 111.017 82.2736C110.925 82.6056 110.866 82.9444 110.791 83.2797C108.366 93.7568 105.914 104.231 103.525 114.718C102.56 118.957 101.658 123.213 100.857 127.489C100.611 128.8 100.703 129.81 101.248 130.356C101.212 130.319 101.179 130.286 101.149 130.249C111.07 120.181 113.223 103.979 114.263 90.3159Z" fill="#C1A972"/>
<path fill-rule="evenodd" clip-rule="evenodd" d="M102.019 130.755C101.986 130.749 101.956 130.742 101.927 130.735C101.956 130.742 101.986 130.749 102.019 130.755Z" fill="#C1A972"/>
<path fill-rule="evenodd" clip-rule="evenodd" d="M117.125 82.9209C117.118 82.9574 117.115 82.9938 117.108 83.0303C117.115 82.9938 117.118 82.9574 117.125 82.9209Z" fill="#C1A972"/>
<path fill-rule="evenodd" clip-rule="evenodd" d="M117.138 80.6873C117.151 80.7071 117.161 80.727 117.171 80.7469C117.161 80.727 117.151 80.7071 117.138 80.6873Z" fill="#C1A972"/>
<path fill-rule="evenodd" clip-rule="evenodd" d="M117.272 81.0898C117.276 81.1164 117.279 81.1462 117.282 81.1727C117.279 81.1462 117.276 81.1164 117.272 81.0898Z" fill="#C1A972"/>
<path fill-rule="evenodd" clip-rule="evenodd" d="M117.253 82.002C117.249 82.0421 117.243 82.0855 117.236 82.129C117.243 82.0855 117.249 82.0421 117.253 82.002Z" fill="#C1A972"/>
<path fill-rule="evenodd" clip-rule="evenodd" d="M117.201 82.4075C117.194 82.4543 117.187 82.5011 117.18 82.5546C117.187 82.5011 117.194 82.4543 117.201 82.4075Z" fill="#C1A972"/>
<path fill-rule="evenodd" clip-rule="evenodd" d="M117.273 81.8174C117.269 81.8575 117.263 81.8976 117.259 81.9411C117.263 81.8976 117.269 81.8575 117.273 81.8174Z" fill="#C1A972"/>
<path fill-rule="evenodd" clip-rule="evenodd" d="M117.23 82.1997C117.223 82.2432 117.217 82.2866 117.21 82.3334C117.217 82.2866 117.223 82.2432 117.23 82.1997Z" fill="#C1A972"/>
<path fill-rule="evenodd" clip-rule="evenodd" d="M117.292 81.4922C117.289 81.5253 117.289 81.5618 117.285 81.5982C117.289 81.5618 117.289 81.5253 117.292 81.4922Z" fill="#C1A972"/>
<path fill-rule="evenodd" clip-rule="evenodd" d="M117.282 81.6499C117.282 81.6864 117.279 81.7228 117.276 81.7626C117.279 81.7228 117.282 81.6864 117.282 81.6499Z" fill="#C1A972"/>
<path fill-rule="evenodd" clip-rule="evenodd" d="M117.249 80.9758C117.256 81.0023 117.263 81.0255 117.266 81.0521C117.263 81.0255 117.256 81.0023 117.249 80.9758Z" fill="#C1A972"/>
<path fill-rule="evenodd" clip-rule="evenodd" d="M116.859 80.4055C116.882 80.4222 116.901 80.4356 116.921 80.4523C116.901 80.4356 116.882 80.4222 116.859 80.4055Z" fill="#C1A972"/>
<path fill-rule="evenodd" clip-rule="evenodd" d="M116.652 80.3018C116.684 80.3151 116.711 80.3285 116.737 80.3419C116.711 80.3285 116.684 80.3151 116.652 80.3018Z" fill="#C1A972"/>
<path fill-rule="evenodd" clip-rule="evenodd" d="M116.534 80.2549C116.57 80.2649 116.602 80.2783 116.635 80.2916C116.602 80.2783 116.57 80.2649 116.534 80.2549Z" fill="#C1A972"/>
<path fill-rule="evenodd" clip-rule="evenodd" d="M116.944 80.4692C116.964 80.4826 116.98 80.4993 116.996 80.516C116.98 80.4993 116.964 80.4826 116.944 80.4692Z" fill="#C1A972"/>
<path fill-rule="evenodd" clip-rule="evenodd" d="M117.02 80.5364C117.036 80.5496 117.05 80.5695 117.066 80.5861C117.05 80.5695 117.036 80.5496 117.02 80.5364Z" fill="#C1A972"/>
<path fill-rule="evenodd" clip-rule="evenodd" d="M117.285 81.2136C117.289 81.2434 117.289 81.2733 117.289 81.3031C117.289 81.2733 117.289 81.2434 117.285 81.2136Z" fill="#C1A972"/>
<path fill-rule="evenodd" clip-rule="evenodd" d="M117.171 82.6292C117.161 82.6793 117.154 82.7294 117.147 82.7829C117.154 82.7294 117.161 82.6793 117.171 82.6292Z" fill="#C1A972"/>
<path fill-rule="evenodd" clip-rule="evenodd" d="M115.786 80.0667C116.084 80.1235 116.33 80.1803 116.531 80.2505C116.33 80.1803 116.084 80.1235 115.786 80.0667Z" fill="#C1A972"/>
<path fill-rule="evenodd" clip-rule="evenodd" d="M116.76 80.3518C116.786 80.3652 116.809 80.3786 116.835 80.3919C116.809 80.3786 116.786 80.3652 116.76 80.3518Z" fill="#C1A972"/>
<path fill-rule="evenodd" clip-rule="evenodd" d="M140.526 81.4082C140.553 81.4216 140.576 81.4349 140.598 81.4483C140.576 81.4349 140.553 81.4216 140.526 81.4082Z" fill="#C1A972"/>
<path fill-rule="evenodd" clip-rule="evenodd" d="M140.802 81.5862C140.818 81.5961 140.832 81.6061 140.845 81.616C140.832 81.6061 140.818 81.5961 140.802 81.5862Z" fill="#C1A972"/>
<path fill-rule="evenodd" clip-rule="evenodd" d="M140.287 81.2773C140.31 81.2907 140.333 81.3041 140.359 81.3141C140.333 81.3007 140.31 81.2907 140.287 81.2773Z" fill="#C1A972"/>
<path fill-rule="evenodd" clip-rule="evenodd" d="M141.353 82.146C141.363 82.1626 141.377 82.1758 141.387 82.1924C141.377 82.1758 141.363 82.1626 141.353 82.146Z" fill="#C1A972"/>
<path fill-rule="evenodd" clip-rule="evenodd" d="M139.962 81.1401C139.995 81.1535 140.028 81.1635 140.057 81.1769C140.028 81.1635 139.995 81.1535 139.962 81.1401Z" fill="#C1A972"/>
<path fill-rule="evenodd" clip-rule="evenodd" d="M141.002 81.7471C141.019 81.7603 141.036 81.7736 141.053 81.7902C141.036 81.7736 141.019 81.7603 141.002 81.7471Z" fill="#C1A972"/>
<path fill-rule="evenodd" clip-rule="evenodd" d="M141.215 81.9585C141.222 81.9652 141.226 81.9719 141.232 81.9785C141.226 81.9719 141.222 81.9652 141.215 81.9585Z" fill="#C1A972"/>
<path fill-rule="evenodd" clip-rule="evenodd" d="M139.066 80.9053C139.109 80.912 139.148 80.9187 139.187 80.9253C139.148 80.9187 139.109 80.912 139.066 80.9053Z" fill="#C1A972"/>
<path fill-rule="evenodd" clip-rule="evenodd" d="M146.6 130.323C146.509 130.313 146.417 130.303 146.332 130.289C146.417 130.303 146.509 130.313 146.6 130.323Z" fill="#C1A972"/>
<path fill-rule="evenodd" clip-rule="evenodd" d="M147.231 130.356C147.001 130.349 146.794 130.339 146.611 130.323C146.798 130.339 147.001 130.349 147.231 130.356Z" fill="#C1A972"/>
<path fill-rule="evenodd" clip-rule="evenodd" d="M147.611 130.36C147.493 130.36 147.378 130.36 147.27 130.356C147.378 130.36 147.493 130.36 147.611 130.36Z" fill="#C1A972"/>
<path fill-rule="evenodd" clip-rule="evenodd" d="M139.696 81.0493C139.729 81.0593 139.762 81.0694 139.798 81.0827C139.762 81.0694 139.729 81.0593 139.696 81.0493Z" fill="#C1A972"/>
<path fill-rule="evenodd" clip-rule="evenodd" d="M148.047 130.356C147.913 130.36 147.788 130.36 147.667 130.36C147.788 130.36 147.913 130.36 148.047 130.356Z" fill="#C1A972"/>
<path fill-rule="evenodd" clip-rule="evenodd" d="M139.348 80.9587C139.384 80.9654 139.42 80.9721 139.456 80.9821C139.42 80.9721 139.384 80.9654 139.348 80.9587Z" fill="#C1A972"/>
<path fill-rule="evenodd" clip-rule="evenodd" d="M145.108 118.725C144.694 114.711 144.149 110.713 143.772 106.699C143.358 102.242 143.027 97.7644 142.236 93.3575C141.875 91.3252 141.225 89.437 140.5 87.5153C140.133 86.5427 139.762 85.5701 139.473 84.5707C139.368 84.2052 139.283 83.8362 139.197 83.464C139.21 83.1856 139.112 82.7261 139.109 82.5518C139.099 81.9816 139 81.4182 138.826 80.8782H138.83C138.295 80.8279 137.77 80.8849 137.337 81.0728C135.971 81.6697 136.677 82.7932 136.851 83.7289C138.525 92.6231 139.269 101.671 141.097 110.546C142.249 116.15 143.23 121.791 144.428 127.385C144.868 129.441 145.111 130.098 146.328 130.289C146.069 130.245 145.856 130.185 145.675 130.095C145.744 126.301 145.498 122.488 145.108 118.725Z" fill="#C1A972"/>
<path fill-rule="evenodd" clip-rule="evenodd" d="M168.667 37.045C168.178 40.4222 167.315 43.729 166.452 47.0224C165.746 49.7222 165.113 52.4421 164.256 55.0982C162.976 59.0724 161.257 62.6878 158.379 65.5217C158.746 65.6592 160.276 65.8302 161.342 66.0985C161.349 66.1019 161.355 66.1019 161.359 66.1053C161.405 66.1153 161.447 66.1254 161.49 66.1388C161.496 66.1388 161.503 66.1422 161.51 66.1422C161.552 66.1556 161.592 66.1656 161.634 66.179C161.641 66.1824 161.647 66.1824 161.654 66.1857C161.69 66.1958 161.726 66.2059 161.762 66.2193C161.769 66.2226 161.779 66.226 161.788 66.226C161.821 66.2394 161.854 66.2495 161.884 66.2629C161.893 66.2662 161.903 66.2696 161.91 66.2696C161.939 66.283 161.969 66.2931 161.995 66.3065C162.005 66.3098 162.015 66.3132 162.025 66.3165C162.051 66.3266 162.074 66.34 162.097 66.3501C162.107 66.3568 162.117 66.3601 162.123 66.3635C162.146 66.3736 162.166 66.387 162.186 66.397C162.195 66.4037 162.202 66.4071 162.212 66.4138C162.228 66.4239 162.245 66.4339 162.261 66.444C162.268 66.4507 162.277 66.4574 162.284 66.4641C162.3 66.4742 162.31 66.4876 162.323 66.4976C162.33 66.5044 162.337 66.5077 162.343 66.5144C162.353 66.5278 162.363 66.5412 162.373 66.5513C162.376 66.558 162.379 66.5614 162.382 66.5681C162.392 66.5848 162.402 66.605 162.405 66.6217C162.592 67.3562 161.916 67.5474 161.519 67.8995C160.354 68.9291 158.904 68.9023 157.706 68.359C157.696 68.3523 157.683 68.3489 157.663 68.3456C157.66 68.3422 157.654 68.3422 157.647 68.3389C157.634 68.3355 157.621 68.3321 157.604 68.3288C157.598 68.3288 157.585 68.3254 157.578 68.3254C157.562 68.3221 157.545 68.3187 157.526 68.3187C157.516 68.3154 157.503 68.3154 157.489 68.312C157.473 68.3087 157.453 68.3087 157.434 68.3053C157.417 68.302 157.404 68.302 157.388 68.2986C157.365 68.2986 157.342 68.2953 157.319 68.2919C157.302 68.2919 157.286 68.2886 157.27 68.2886C157.243 68.2852 157.214 68.2818 157.188 68.2818C157.168 68.2785 157.151 68.2785 157.135 68.2785C157.102 68.2751 157.069 68.2718 157.033 68.2684C157.017 68.2684 157 68.2684 156.984 68.2684C156.935 68.2651 156.886 68.2617 156.833 68.2584C156.827 68.2584 156.823 68.2584 156.817 68.2584C156.758 68.255 156.695 68.2517 156.633 68.2483C156.617 68.2483 156.6 68.2449 156.584 68.2449C156.534 68.2449 156.485 68.2416 156.429 68.2382C156.41 68.2382 156.387 68.2382 156.364 68.2349C156.315 68.2349 156.265 68.2315 156.216 68.2315C156.19 68.2315 156.164 68.2282 156.137 68.2282C156.085 68.2282 156.036 68.2248 155.98 68.2248C155.954 68.2215 155.927 68.2215 155.898 68.2215C155.845 68.2181 155.786 68.2181 155.73 68.2181C155.701 68.2148 155.675 68.2148 155.648 68.2148C155.586 68.2114 155.527 68.2114 155.465 68.2114C155.435 68.2081 155.409 68.2081 155.379 68.2081C155.317 68.2081 155.248 68.2047 155.179 68.2047C155.153 68.2047 155.127 68.2013 155.097 68.2013C155.005 68.2013 154.91 68.198 154.812 68.198C150.956 70.2639 146.279 70.5356 142.026 70.5356H120.787C114.535 70.5356 108.284 70.5523 102.035 70.5356C100.467 70.5322 98.9078 70.4987 97.3523 70.4282C97.2013 70.6395 97.0504 70.8508 96.9027 71.0621C96.8305 71.1627 96.7616 71.26 96.6927 71.3606C96.5286 71.5953 96.3645 71.8301 96.2004 72.0682C96.1807 72.0984 96.1577 72.1286 96.138 72.1588C95.5211 73.0509 94.914 73.953 94.2872 74.8585C94.2445 74.9223 94.2018 74.986 94.1559 75.0497C93.9688 75.3214 93.7785 75.5964 93.5849 75.8714C93.516 75.9653 93.4503 76.0625 93.3814 76.1598C93.1386 76.5019 92.8892 76.8473 92.6365 77.1928C94.0935 77.3973 166.79 80.248 169.113 79.7181C172.257 78.9971 173.635 79.5068 173.675 76.1531C173.698 73.9765 175.575 30.6595 175.368 25.7295C175.243 22.7379 174.229 21.212 171.85 21.0946C171.794 21.0912 171.735 21.0879 171.673 21.0845C171.565 21.0778 171.443 21.0711 171.312 21.0644C171.292 21.0644 171.273 21.0644 171.25 21.0644C171.21 21.061 171.168 21.0577 171.122 21.0577C171.089 21.0543 171.056 21.051 171.02 21.051C170.793 21.0376 170.544 21.0275 170.275 21.0107C170.268 21.0107 170.262 21.0107 170.255 21.0107C170.173 21.0074 170.088 21.004 170.003 20.9973C169.996 20.9973 169.989 20.9973 169.98 20.9973C169.704 26.3398 169.435 31.7696 168.667 37.045Z" fill="#EADFB2"/>
<path fill-rule="evenodd" clip-rule="evenodd" d="M90.3555 76.8641C90.4048 76.7903 90.454 76.7064 90.5098 76.6226C90.5295 76.5924 90.5492 76.5589 90.5689 76.5287C90.6082 76.4717 90.6476 76.4113 90.6903 76.3476C90.7132 76.3107 90.7428 76.2671 90.769 76.2302C90.8084 76.1698 90.8478 76.1095 90.8905 76.0457C90.92 76.0021 90.9528 75.9552 90.9823 75.9116C91.0283 75.8479 91.071 75.7842 91.1169 75.7171C91.1497 75.6701 91.1858 75.6198 91.2186 75.5695C91.2646 75.5024 91.3138 75.4354 91.363 75.3649C91.3991 75.3146 91.4352 75.261 91.4713 75.2107C91.5238 75.1369 91.5763 75.0631 91.6288 74.986C91.6682 74.9357 91.7043 74.882 91.7404 74.8317C91.7962 74.7512 91.8553 74.6741 91.9111 74.5936C91.9504 74.5366 91.9898 74.4829 92.0292 74.4259C92.0916 74.3454 92.1506 74.2616 92.213 74.1777C92.2524 74.124 92.2885 74.0704 92.3311 74.0167C92.3968 73.9228 92.4624 73.8323 92.5313 73.7384C92.5674 73.6881 92.6035 73.6378 92.6429 73.5874C92.7184 73.4835 92.7938 73.3795 92.8726 73.2755C92.9021 73.232 92.935 73.1917 92.9645 73.1481C93.0531 73.0274 93.145 72.9066 93.2336 72.7859C93.2566 72.7557 93.2763 72.7289 93.2992 72.6987C93.7619 72.0749 94.2444 71.431 94.73 70.7871C94.7333 70.7837 94.7366 70.777 94.7432 70.7737C94.858 70.616 94.9762 70.4618 95.0943 70.3041C95.0976 70.3041 95.0976 70.3008 95.1009 70.3008C93.0761 70.1599 91.0611 69.952 89.0396 69.6535C86.808 69.3248 84.5174 68.8151 82.3318 68.0437C82.3318 68.0638 82.3318 68.0806 82.3318 68.0974C82.3416 68.2516 82.3482 68.4026 82.3548 68.5501C82.3548 68.5568 82.3548 68.5635 82.358 68.5702C82.3646 68.7312 82.3744 68.8888 82.381 69.0465C82.381 69.0498 82.381 69.0565 82.381 69.0599C82.3909 69.2175 82.3974 69.3684 82.4073 69.5193C82.4073 69.5395 82.4073 69.5629 82.4105 69.5831C82.4171 69.7172 82.4237 69.8514 82.4302 69.9822C82.4335 70.0157 82.4368 70.0459 82.4368 70.0794C82.4434 70.1935 82.4499 70.3108 82.4565 70.4215C82.4631 70.4986 82.4663 70.5758 82.4696 70.6529C82.4762 70.7166 82.4795 70.7837 82.4827 70.8474C82.4893 70.9413 82.4959 71.0352 82.4992 71.1258C82.5024 71.1694 82.5057 71.2163 82.509 71.2599C82.5188 71.3941 82.5254 71.5249 82.5352 71.6523C82.824 75.8982 83.4574 76.4448 87.4906 77.1257C89.3152 77.4342 90.2013 77.1022 90.3555 76.8641Z" fill="#EADFB2"/>
<path fill-rule="evenodd" clip-rule="evenodd" d="M39.7225 98.9449C39.9325 98.5827 40.2213 98.3077 40.241 98.0125C40.7005 91.2379 44.2283 77.0315 44.5105 76.5586C44.8223 76.0387 45.3802 75.7939 45.9676 76.0019C46.7355 76.2702 44.7993 81.227 44.3267 83.2594C41.114 97.0131 40.9728 110.988 41.301 125C41.3174 125.664 41.5832 126.332 41.7703 126.982C42.3512 128.981 43.5096 129.742 45.7379 129.618C47.9136 129.498 48.0909 129.316 48.5076 126.623C48.6126 125.946 48.6586 125.255 48.675 124.568C48.803 119.409 49.9056 103.493 50.2929 100.659C50.4438 99.5653 51.366 98.9449 52.485 98.8241C53.5844 98.7101 54.6904 99.5586 55.199 100.317C55.7142 101.091 57.0466 111.434 57.4437 115.781C57.785 119.547 58.2083 123.32 58.9008 127.033C59.3504 129.43 60.9682 130.198 63.5313 129.83C65.2312 129.581 65.5429 127.723 65.6381 124.886C65.6545 124.43 64.4107 104.676 63.1801 94.6621C62.5894 89.8528 60.6302 78.383 61.0011 78.9196C61.6508 77.786 62.3105 82.3673 63.2064 83.8161C65.602 87.683 68.1978 90.3425 72.9891 90.6209C76.4579 90.8187 85.8534 90.8389 87.0118 90.4532C88.6756 89.8998 89.6109 88.2699 89.4567 86.4085C89.309 84.6445 88.1374 84.4432 86.6541 84.1682C85.2069 83.8999 77.8493 83.5545 75.6506 83.0145C73.2648 82.4276 70.8363 81.2974 69.6615 78.9666C67.0427 69.6633 65.0015 68.191 63.6199 67.4632C59.9247 65.518 55.2646 64.579 51.3397 65.1894C48.757 65.6186 45.9446 67.973 43.1978 73.1109C40.5298 78.1147 37.9209 88.5583 37.5106 94.0115C37.3794 95.7957 37.4122 97.9756 39.7225 98.9449Z" fill="white"/>
<path fill-rule="evenodd" clip-rule="evenodd" d="M68.1714 59.2701C72.1718 51.7846 67.6003 43.0447 59.3239 42.3203C55.4187 41.9782 50.3878 45.4795 49.2228 49.3464C48.1825 52.7907 48.2777 57.9991 52.557 61.9162C59.4453 66.977 66.8587 61.7351 68.1714 59.2701Z" fill="white"/>
<path fill-rule="evenodd" clip-rule="evenodd" d="M117.108 83.0316C117.115 82.9947 117.118 82.9578 117.124 82.9209C117.131 82.874 117.141 82.827 117.147 82.7834C117.154 82.7298 117.161 82.6794 117.17 82.6291C117.174 82.6057 117.177 82.5788 117.18 82.5554C117.187 82.5017 117.193 82.4547 117.2 82.4078C117.203 82.381 117.207 82.3575 117.21 82.334C117.216 82.2871 117.223 82.2435 117.23 82.1999C117.233 82.1764 117.236 82.1529 117.236 82.1294C117.243 82.0858 117.249 82.0422 117.252 82.002C117.256 81.9819 117.256 81.9618 117.259 81.9416C117.262 81.898 117.269 81.8578 117.272 81.8175C117.272 81.8008 117.275 81.7807 117.275 81.7639C117.279 81.7236 117.282 81.6867 117.282 81.6499C117.285 81.6331 117.285 81.6163 117.285 81.5995C117.289 81.5627 117.289 81.5258 117.292 81.4922C117.292 81.4755 117.292 81.462 117.292 81.4453C117.292 81.4117 117.292 81.3782 117.292 81.348C117.292 81.3346 117.292 81.3178 117.289 81.3044C117.289 81.2742 117.289 81.244 117.285 81.2139C117.285 81.2004 117.282 81.187 117.282 81.1736C117.279 81.1468 117.275 81.1166 117.272 81.0898C117.269 81.0764 117.269 81.0663 117.266 81.0529C117.262 81.0261 117.256 81.0026 117.249 80.9757C117.249 80.9657 117.246 80.9556 117.243 80.9422C117.236 80.9187 117.23 80.8953 117.223 80.8718C117.22 80.8617 117.216 80.8517 117.213 80.8416C117.203 80.8181 117.193 80.798 117.184 80.7745C117.18 80.7678 117.177 80.7577 117.17 80.7477C117.161 80.7276 117.151 80.7074 117.138 80.6873C117.134 80.6806 117.128 80.6706 117.124 80.6638C117.111 80.6437 117.098 80.627 117.085 80.6068C117.079 80.6001 117.072 80.5934 117.065 80.5867C117.049 80.5699 117.036 80.5498 117.019 80.5364C117.013 80.5297 117.006 80.523 116.997 80.5163C116.98 80.4995 116.964 80.4827 116.944 80.4693C116.937 80.4626 116.928 80.4559 116.921 80.4526C116.901 80.4358 116.882 80.4224 116.859 80.4056C116.849 80.4023 116.842 80.3989 116.836 80.3922C116.809 80.3788 116.786 80.3654 116.76 80.3519C116.754 80.3486 116.747 80.3452 116.737 80.3419C116.711 80.3285 116.685 80.3151 116.652 80.3016C116.649 80.2983 116.639 80.2949 116.636 80.2916C116.603 80.2782 116.57 80.2648 116.534 80.2547C116.534 80.2547 116.531 80.2547 116.531 80.2513C116.33 80.1809 116.084 80.1239 115.786 80.0669C115.772 80.0669 115.763 80.0635 115.753 80.0635C115.704 80.0535 115.651 80.0434 115.602 80.0367C115.585 80.0333 115.569 80.03 115.556 80.0266C115.503 80.0199 115.451 80.0099 115.395 80.0032C115.379 79.9998 115.359 79.9965 115.339 79.9931C115.283 79.983 115.224 79.9763 115.165 79.9663C115.149 79.9629 115.132 79.9629 115.116 79.9596C115.044 79.9495 114.968 79.9361 114.893 79.926H114.89C114.686 83.3904 114.529 86.8549 114.263 90.3159C113.223 103.979 111.07 120.181 101.149 130.249C101.179 130.286 101.212 130.319 101.248 130.356C101.257 130.366 101.271 130.38 101.28 130.39C101.313 130.42 101.349 130.45 101.385 130.477C101.402 130.491 101.418 130.501 101.435 130.514C101.487 130.548 101.54 130.581 101.595 130.608C101.632 130.628 101.671 130.648 101.71 130.665C101.74 130.675 101.769 130.685 101.802 130.695C101.842 130.712 101.884 130.725 101.927 130.735C101.956 130.742 101.986 130.749 102.019 130.755C102.068 130.769 102.121 130.776 102.176 130.782C102.203 130.786 102.229 130.792 102.258 130.792C102.344 130.802 102.429 130.806 102.521 130.806C107.03 130.802 107.384 131.638 108.458 127.217C109.291 123.773 110.656 117.864 111.303 114.372C112.327 108.852 113.078 103.275 114.26 97.7915C115.297 92.9788 116.307 88.1628 117.065 83.2965C117.082 83.206 117.095 83.1188 117.108 83.0316Z" fill="#B29762"/>
<path fill-rule="evenodd" clip-rule="evenodd" d="M141.488 82.391C141.462 82.3239 141.426 82.2568 141.386 82.1931C141.376 82.1763 141.363 82.1629 141.353 82.1461C141.317 82.0891 141.275 82.0321 141.232 81.9784C141.225 81.9717 141.222 81.965 141.215 81.9583C141.166 81.9013 141.11 81.8443 141.051 81.7906C141.035 81.7739 141.019 81.7604 141.002 81.747C140.953 81.7001 140.9 81.6598 140.845 81.6162C140.832 81.6062 140.818 81.5961 140.802 81.5861C140.74 81.5391 140.671 81.4922 140.599 81.4486C140.576 81.4351 140.553 81.4217 140.526 81.4083C140.474 81.3748 140.415 81.3446 140.359 81.3144C140.333 81.3043 140.31 81.2909 140.287 81.2775C140.211 81.2406 140.136 81.2071 140.057 81.1769C140.028 81.1635 139.995 81.1534 139.962 81.14C139.909 81.1199 139.854 81.0998 139.798 81.083C139.762 81.0696 139.729 81.0595 139.696 81.0495C139.617 81.0226 139.539 81.0025 139.456 80.9824C139.42 80.9723 139.384 80.9656 139.348 80.9589C139.292 80.9455 139.24 80.9354 139.187 80.9254C139.148 80.9187 139.109 80.9119 139.066 80.9052C138.987 80.8952 138.908 80.8851 138.83 80.8784H138.826C139 81.4184 139.099 81.9818 139.109 82.5519C139.112 82.7263 139.21 83.1858 139.197 83.4642C139.283 83.8364 139.368 84.2053 139.473 84.5709C139.762 85.5703 140.133 86.5429 140.5 87.5155C141.225 89.4372 141.875 91.3253 142.236 93.3577C143.027 97.7645 143.358 102.242 143.772 106.699C144.149 110.713 144.694 114.711 145.108 118.725C145.498 122.488 145.744 126.302 145.675 130.095C145.856 130.185 146.069 130.246 146.328 130.289H146.332C146.417 130.303 146.509 130.313 146.601 130.323C146.604 130.323 146.607 130.323 146.611 130.323C146.794 130.34 147.001 130.35 147.231 130.356C147.244 130.356 147.257 130.356 147.27 130.356C147.379 130.36 147.493 130.36 147.612 130.36C147.631 130.36 147.648 130.36 147.667 130.36C147.789 130.36 147.913 130.36 148.048 130.356C149.377 130.343 150.706 130.316 152.193 130.427C152.58 129.612 152.485 129.052 152.419 128.482C152.078 125.503 150.962 122.72 150.348 119.812C147.913 108.268 145.101 96.8188 142.328 85.359C142.085 84.3596 141.888 83.3267 141.488 82.391Z" fill="#B29762"/>
<path fill-rule="evenodd" clip-rule="evenodd" d="M110.607 63.1873C113 59.7531 114.969 57.563 116.245 56.4697C114.969 57.563 113 59.7531 110.607 63.1873Z" fill="#E25626"/>
<path fill-rule="evenodd" clip-rule="evenodd" d="M116.452 56.2954C116.383 56.3489 116.317 56.4057 116.245 56.4692C116.317 56.4057 116.383 56.3489 116.452 56.2954Z" fill="#E25626"/>
<path fill-rule="evenodd" clip-rule="evenodd" d="M110.593 63.2075C110.462 63.3953 110.331 63.5865 110.197 63.781C110.331 63.5865 110.462 63.3953 110.593 63.2075Z" fill="#E25626"/>
<path fill-rule="evenodd" clip-rule="evenodd" d="M110.19 63.791C110.065 63.9755 109.937 64.1633 109.813 64.3511C109.937 64.1633 110.065 63.9755 110.19 63.791Z" fill="#E25626"/>
<path fill-rule="evenodd" clip-rule="evenodd" d="M109.36 65.0352C109.235 65.223 109.111 65.4141 108.986 65.6086C109.111 65.4141 109.235 65.223 109.36 65.0352Z" fill="#E25626"/>
<path fill-rule="evenodd" clip-rule="evenodd" d="M109.776 64.4048C109.652 64.5926 109.524 64.7838 109.396 64.9783C109.524 64.7838 109.652 64.5926 109.776 64.4048Z" fill="#E25626"/>
<path fill-rule="evenodd" clip-rule="evenodd" d="M106.492 65.3101C106.502 65.3034 106.512 65.2935 106.522 65.2869C106.512 65.2935 106.502 65.3034 106.492 65.3101Z" fill="#E25626"/>
<path fill-rule="evenodd" clip-rule="evenodd" d="M116.642 56.1445C116.583 56.1913 116.517 56.2415 116.452 56.295C116.517 56.2415 116.583 56.1913 116.642 56.1445Z" fill="#E25626"/>
<path fill-rule="evenodd" clip-rule="evenodd" d="M106.41 65.3803C106.42 65.3703 106.43 65.3637 106.44 65.3538C106.43 65.3637 106.42 65.3703 106.41 65.3803Z" fill="#E25626"/>
<path fill-rule="evenodd" clip-rule="evenodd" d="M106.18 65.6254C106.19 65.6154 106.197 65.6055 106.203 65.5989C106.197 65.6055 106.19 65.6154 106.18 65.6254Z" fill="#E25626"/>
<path fill-rule="evenodd" clip-rule="evenodd" d="M116.823 56.0137C116.77 56.0504 116.718 56.0872 116.665 56.1273C116.718 56.0872 116.773 56.0471 116.823 56.0137Z" fill="#E25626"/>
<path fill-rule="evenodd" clip-rule="evenodd" d="M106.239 65.5581C106.246 65.5482 106.256 65.5383 106.262 65.5283C106.256 65.5383 106.246 65.5482 106.239 65.5581Z" fill="#E25626"/>
<path fill-rule="evenodd" clip-rule="evenodd" d="M106.312 65.478C106.305 65.4847 106.295 65.4946 106.289 65.5012C106.299 65.4913 106.305 65.4847 106.312 65.478Z" fill="#E25626"/>
<path fill-rule="evenodd" clip-rule="evenodd" d="M106.364 65.4246C106.358 65.4312 106.351 65.4379 106.344 65.4446C106.347 65.4413 106.351 65.4379 106.358 65.4312C106.358 65.4312 106.361 65.4279 106.364 65.4246Z" fill="#E25626"/>
<path fill-rule="evenodd" clip-rule="evenodd" d="M106.226 65.572L106.223 65.5749L106.226 65.572Z" fill="#E25626"/>
<path fill-rule="evenodd" clip-rule="evenodd" d="M117.561 55.638C117.575 55.638 117.591 55.6313 117.605 55.6313C117.591 55.6313 117.575 55.638 117.561 55.638Z" fill="#E25626"/>
<path fill-rule="evenodd" clip-rule="evenodd" d="M116.849 55.9935C116.898 55.9601 116.944 55.93 116.99 55.8999C116.944 55.93 116.898 55.9601 116.849 55.9935Z" fill="#E25626"/>
<path fill-rule="evenodd" clip-rule="evenodd" d="M117.016 55.886C117.059 55.8559 117.101 55.8291 117.141 55.8091C117.101 55.8325 117.059 55.8559 117.016 55.886Z" fill="#E25626"/>
<path fill-rule="evenodd" clip-rule="evenodd" d="M117.466 55.6617C117.479 55.6584 117.496 55.6518 117.513 55.6484C117.496 55.6518 117.479 55.6584 117.466 55.6617Z" fill="#E25626"/>
<path fill-rule="evenodd" clip-rule="evenodd" d="M117.17 55.7922C117.206 55.7721 117.246 55.7521 117.279 55.7354C117.246 55.7521 117.206 55.7721 117.17 55.7922Z" fill="#E25626"/>
<path fill-rule="evenodd" clip-rule="evenodd" d="M117.328 55.712C117.354 55.7019 117.38 55.6919 117.403 55.6819C117.38 55.6919 117.354 55.7019 117.328 55.712Z" fill="#E25626"/>
<path fill-rule="evenodd" clip-rule="evenodd" d="M26.8974 92.251C27.288 90.3024 26.4708 88.8536 26.1623 87.3377C25.4666 83.9236 25.4863 80.6269 26.8023 77.2731C27.964 74.3084 29.9264 72.0178 31.8233 69.6199C32.1613 69.1939 32.5945 68.6137 32.0858 68.1107C31.4853 67.5171 31.1374 68.2281 30.7502 68.5802C25.2697 73.5572 23.4254 79.9293 24.1507 87.1667C24.3311 89.0045 24.8464 90.943 26.8974 92.251Z" fill="black"/>
<path fill-rule="evenodd" clip-rule="evenodd" d="M24.2356 130.685C29.4338 131.064 34.5631 132.379 39.8105 131.272C37.2902 130.175 34.6287 130.554 32.0526 130.256C29.424 129.954 26.7691 129.186 24.2356 130.685Z" fill="black"/>
<path fill-rule="evenodd" clip-rule="evenodd" d="M174.548 132.063C174.118 131.976 173.672 130.826 173.235 130.836C168.198 130.973 163.203 131.671 158.244 130.762C157.47 130.621 156.686 130.46 156.085 131.56C157.073 132.476 158.139 132.332 159.098 132.422C163.974 132.892 175.099 133.244 175.099 132.788C175.099 132.415 174.899 132.13 174.548 132.063Z" fill="black"/>
<path fill-rule="evenodd" clip-rule="evenodd" d="M79.421 132.473C75.5781 130.843 69.74 130.883 67.9351 132.473C71.6598 132.473 75.1909 132.473 79.421 132.473Z" fill="black"/>
<path fill-rule="evenodd" clip-rule="evenodd" d="M119.438 131.396C114.765 130.601 112.947 131.024 111.23 132.201C113.344 132.201 117.387 132.466 119.484 132.395C120.121 132.372 118.805 131.591 119.438 131.396Z" fill="black"/>
<path fill-rule="evenodd" clip-rule="evenodd" d="M37.5107 94.0117C37.9209 88.5585 40.5299 78.1149 43.1979 73.1111C45.9447 67.9732 48.7571 65.6189 51.3398 65.1896C55.2647 64.5792 59.9247 65.5183 63.6199 67.4634C65.0015 68.1912 67.0427 69.6635 69.6615 78.9668C70.8364 81.2976 73.2648 82.4279 75.6506 83.0148C77.8494 83.5547 85.2069 83.9002 86.6542 84.1685C88.1375 84.4435 89.3091 84.6447 89.4567 86.4088C89.611 88.2701 88.6757 89.9 87.0119 90.4534C85.8534 90.8391 76.4579 90.8189 72.9892 90.6211C68.1979 90.3427 65.6021 87.6832 63.2064 83.8163C62.3105 82.3675 61.6509 77.7863 61.0011 78.9198C60.6303 78.3832 62.5894 89.8531 63.1802 94.6623C64.4108 104.677 65.6546 124.43 65.6382 124.886C65.543 127.724 65.2312 129.582 63.5313 129.83C60.9683 130.199 59.3504 129.431 58.9008 127.033C58.2084 123.32 57.785 119.547 57.4437 115.781C57.0467 111.434 55.7143 101.091 55.1991 100.317C54.6904 99.5588 53.5845 98.7103 52.4851 98.8243C51.366 98.9451 50.4439 99.5655 50.2929 100.659C49.9057 103.493 48.803 119.41 48.675 124.568C48.6586 125.255 48.6127 125.946 48.5077 126.624C48.0909 129.317 47.9137 129.498 45.7379 129.618C43.5096 129.743 42.3512 128.981 41.7703 126.982C41.5833 126.332 41.3175 125.664 41.3011 125C40.9729 110.988 41.114 97.0133 44.3268 83.2596C44.7993 81.2272 46.7356 76.2704 45.9676 76.0021C45.3802 75.7941 44.8223 76.039 44.5106 76.5588C44.2283 77.0317 40.7005 91.2382 40.2411 98.0127C40.2214 98.3079 39.9326 98.5829 39.7226 98.9451C37.4122 97.9759 37.3794 95.7959 37.5107 94.0117ZM52.5573 61.9163C48.278 57.9991 48.1828 52.7908 49.2231 49.3465C50.3881 45.4796 55.4189 41.9783 59.3242 42.3204C67.6006 43.0448 72.172 51.7846 68.1716 59.2702C66.8589 61.7352 59.4456 66.9771 52.5573 61.9163ZM87.491 77.1256C83.4578 76.4448 82.8244 75.8981 82.5356 71.6523C82.5258 71.5248 82.5192 71.394 82.5094 71.2599C82.5061 71.2163 82.5028 71.1693 82.4995 71.1257C82.4963 71.0352 82.4897 70.9413 82.4831 70.8474C82.4798 70.7836 82.4766 70.7166 82.47 70.6528C82.4667 70.5757 82.4634 70.4986 82.4569 70.4214C82.4503 70.3108 82.4437 70.1934 82.4372 70.0794C82.4372 70.0458 82.4339 70.0156 82.4306 69.9821C82.4241 69.8513 82.4175 69.7171 82.4109 69.583C82.4076 69.5629 82.4076 69.5394 82.4076 69.5193C82.3978 69.3684 82.3912 69.2174 82.3814 69.0598C82.3814 69.0565 82.3814 69.0498 82.3814 69.0464C82.3748 68.8888 82.365 68.7311 82.3584 68.5702C82.3551 68.5635 82.3551 68.5568 82.3551 68.55C82.3486 68.4025 82.342 68.2516 82.3322 68.0973C82.3322 68.0805 82.3322 68.0638 82.3322 68.0436C81.8498 58.1635 81.433 40.3584 81.3083 37.6486C81.0884 32.9332 81.6069 28.2447 81.9187 23.5595C82.1123 20.6317 82.8146 19.4478 85.8272 19.4277C90.2082 19.3975 137.009 20.0313 143.067 19.9274C148.222 19.8368 163.859 20.6753 170.003 20.9972C170.088 21.0039 170.173 21.0073 170.255 21.0106C170.262 21.0106 170.269 21.0106 170.275 21.0106C170.544 21.0274 170.794 21.0375 171.02 21.0509C171.056 21.0509 171.089 21.0542 171.122 21.0576C171.168 21.0576 171.21 21.0609 171.25 21.0643C171.273 21.0643 171.293 21.0643 171.312 21.0643C171.443 21.071 171.565 21.0777 171.673 21.0844C171.736 21.0878 171.795 21.0911 171.85 21.0945C174.23 21.2119 175.244 22.7378 175.368 25.7294C175.575 30.6594 173.698 73.9764 173.675 76.153C173.636 79.5067 172.257 78.997 169.113 79.718C166.79 80.2479 94.0938 77.3972 92.6367 77.1927C92.8894 76.8472 93.1388 76.5018 93.3817 76.1597C93.4506 76.0624 93.5162 75.9652 93.5851 75.8713C93.7787 75.5963 93.9691 75.3213 94.1561 75.0496C94.2021 74.9859 94.2447 74.9222 94.2874 74.8584C94.9142 73.9529 95.5213 73.0508 96.1383 72.1587C96.158 72.1285 96.1809 72.0983 96.2006 72.0681C96.3647 71.83 96.5288 71.5952 96.6929 71.3605C96.7618 71.2599 96.8307 71.1626 96.9029 71.062C97.0506 70.8507 97.2016 70.6394 97.3525 70.4281C97.8415 69.7473 98.3436 69.0699 98.8719 68.3991C99.3642 67.5305 100.24 67.7686 101.005 67.8391C110.164 68.7043 144.527 68.0269 154.812 68.1979C154.91 68.1979 155.005 68.2013 155.097 68.2013C155.127 68.2013 155.153 68.2046 155.179 68.2046C155.248 68.2046 155.314 68.208 155.38 68.208C155.409 68.208 155.435 68.208 155.465 68.2113C155.527 68.2113 155.586 68.2113 155.649 68.2147C155.675 68.2147 155.701 68.2147 155.731 68.218C155.786 68.218 155.846 68.218 155.898 68.2214C155.928 68.2214 155.954 68.2214 155.98 68.2247C156.033 68.2247 156.085 68.2281 156.138 68.2281C156.164 68.2281 156.19 68.2314 156.216 68.2314C156.266 68.2314 156.315 68.2348 156.364 68.2348C156.387 68.2381 156.41 68.2381 156.43 68.2381C156.485 68.2415 156.535 68.2449 156.584 68.2449C156.6 68.2449 156.617 68.2482 156.633 68.2482C156.696 68.2516 156.758 68.2549 156.817 68.2583C156.824 68.2583 156.827 68.2583 156.833 68.2583C156.886 68.2616 156.935 68.265 156.984 68.2683C157.001 68.2683 157.017 68.2683 157.034 68.2683C157.07 68.2717 157.102 68.275 157.135 68.2784C157.152 68.2784 157.168 68.2784 157.188 68.2817C157.214 68.2817 157.244 68.2851 157.27 68.2885C157.286 68.2885 157.303 68.2918 157.319 68.2918C157.342 68.2952 157.365 68.2985 157.388 68.2985C157.404 68.3019 157.417 68.3019 157.434 68.3052C157.454 68.3086 157.473 68.3086 157.49 68.3119C157.503 68.3153 157.516 68.3153 157.526 68.3186C157.545 68.3186 157.562 68.322 157.578 68.3253C157.585 68.3253 157.598 68.3287 157.605 68.3287C157.621 68.3321 157.634 68.3354 157.647 68.3388C157.654 68.3421 157.66 68.3421 157.664 68.3455C157.683 68.3488 157.696 68.3522 157.706 68.3589C158.904 68.9022 160.355 68.929 161.52 67.8994C161.917 67.5473 162.593 67.3561 162.406 66.6216C162.402 66.6049 162.393 66.5847 162.383 66.568C162.379 66.5613 162.376 66.5579 162.373 66.5512C162.363 66.5411 162.353 66.5277 162.343 66.5143C162.337 66.5076 162.33 66.5043 162.324 66.4976C162.311 66.4875 162.301 66.4741 162.284 66.464C162.278 66.4573 162.268 66.4506 162.261 66.4439C162.245 66.4338 162.228 66.4238 162.212 66.4137C162.202 66.407 162.196 66.4036 162.186 66.3969C162.166 66.3869 162.146 66.3735 162.123 66.3634C162.117 66.36 162.107 66.3567 162.097 66.35C162.074 66.3399 162.051 66.3265 162.025 66.3164C162.015 66.3131 162.005 66.3097 161.995 66.3064C161.969 66.293 161.94 66.2829 161.91 66.2695C161.904 66.2695 161.894 66.2661 161.884 66.2628C161.854 66.2494 161.822 66.2393 161.789 66.2259C161.779 66.2259 161.769 66.2225 161.762 66.2192C161.726 66.2058 161.69 66.1957 161.654 66.1856C161.648 66.1823 161.641 66.1823 161.634 66.1789C161.592 66.1655 161.552 66.1555 161.51 66.1421C161.503 66.1421 161.497 66.1387 161.49 66.1387C161.447 66.1253 161.405 66.1152 161.359 66.1052C161.356 66.1018 161.349 66.1018 161.342 66.0985C160.276 65.8302 158.747 65.6591 158.379 65.5216C158.376 65.5183 158.369 65.5183 158.366 65.5183C158.169 65.4378 156.597 66.2091 156.387 66.2527C151.615 67.232 119.77 65.9978 114.982 66.1622C113.111 66.2259 110.794 66.132 108.884 65.7698C108.894 65.7497 108.907 65.7329 108.917 65.7161C107.952 65.6122 106.961 65.6423 106.01 65.8067C105.8 65.9509 105.396 65.9174 103.479 65.7966C100.601 65.592 101.645 64.4719 102.311 63.127C102.715 62.3087 113.735 45.8083 112.918 45.1878C112.038 44.5204 102.715 59.4748 101.002 62.1477C100.926 55.021 100.359 45.1409 100.595 38.0577C100.68 35.4217 100.634 32.7789 100.67 30.1395C100.68 29.3984 100.582 28.741 99.7646 28.5398C98.9048 28.3252 98.5831 28.9825 98.2812 29.6063C97.8382 30.5286 97.4674 31.4911 96.9718 32.3832C96.391 33.4329 96.1186 34.2881 97.6249 34.7241C99.0065 35.1199 98.5996 36.4077 98.6422 37.3132C98.9409 43.2695 99.1378 49.2324 99.3675 55.1921C99.3872 55.7655 99.1771 65.0051 99.1771 65.0051C98.4027 65.9945 96.7684 68.0973 95.0947 70.3041C94.9766 70.4617 94.8584 70.616 94.7436 70.7736C94.737 70.7769 94.7337 70.7836 94.7304 70.787C94.2447 71.4309 93.7623 72.0748 93.2996 72.6986C93.2766 72.7288 93.257 72.7556 93.234 72.7858C93.1454 72.9066 93.0535 73.0273 92.9649 73.148C92.9353 73.1916 92.9025 73.2319 92.873 73.2755C92.7942 73.3794 92.7188 73.4834 92.6433 73.5874C92.6039 73.6377 92.5678 73.688 92.5317 73.7383C92.4628 73.8322 92.3971 73.9228 92.3315 74.0167C92.2888 74.0703 92.2527 74.124 92.2134 74.1776C92.151 74.2615 92.0919 74.3453 92.0296 74.4258C91.9902 74.4828 91.9508 74.5365 91.9114 74.5935C91.8557 74.674 91.7966 74.7511 91.7408 74.8316C91.7047 74.8819 91.6686 74.9356 91.6292 74.9859C91.5767 75.063 91.5242 75.1368 91.4717 75.2106C91.4356 75.2609 91.3995 75.3146 91.3634 75.3649C91.3142 75.4353 91.265 75.5024 91.219 75.5694C91.1862 75.6198 91.1501 75.6701 91.1173 75.717C91.0713 75.7841 91.0287 75.8478 90.9827 75.9115C90.9532 75.9551 90.9204 76.0021 90.8908 76.0457C90.8482 76.1094 90.8088 76.1698 90.7694 76.2301C90.7432 76.267 90.7136 76.3106 90.6907 76.3475C90.648 76.4112 90.6086 76.4716 90.5692 76.5286C90.5495 76.5588 90.5299 76.5923 90.5102 76.6225C90.4544 76.7064 90.4051 76.7902 90.3559 76.864C90.2017 77.1021 89.3156 77.4341 87.491 77.1256ZM150.349 119.812C150.962 122.72 152.078 125.503 152.419 128.482C152.485 129.052 152.58 129.612 152.193 130.427C150.706 130.316 149.377 130.343 148.048 130.356C147.914 130.36 147.789 130.36 147.668 130.36C147.648 130.36 147.631 130.36 147.612 130.36C147.494 130.36 147.379 130.36 147.27 130.356C147.257 130.356 147.244 130.356 147.231 130.356C147.001 130.35 146.798 130.34 146.611 130.323C146.608 130.323 146.604 130.323 146.601 130.323C146.509 130.313 146.417 130.303 146.332 130.289H146.329C145.111 130.098 144.868 129.441 144.429 127.385C143.231 121.791 142.249 116.15 141.098 110.546C139.27 101.672 138.525 92.6233 136.851 83.7291C136.677 82.7934 135.972 81.6699 137.337 81.0729C137.77 80.8851 138.295 80.8281 138.83 80.8784C138.909 80.8851 138.987 80.8952 139.066 80.9053C139.109 80.912 139.148 80.9187 139.188 80.9254C139.24 80.9354 139.293 80.9455 139.348 80.9589C139.385 80.9656 139.421 80.9723 139.457 80.9824C139.539 81.0025 139.618 81.0226 139.696 81.0495C139.729 81.0595 139.762 81.0696 139.798 81.083C139.854 81.0998 139.91 81.1199 139.962 81.14C139.995 81.1534 140.028 81.1635 140.057 81.1769C140.136 81.2071 140.212 81.2406 140.287 81.2775C140.31 81.2909 140.333 81.301 140.359 81.3144C140.415 81.3446 140.474 81.3748 140.527 81.4083C140.553 81.4217 140.576 81.4352 140.599 81.4486C140.671 81.4922 140.74 81.5391 140.802 81.5861C140.819 81.5961 140.832 81.6062 140.845 81.6163C140.901 81.6599 140.953 81.7001 141.002 81.7471C141.019 81.7605 141.035 81.7739 141.052 81.7906C141.111 81.8443 141.166 81.9013 141.216 81.9583C141.222 81.965 141.226 81.9718 141.232 81.9785C141.275 82.0321 141.317 82.0891 141.354 82.1461C141.363 82.1629 141.377 82.1763 141.386 82.1931C141.426 82.2568 141.462 82.3239 141.488 82.391C141.888 83.3267 142.085 84.3596 142.328 85.359C145.101 96.8188 147.914 108.269 150.349 119.812ZM135.515 96.5606C129.392 96.0072 124.049 96.4029 117.118 96.0474C116.921 96.0072 116.751 95.8093 116.383 95.5578C117.213 91.1577 118.09 86.6804 118.89 82.1864C119.173 80.5867 120.085 80.1876 121.516 80.2647C125.099 80.4626 128.686 80.6336 132.273 80.7208C133.655 80.7543 134.327 81.576 134.695 82.6827C135.998 86.6033 136.546 90.6915 137.055 94.7831C137.192 95.92 136.552 96.6545 135.515 96.5606ZM114.26 97.7914C113.078 103.275 112.327 108.852 111.303 114.372C110.657 117.864 109.291 123.773 108.458 127.217C107.385 131.637 107.03 130.802 102.521 130.806C102.429 130.806 102.344 130.802 102.259 130.792C102.229 130.792 102.203 130.786 102.177 130.782C102.121 130.776 102.068 130.769 102.019 130.755C101.986 130.749 101.957 130.742 101.927 130.735C101.885 130.725 101.842 130.712 101.802 130.695C101.77 130.685 101.74 130.675 101.711 130.665C101.671 130.648 101.632 130.628 101.596 130.608C101.54 130.581 101.487 130.547 101.435 130.514C101.419 130.501 101.402 130.49 101.386 130.477C101.35 130.45 101.314 130.42 101.281 130.39C101.271 130.38 101.258 130.366 101.248 130.356C100.703 129.81 100.611 128.8 100.857 127.489C101.658 123.213 102.561 118.957 103.525 114.718C105.914 104.231 108.366 93.7568 110.791 83.2797C110.867 82.9443 110.926 82.6056 111.018 82.2736C111.726 79.7214 112.038 79.5135 114.549 79.8757C114.667 79.8924 114.778 79.9092 114.89 79.926H114.893C114.969 79.936 115.044 79.9494 115.116 79.9595C115.133 79.9629 115.149 79.9629 115.166 79.9662C115.225 79.9763 115.284 79.983 115.34 79.993C115.359 79.9964 115.379 79.9997 115.395 80.0031C115.451 80.0098 115.504 80.0199 115.556 80.0266C115.569 80.0299 115.586 80.0333 115.602 80.0366C115.651 80.0434 115.704 80.0534 115.753 80.0635C115.763 80.0635 115.773 80.0668 115.786 80.0668C116.084 80.1238 116.331 80.1809 116.531 80.2513C116.531 80.2546 116.534 80.2546 116.534 80.2546C116.57 80.2647 116.603 80.2781 116.636 80.2915C116.639 80.2949 116.649 80.2982 116.652 80.3016C116.685 80.315 116.711 80.3284 116.738 80.3418C116.747 80.3452 116.754 80.3485 116.76 80.3519C116.787 80.3653 116.81 80.3787 116.836 80.3921C116.843 80.3988 116.849 80.4022 116.859 80.4056C116.882 80.4223 116.902 80.4357 116.921 80.4525C116.928 80.4559 116.938 80.4626 116.944 80.4693C116.964 80.4827 116.98 80.4995 116.997 80.5162C117.007 80.5229 117.013 80.5296 117.02 80.5363C117.036 80.5498 117.049 80.5699 117.066 80.5867C117.072 80.5934 117.079 80.6001 117.085 80.6068C117.099 80.6269 117.112 80.6437 117.125 80.6638C117.128 80.6705 117.135 80.6806 117.138 80.6873C117.151 80.7074 117.161 80.7275 117.171 80.7476C117.177 80.7577 117.181 80.7678 117.184 80.7745C117.194 80.7979 117.204 80.8181 117.213 80.8415C117.217 80.8516 117.22 80.8617 117.223 80.8717C117.23 80.8952 117.236 80.9187 117.243 80.9422C117.246 80.9556 117.249 80.9656 117.249 80.9757C117.256 81.0025 117.263 81.026 117.266 81.0528C117.269 81.0662 117.269 81.0763 117.272 81.0897C117.276 81.1165 117.279 81.1467 117.282 81.1736C117.282 81.187 117.286 81.2004 117.286 81.2138C117.289 81.244 117.289 81.2742 117.289 81.3044C117.292 81.3178 117.292 81.3345 117.292 81.348C117.292 81.3781 117.292 81.4117 117.292 81.4452C117.292 81.462 117.292 81.4754 117.292 81.4922C117.289 81.5257 117.289 81.5626 117.286 81.5995C117.286 81.6163 117.286 81.633 117.282 81.6498C117.282 81.6867 117.279 81.7236 117.276 81.7638C117.276 81.7806 117.272 81.8007 117.272 81.8175C117.269 81.8577 117.263 81.898 117.259 81.9416C117.256 81.9617 117.256 81.9818 117.253 82.0019C117.249 82.0422 117.243 82.0858 117.236 82.1294C117.236 82.1529 117.233 82.1763 117.23 82.1998C117.223 82.2434 117.217 82.287 117.21 82.334C117.207 82.3574 117.204 82.3809 117.2 82.4077C117.194 82.4547 117.187 82.5016 117.181 82.5553C117.177 82.5788 117.174 82.6056 117.171 82.6291C117.161 82.6794 117.154 82.7297 117.148 82.7834C117.141 82.827 117.131 82.8739 117.125 82.9209C117.118 82.9578 117.115 82.9946 117.108 83.0315C117.095 83.1187 117.082 83.2059 117.066 83.2965C116.308 88.1628 115.297 92.9788 114.26 97.7914ZM38.3344 100.357C39.6897 101.346 39.8637 102.416 39.7915 103.858C39.4403 111.076 39.273 118.283 39.4764 125.52C39.5847 129.384 41.1993 131.014 44.947 131.295C48.3075 131.547 49.187 130.863 49.6792 127.482C50.2076 123.84 50.9066 109.285 51.3004 103.184C51.5301 102.413 51.622 100.578 52.5606 100.501C53.696 100.407 54.0866 101.226 54.2736 102.094C54.7823 104.442 55.2877 107.91 55.5469 110.298C56.1672 115.999 56.5117 121.734 57.2271 127.422C57.7063 131.222 59.1798 131.302 63.5149 131.433C65.9598 131.55 67.43 129.001 67.1773 124.927C66.3601 117.756 65.1623 97.1508 64.3813 93.4382C64.1614 92.3919 64.0531 90.6915 63.6724 87.4417C65.0474 89.4171 68.4604 91.8754 70.4262 91.919C75.48 92.0296 80.711 92.5126 85.7747 92.3047C90.6939 92.1068 92.3512 88.2869 89.844 83.88C89.2008 82.7465 89.3386 82.1059 89.9654 81.1534C91.3175 79.0942 90.5069 79.4564 93.7229 79.3994C97.5396 79.4363 101.356 79.6007 105.173 79.547C109.554 79.4833 110.076 79.708 108.966 83.9438C105.019 99.0088 102.255 114.359 98.2779 129.417C97.7955 131.242 98.5339 132.251 100.414 132.399C101.005 132.446 105.458 132.258 106.689 132.634C108.691 133.251 109.373 131.346 109.682 129.565C109.8 128.891 110.033 128.24 110.187 127.569C112.258 118.518 114.043 109.405 115.31 100.199C115.553 98.432 115.871 97.4828 117.519 97.4996C119.645 97.5231 122.208 97.5667 124.335 97.6036C127.59 97.6639 132.148 97.617 135.387 97.9457C137.498 98.157 137.845 99.2738 138.026 101.913C138.16 103.845 138.738 105.74 139.086 107.658C140.392 114.875 141.682 122.096 142.991 129.313C143.539 132.325 143.943 132.617 147.074 132.224C148.416 132.057 153.023 133.526 154.119 132.55C155.284 131.513 155.101 130.309 154.736 129.079C154.057 126.775 153.155 124.531 152.6 122.197C149.555 109.372 146.581 96.5304 143.602 83.6889C143.132 81.6699 143.244 81.4553 145.246 81.4385C149.961 81.3949 168.106 81.5492 172.461 81.3178C174.072 81.2306 174.899 80.6001 175.027 78.5442C175.24 75.0764 177.593 27.8959 176.858 23.6869C176.32 20.6149 175.004 19.2734 172.07 18.8911C170.413 18.6731 90.4117 18.0862 84.5736 18.0023C81.4691 17.9587 80.9801 18.5087 80.2417 21.5137C79.7692 23.4387 79.8381 25.3839 79.6904 27.3224C79.2342 33.4027 80.3205 64.3377 80.9243 73.7148C81.1475 77.196 82.6045 78.6549 85.9519 78.8628C86.7953 78.9131 87.6223 78.779 88.7807 79.111C86.6837 81.7571 86.2932 82.3977 84.2093 82.3708C81.9679 82.3407 79.7166 81.7772 77.4851 81.5425C73.6389 81.1333 71.2072 80.097 69.7961 74.1441C69.0741 71.0888 67.1477 68.2449 64.8604 66.2393C64.3091 65.7564 62.2088 65.146 62.6321 65.0051C66.9115 63.5731 70.3244 61.4971 70.9939 55.3396C71.9325 48.062 68.9559 43.2158 62.0152 41.3746C56.177 39.8587 45.8561 42.6121 46.9915 55.3899C47.8776 59.24 50.1059 61.2355 52.6721 63.62C48.9244 62.8923 42.9714 67.8122 40.0803 75.1569C38.3836 79.5336 36.1553 90.3528 35.778 93.6529C35.4596 96.4197 36.1783 98.7841 38.3344 100.357Z" fill="black"/>
<path fill-rule="evenodd" clip-rule="evenodd" d="M116.99 55.8997C116.997 55.8963 117.004 55.893 117.01 55.8896C117.004 55.893 116.997 55.8963 116.99 55.8997Z" fill="black"/>
<path fill-rule="evenodd" clip-rule="evenodd" d="M106.275 65.5151C106.272 65.5185 106.269 65.5252 106.262 65.5285C106.255 65.5385 106.246 65.5486 106.239 65.5586C106.232 65.5619 106.229 65.5686 106.226 65.572L106.223 65.5753C106.239 65.5553 106.255 65.5352 106.275 65.5151Z" fill="black"/>
<path fill-rule="evenodd" clip-rule="evenodd" d="M106.613 65.2131C106.581 65.2399 106.548 65.2633 106.522 65.2867C106.512 65.2934 106.502 65.3034 106.492 65.3101H106.489C106.528 65.28 106.567 65.2466 106.613 65.2131Z" fill="black"/>
<path fill-rule="evenodd" clip-rule="evenodd" d="M106.357 65.4309C106.351 65.4376 106.348 65.4409 106.344 65.4443C106.331 65.4543 106.321 65.4643 106.312 65.4777C106.305 65.4844 106.298 65.4911 106.289 65.5011C106.308 65.4777 106.331 65.4543 106.357 65.4309Z" fill="black"/>
<path fill-rule="evenodd" clip-rule="evenodd" d="M117.404 55.6815C117.417 55.6748 117.43 55.6748 117.444 55.6682C117.43 55.6748 117.417 55.6748 117.404 55.6815Z" fill="black"/>
<path fill-rule="evenodd" clip-rule="evenodd" d="M106.469 65.3306C106.459 65.3373 106.449 65.3473 106.439 65.354C106.429 65.364 106.419 65.3707 106.41 65.3807C106.396 65.3941 106.387 65.4041 106.374 65.4141C106.403 65.3874 106.433 65.3607 106.469 65.3306Z" fill="black"/>
<path fill-rule="evenodd" clip-rule="evenodd" d="M117.512 55.6481C117.528 55.6415 117.545 55.6415 117.562 55.6382C117.545 55.6415 117.528 55.6415 117.512 55.6481Z" fill="black"/>
<path fill-rule="evenodd" clip-rule="evenodd" d="M117.141 55.8086C117.148 55.8054 117.151 55.8022 117.157 55.7991C117.151 55.8022 117.148 55.8054 117.141 55.8086Z" fill="black"/>
<path fill-rule="evenodd" clip-rule="evenodd" d="M117.279 55.7353C117.292 55.7287 117.306 55.7254 117.319 55.7188C117.306 55.7254 117.292 55.7287 117.279 55.7353Z" fill="black"/>
<path fill-rule="evenodd" clip-rule="evenodd" d="M117.604 55.6313C117.633 55.6313 117.659 55.6313 117.682 55.6347C117.659 55.6313 117.633 55.6313 117.604 55.6313Z" fill="black"/>
<path fill-rule="evenodd" clip-rule="evenodd" d="M108.986 65.6088C109.111 65.4142 109.235 65.2231 109.36 65.0353C109.373 65.0152 109.383 64.9984 109.396 64.9783C109.524 64.7837 109.652 64.5926 109.777 64.4048C109.79 64.3846 109.8 64.3679 109.813 64.3511C109.938 64.1633 110.066 63.9755 110.19 63.791C110.194 63.7877 110.194 63.7843 110.197 63.781C110.332 63.5865 110.463 63.3953 110.594 63.2075C110.597 63.2008 110.601 63.1941 110.607 63.1874C113 59.7531 114.969 57.5631 116.245 56.4698C116.317 56.4061 116.383 56.3491 116.452 56.2954C116.518 56.2417 116.583 56.1914 116.642 56.1445C116.652 56.1378 116.659 56.1344 116.665 56.1277C116.718 56.0875 116.77 56.0506 116.823 56.0137C116.833 56.007 116.842 56.0003 116.849 55.9936C116.898 55.96 116.944 55.9298 116.99 55.8997C116.997 55.8963 117.003 55.893 117.01 55.8896C117.01 55.8862 117.013 55.8862 117.016 55.8862C117.059 55.8561 117.102 55.8326 117.141 55.8091C117.148 55.8058 117.151 55.8024 117.157 55.799C117.161 55.7957 117.167 55.7957 117.171 55.7923C117.207 55.7722 117.246 55.7521 117.279 55.7353C117.292 55.7286 117.305 55.7253 117.318 55.7186C117.322 55.7152 117.325 55.7152 117.328 55.7118C117.354 55.7018 117.381 55.6917 117.404 55.6817C117.417 55.675 117.43 55.675 117.443 55.6682C117.45 55.6649 117.456 55.6649 117.466 55.6615C117.479 55.6582 117.495 55.6515 117.512 55.6481C117.528 55.6414 117.545 55.6414 117.561 55.6381C117.574 55.6381 117.591 55.6314 117.604 55.6314C117.633 55.6314 117.66 55.6314 117.683 55.6347C120.127 56.1545 126.773 57.7006 127.751 55.296C128.916 52.4386 130.478 48.6824 131.6 45.8049C132.24 44.1615 133.139 43.1051 135.125 43.4539C136.093 43.6249 137.146 43.2158 138.137 43.3197C140.95 43.6082 142.83 42.6523 143.851 39.7882C144.494 37.9806 145.964 36.9912 147.963 36.6793C151.064 36.1997 154.126 35.4485 157.211 34.8482C157.982 34.6972 158.809 34.7375 159.189 33.832C159.413 33.2987 159.554 32.742 159.18 32.2155C158.858 31.7627 158.34 31.8298 157.952 31.9807C153.732 33.6442 149.308 34.3921 144.881 35.1668C143.355 35.4317 142.4 36.4513 141.993 38.1114C141.143 41.6026 140.848 41.4584 137.222 41.445C136.106 41.4383 134.99 41.2002 133.874 41.0962C131.223 40.8547 130.412 41.3611 129.818 44.0039C129.159 46.9418 127.761 49.5745 126.727 52.3547C126.159 53.8773 125.253 54.699 123.357 54.2429C117.676 52.8712 116.675 52.2877 115.74 53.7231C114.654 55.5509 108.382 63.8883 106.613 65.213C106.567 65.2466 106.528 65.2801 106.489 65.3103C106.482 65.317 106.476 65.3237 106.469 65.3304C106.433 65.3606 106.403 65.3874 106.374 65.4142C106.371 65.4176 106.367 65.421 106.364 65.4243C106.361 65.4277 106.357 65.431 106.357 65.431C106.331 65.4545 106.308 65.478 106.288 65.5014C106.285 65.5048 106.279 65.5115 106.275 65.5149C106.256 65.535 106.239 65.5551 106.223 65.5752C106.216 65.5819 106.21 65.5886 106.203 65.5987C106.197 65.6054 106.19 65.6155 106.18 65.6255C106.138 65.6792 106.098 65.7261 106.059 65.763C106.042 65.7798 106.026 65.7932 106.01 65.8066C106.961 65.6423 107.952 65.6121 108.917 65.7161C108.94 65.6792 108.963 65.6457 108.986 65.6088Z" fill="#E0634B"/>
</svg>
