<svg width="220" height="141" viewBox="0 0 220 141" fill="none" xmlns="http://www.w3.org/2000/svg">
<circle cx="148" cy="60" r="60" fill="#707986"/>
<path fill-rule="evenodd" clip-rule="evenodd" d="M137.053 9.62329C137.093 9.67817 137.131 9.73648 137.17 9.79136C137.131 9.73648 137.093 9.67817 137.053 9.62329Z" fill="#DEF9E4"/>
<path fill-rule="evenodd" clip-rule="evenodd" d="M134.506 6.89453C134.654 7.01764 134.799 7.14758 134.943 7.27752C134.799 7.14758 134.654 7.01764 134.506 6.89453Z" fill="#DEF9E4"/>
<path fill-rule="evenodd" clip-rule="evenodd" d="M134.043 6.51489C134.14 6.59035 134.237 6.66924 134.332 6.74813C134.237 6.66924 134.14 6.59035 134.043 6.51489Z" fill="#DEF9E4"/>
<path fill-rule="evenodd" clip-rule="evenodd" d="M136.151 8.49805C136.211 8.56665 136.269 8.63524 136.328 8.70727C136.269 8.63524 136.211 8.56665 136.151 8.49805Z" fill="#DEF9E4"/>
<path fill-rule="evenodd" clip-rule="evenodd" d="M135.588 7.89624C135.657 7.96827 135.727 8.03687 135.795 8.1089C135.727 8.03687 135.657 7.96827 135.588 7.89624Z" fill="#DEF9E4"/>
<path fill-rule="evenodd" clip-rule="evenodd" d="M133.224 5.90649C133.449 6.06379 133.671 6.22793 133.888 6.39549C133.671 6.22793 133.449 6.06379 133.224 5.90649Z" fill="#DEF9E4"/>
<path fill-rule="evenodd" clip-rule="evenodd" d="M135.146 7.46191C135.224 7.53737 135.301 7.61283 135.378 7.68829C135.301 7.61283 135.224 7.53737 135.146 7.46191Z" fill="#DEF9E4"/>
<path fill-rule="evenodd" clip-rule="evenodd" d="M106.701 39.3769C106.618 39.2469 106.538 39.1136 106.461 38.9836C106.538 39.1136 106.618 39.2469 106.701 39.3769Z" fill="#DEF9E4"/>
<path fill-rule="evenodd" clip-rule="evenodd" d="M129.717 3.96362C130.326 4.22693 130.918 4.5176 131.491 4.8322C130.918 4.5176 130.326 4.22693 129.717 3.96362Z" fill="#DEF9E4"/>
<path fill-rule="evenodd" clip-rule="evenodd" d="M131.561 4.86987C131.961 5.09215 132.351 5.3281 132.731 5.57431C132.351 5.3281 131.961 5.09215 131.561 4.86987Z" fill="#DEF9E4"/>
<path fill-rule="evenodd" clip-rule="evenodd" d="M132.848 5.65332C132.967 5.72878 133.084 5.80767 133.2 5.88999C133.084 5.80767 132.967 5.72878 132.848 5.65332Z" fill="#DEF9E4"/>
<path fill-rule="evenodd" clip-rule="evenodd" d="M111.953 39.3736C117.952 40.0302 125.477 37.9579 129.513 32.9961C132.38 29.4739 133.72 24.8096 134.233 20.2787C134.662 16.4932 134.015 12.677 132.611 9.18558C131.847 7.2843 130.868 5.54715 129.718 3.96389C120.517 -0.026763 107.715 1.79587 102.923 7.68439C101.744 8.26914 101.494 8.89492 102.45 10.0542C104.702 12.7864 105.55 16.141 106.287 19.605C107.253 24.1394 106.275 28.4823 105.382 32.7978C104.89 35.1778 105.344 37.0552 106.443 38.9496C106.218 38.5632 106.021 38.1734 105.852 37.7835C107.753 38.6624 109.814 39.1411 111.953 39.3736Z" fill="#DEF9E4"/>
<path fill-rule="evenodd" clip-rule="evenodd" d="M136.553 8.97705C136.608 9.04222 136.663 9.11082 136.717 9.17942C136.663 9.11082 136.608 9.04222 136.553 8.97705Z" fill="#DEF9E4"/>
<path fill-rule="evenodd" clip-rule="evenodd" d="M138.772 12.7351C138.794 12.79 138.814 12.8449 138.835 12.8997C138.814 12.8449 138.794 12.79 138.772 12.7351Z" fill="#DEF9E4"/>
<path fill-rule="evenodd" clip-rule="evenodd" d="M139.267 14.1746C139.278 14.2123 139.288 14.2534 139.299 14.2912C139.288 14.2534 139.278 14.2123 139.267 14.1746Z" fill="#DEF9E4"/>
<path fill-rule="evenodd" clip-rule="evenodd" d="M139.442 14.8416C139.457 14.9033 139.472 14.965 139.486 15.0268C139.472 14.965 139.457 14.9033 139.442 14.8416Z" fill="#DEF9E4"/>
<path fill-rule="evenodd" clip-rule="evenodd" d="M139.012 13.3813C139.031 13.4362 139.051 13.4911 139.07 13.546C139.051 13.4911 139.031 13.4362 139.012 13.3813Z" fill="#DEF9E4"/>
<path fill-rule="evenodd" clip-rule="evenodd" d="M137.409 10.1399C137.451 10.2051 137.494 10.2702 137.536 10.3354C137.494 10.2702 137.451 10.2051 137.409 10.1399Z" fill="#DEF9E4"/>
<path fill-rule="evenodd" clip-rule="evenodd" d="M137.804 10.7722C137.829 10.8134 137.855 10.858 137.88 10.8991C137.855 10.858 137.829 10.8134 137.804 10.7722Z" fill="#DEF9E4"/>
<path fill-rule="evenodd" clip-rule="evenodd" d="M138.15 11.3911C138.182 11.4529 138.213 11.5146 138.245 11.5763C138.213 11.5146 138.182 11.4529 138.15 11.3911Z" fill="#DEF9E4"/>
<path fill-rule="evenodd" clip-rule="evenodd" d="M138.46 12.0205C138.481 12.0651 138.504 12.1097 138.525 12.1577C138.504 12.1097 138.481 12.0651 138.46 12.0205Z" fill="#DEF9E4"/>
<path fill-rule="evenodd" clip-rule="evenodd" d="M76.3611 51.8795C76.3659 51.8418 76.3707 51.8075 76.3754 51.7698C76.3707 51.8075 76.3659 51.8418 76.3611 51.8795Z" fill="#BDDEC7"/>
<path fill-rule="evenodd" clip-rule="evenodd" d="M76.446 51.072C76.4478 51.0514 76.4495 51.0308 76.4512 51.0068C76.4495 51.0308 76.4478 51.0514 76.446 51.072Z" fill="#BDDEC7"/>
<path fill-rule="evenodd" clip-rule="evenodd" d="M76.4511 48.8117C76.4497 48.7911 76.448 48.774 76.4463 48.7534C76.448 48.774 76.4497 48.7911 76.4511 48.8117Z" fill="#BDDEC7"/>
<path fill-rule="evenodd" clip-rule="evenodd" d="M76.2583 47.3274C76.2569 47.3206 76.2562 47.3137 76.2549 47.3103C76.2562 47.3137 76.2569 47.3206 76.2583 47.3274Z" fill="#BDDEC7"/>
<path fill-rule="evenodd" clip-rule="evenodd" d="M76.1057 46.6052C76.1024 46.5918 76.099 46.5784 76.0957 46.5649C76.099 46.5784 76.1024 46.5918 76.1057 46.6052Z" fill="#BDDEC7"/>
<path fill-rule="evenodd" clip-rule="evenodd" d="M76.4868 49.5056C76.4872 49.5296 76.4875 49.5502 76.4882 49.5742C76.4875 49.5502 76.4872 49.5296 76.4868 49.5056Z" fill="#BDDEC7"/>
<path fill-rule="evenodd" clip-rule="evenodd" d="M76.2417 52.6555C76.2461 52.6315 76.2513 52.6075 76.2557 52.5835C76.2513 52.6075 76.2461 52.6315 76.2417 52.6555Z" fill="#BDDEC7"/>
<path fill-rule="evenodd" clip-rule="evenodd" d="M75.8794 54.2627C75.8915 54.2181 75.9029 54.1735 75.9143 54.1289C75.9029 54.1735 75.8915 54.2181 75.8794 54.2627Z" fill="#BDDEC7"/>
<path fill-rule="evenodd" clip-rule="evenodd" d="M75.6343 55.0939C75.6473 55.0562 75.6604 55.015 75.6731 54.9739C75.6604 55.015 75.6473 55.0562 75.6343 55.0939Z" fill="#BDDEC7"/>
<path fill-rule="evenodd" clip-rule="evenodd" d="M76.0901 53.4145C76.0945 53.3939 76.0983 53.3768 76.1024 53.3562C76.0983 53.3768 76.0945 53.3939 76.0901 53.4145Z" fill="#BDDEC7"/>
<path fill-rule="evenodd" clip-rule="evenodd" d="M100.192 10.3997C100.676 10.981 101.119 11.6068 101.527 12.2668C101.119 11.6068 100.676 10.981 100.192 10.3997Z" fill="#BDDEC7"/>
<path fill-rule="evenodd" clip-rule="evenodd" d="M75.4127 44.4415C75.4096 44.4346 75.4065 44.4278 75.4038 44.4209C75.4065 44.4278 75.4096 44.4346 75.4127 44.4415Z" fill="#BDDEC7"/>
<path fill-rule="evenodd" clip-rule="evenodd" d="M103.361 15.9253C103.453 16.151 103.543 16.3733 103.631 16.6024C103.543 16.3733 103.453 16.151 103.361 15.9253Z" fill="#BDDEC7"/>
<path fill-rule="evenodd" clip-rule="evenodd" d="M100.181 10.3859C99.2 9.20616 98.0485 8.19397 96.6702 7.41772C98.0485 8.19397 99.1997 9.20616 100.181 10.3859Z" fill="#BDDEC7"/>
<path fill-rule="evenodd" clip-rule="evenodd" d="M101.555 12.311C101.819 12.7419 102.069 13.183 102.305 13.6378C102.069 13.183 101.819 12.7419 101.555 12.311Z" fill="#BDDEC7"/>
<path fill-rule="evenodd" clip-rule="evenodd" d="M85.4065 44.961C89.1423 44.3112 92.6546 41.9107 95.0073 38.8433C101.306 30.6261 101.907 18.4626 97.5922 9.12377C97.3149 8.52534 97.0045 7.95769 96.6703 7.4174C95.8868 6.97627 95.0317 6.60695 94.0909 6.32997C86.4874 4.07647 79.0555 4.81168 72.0002 8.5185C69.4769 9.8453 67.5679 12.0509 66.5102 14.9063C64.2944 20.894 64.6504 26.5739 68.2954 31.8947C70.4457 35.0305 72.0908 38.5082 74.0551 41.75C74.4519 42.4031 74.7995 43.0597 75.1005 43.7162H75.1001C78.3962 45.1217 81.8137 45.5902 85.4065 44.961Z" fill="#BDDEC7"/>
<path fill-rule="evenodd" clip-rule="evenodd" d="M103.681 16.7324C103.771 16.965 103.859 17.1975 103.945 17.4334C103.859 17.1975 103.771 16.965 103.681 16.7324Z" fill="#BDDEC7"/>
<path fill-rule="evenodd" clip-rule="evenodd" d="M102.33 13.6858C102.444 13.9046 102.554 14.1269 102.662 14.3526C102.554 14.1269 102.443 13.9046 102.33 13.6858Z" fill="#BDDEC7"/>
<path fill-rule="evenodd" clip-rule="evenodd" d="M102.705 14.4417C102.813 14.6708 102.918 14.8965 103.021 15.129C102.918 14.8965 102.813 14.6708 102.705 14.4417Z" fill="#BDDEC7"/>
<path fill-rule="evenodd" clip-rule="evenodd" d="M103.021 15.1287C103.122 15.3578 103.22 15.5869 103.316 15.8194C103.22 15.5869 103.122 15.3578 103.021 15.1287Z" fill="#BDDEC7"/>
<path fill-rule="evenodd" clip-rule="evenodd" d="M64.1464 57.6273C64.9813 53.876 63.1004 43.6549 53.8616 44.0208C43.0451 43.8909 41.0413 53.582 42.6822 58.578C44.4484 63.957 47.1317 66.7234 53.7873 67.1098C61.3895 66.59 63.2955 61.4573 64.1464 57.6273Z" fill="white"/>
<path fill-rule="evenodd" clip-rule="evenodd" d="M59.6395 82.2722C61.8905 88.9883 63.4972 89.9526 65.7397 90.6331C66.3756 90.828 67.0473 90.9443 67.7083 90.9819C72.6044 91.2657 77.0644 89.7064 81.7791 88.9165C82.8401 88.7386 84.108 88.2394 84.5852 86.0064C85.1181 84.3171 83.5617 82.8775 81.7977 82.8638C80.0054 82.8501 78.2635 83.6879 76.5214 84.1496C69.9313 85.8833 67.5832 84.748 64.3435 78.391C64.1858 78.0832 63.9998 77.7857 63.8656 77.4643C61.3296 71.4116 57.2726 67.5236 50.6128 68.0844C49.0283 68.2177 45.7775 68.6725 44.4175 69.5548C40.4787 72.1161 38.6854 75.0637 37.2547 80.0153C35.0311 87.7128 34.9096 95.6701 34.4652 103.59C34.387 104.985 34.4401 106.059 35.5099 106.838C37.3459 108.176 39.6972 107.526 40.3709 105.248C41.8339 100.297 43.1627 84.9326 43.5982 82.3987C43.8295 81.0548 43.9047 79.9811 45.9388 79.9332C45.211 82.4535 44.452 84.5052 44.2869 86.7348C43.9328 91.5119 43.4448 96.2822 42.9933 101.053C42.761 103.504 41.6003 108.825 39.6774 108.497C37.0351 108.261 37.3967 111.793 37.2384 113.356C36.9671 116.037 34.7626 129.924 34.4652 134.233C34.4011 135.166 34.7692 136.117 35.6777 136.726C38.1167 138.357 40.8152 137.29 41.4752 134.428C41.5537 134.089 41.63 133.74 41.6544 133.395C42.0499 127.777 43.4086 122.333 44.3354 116.81C44.8781 113.578 45.9398 110.48 47.2115 107.481C47.7907 106.117 48.8423 105.173 50.271 105.081C51.8402 104.978 52.6732 106.243 53.2211 107.539C53.712 108.702 54.1 109.974 54.2323 111.229C54.8913 117.504 57.4068 133.638 57.7645 135.464C57.8752 136.031 58.7675 137.95 62.1215 137.451C64.6566 137.351 64.6018 134.958 64.6409 133.73C64.7817 129.274 64.2487 124.867 63.9207 120.438C63.0665 108.894 62.0541 97.3936 59.821 86.0303C59.5773 84.7924 58.4779 82.4329 59.6395 82.2722Z" fill="white"/>
<path fill-rule="evenodd" clip-rule="evenodd" d="M164.003 98.0675C164.177 96.6039 162.102 83.4248 161.021 78.4117C160.409 75.5735 159.049 72.913 156.745 70.9399C152.392 67.2092 147.623 67.1203 142.6 68.8984C140.643 69.5926 139.09 70.8373 138.044 72.7899C136.405 75.8505 134.518 78.7742 133.02 81.9031C131.768 84.5225 129.945 86.3896 127.744 88.0823C125.242 90.0075 118.709 94.07 118.83 96.2414C118.923 97.9375 120.501 98.8847 121.688 99.0899C123.471 99.3977 124.926 97.9512 126.412 97.0997C129.445 95.3592 132.062 92.9347 135.034 91.1668C136.559 90.2606 137.162 89.351 137.264 87.754C137.407 85.5347 137.375 83.288 137.714 81.1029C137.898 79.9197 137.178 77.6731 138.943 77.7859C140.225 77.868 139.585 79.9813 139.522 81.1645C139.135 88.4106 138.015 95.5712 137.06 102.749C136.227 109.017 133.798 114.892 133.048 121.201C132.594 125.024 131.607 128.772 130.9 132.564C130.643 133.935 129.866 135.45 130.821 136.606C131.613 137.567 133.18 138.265 134.517 137.964C135.743 137.69 136.347 136.729 136.627 135.502C137.873 130.044 139.086 124.579 140.385 119.135C141.142 115.962 141.982 112.806 142.889 109.677C143.414 107.871 144.58 106.931 146.489 106.74C148.535 106.534 149.516 107.916 150.215 109.39C151.125 111.301 151.213 113.336 151.364 115.456C151.689 120.004 151.96 124.559 152.239 129.114C152.39 131.569 152.528 134.045 153.263 136.391C153.968 138.644 155.522 139.513 157.758 138.931C160.751 138.155 160.841 136.757 160.916 133.282C161.077 125.893 159.91 118.595 159.419 111.25C159.344 110.125 159.932 108.525 158.759 107.854C156.38 105.799 156.783 100.43 156.697 98.0059C156.557 94.0495 155.807 90.1238 154.602 86.2904C154.011 84.4097 153.241 82.5904 152.784 80.6686C152.637 80.0463 152.865 79.4786 153.514 79.3111C154.006 79.1811 154.361 79.4923 154.534 79.971C154.69 80.4088 154.77 80.8738 154.938 81.3047C157.474 87.8019 158.006 94.6821 158.421 101.579C158.492 102.756 158.547 103.918 158.969 105.023C159.591 106.651 161.099 106.941 162.433 105.946C164.555 105.269 164.062 99.8764 164.003 98.0675Z" fill="white"/>
<path fill-rule="evenodd" clip-rule="evenodd" d="M154.804 65.1607C158.99 63.1568 160.42 59.4807 160.498 54.8404C159.831 51.5097 159.641 43.6378 148.395 44.4585C143.539 44.8928 140.327 49.1639 140.03 53.5991C139.803 56.9913 139.718 61.0982 144.362 64.7571C147.534 66.6584 151.013 66.973 154.804 65.1607Z" fill="white"/>
<path fill-rule="evenodd" clip-rule="evenodd" d="M130.926 57.6852C130.987 57.4356 129.909 56.3516 129.666 54.4982C129.193 49.721 129.678 47.1803 132.304 42.9776C135.472 37.9064 138.011 32.4179 139.468 26.4405C140.347 22.8363 140.376 19.3141 139.628 15.703C139.585 15.4739 139.537 15.2482 139.486 15.026C139.472 14.9644 139.457 14.9029 139.442 14.8413C139.398 14.6566 139.35 14.472 139.299 14.2908C139.288 14.2531 139.278 14.2121 139.267 14.1745C139.205 13.9591 139.139 13.7505 139.07 13.5453C139.051 13.4906 139.031 13.4359 139.012 13.3811C138.956 13.217 138.897 13.0563 138.835 12.899C138.814 12.8443 138.794 12.7896 138.772 12.7348C138.693 12.5399 138.611 12.3484 138.525 12.1569C138.504 12.1091 138.481 12.0646 138.46 12.0202C138.39 11.8697 138.319 11.7226 138.245 11.5756C138.213 11.5141 138.182 11.4525 138.15 11.391C138.063 11.2268 137.973 11.0627 137.88 10.8985C137.855 10.8575 137.829 10.813 137.804 10.772C137.717 10.625 137.627 10.4779 137.535 10.3343C137.494 10.2693 137.451 10.2044 137.409 10.1394C137.331 10.0231 137.251 9.90685 137.17 9.79059C137.131 9.73587 137.093 9.67774 137.053 9.62303C136.944 9.47257 136.831 9.32552 136.717 9.17848C136.663 9.11009 136.608 9.0417 136.553 8.97673C136.479 8.8844 136.404 8.79549 136.328 8.70658C136.269 8.63477 136.211 8.56638 136.151 8.49799C136.034 8.36804 135.916 8.2381 135.795 8.10815C135.727 8.03634 135.657 7.96795 135.588 7.89614C135.519 7.82775 135.449 7.75594 135.377 7.68755C135.301 7.61232 135.224 7.53708 135.146 7.46185C135.079 7.4003 135.01 7.33875 134.942 7.2772C134.799 7.14725 134.654 7.01731 134.506 6.8942C134.448 6.84291 134.391 6.79504 134.332 6.74716C134.237 6.66851 134.14 6.58986 134.043 6.51463C133.992 6.47359 133.94 6.43598 133.888 6.39494C133.671 6.22739 133.45 6.06325 133.224 5.90594C133.216 5.89911 133.208 5.89569 133.2 5.88885C133.084 5.80678 132.966 5.72813 132.848 5.6529C132.809 5.62554 132.77 5.6016 132.731 5.57425C132.351 5.32804 131.961 5.09208 131.561 4.86981C131.538 4.85955 131.515 4.84587 131.491 4.8322C130.918 4.5176 130.326 4.22693 129.718 3.96362C130.868 5.54689 131.847 7.28404 132.611 9.18532C134.015 12.6767 134.662 16.493 134.233 20.2784C133.72 24.8094 132.38 29.4737 129.513 32.9959C125.477 37.9577 117.952 40.0299 111.953 39.3734C109.814 39.1408 107.753 38.6621 105.852 37.7833C106.021 38.1731 106.218 38.5629 106.443 38.9493C106.449 38.9596 106.455 38.9699 106.461 38.9835C106.538 39.1135 106.618 39.2468 106.701 39.3768C109.296 43.5042 112.341 47.2247 115.749 50.6101C118.797 53.6399 122.735 55.1171 126.421 57.0116C127.323 57.4732 129.984 58.1708 130.926 57.6852Z" fill="#C5EACD"/>
<path fill-rule="evenodd" clip-rule="evenodd" d="M103.681 16.7327C103.665 16.6882 103.648 16.6472 103.631 16.6027C103.543 16.3736 103.453 16.1513 103.361 15.9256C103.346 15.8914 103.331 15.8538 103.316 15.8196C103.22 15.5871 103.122 15.358 103.021 15.1289C103.021 15.1289 103.021 15.1289 103.021 15.1289C102.918 14.8963 102.813 14.6707 102.705 14.4415C102.691 14.4108 102.676 14.3834 102.662 14.3526C102.554 14.1269 102.444 13.9047 102.33 13.6858C102.322 13.6687 102.314 13.655 102.306 13.6379C102.069 13.1831 101.819 12.742 101.555 12.3111C101.546 12.2975 101.536 12.2804 101.527 12.2667C101.119 11.6067 100.676 10.9809 100.192 10.3996C100.189 10.3928 100.185 10.3893 100.182 10.3859C99.2 9.20616 98.0488 8.19397 96.6705 7.41772C97.0047 7.95802 97.3152 8.52567 97.5924 9.12409C101.908 18.463 101.307 30.6264 95.0075 38.8437C92.6548 41.911 89.1425 44.3116 85.4067 44.9613C81.8139 45.5905 78.3964 45.122 75.1003 43.7166H75.1007C75.2078 43.9491 75.3088 44.185 75.404 44.421C75.4066 44.4278 75.4095 44.4347 75.4124 44.4415C75.6958 45.1459 75.9242 45.8538 76.0962 46.5651C76.0994 46.5787 76.1027 46.5924 76.106 46.6061C76.1617 46.8386 76.2115 47.0746 76.2552 47.3105C76.2565 47.314 76.2571 47.3208 76.2584 47.3276C76.3454 47.7995 76.4079 48.2749 76.4464 48.7536C76.448 48.7741 76.4496 48.7912 76.4509 48.8117C76.4689 49.0408 76.4806 49.2734 76.4871 49.5059C76.4874 49.5298 76.4878 49.5504 76.4884 49.5743C76.4988 50.0462 76.4868 50.5249 76.4509 51.0071C76.4493 51.031 76.4477 51.0516 76.4461 51.0721C76.4281 51.3046 76.4037 51.5371 76.375 51.7697C76.3705 51.8073 76.3659 51.8415 76.3614 51.8791C76.3311 52.1116 76.2962 52.3476 76.2552 52.5835C76.2509 52.6075 76.246 52.6314 76.2418 52.6553C76.2001 52.8879 76.1538 53.1204 76.1021 53.3564C76.0981 53.3769 76.0946 53.394 76.0903 53.4145C76.0376 53.6504 75.9779 53.8898 75.9144 54.1292C75.903 54.1736 75.8916 54.2181 75.8796 54.2625C75.816 54.4951 75.7473 54.7344 75.6734 54.9738C75.6606 55.0149 75.6476 55.0559 75.6346 55.0935C75.5558 55.3431 75.473 55.5962 75.3834 55.8492C80.2174 55.2918 84.3102 53.9479 88.1056 51.6295C94.4713 47.7414 100.113 43.1045 102.813 35.5335C104.92 29.6279 106.204 23.6436 103.944 17.4337C103.859 17.1977 103.771 16.9652 103.681 16.7327Z" fill="#A7CEB1"/>
<path fill-rule="evenodd" clip-rule="evenodd" d="M59.821 86.0304C62.0541 97.3936 63.0665 108.894 63.9207 120.438C64.2487 124.867 64.7816 129.274 64.6409 133.73C64.6018 134.958 64.6566 137.351 62.1215 137.451C58.7675 137.95 57.8752 136.031 57.7645 135.464C57.4068 133.638 54.8913 117.504 54.2323 111.229C54.1 109.974 53.712 108.702 53.2211 107.54C52.6732 106.244 51.8402 104.978 50.271 105.081C48.8423 105.173 47.7907 106.117 47.2115 107.481C45.9397 110.48 44.8781 113.579 44.3354 116.81C43.4086 122.333 42.0499 127.777 41.6544 133.395C41.63 133.74 41.5537 134.089 41.4752 134.428C40.8152 137.29 38.1166 138.357 35.6777 136.726C34.7691 136.117 34.401 135.166 34.4652 134.233C34.7626 129.924 36.967 116.037 37.2384 113.356C37.3967 111.793 37.0351 108.261 39.6774 108.497C41.6003 108.825 42.761 103.504 42.9933 101.053C43.4448 96.2823 43.9327 91.512 44.2868 86.7348C44.452 84.5052 45.211 82.4535 45.9388 79.9333C43.9047 79.9811 43.8295 81.0549 43.5982 82.3988C43.1627 84.9327 41.8339 100.297 40.3709 105.248C39.6972 107.526 37.3459 108.176 35.5099 106.839C34.4401 106.059 34.387 104.985 34.4652 103.59C34.9095 95.6702 35.0311 87.7128 37.2547 80.0153C38.6854 75.0638 40.4787 72.1161 44.4175 69.5548C45.7775 68.6726 49.0283 68.2178 50.6128 68.0844C57.2726 67.5236 61.3296 71.4117 63.8656 77.4643C63.9998 77.7858 64.1858 78.0833 64.3435 78.391C67.5832 84.748 69.9312 85.8833 76.5213 84.1496C78.2635 83.688 80.0053 82.8502 81.7977 82.8638C83.5617 82.8775 85.1181 84.3172 84.5852 86.0064C84.1079 88.2394 82.8401 88.7387 81.7791 88.9165C77.0644 89.7064 72.6044 91.2658 67.7083 90.9819C67.0473 90.9443 66.3756 90.828 65.7397 90.6331C63.4972 89.9526 61.8905 88.9883 59.6395 82.2723C58.4779 82.433 59.5773 84.7925 59.821 86.0304ZM42.6822 58.578C41.0413 53.582 43.045 43.8909 53.8616 44.0208C63.1004 43.655 64.9813 53.8761 64.1464 57.6274C63.2955 61.4573 61.3895 66.5901 53.7873 67.1098C47.1317 66.7234 44.4484 63.957 42.6822 58.578ZM81.1611 90.7015C83.5724 90.1407 87.0365 88.7626 85.9928 84.1462C85.5048 81.9884 84.1503 80.5317 82.0387 80.9318C80.0676 81.3045 78.0987 81.7422 76.1718 82.3099C72.4028 83.4212 69.8749 83.664 66.6632 78.3329C64.7005 75.0775 63.1597 71.5211 60.6149 68.6794C59.8663 67.8451 60.0389 67.2842 60.6901 66.6414C62.2472 65.1026 63.4714 63.3039 64.5122 61.3547C66.9991 56.6938 67.3174 46.5206 57.8892 42.9163C52.8993 40.4953 45.0986 43.7233 42.3303 47.6798C40.3181 50.925 39.4425 55.0695 40.5576 58.7661C41.5228 61.9668 43.1294 64.7161 45.8026 66.8671C42.9747 67.7733 38.8701 71.3535 37.2169 74.0379C35.8034 76.6813 35.2835 78.6578 34.6519 81.6875C33.1703 88.8037 32.8543 96.0498 32.2787 103.268C32.1246 105.197 32.6084 106.982 34.2873 108.189C35.2669 108.894 35.4969 109.793 35.4457 111.168C35.3285 114.334 34.8806 117.443 34.4988 120.568C33.9323 125.205 33.3759 129.849 32.882 134.496C32.5862 137.28 34.0961 138.901 36.6901 139.225C38.1248 139.403 41.8147 139.82 42.7988 135.884C43.0731 134.113 43.5663 132.403 43.9064 130.451C44.9892 124.234 46.0277 118.003 47.735 111.927C48.0894 110.665 48.6178 109.516 49.3286 108.473C50.2365 107.136 51.0949 107.239 51.7106 108.795C52.0927 109.759 52.3546 110.798 52.5097 111.835C53.5469 118.745 54.888 125.595 55.3144 132.622C55.6865 138.753 57.9645 139.331 62.5704 139.082C64.8351 139.427 66.7417 137.902 66.8186 133.706C66.9043 129.011 66.2707 124.405 65.7276 119.768C64.9393 113.038 64.8455 106.244 63.9373 99.5104C63.6099 97.0825 62.8229 94.5759 63.277 91.618C67.5125 94.1553 74.9053 92.1925 81.1611 90.7015Z" fill="black"/>
<path fill-rule="evenodd" clip-rule="evenodd" d="M158.969 105.023C158.547 103.918 158.492 102.755 158.421 101.579C158.006 94.6819 157.474 87.8017 154.938 81.3045C154.77 80.8736 154.69 80.4085 154.534 79.9708C154.361 79.4921 154.006 79.1809 153.514 79.3108C152.865 79.4784 152.637 80.046 152.784 80.6684C153.241 82.5902 154.012 84.4094 154.602 86.2902C155.807 90.1236 156.557 94.0492 156.697 98.0057C156.783 100.43 156.38 105.799 158.759 107.854C159.932 108.524 159.344 110.125 159.419 111.25C159.91 118.595 161.078 125.892 160.916 133.282C160.841 136.756 160.751 138.155 157.758 138.931C155.522 139.513 153.968 138.644 153.263 136.39C152.528 134.045 152.39 131.569 152.239 129.114C151.96 124.559 151.689 120.004 151.364 115.456C151.213 113.336 151.125 111.301 150.215 109.389C149.516 107.916 148.535 106.534 146.489 106.739C144.58 106.931 143.414 107.871 142.889 109.677C141.982 112.806 141.142 115.962 140.385 119.135C139.087 124.579 137.873 130.044 136.627 135.501C136.347 136.729 135.743 137.69 134.517 137.963C133.18 138.264 131.613 137.567 130.821 136.606C129.866 135.45 130.644 133.935 130.9 132.564C131.607 128.772 132.594 125.024 133.048 121.201C133.799 114.892 136.227 109.017 137.06 102.749C138.015 95.5709 139.135 88.4103 139.522 81.1642C139.585 79.9811 140.225 77.8678 138.943 77.7857C137.178 77.6729 137.898 79.9195 137.714 81.1027C137.375 83.2878 137.407 85.5345 137.264 87.7538C137.162 89.3507 136.559 90.2603 135.034 91.1665C132.062 92.9345 129.445 95.3589 126.412 97.0995C124.926 97.951 123.471 99.3975 121.688 99.0897C120.501 98.8845 118.923 97.9373 118.83 96.2412C118.709 94.0697 125.242 90.0073 127.744 88.0821C129.945 86.3894 131.768 84.5223 133.02 81.9029C134.518 78.774 136.405 75.8502 138.044 72.7897C139.09 70.8371 140.643 69.5924 142.6 68.8982C147.623 67.12 152.393 67.2089 156.745 70.9397C159.049 72.9128 160.409 75.5732 161.021 78.4115C162.102 83.4246 164.177 96.6037 164.003 98.0672C164.062 99.8762 164.555 105.269 162.433 105.946C161.099 106.941 159.591 106.65 158.969 105.023ZM140.03 53.599C140.327 49.1638 143.539 44.8928 148.395 44.4585C159.641 43.6378 159.831 51.5097 160.498 54.8403C160.42 59.4807 158.99 63.1567 154.804 65.1606C151.013 66.973 147.534 66.6584 144.362 64.7571C139.718 61.0982 139.803 56.9912 140.03 53.599ZM162.6 108.022C163.641 107.475 164.547 106.38 164.984 105.269C166.311 101.894 165.475 98.3818 165.204 94.9281C164.784 89.5593 163.725 84.2897 162.565 79.0441C161.556 74.4858 159.996 70.3173 155.924 67.7492C155.665 67.5851 155.522 67.2226 155.248 66.8431C161.403 63.4064 162.706 57.4358 161.337 50.8531C160.053 46.0486 155.548 42.7931 150.173 42.7931C147.323 42.7418 143.629 44.1097 141.693 46.4453C138.654 50.111 137.69 53.5443 138.56 58.4753C139.031 61.1495 142.308 65.6017 144.318 66.2686C143.089 66.3643 141.588 67.038 139.852 68.3101C135.946 70.9876 134.673 74.7594 133.865 76.4247C131.36 81.5917 128.328 86.2081 123.223 89.043C121.197 90.168 116.618 94.4356 116.695 95.5436C116.915 98.7443 119.419 101.381 122.541 101.015C124.217 100.817 125.727 100.15 127.137 99.0931C130.007 96.9456 132.972 94.9349 136.607 92.3668C135.801 99.9617 134.635 106.592 133.17 113.178C131.602 120.23 130.093 127.294 128.718 134.387C128.033 137.922 129.228 138.924 132.752 139.759C135.477 140.405 137.281 139.352 137.972 136.404C139.566 129.606 141.166 122.808 142.628 115.979C143.114 113.712 143.685 111.171 145.147 109.533C146.405 108.124 147.648 108.459 148.546 110.084C149.811 112.371 149.999 115.35 150.167 117.928C150.509 123.177 150.804 128.43 151.114 133.682C151.537 140.86 153.222 142.217 159.794 140.073C161.342 139.571 162.029 138.548 162.158 136.962C162.308 135.094 162.487 133.241 162.416 131.357C162.168 124.812 161.576 116.495 160.926 109.988C160.76 108.326 161.041 108.842 162.6 108.022Z" fill="black"/>
<path fill-rule="evenodd" clip-rule="evenodd" d="M106.701 39.3771C106.618 39.2471 106.538 39.1138 106.461 38.9838C106.454 38.9701 106.449 38.9599 106.443 38.9496C105.344 37.0552 104.89 35.1778 105.382 32.7978C106.275 28.4823 107.253 24.1394 106.287 19.6051C105.549 16.141 104.702 12.7864 102.45 10.0542C101.494 8.89493 101.743 8.26915 102.923 7.6844C107.714 1.79589 120.517 -0.0267507 129.717 3.9639C130.325 4.22721 130.918 4.51787 131.491 4.83247C131.514 4.84615 131.537 4.85983 131.561 4.87009C131.96 5.09236 132.351 5.32831 132.731 5.57452C132.77 5.60188 132.809 5.62581 132.848 5.65317C132.966 5.7284 133.083 5.80705 133.199 5.88912C133.208 5.89596 133.216 5.89938 133.224 5.90622C133.45 6.06352 133.671 6.22766 133.888 6.39522C133.94 6.43626 133.992 6.47387 134.043 6.51491C134.14 6.59014 134.237 6.66879 134.332 6.74744C134.39 6.79531 134.448 6.84318 134.506 6.89448C134.654 7.01758 134.799 7.14753 134.942 7.27747C135.01 7.33902 135.079 7.40058 135.146 7.46213C135.224 7.53736 135.301 7.61259 135.377 7.68782C135.448 7.75621 135.518 7.82802 135.588 7.89642C135.657 7.96823 135.727 8.03662 135.795 8.10843C135.915 8.23837 136.034 8.36832 136.151 8.49826C136.211 8.56665 136.269 8.63505 136.328 8.70686C136.403 8.79576 136.479 8.88467 136.553 8.977C136.608 9.04197 136.663 9.11037 136.717 9.17876C136.831 9.3258 136.944 9.47284 137.053 9.6233C137.092 9.67802 137.131 9.73615 137.17 9.79086C137.251 9.90713 137.331 10.0234 137.409 10.1397C137.451 10.2046 137.493 10.2696 137.535 10.3346C137.627 10.4782 137.717 10.6252 137.804 10.7723C137.829 10.8133 137.855 10.8578 137.879 10.8988C137.973 11.0629 138.063 11.2271 138.15 11.3912C138.182 11.4528 138.213 11.5143 138.244 11.5759C138.318 11.7229 138.39 11.87 138.46 12.0204C138.481 12.0649 138.504 12.1093 138.525 12.1572C138.611 12.3487 138.693 12.5402 138.771 12.7351C138.793 12.7898 138.814 12.8445 138.835 12.8993C138.897 13.0566 138.955 13.2173 139.012 13.3814C139.031 13.4361 139.051 13.4908 139.069 13.5456C139.139 13.7507 139.205 13.9593 139.267 14.1748C139.278 14.2124 139.288 14.2534 139.299 14.291C139.35 14.4723 139.398 14.6569 139.442 14.8416C139.457 14.9031 139.471 14.9647 139.485 15.0262C139.537 15.2485 139.585 15.4742 139.627 15.7033C140.376 19.3144 140.346 22.8366 139.468 26.4408C138.011 32.4182 135.471 37.9066 132.304 42.9779C129.678 47.1805 129.192 49.7213 129.666 54.4984C129.908 56.3519 130.987 57.4359 130.926 57.6855C129.984 58.1711 127.322 57.4735 126.421 57.0118C122.735 55.1174 118.797 53.6401 115.748 50.6104C112.34 47.225 109.296 43.5045 106.701 39.3771ZM102.813 35.5335C100.112 43.1044 94.4708 47.7414 88.1051 51.6294C84.3097 53.9479 80.2169 55.2918 75.383 55.8492C75.4725 55.5961 75.5553 55.3431 75.6341 55.0935C75.6471 55.0558 75.6602 55.0148 75.6729 54.9738C75.7468 54.7344 75.8156 54.495 75.8791 54.2625C75.8911 54.218 75.9025 54.1736 75.9139 54.1291C75.9775 53.8898 76.0371 53.6504 76.0898 53.4144C76.0941 53.3939 76.0977 53.3768 76.1016 53.3563C76.1534 53.1204 76.1996 52.8878 76.2413 52.6553C76.2456 52.6314 76.2504 52.6074 76.2547 52.5835C76.2957 52.3475 76.3306 52.1116 76.3609 51.8791C76.3654 51.8414 76.37 51.8072 76.3746 51.7696C76.4032 51.5371 76.4277 51.3046 76.4456 51.072C76.4472 51.0515 76.4488 51.031 76.4505 51.0071C76.4863 50.5249 76.4984 50.0462 76.4879 49.5743C76.4873 49.5503 76.487 49.5298 76.4866 49.5059C76.4801 49.2733 76.4684 49.0408 76.4505 48.8117C76.4492 48.7912 76.4475 48.7741 76.4459 48.7536C76.4075 48.2748 76.3449 47.7995 76.2579 47.3276C76.2566 47.3208 76.256 47.3139 76.2547 47.3105C76.211 47.0745 76.1612 46.8386 76.1055 46.6061C76.1022 46.5924 76.099 46.5787 76.0957 46.565C75.9237 45.8538 75.6954 45.1459 75.4119 44.4415C75.409 44.4346 75.4061 44.4278 75.4035 44.4209C75.3084 44.185 75.2074 43.949 75.1002 43.7165C74.7992 43.06 74.4516 42.4034 74.0548 41.7503C72.0905 38.5085 70.4454 35.0308 68.2951 31.895C64.6502 26.5742 64.2941 20.8942 66.5099 14.9066C67.5677 12.0512 69.4766 9.84558 71.9999 8.51878C79.0552 4.81195 86.4871 4.07675 94.0906 6.33025C95.0314 6.60723 95.8866 6.97655 96.67 7.41768C98.0483 8.19392 99.1998 9.20611 100.181 10.3859C100.185 10.3893 100.188 10.3927 100.192 10.3995C100.676 10.9809 101.119 11.6067 101.526 12.2666C101.536 12.2803 101.545 12.2974 101.554 12.3111C101.819 12.742 102.068 13.1831 102.305 13.6379C102.313 13.655 102.322 13.6687 102.329 13.6858C102.443 13.9046 102.554 14.1269 102.661 14.3526C102.676 14.3834 102.69 14.4107 102.705 14.4415C102.812 14.6706 102.918 14.8963 103.02 15.1288C103.021 15.1288 103.021 15.1288 103.021 15.1288C103.122 15.3579 103.219 15.5871 103.315 15.8196C103.331 15.8538 103.346 15.8914 103.361 15.9256C103.453 16.1513 103.543 16.3736 103.63 16.6027C103.647 16.6471 103.664 16.6882 103.681 16.7326C103.77 16.9651 103.858 17.1977 103.944 17.4336C106.204 23.6436 104.919 29.6278 102.813 35.5335ZM130.975 59.6791C132.728 59.6996 133.223 58.8926 132.323 57.3196C131.363 55.6372 130.877 53.9103 131.023 51.9782C131.238 49.14 131.865 46.4282 133.429 44.0516C135.467 40.9569 137.163 37.6536 138.549 34.2067C141.411 27.0803 143.244 21.202 140.597 13.4293C139.547 10.3483 139.014 9.09669 135.922 5.68737C131.822 1.0299 114.073 -4.41749 102.41 5.81731C100.821 6.66195 99.3253 6.83635 97.7545 5.51297C96.6436 4.576 95.2455 4.10068 93.775 3.81002C86.246 2.30882 78.9451 2.74311 71.884 6.13875C63.0282 10.3961 61.2339 22.6964 64.8675 28.8516C67.6211 33.5159 70.3369 38.2212 73.0342 42.9266C74.593 45.6486 75.2064 48.5894 74.9077 51.6602C74.6832 53.965 73.5219 55.8047 71.3142 56.7451C70.8126 56.9571 70.4637 57.5795 70.8256 58.2019C71.0702 58.619 71.5625 58.6772 72.0218 58.5814C73.8773 58.195 75.6846 57.6171 77.5492 57.2307C85.9532 55.4901 93.2929 51.6192 99.2279 44.9578C100.902 43.0805 102.175 40.9125 103.884 38.529C105.808 41.5553 107.994 44.0209 109.931 46.6813C113.772 51.9577 118.838 55.4149 124.509 58.0411C126.562 58.9918 128.715 59.6518 130.975 59.6791Z" fill="black"/>
<path fill-rule="evenodd" clip-rule="evenodd" d="M32.0383 138.524C29.8531 137.478 27.5285 137.143 25.1798 137.509C21.4104 138.097 17.6437 138.063 13.8629 137.803C13.1443 137.738 12.1817 137.184 12.0139 138.48C11.8784 139.523 12.7589 139.865 13.5095 140.032C14.4832 140.255 15.492 140.35 16.4902 140.402C21.599 140.675 26.6978 139.383 31.8155 140.279C32.2377 140.354 32.7524 140.279 32.9175 139.749C33.1622 138.959 32.5038 138.747 32.0383 138.524Z" fill="black"/>
<path fill-rule="evenodd" clip-rule="evenodd" d="M87.804 137.58C85.8716 136.808 83.8434 137.177 81.8589 137.009C77.9843 136.681 74.0853 137.071 70.2208 136.493C69.5478 136.394 68.7819 136.62 68.6647 137.44C68.5425 138.299 69.254 138.675 69.9299 138.736C71.5916 138.89 73.2628 139.024 74.929 139.01C79.5538 138.976 84.2017 140.131 88.834 138.733C88.6571 137.868 88.2128 137.745 87.804 137.58Z" fill="black"/>
<path fill-rule="evenodd" clip-rule="evenodd" d="M183.51 137.591C183.065 137.611 182.621 137.707 182.176 137.707C178.844 137.697 175.534 138.097 172.174 137.84C170.097 137.68 167.959 137.444 165.848 137.659C165.008 137.748 163.784 137.635 163.85 138.928C163.909 140.073 165.061 139.68 165.751 139.694C168.426 139.752 171.103 139.718 173.78 139.718C173.78 139.707 173.78 139.694 173.78 139.684C176.123 139.684 178.467 139.69 180.81 139.677C181.702 139.673 182.595 139.632 183.486 139.574C184.174 139.526 184.982 139.348 185 138.531C185.019 137.639 184.205 137.56 183.51 137.591Z" fill="black"/>
<path fill-rule="evenodd" clip-rule="evenodd" d="M150.553 22.4193C153.559 19.9914 153.385 16.3906 152.812 13.1864C152.093 9.15132 149.819 5.72491 146.93 2.87298C146.784 2.72935 146.282 2.83194 146.039 2.98582C145.617 3.24571 145.471 3.80652 145.686 4.20661C146.118 5.01021 146.63 5.78646 147.215 6.47379C150.682 10.5534 152.242 15.1458 150.829 20.6069C150.674 21.2088 150.523 22.4432 150.553 22.4193Z" fill="black"/>
<path fill-rule="evenodd" clip-rule="evenodd" d="M27.6068 77.9432C27.8977 77.5636 28.0449 77.0712 27.6315 76.6984C27.0605 76.1855 26.6174 76.5582 26.3041 77.0849C20.6678 86.304 23.6019 93.1877 24.5837 95.1573C24.8232 95.6361 25.0434 96.3747 25.7441 96.0943C26.4572 95.8071 26.1549 95.171 25.9454 94.6376C24.685 91.4266 24.2003 88.1198 25.2369 84.7652C25.947 82.4673 26.0767 79.9334 27.6068 77.9432Z" fill="black"/>
<path fill-rule="evenodd" clip-rule="evenodd" d="M173.274 84.5393C173.419 86.1226 173.667 87.6956 173.926 89.72C175.076 87.6511 175.3 85.7977 175.028 83.9717C174.282 78.9688 172.523 74.3353 170.022 70.0164C169.807 69.6436 169.503 69.2025 168.956 69.4624C168.329 69.7633 168.268 70.3481 168.463 70.9226C168.646 71.4663 168.932 71.9792 169.22 72.4716C171.389 76.1921 172.874 80.1588 173.274 84.5393Z" fill="black"/>
<path fill-rule="evenodd" clip-rule="evenodd" d="M112.768 138.114C112.648 138.983 113.339 139.41 114 139.468C117.797 139.793 121.612 140.751 126.146 139.13C121.72 138.504 118.019 137.988 114.321 137.447C113.649 137.352 112.906 137.116 112.768 138.114Z" fill="black"/>
</svg>
