<svg width="220" height="141" viewBox="0 0 220 141" fill="none" xmlns="http://www.w3.org/2000/svg">
<circle cx="150" cy="71" r="50" fill="#707986"/>
<path fill-rule="evenodd" clip-rule="evenodd" d="M137.65 79.8691C137.709 79.8951 137.758 79.9273 137.801 79.9628C137.758 79.9273 137.709 79.8951 137.65 79.8691Z" fill="#F7CF9C"/>
<path fill-rule="evenodd" clip-rule="evenodd" d="M137.75 68.178C137.694 68.2284 137.637 68.2781 137.578 68.3282C137.637 68.2781 137.694 68.2284 137.75 68.178Z" fill="#F7CF9C"/>
<path fill-rule="evenodd" clip-rule="evenodd" d="M137.65 79.8689C137.584 79.8377 137.508 79.814 137.421 79.798C136.978 79.7193 136.62 79.5676 136.325 79.3606C136.62 79.5676 136.978 79.7193 137.421 79.798C137.508 79.814 137.584 79.8377 137.65 79.8689Z" fill="#F7CF9C"/>
<path fill-rule="evenodd" clip-rule="evenodd" d="M137.962 67.9866C137.906 68.0405 137.846 68.0934 137.786 68.1453C137.846 68.0934 137.906 68.0405 137.962 67.9866Z" fill="#F7CF9C"/>
<path fill-rule="evenodd" clip-rule="evenodd" d="M139.342 57.9071C139.339 57.4597 139.322 57.006 139.289 56.5452C139.253 56.5615 139.223 56.5749 139.187 56.5898C139.22 56.5757 139.253 56.5615 139.289 56.5452C139.322 57.006 139.339 57.4597 139.342 57.9071Z" fill="#F7CF9C"/>
<path fill-rule="evenodd" clip-rule="evenodd" d="M91.0488 86.7276C92.9533 86.7552 116.082 87.7379 121.315 85.9754C124.044 85.0555 126.687 83.5334 128.644 81.2576C130.791 78.7625 132.029 76.0404 133.235 73.0026C133.063 73.4464 132.887 73.8905 132.712 74.3343C135.149 68.5316 137.517 62.6699 139.164 56.5998C138.63 56.8356 138.299 56.9277 138.044 57.1241C132.384 61.4782 126.455 65.3824 120.434 69.1374C116.906 71.3376 113.306 73.3751 109.626 75.2567C108.209 75.9802 106.844 76.0716 105.466 75.2379C101.999 73.1433 98.3718 71.2958 95.1061 68.8885C89.4921 64.7532 83.4873 61.3438 77.7143 57.5105C77.1314 57.1227 76.8134 56.5229 75.5515 56.1936C74.8759 60.7791 75.8033 65.9715 76.1941 70.501C76.2868 71.5563 77.0552 71.9165 77.6945 72.4219C81.0827 75.1085 81.3278 78.0514 78.2542 81.0676C77.5752 81.7358 77.2606 82.3533 77.2672 83.2009C77.2672 83.0853 77.2738 82.9744 77.2838 82.867C81.2119 85.8293 86.3291 86.6592 91.0488 86.7276Z" fill="#C8E8D1"/>
<path fill-rule="evenodd" clip-rule="evenodd" d="M133.245 92.3481C133.901 92.3382 134.56 92.3293 135.216 92.3222C135.358 92.3205 135.501 92.3187 135.636 92.3105C135.501 92.3187 135.358 92.3205 135.216 92.3222C134.56 92.3293 133.901 92.3382 133.245 92.3481Z" fill="#F7CF9C"/>
<path fill-rule="evenodd" clip-rule="evenodd" d="M137.008 68.883C137.121 68.7646 137.236 68.6476 137.356 68.5324C137.419 68.4739 137.482 68.4165 137.544 68.3601C137.482 68.4165 137.419 68.4739 137.356 68.5324C137.236 68.6476 137.121 68.7646 137.008 68.883Z" fill="#F7CF9C"/>
<path fill-rule="evenodd" clip-rule="evenodd" d="M136.286 69.6939C136.504 69.4217 136.736 69.1604 136.981 68.907C136.736 69.1604 136.504 69.4217 136.286 69.6939Z" fill="#F7CF9C"/>
<path fill-rule="evenodd" clip-rule="evenodd" d="M138.531 67.1863C138.432 67.4596 138.266 67.679 138.074 67.8768C138.266 67.679 138.432 67.4596 138.531 67.1863Z" fill="#F7CF9C"/>
<path fill-rule="evenodd" clip-rule="evenodd" d="M108.101 73.52C107.978 73.5405 107.855 73.5494 107.735 73.5484C107.855 73.5494 107.978 73.5405 108.101 73.52Z" fill="#F7CF9C"/>
<path fill-rule="evenodd" clip-rule="evenodd" d="M75.7831 53.1678C75.7633 53.1187 75.7436 53.0693 75.7238 53.0186C75.7436 53.0693 75.7633 53.1187 75.7831 53.1678Z" fill="#F7CF9C"/>
<path fill-rule="evenodd" clip-rule="evenodd" d="M75.8728 53.3479C75.8464 53.3017 75.8233 53.2548 75.8035 53.2075C75.8233 53.2544 75.8464 53.3017 75.8728 53.3479Z" fill="#F7CF9C"/>
<path fill-rule="evenodd" clip-rule="evenodd" d="M138.998 53.7118C139.164 53.5459 139.316 53.3782 139.452 53.2063C139.316 53.3782 139.164 53.5459 138.998 53.7118Z" fill="#F7CF9C"/>
<path fill-rule="evenodd" clip-rule="evenodd" d="M75.7179 53.0035C75.6316 52.7759 75.5718 52.5342 75.5353 52.2761C75.5718 52.5342 75.6316 52.7759 75.7179 53.0035Z" fill="#F7CF9C"/>
<path fill-rule="evenodd" clip-rule="evenodd" d="M138.932 53.7734C138.869 53.8341 138.806 53.8948 138.737 53.9547C138.806 53.8948 138.869 53.8341 138.932 53.7734Z" fill="#F7CF9C"/>
<path fill-rule="evenodd" clip-rule="evenodd" d="M140.127 52.0378C140.005 52.3477 139.853 52.6369 139.667 52.9138C139.853 52.6373 140.005 52.3473 140.127 52.0378Z" fill="#F7CF9C"/>
<path fill-rule="evenodd" clip-rule="evenodd" d="M86.8761 58.9156C89.5986 60.2488 92.3774 61.5072 95.2391 62.4714C98.0477 63.4185 100.896 63.9502 103.824 64.3061C108.709 64.9006 113.85 63.8854 118.569 62.5525C123.703 61.1031 128.714 58.923 133.428 56.3176C135.726 55.0472 137.975 53.6176 140.128 52.0377C140.3 51.5868 140.409 51.0933 140.456 50.5322C140.509 49.8566 140.621 49.1862 140.671 48.5103C140.866 45.8471 140.615 45.4348 138.104 45.2576C136.034 45.1115 133.934 45.3675 131.874 45.158C128.526 44.8177 125.18 44.9081 121.832 44.8524C117.029 44.7723 98.7499 44.9151 92.9769 44.8811C90.4134 44.8811 86.4256 44.8733 82.4379 44.8854C81.0799 44.8893 79.7054 44.8134 78.3673 45.0034C76.1416 45.3185 75.6448 45.9991 75.5487 48.3972C75.509 49.3631 75.5454 50.333 75.499 51.2986C75.4825 51.6506 75.4924 51.9739 75.5355 52.2759C79.2019 54.7048 82.9512 56.9961 86.8761 58.9156Z" fill="#C8E8D1"/>
<path fill-rule="evenodd" clip-rule="evenodd" d="M138.664 54.0212C138.575 54.0999 138.482 54.1783 138.385 54.257C138.482 54.1783 138.575 54.0999 138.664 54.0212Z" fill="#F7CF9C"/>
<path fill-rule="evenodd" clip-rule="evenodd" d="M139.648 52.9387C139.591 53.0249 139.528 53.1096 139.462 53.1936C139.528 53.1096 139.591 53.0249 139.648 52.9387Z" fill="#F7CF9C"/>
<path fill-rule="evenodd" clip-rule="evenodd" d="M77.0646 54.6402C77.0416 54.6242 77.0187 54.6081 76.9957 54.592C77.0187 54.6081 77.0416 54.6242 77.0646 54.6402Z" fill="#F7CF9C"/>
<path fill-rule="evenodd" clip-rule="evenodd" d="M76.2799 53.9421C76.2537 53.9127 76.2307 53.883 76.2045 53.8533C76.2307 53.883 76.2537 53.9127 76.2799 53.9421Z" fill="#F7CF9C"/>
<path fill-rule="evenodd" clip-rule="evenodd" d="M76.432 54.1075C76.4058 54.0829 76.3828 54.0576 76.3599 54.033C76.3828 54.0576 76.4058 54.0829 76.432 54.1075Z" fill="#F7CF9C"/>
<path fill-rule="evenodd" clip-rule="evenodd" d="M76.1477 53.7788C76.1213 53.7449 76.0949 53.7111 76.0718 53.6765C76.0949 53.7111 76.1213 53.7449 76.1477 53.7788Z" fill="#F7CF9C"/>
<path fill-rule="evenodd" clip-rule="evenodd" d="M76.0381 53.6278C75.982 53.5434 75.9292 53.4576 75.8831 53.3694C75.9292 53.4576 75.982 53.5434 76.0381 53.6278Z" fill="#F7CF9C"/>
<path fill-rule="evenodd" clip-rule="evenodd" d="M76.8559 54.4826C76.8297 54.4638 76.8067 54.445 76.7805 54.4255C76.8067 54.445 76.8297 54.4638 76.8559 54.4826Z" fill="#F7CF9C"/>
<path fill-rule="evenodd" clip-rule="evenodd" d="M76.6543 54.3167C76.6347 54.2985 76.6117 54.2804 76.592 54.262C76.6117 54.2804 76.6347 54.2985 76.6543 54.3167Z" fill="#F7CF9C"/>
<path fill-rule="evenodd" clip-rule="evenodd" d="M160.593 46.4286C166.849 50.5508 174.858 46.0082 174.322 37.1367C174.308 35.0378 173.142 29.944 168.101 28.7448C162.411 27.9529 157.695 29.8008 156.512 36.3342C155.711 40.6698 157.552 43.9218 160.593 46.4286Z" fill="white"/>
<path fill-rule="evenodd" clip-rule="evenodd" d="M165.485 66.3655C166.495 62.4233 166.939 58.3798 167.32 54.7981C167.32 53.5493 167.38 52.7666 167.304 51.9995C167.204 50.9921 166.797 50.1144 165.866 49.7001C162.945 48.3956 159.391 49.4104 157.208 51.9843C152.091 58.0157 146.798 63.8561 140.648 68.7231C139.634 69.5231 138.724 70.4873 137.852 71.4646C137.091 72.3203 136.624 73.3763 136.64 74.6102C136.683 77.3131 137.664 77.9749 139.876 76.7134C143.569 74.6088 146.934 72.0233 149.882 68.8191C151.535 67.0227 153.187 65.2336 154.638 63.2436C155.065 62.6594 155.592 62.3095 156.271 62.8012C156.801 63.1876 156.798 63.7647 156.642 64.3591C156.592 64.5456 156.539 64.7324 156.466 64.91C154.777 69.146 151.932 78.8331 151.097 83.2921C150.862 84.5441 144.811 99.2911 142.393 104.293C141.688 105.752 141.161 107.314 140.592 108.845C140.148 110.042 140.244 111.157 141.323 111.935C142.291 112.63 143.417 112.335 144.42 111.093C145.01 110.362 145.533 109.56 146.017 108.743C149.067 103.591 152.075 98.4085 155.145 93.2696C157.626 89.1112 160.448 85.1333 161.832 80.3567C163.173 75.7339 164.29 71.0357 165.485 66.3655Z" fill="white"/>
<path fill-rule="evenodd" clip-rule="evenodd" d="M138.051 80.4104C138.038 80.343 138.018 80.2792 137.991 80.2193C137.948 80.1215 137.885 80.036 137.803 79.9662C137.76 79.9293 137.71 79.896 137.65 79.8691C137.584 79.8379 137.508 79.8141 137.422 79.7982C136.978 79.7195 136.62 79.5678 136.325 79.3608C135.444 78.7401 135.14 77.6231 134.792 76.487C134.646 76.0056 134.547 75.5324 134.494 75.0638C134.474 74.8805 134.464 74.6983 134.457 74.5161C134.457 74.5119 134.457 74.5073 134.457 74.503C134.441 73.7575 134.554 73.0184 134.818 72.268C134.852 72.1744 134.885 72.0805 134.924 71.9862C135.06 71.6406 135.219 71.3138 135.395 71.0022C135.567 70.6906 135.759 70.3943 135.964 70.111C136.067 69.9689 136.173 69.8299 136.286 69.6942C136.504 69.4219 136.736 69.1607 136.981 68.9072C136.991 68.8991 136.998 68.8913 137.008 68.8831C137.12 68.7647 137.236 68.6477 137.356 68.5325C137.418 68.474 137.481 68.4166 137.544 68.3603C137.554 68.3496 137.568 68.3393 137.577 68.3291C137.637 68.2787 137.693 68.2288 137.75 68.1781C137.763 68.1674 137.773 68.1568 137.786 68.1462C137.846 68.094 137.905 68.0409 137.962 67.9866C137.998 67.9508 138.038 67.9143 138.074 67.8771C138.266 67.6793 138.432 67.4599 138.531 67.1866C138.581 67.0501 138.614 66.8998 138.627 66.7325C138.796 64.076 139.296 61.444 139.343 58.5738C139.346 58.353 139.346 58.1307 139.343 57.9071C139.339 57.4597 139.323 57.006 139.29 56.5452C139.253 56.5615 139.22 56.5757 139.187 56.5898C139.181 56.5934 139.174 56.5969 139.164 56.6001C137.518 62.6702 135.15 68.5318 132.712 74.3346C132.888 73.8908 133.063 73.4467 133.235 73.0029C132.03 76.0407 130.791 78.7628 128.645 81.2579C126.687 83.5337 124.044 85.0558 121.315 85.9757C116.082 87.7381 92.9536 86.7555 91.0492 86.7279C86.3295 86.6595 81.2123 85.8296 77.2841 82.8673C77.2742 82.9747 77.2676 83.0856 77.2676 83.2012C77.2676 83.3167 77.2742 83.4358 77.2875 83.5606C77.4928 85.585 77.675 87.6119 77.8439 89.6399C77.9333 90.692 78.0294 91.4297 78.238 91.9451C78.2546 91.9919 78.2745 92.0369 78.2976 92.0801C78.609 92.7292 79.1488 92.9805 80.1723 93.0684C80.5167 93.0978 80.9109 93.1092 81.3713 93.111C83.1399 93.1173 84.9086 93.1131 86.6772 93.0854C88.4459 93.0581 90.2145 93.0082 91.9799 92.9245C101.131 92.491 110.283 92.407 119.44 92.4963C121.411 92.5154 123.385 92.5044 125.356 92.48C127.986 92.4474 130.615 92.3907 133.245 92.3499C133.901 92.3396 134.56 92.3304 135.216 92.3229C135.358 92.3212 135.501 92.3194 135.637 92.3109C135.961 92.2907 136.259 92.2333 136.488 92.0535C136.683 91.8993 136.822 91.6551 136.879 91.2673C137.167 89.1706 137.498 87.0792 137.746 84.9771C137.796 84.5567 137.842 84.1356 137.885 83.7141C137.972 82.8712 138.038 82.0261 138.084 81.1775C138.097 80.918 138.104 80.645 138.051 80.4104Z" fill="#A7CEAE"/>
<path fill-rule="evenodd" clip-rule="evenodd" d="M163.713 109.234C164.846 105.26 165.74 101.206 166.929 97.2524C168.188 93.077 169.204 88.9917 167.946 84.5508C167.068 81.4541 167.128 77.4098 165.601 74.3872C164.909 77.7937 163.766 81.6005 162.388 84.649C161.881 85.7713 162.03 87.0229 162.623 88.0038C164.041 90.3486 163.478 92.5482 162.65 94.904C161.226 98.9709 159.911 103.086 158.672 107.223C157.927 109.709 158.546 110.639 160.865 111.071C162.431 111.362 163.216 110.98 163.713 109.234Z" fill="white"/>
<path fill-rule="evenodd" clip-rule="evenodd" d="M147.623 59.0081C146.096 59.8935 143.3 60.1948 141.903 61.4256C140.952 62.2618 141.144 63.6241 140.873 65.5117C143.681 63.4234 145.718 61.293 147.623 59.0081Z" fill="white"/>
<path fill-rule="evenodd" clip-rule="evenodd" d="M118.569 62.5522C113.85 63.8851 108.709 64.9003 103.824 64.3058C100.896 63.9499 98.0476 63.4182 95.2389 62.471C92.3773 61.5069 89.5984 60.2485 86.8759 58.9153C82.951 56.9958 79.2018 54.7044 75.5353 52.2756V52.2763C75.5717 52.5343 75.6313 52.7761 75.7174 53.0037C75.7208 53.0086 75.7208 53.0136 75.7241 53.0182C75.7439 53.0692 75.7638 53.1189 75.7837 53.1681C75.7903 53.1813 75.7969 53.194 75.8036 53.2071C75.8234 53.2546 75.8466 53.3018 75.8731 53.3482C75.8764 53.3553 75.8797 53.362 75.883 53.3688C75.9294 53.457 75.9824 53.5428 76.0387 53.6272C76.0487 53.6431 76.0586 53.6598 76.0718 53.6757C76.095 53.7105 76.1215 53.7445 76.148 53.7785C76.1646 53.8037 76.1844 53.8285 76.2043 53.853C76.2308 53.8838 76.254 53.9147 76.2805 53.9452C76.307 53.9742 76.3335 54.0033 76.36 54.0324C76.3832 54.0579 76.4064 54.0841 76.4329 54.1096C76.4825 54.161 76.5355 54.2121 76.5918 54.2621C76.6117 54.2812 76.6349 54.3 76.6548 54.3188C76.6978 54.3546 76.7376 54.3904 76.7806 54.4255C76.8071 54.4457 76.8303 54.4652 76.8568 54.4847C76.9032 54.5208 76.9495 54.5563 76.9959 54.5917C77.0191 54.6084 77.0423 54.625 77.0655 54.6417C77.1383 54.6931 77.2145 54.7441 77.2907 54.7945C78.2015 55.3811 79.1123 55.971 80.0232 56.563C81.8382 57.7473 83.6499 58.9408 85.4616 60.1379C86.3658 60.7362 87.27 61.336 88.1742 61.9358C91.791 64.3349 95.4078 66.7379 99.0445 69.1005C101.287 70.5556 103.681 71.7428 106.036 72.988C106.474 73.2199 106.917 73.4354 107.381 73.5155C107.5 73.5357 107.616 73.5471 107.735 73.5485C107.855 73.5495 107.977 73.5403 108.1 73.519C108.345 73.4765 108.6 73.3851 108.865 73.2298C109.905 72.6197 110.988 72.0969 112.061 71.5545C112.492 71.3376 112.919 71.1175 113.343 70.8878C113.551 70.7729 113.763 70.6552 113.972 70.5347C116.085 69.3121 118.185 68.0721 120.268 66.8028C126.522 62.9943 132.619 58.9202 138.386 54.2567C138.482 54.178 138.574 54.0997 138.664 54.021C138.69 53.999 138.713 53.9771 138.737 53.9551C138.806 53.8948 138.869 53.8338 138.932 53.7729C138.955 53.7523 138.975 53.7318 138.998 53.7112C139.164 53.5453 139.316 53.3776 139.452 53.2057C139.455 53.2018 139.459 53.1976 139.462 53.1937C139.528 53.1096 139.591 53.0249 139.647 52.9388C139.654 52.9303 139.661 52.9221 139.667 52.9136C139.853 52.6368 140.005 52.3475 140.128 52.0377V52.0374C137.975 53.6173 135.726 55.0469 133.427 56.3173C128.714 58.9227 123.703 61.1028 118.569 62.5522Z" fill="#A7CEAE"/>
<path fill-rule="evenodd" clip-rule="evenodd" d="M74.1009 69.6409C73.9917 68.3034 73.8029 67.2453 73.8426 66.1975C73.9221 64.1617 73.0874 62.6917 71.6997 61.4177C70.6001 60.4082 67.957 58.2398 66.2877 54.9045C66.6885 65.5112 67.3045 67.2833 74.1009 69.6409Z" fill="white"/>
<path fill-rule="evenodd" clip-rule="evenodd" d="M78.2212 76.3398C78.0954 75.2778 77.5489 74.5635 76.754 74.0191C74.9986 72.8209 73.3061 71.5179 71.352 70.6739C67.3907 68.961 64.8073 65.9742 63.86 61.4223C63.4891 59.6276 62.8697 57.8971 62.0582 56.2633C61.8065 55.756 61.4256 55.309 61.2468 54.7787C61.0812 54.297 61.2998 53.8376 61.7734 53.5919C62.1775 53.3821 62.4623 53.6302 62.7306 53.8961C63.3864 54.5476 63.5917 56.8188 65.059 59.9963C64.7576 58.3196 64.0024 53.0801 63.7309 51.5732C63.0982 48.0242 63.0982 48.0274 59.8226 47.7104C59.3721 47.6668 58.925 47.5757 58.4812 47.49C55.6063 46.9377 53.7383 47.7314 52.3439 50.4506C50.7276 53.6129 49.5882 56.9783 49.3895 60.6379C48.9225 69.3605 46.8127 77.9757 45.4978 86.5853C45.2163 88.4406 44.6433 90.8337 43.5635 92.3236C42.0068 94.471 41.2219 95.8574 39.2976 97.6719C37.5355 99.3341 35.9093 101.184 34.3559 103.076C33.1271 104.571 33.3623 106.43 34.7467 108.048C35.7139 109.179 36.4955 109.133 38.3205 107.831C41.4206 105.622 44.6532 102.561 47.3791 99.8764C49.671 97.6227 50.499 96.5635 51.8934 92.0074C53.3971 88.1003 53.3872 85.2606 55.2221 82.3014C56.0071 81.0367 56.9709 81.0267 57.7426 82.261C58.1169 82.8583 58.1732 83.5371 58.2129 84.2099C58.6865 91.66 59.7199 99.0572 59.9915 106.529C60.0677 108.646 60.4022 110.784 60.8758 112.844C61.3395 114.864 62.6445 115.5 64.6781 115.082C66.1321 114.784 66.6654 113.88 66.5958 111.807C66.5793 111.323 66.5461 110.838 66.4832 110.358C65.2047 100.351 64.6052 90.2882 64.4198 80.1972C64.3866 78.3908 63.9726 77.1133 62.3464 76.2069C59.9253 74.8578 59.9253 74.8578 56.4012 65.3333C55.444 62.6169 54.4272 59.924 53.4799 57.2034C53.2183 56.4434 52.5161 55.3916 53.5263 54.8964C54.6027 54.3697 54.818 55.633 55.0896 56.3909C56.6397 60.7375 58.2361 65.0689 59.6404 69.4697C60.4221 71.9195 61.737 73.7599 63.8534 74.9109C65.95 76.0516 68.0829 77.13 70.2391 78.1395C72.0045 78.9661 73.9288 79.1469 75.8266 79.265C77.6383 79.378 78.4432 78.2824 78.2212 76.3398Z" fill="white"/>
<path fill-rule="evenodd" clip-rule="evenodd" d="M61.5779 45.6789C63.7242 45.6275 65.6452 44.4084 67.0694 42.367C70.7557 37.0736 70.6001 31.778 67.2151 26.8143C63.2307 22.791 57.153 23.2699 53.5825 27.3385C51.6052 29.7174 51.1448 32.5674 50.9825 35.4486C51.3701 42.7927 55.5698 45.8221 61.5779 45.6789Z" fill="white"/>
<path fill-rule="evenodd" clip-rule="evenodd" d="M160.864 111.071C158.546 110.64 157.927 109.71 158.672 107.223C159.911 103.086 161.225 98.9712 162.65 94.9043C163.478 92.5484 164.041 90.3489 162.623 88.004C162.03 87.0232 161.881 85.7715 162.388 84.6492C163.766 81.6007 164.908 77.794 165.601 74.3875C167.128 77.4101 167.068 81.4543 167.946 84.551C169.204 88.9919 168.187 93.0773 166.929 97.2527C165.74 101.206 164.846 105.26 163.713 109.235C163.216 110.98 162.431 111.362 160.864 111.071ZM155.144 93.2694C152.074 98.4083 149.067 103.59 146.016 108.743C145.533 109.56 145.009 110.362 144.42 111.093C143.416 112.335 142.29 112.63 141.323 111.935C140.243 111.157 140.147 110.042 140.591 108.845C141.161 107.314 141.687 105.752 142.393 104.293C144.811 99.2909 150.862 84.544 151.097 83.2919C151.932 78.833 154.777 69.1458 156.466 64.9098C156.539 64.7322 156.592 64.5454 156.642 64.3589C156.797 63.7645 156.8 63.1874 156.271 62.801C155.592 62.3093 155.065 62.6592 154.638 63.2434C153.187 65.2334 151.534 67.0225 149.882 68.819C146.934 72.0231 143.569 74.6087 139.876 76.7132C137.663 77.9748 136.683 77.313 136.64 74.6101C136.623 73.3761 137.09 72.3202 137.852 71.4644C138.723 70.4871 139.634 69.523 140.647 68.7229C146.798 63.8559 152.091 58.0156 157.208 51.9841C159.391 49.4103 162.944 48.3954 165.866 49.6999C166.796 50.1143 167.204 50.9919 167.303 51.9994C167.379 52.7665 167.32 53.5491 167.32 54.798C166.939 58.3796 166.495 62.4231 165.485 66.3653C164.289 71.0355 163.173 75.7338 161.832 80.3565C160.447 85.1331 157.625 89.111 155.144 93.2694ZM137.746 84.9768C137.498 87.0788 137.166 89.1702 136.878 91.267C136.822 91.6548 136.683 91.899 136.487 92.0532C136.259 92.2329 135.961 92.2904 135.636 92.3106C135.5 92.3191 135.358 92.3208 135.216 92.3226C134.56 92.3301 133.901 92.3393 133.245 92.3495C130.615 92.3903 127.985 92.447 125.355 92.4796C123.385 92.5041 121.411 92.5151 119.44 92.4959C110.282 92.4066 101.131 92.4906 91.9795 92.9242C90.2142 93.0078 88.4455 93.0578 86.6769 93.0851C84.9082 93.1127 83.1396 93.117 81.3709 93.1106C80.9105 93.1088 80.5164 93.0975 80.1719 93.0681C79.1485 92.9802 78.6086 92.7288 78.2973 92.0798C78.2741 92.0365 78.2542 91.9915 78.2377 91.9447C78.029 91.4293 77.933 90.6917 77.8435 89.6396C77.6746 87.6116 77.4924 85.5847 77.2871 83.5603C77.2738 83.4355 77.2672 83.3164 77.2672 83.2008C77.2606 82.3533 77.5753 81.7358 78.2542 81.0676C81.3279 78.0513 81.0828 75.1085 77.6945 72.4219C77.0553 71.9164 76.2868 71.5563 76.1941 70.501C75.8033 65.9715 74.8759 60.7791 75.5516 56.1936C76.8135 56.5229 77.1314 57.1226 77.7144 57.5104C83.4873 61.3438 89.4922 64.7531 95.1062 68.8885C98.3719 71.2957 101.999 73.1432 105.466 75.2379C106.844 76.0716 108.209 75.9801 109.626 75.2566C113.306 73.3751 116.906 71.3375 120.434 69.1373C126.455 65.3823 132.384 61.4781 138.044 57.1241C138.299 56.9277 138.63 56.8355 139.164 56.5998C139.174 56.5966 139.18 56.593 139.187 56.5895C139.223 56.5746 139.253 56.5611 139.289 56.5448C139.323 57.0057 139.339 57.4594 139.342 57.9067C139.346 58.1304 139.346 58.3527 139.342 58.5735C139.296 61.4437 138.796 64.0757 138.627 66.7322C138.614 66.8995 138.581 67.0498 138.531 67.1863C138.432 67.4596 138.266 67.679 138.074 67.8768C138.037 67.914 137.998 67.9505 137.961 67.9863C137.905 68.0405 137.845 68.0937 137.786 68.1458C137.773 68.1565 137.763 68.1671 137.749 68.1777C137.693 68.2284 137.637 68.2784 137.577 68.3287C137.567 68.339 137.554 68.3493 137.544 68.3599C137.481 68.4163 137.418 68.4737 137.355 68.5322C137.236 68.6474 137.12 68.7644 137.007 68.8828C136.997 68.8909 136.991 68.8987 136.981 68.9069C136.736 69.1603 136.504 69.4216 136.285 69.6938C136.173 69.8296 136.067 69.9685 135.964 70.1107C135.759 70.3939 135.567 70.6903 135.394 71.0018C135.219 71.3134 135.06 71.6403 134.924 71.9859C134.884 72.0802 134.851 72.1741 134.818 72.2677C134.553 73.0181 134.441 73.7572 134.457 74.5027C134.457 74.5069 134.457 74.5115 134.457 74.5158C134.464 74.698 134.474 74.8802 134.494 75.0635C134.547 75.5321 134.646 76.0053 134.792 76.4867C135.139 77.6228 135.444 78.7397 136.325 79.3604C136.62 79.5674 136.978 79.7192 137.421 79.7979C137.508 79.8138 137.584 79.8376 137.65 79.8687C137.71 79.8957 137.759 79.929 137.802 79.9659C137.885 80.0357 137.948 80.1211 137.991 80.219C138.018 80.2789 138.037 80.3427 138.051 80.41C138.104 80.6447 138.097 80.9176 138.084 81.1771C138.037 82.0257 137.971 82.8708 137.885 83.7138C137.842 84.1352 137.796 84.5564 137.746 84.9768ZM75.8265 79.2651C73.9286 79.147 72.0043 78.9662 70.239 78.1396C68.0828 77.1301 65.9498 76.0517 63.8533 74.911C61.7368 73.76 60.4219 71.9196 59.6403 69.4698C58.236 65.069 56.6395 60.7376 55.0895 56.391C54.8179 55.6331 54.6026 54.3698 53.5262 54.8965C52.516 55.3917 53.2181 56.4435 53.4798 57.2035C54.427 59.9241 55.4439 62.617 56.401 65.3334C59.9251 74.8579 59.9251 74.8579 62.3463 76.207C63.9725 77.1134 64.3865 78.3909 64.4196 80.1973C64.6051 90.2883 65.2046 100.351 66.4831 110.358C66.546 110.838 66.5791 111.323 66.5957 111.807C66.6652 113.88 66.132 114.784 64.678 115.082C62.6443 115.5 61.3394 114.864 60.8757 112.844C60.4021 110.784 60.0675 108.646 59.9914 106.529C59.7198 99.0573 58.6864 91.6601 58.2128 84.21C58.173 83.5372 58.1167 82.8584 57.7424 82.2611C56.9707 81.0268 56.0069 81.0368 55.2219 82.3015C53.387 85.2607 53.397 88.1004 51.8933 92.0075C50.4989 96.5636 49.6709 97.6228 47.3789 99.8765C44.6531 102.561 41.4205 105.622 38.3203 107.831C36.4954 109.133 35.7137 109.179 34.7466 108.048C33.3621 106.43 33.127 104.571 34.3558 103.076C35.9091 101.185 37.5354 99.3342 39.2974 97.672C41.2217 95.8575 42.0067 94.4711 43.5634 92.3237C44.6431 90.8338 45.2161 88.4407 45.4976 86.5854C46.8125 77.9758 48.9223 69.3606 49.3894 60.638C49.5881 56.9784 50.7274 53.613 52.3437 50.4507C53.7381 47.7315 55.6061 46.9378 58.481 47.4901C58.9249 47.5758 59.372 47.6669 59.8224 47.7105C63.0981 48.0274 63.0981 48.0243 63.7307 51.5733C64.0023 53.0802 64.7575 58.3197 65.0589 59.9964C63.5916 56.8188 63.3862 54.5477 62.7305 53.8962C62.4622 53.6303 62.1773 53.3822 61.7733 53.592C61.2996 53.8377 61.081 54.2971 61.2466 54.7788C61.4255 55.3091 61.8064 55.7561 62.0581 56.2634C62.8696 57.8972 63.4889 59.6277 63.8599 61.4224C64.8071 65.9743 67.3906 68.9611 71.3518 70.674C73.306 71.518 74.9984 72.821 76.7539 74.0192C77.5488 74.5636 78.0952 75.2779 78.2211 76.3399C78.443 78.2825 77.6382 79.3782 75.8265 79.2651ZM50.9825 35.4481C51.1448 32.5669 51.6051 29.7169 53.5825 27.338C57.1529 23.2693 63.2306 22.7904 67.215 26.8137C70.6 31.7775 70.7557 37.073 67.0693 42.3664C65.6451 44.4079 63.7241 45.6269 61.5778 45.6783C55.5697 45.8215 51.37 42.7922 50.9825 35.4481ZM71.6996 61.4178C73.0874 62.6918 73.922 64.1618 73.8425 66.1976C73.8028 67.2454 73.9916 68.3036 74.1009 69.641C67.3045 67.2834 66.6884 65.5113 66.2876 54.9047C67.9569 58.2399 70.6 60.4083 71.6996 61.4178ZM75.4986 51.2986C75.5449 50.333 75.5085 49.3631 75.5483 48.3972C75.6443 45.9991 76.1411 45.3185 78.3668 45.0034C79.7049 44.8134 81.0794 44.8893 82.4374 44.8854C86.4252 44.8733 90.4129 44.8811 92.9765 44.8811C98.7495 44.9151 117.029 44.7723 121.831 44.8524C125.18 44.908 128.525 44.8177 131.874 45.158C133.934 45.3675 136.034 45.1115 138.104 45.2576C140.614 45.4348 140.866 45.8471 140.671 48.5102C140.621 49.1862 140.508 49.8566 140.455 50.5322C140.409 51.0933 140.3 51.5868 140.127 52.0377C140.005 52.3475 139.853 52.6374 139.667 52.9139C139.66 52.9224 139.654 52.9306 139.647 52.9391C139.591 53.0252 139.528 53.1099 139.462 53.194C139.458 53.1979 139.455 53.2021 139.452 53.206C139.316 53.3779 139.164 53.5456 138.998 53.7115C138.975 53.7321 138.955 53.7526 138.932 53.7732C138.869 53.8341 138.806 53.8951 138.736 53.9554C138.713 53.9774 138.69 53.9993 138.663 54.0213C138.574 54.1 138.481 54.1783 138.385 54.257C132.619 58.9205 126.521 62.9946 120.268 66.8031C118.185 68.0724 116.085 69.3124 113.972 70.535C113.763 70.6555 113.551 70.7732 113.343 70.8881C112.919 71.1178 112.491 71.3379 112.061 71.5548C110.988 72.0972 109.905 72.62 108.865 73.2301C108.6 73.3854 108.345 73.4768 108.099 73.5193C107.977 73.5406 107.854 73.5498 107.735 73.5488C107.616 73.5474 107.5 73.536 107.381 73.5158C106.917 73.4357 106.473 73.2202 106.036 72.9883C103.681 71.7431 101.287 70.5559 99.0442 69.1008C95.4076 66.7382 91.7907 64.3352 88.1739 61.9361C87.2697 61.3363 86.3655 60.7365 85.4613 60.1382C83.6496 58.9411 81.8379 57.7476 80.0229 56.5633C79.1121 55.9713 78.2012 55.3814 77.2904 54.7948C77.2142 54.7444 77.1381 54.6934 77.0652 54.642C77.042 54.6253 77.0188 54.6087 76.9956 54.592C76.9493 54.5566 76.9029 54.5211 76.8565 54.485C76.83 54.4655 76.8068 54.446 76.7803 54.4258C76.7373 54.3907 76.6975 54.3549 76.6545 54.3191C76.6346 54.3003 76.6114 54.2815 76.5916 54.2624C76.5353 54.2124 76.4823 54.1613 76.4326 54.1099C76.4061 54.0844 76.3829 54.0582 76.3597 54.0327C76.3332 54.0036 76.3067 53.9745 76.2802 53.9455C76.2537 53.915 76.2305 53.8841 76.204 53.8533C76.1842 53.8288 76.1643 53.804 76.1477 53.7788C76.1212 53.7448 76.0947 53.7108 76.0716 53.676C76.0583 53.6601 76.0484 53.6434 76.0384 53.6275C75.9821 53.5431 75.9291 53.4573 75.8828 53.3691C75.8795 53.3623 75.8761 53.3556 75.8728 53.3485C75.8463 53.3021 75.8232 53.2546 75.8033 53.2074C75.7967 53.1943 75.79 53.1816 75.7834 53.1684C75.7635 53.1192 75.7437 53.0695 75.7238 53.0185C75.7205 53.0139 75.7205 53.0089 75.7172 53.004C75.6311 52.7764 75.5714 52.5346 75.535 52.2766V52.2759C75.4919 51.9738 75.482 51.6506 75.4986 51.2986ZM141.903 61.4253C143.3 60.1945 146.096 59.8932 147.623 59.0077C145.718 61.2927 143.681 63.4231 140.873 65.5113C141.144 63.6238 140.952 62.2615 141.903 61.4253ZM156.512 36.3339C157.695 29.8006 162.411 27.9527 168.101 28.7446C173.142 29.9438 174.308 35.0376 174.321 37.1365C174.858 46.008 166.849 50.5506 160.593 46.4284C157.552 43.9215 155.711 40.6696 156.512 36.3339ZM165.528 110.371C167.058 103.98 168.76 97.6415 170.569 91.3354C170.84 90.3985 170.976 89.4467 170.718 88.4691C169.476 83.8095 169.138 78.9347 167.75 74.307C166.899 71.4737 166.998 68.6733 167.654 65.7354C168.79 60.6578 169.966 55.5236 168.906 50.2188C168.764 49.5116 169.128 49.1331 169.655 48.8619C172.702 47.2951 174.427 45.1693 175.467 42.0566C177.756 35.2195 175.262 28.7432 168.651 27.0261C163.825 25.7741 158.983 27.2161 155.972 31.7335C153.727 35.1092 153.8 40.291 156.184 44.298C156.906 45.511 157.688 46.6829 158.344 47.7169C153.7 53.278 148.275 57.3268 141.489 59.4416C141.34 57.6022 141.581 56.0964 141.817 54.5608C142.257 51.6977 142.651 48.8108 142.565 45.8981C142.509 44.008 141.75 43.2619 140.038 43.2331C133.791 43.1286 127.541 43.0506 121.295 42.9581C118.304 42.9141 85.6038 42.8631 77.5388 42.9971C74.8428 43.0417 73.816 44.2161 73.6339 47.1062C73.4418 50.1089 74.0181 57.2772 73.7796 60.794C71.4744 59.1825 70.1926 57.6809 67.7483 54.3917C65.7113 51.1837 65.3338 50.3624 64.8204 47.9799C64.6382 47.1487 65.0059 46.7162 65.6087 46.3469C66.6387 45.7166 67.5794 44.9711 68.3113 43.946C71.9314 38.8851 72.8787 33.6105 69.9608 27.9279C66.6288 21.4345 59.8059 20.3194 54.0826 24.3678C48.0778 28.6159 47.3723 38.2329 51.8834 43.7255C52.4067 44.3625 53.1519 44.8113 53.5129 45.8758C51.1017 47.1076 50.3267 49.6251 49.4092 52.0752C48.3527 54.9004 47.8062 57.8419 47.6041 60.8454C47.1537 67.5312 45.4612 74.1376 44.7988 80.7872C44.1662 87.1497 42.4075 92.212 37.9593 96.3562C35.982 98.1998 34.21 100.295 32.3089 102.239C31.0768 103.501 31.0271 104.991 31.62 106.506C32.0009 107.474 32.6136 108.358 33.2131 109.202C34.8625 111.514 36.29 111.821 38.5555 110.159C40.5726 108.679 42.4936 107.04 44.408 105.407C49.0879 101.415 50.3201 101.099 53.0989 94.0167C54.3442 91.0596 55.9075 87.2224 56.4077 85.1568C56.8879 88.317 57.0403 94.2566 57.3549 96.8479C58.0107 102.237 57.918 107.698 58.8089 113.062C59.2528 115.743 60.465 116.935 62.9888 117.019C63.7141 117.044 66.9401 116.781 67.576 115.705C68.7618 113.7 68.6127 111.121 68.3014 109.028C67.0494 100.677 66.4599 92.2655 66.2214 83.8222C66.175 82.2243 66.079 80.5905 66.5062 78.85C69.1029 79.5891 71.3386 80.9783 73.8955 81.2438C74.9686 81.3551 75.3595 82.3898 75.3429 83.4135C75.3032 85.8548 75.8894 88.2231 75.9722 90.6459C76.0716 93.4236 77.1414 94.777 79.6586 95.0237C81.9141 95.2446 102.035 94.9394 109.828 94.7171C115.081 94.5672 131.576 94.3116 134.56 94.6448C137.653 94.9901 138.266 94.4555 138.72 91.0213C139.193 87.4719 139.733 83.9328 140.204 80.3835C140.323 79.4856 140.492 78.7529 141.316 78.2304C145.463 75.6125 149.183 72.3907 152.766 68.8714C151.253 75.0649 150.719 78.6111 148.895 83.7967C148.577 84.249 141.724 101.723 138.392 108.524C137.484 110.377 138.018 111.976 139.733 113.308C141.677 114.816 143.744 114.894 145.208 113.487C146.301 112.436 147.056 111.094 147.825 109.781C151.577 103.369 159.742 88.2319 160.732 88.1632C161.371 89.0986 161.467 90.7583 161.305 91.8877C160.907 94.5991 159.957 97.1084 159.109 99.6695C158.145 102.579 156.671 105.321 156.43 108.48C156.261 110.71 156.807 111.715 158.685 112.594C159.964 113.193 161.295 113.304 162.683 113.068C164.196 112.811 165.147 111.966 165.528 110.371Z" fill="black"/>
<path fill-rule="evenodd" clip-rule="evenodd" d="M36.2538 116.336C33.5412 116.385 30.8319 116.49 28.1193 116.543C25.9466 116.585 23.7771 116.685 21.6276 117.049C20.9453 117.164 19.9583 117.07 20.0014 118.132C20.0444 119.265 21.0347 118.979 21.6972 118.938C23.8633 118.805 26.0261 118.533 28.2021 118.36C30.9114 118.36 33.624 118.368 36.3333 118.353C36.9063 118.35 37.4627 118.167 37.5124 117.441C37.5786 116.506 36.9162 116.325 36.2538 116.336Z" fill="black"/>
<path fill-rule="evenodd" clip-rule="evenodd" d="M180.27 113.971C179.389 113.597 178.475 113.865 177.591 113.929C173.908 114.196 170.231 114.539 167.138 114.804C165.558 114.804 164.564 114.78 163.574 114.815C163.153 114.83 162.607 114.773 162.514 115.421C162.402 116.202 163.008 116.437 163.508 116.494C164.485 116.608 165.485 116.623 166.469 116.579C170.953 116.378 173.047 116.354 179.505 116.474C180.025 116.566 180.787 115.855 180.939 115.326C181.138 114.642 180.83 114.211 180.27 113.971Z" fill="black"/>
<path fill-rule="evenodd" clip-rule="evenodd" d="M136.607 114.814C132.371 114.344 128.092 114.999 123.852 114.318C123.398 114.245 122.938 114.552 122.901 115.124C122.865 115.708 123.315 115.916 123.759 116.075C125.157 116.576 126.611 116.749 128.058 116.695C131.41 116.569 134.759 116.365 138.111 116.739C138.654 116.8 139.214 116.805 139.505 116.013C138.783 115 137.607 114.925 136.607 114.814Z" fill="black"/>
<path fill-rule="evenodd" clip-rule="evenodd" d="M24.4595 99.2801C24.8635 98.9543 24.8403 98.4542 24.9265 97.9831C25.4763 95.0118 26.3904 92.2111 28.2617 89.8535C29.315 88.5298 30.3318 87.174 31.3387 85.8124C31.7262 85.2913 32.2594 84.6554 31.6003 84.0521C31.0638 83.5618 30.5835 84.1847 30.2225 84.5508C27.2184 87.6043 24.9695 91.1753 23.9328 95.5148C23.6347 96.7722 23.5056 98.083 23.9593 99.2865C24.2905 99.2865 24.4032 99.3255 24.4595 99.2801Z" fill="black"/>
<path fill-rule="evenodd" clip-rule="evenodd" d="M177.64 80.1449C177.22 80.4721 177.216 80.9843 177.428 81.4505C179.237 85.449 180.207 89.5627 178.746 94.0433C179.154 93.9547 179.389 93.9816 179.482 93.8717C181.774 91.104 181.393 82.8336 178.862 80.3473C178.515 80.0063 178.064 79.8149 177.64 80.1449Z" fill="black"/>
<path fill-rule="evenodd" clip-rule="evenodd" d="M76.6283 115.84C74.7404 115.738 72.8458 115.72 70.9546 115.713C70.4744 115.711 70.0703 116.015 70.0703 116.584C70.0736 117.13 70.4479 117.419 70.9182 117.551C71.988 117.852 73.0711 117.69 74.1508 117.604C74.9623 117.604 75.7737 117.616 76.5852 117.599C77.0356 117.589 77.5523 117.55 77.6186 116.938C77.7014 116.209 77.1483 115.868 76.6283 115.84Z" fill="black"/>
<path fill-rule="evenodd" clip-rule="evenodd" d="M78.8504 34.8534C78.4828 34.8846 78.2045 35.1888 78.2708 35.6546C78.3403 36.1466 78.751 36.2593 79.0856 36.2398C81.2119 36.1161 83.335 35.9222 85.3322 35.1002C85.2427 34.4376 84.885 34.3008 84.5273 34.2686C82.6063 34.0959 80.7482 34.6932 78.8504 34.8534Z" fill="black"/>
</svg>
