<svg width="220" height="141" viewBox="0 0 220 141" fill="none" xmlns="http://www.w3.org/2000/svg">
<circle cx="132.5" cy="70.5" r="57.5" fill="#707986"/>
<path fill-rule="evenodd" clip-rule="evenodd" d="M112.072 32.4587C112.091 32.5274 112.111 32.597 112.131 32.6667C112.111 32.597 112.091 32.5274 112.072 32.4587Z" fill="#F7CE69"/>
<path fill-rule="evenodd" clip-rule="evenodd" d="M112.46 34.1099C112.473 34.1744 112.486 34.2387 112.496 34.3043C112.486 34.2387 112.473 34.1744 112.46 34.1099Z" fill="#F7CE69"/>
<path fill-rule="evenodd" clip-rule="evenodd" d="M112.375 33.6765C112.388 33.7428 112.404 33.8091 112.417 33.8764C112.404 33.8091 112.388 33.7428 112.375 33.6765Z" fill="#F7CE69"/>
<path fill-rule="evenodd" clip-rule="evenodd" d="M112.282 33.2576C112.296 33.3245 112.312 33.3918 112.328 33.4594C112.312 33.3918 112.296 33.3245 112.282 33.2576Z" fill="#F7CE69"/>
<path fill-rule="evenodd" clip-rule="evenodd" d="M112.18 32.8513C112.197 32.9193 112.213 32.9876 112.233 33.0562C112.213 32.9876 112.197 32.9193 112.18 32.8513Z" fill="#F7CE69"/>
<path fill-rule="evenodd" clip-rule="evenodd" d="M110.322 46.9058C110.319 46.9147 110.319 46.924 110.319 46.9329C110.319 46.924 110.319 46.9147 110.322 46.9058Z" fill="#F7CE69"/>
<path fill-rule="evenodd" clip-rule="evenodd" d="M110.378 46.5488C110.375 46.5667 110.375 46.5843 110.371 46.6023C110.375 46.5843 110.375 46.5671 110.378 46.5488Z" fill="#F7CE69"/>
<path fill-rule="evenodd" clip-rule="evenodd" d="M112.543 34.5601C112.553 34.6219 112.562 34.6828 112.572 34.745C112.562 34.6828 112.553 34.6219 112.543 34.5601Z" fill="#F7CE69"/>
<path fill-rule="evenodd" clip-rule="evenodd" d="M111.953 32.0771C111.976 32.1475 111.999 32.2188 112.019 32.2898C111.999 32.2188 111.976 32.1475 111.953 32.0771Z" fill="#F7CE69"/>
<path fill-rule="evenodd" clip-rule="evenodd" d="M111.808 41.7932C111.577 42.5243 111.343 43.2537 111.116 43.9855C111.343 43.2537 111.577 42.5243 111.808 41.7932Z" fill="#F7CE69"/>
<path fill-rule="evenodd" clip-rule="evenodd" d="M112.619 35.0432C112.626 35.0946 112.636 35.1453 112.643 35.1967C112.636 35.1453 112.626 35.0946 112.619 35.0432Z" fill="#F7CE69"/>
<path fill-rule="evenodd" clip-rule="evenodd" d="M109.92 28.4905C109.989 28.5611 110.054 28.6335 110.117 28.7065C110.054 28.6335 109.989 28.5611 109.92 28.4905Z" fill="#F7CE69"/>
<path fill-rule="evenodd" clip-rule="evenodd" d="M107.751 26.8694C107.85 26.9225 107.952 26.9766 108.047 27.0324C107.952 26.9766 107.85 26.9225 107.751 26.8694Z" fill="#F7CE69"/>
<path fill-rule="evenodd" clip-rule="evenodd" d="M106.717 26.3948C106.832 26.4408 106.943 26.4881 107.055 26.5365C106.943 26.4881 106.832 26.4408 106.717 26.3948Z" fill="#F7CE69"/>
<path fill-rule="evenodd" clip-rule="evenodd" d="M111.828 31.7083C111.854 31.7813 111.88 31.8557 111.903 31.9301C111.88 31.8557 111.854 31.7813 111.828 31.7083Z" fill="#F7CE69"/>
<path fill-rule="evenodd" clip-rule="evenodd" d="M110.15 28.7437C110.21 28.8123 110.269 28.8826 110.325 28.9536C110.269 28.8826 110.21 28.8123 110.15 28.7437Z" fill="#F7CE69"/>
<path fill-rule="evenodd" clip-rule="evenodd" d="M107.076 26.5461C107.184 26.5935 107.293 26.6422 107.395 26.6919C107.293 26.6422 107.184 26.5935 107.076 26.5461Z" fill="#F7CE69"/>
<path fill-rule="evenodd" clip-rule="evenodd" d="M107.422 26.7039C107.524 26.7536 107.626 26.8043 107.727 26.8564C107.626 26.8043 107.524 26.7536 107.422 26.7039Z" fill="#F7CE69"/>
<path fill-rule="evenodd" clip-rule="evenodd" d="M82.2453 66.6575C81.1018 67.9256 79.7342 68.6147 77.9811 68.0155C76.3103 67.4432 75.4634 66.3111 75.1306 64.498C74.6659 61.9763 74.7911 59.4532 74.7483 56.9274C74.7285 55.6256 74.5802 54.3853 73.674 53.3926C72.3888 51.9877 70.5006 52.3952 69.9041 54.2289C69.7393 54.73 69.7097 55.303 69.7327 55.838C69.8942 59.6337 69.5185 63.4392 69.9436 67.2312C70.0689 68.3348 69.8448 69.4001 69.2911 70.366C68.3684 71.97 66.958 72.0996 65.5344 71.0102C58.4889 66.9452 53.0416 70.2401 51.1633 72.9939C49.9473 74.774 49.9143 74.7937 51.1929 76.5168C52.2606 77.9539 53.4437 79.2994 54.4718 80.764C55.411 82.1038 55.5956 83.6227 54.808 85.1226C54.0335 86.6041 52.6627 86.8721 51.1797 86.771C50.7843 86.7439 50.3856 86.7059 49.9802 86.6645C50.5899 86.923 51.2094 87.1486 51.8421 87.3244C56.3205 88.5705 60.8517 88.1675 65.3663 87.473C66.3747 87.3176 72.3427 86.978 76.3367 96.2229C77.3615 98.5917 78.3271 100.972 80.2516 102.721C82.4166 104.693 85.0002 106.038 87.8178 106.711C90.978 107.466 94.336 107.718 97.5754 107.917C100.485 108.097 103.408 108.185 106.325 108.271C110.862 108.404 115.285 109.785 119.753 108.096C124.103 106.453 127.138 103.198 128.526 98.6368C129.369 95.8748 129.359 92.8954 129.699 90.0402L129.425 92.1413C130.493 84.0342 130.572 75.7429 130.572 67.5735C130.572 64.1774 130.796 60.7044 130.2 57.3447C129.765 54.8891 128.334 52.8162 126.433 51.3709C126.789 51.4038 127.148 51.4411 127.504 51.4808C123.856 51.0737 120.192 51.0045 116.524 51.4937C114.83 51.719 113.383 51.2193 112.012 50.3619C110.892 49.6617 110.325 48.7359 110.286 47.5864V47.5871C106.315 45.6245 108.668 35.6155 108.183 31.9121C107.939 30.0529 107.462 28.1544 106.717 26.395C106.364 26.2559 105.998 26.1273 105.606 26.011C103.734 25.4536 101.853 25.251 99.9019 25.1889C94.3756 25.0122 90.4145 27.9529 89.0634 33.4144C88.5757 35.3797 88.5757 37.3444 88.8492 39.341C89.1722 41.7168 90.2333 43.8003 91.1428 45.9563C92.1018 48.2307 91.5877 49.4693 89.449 50.5981C88.635 51.0272 87.8112 51.2288 86.9049 51.0944C85.7615 50.9244 84.6443 50.9825 83.4646 51.5579C83.9062 53.3149 84.529 55.0146 84.7399 56.7669C85.1716 60.3611 84.786 63.8351 82.2453 66.6575Z" fill="#D8D88F"/>
<path fill-rule="evenodd" clip-rule="evenodd" d="M108.058 27.0386C108.773 27.4484 109.386 27.9278 109.913 28.4811C109.386 27.9278 108.773 27.4487 108.058 27.0386Z" fill="#F7CE69"/>
<path fill-rule="evenodd" clip-rule="evenodd" d="M111.126 30.144C111.169 30.2235 111.215 30.3033 111.257 30.3848C111.215 30.3033 111.169 30.2235 111.126 30.144Z" fill="#F7CE69"/>
<path fill-rule="evenodd" clip-rule="evenodd" d="M110.955 29.8506C111.001 29.9246 111.043 29.9994 111.089 30.0754C111.043 29.9994 111.001 29.9246 110.955 29.8506Z" fill="#F7CE69"/>
<path fill-rule="evenodd" clip-rule="evenodd" d="M111.281 30.4307C111.468 30.7981 111.636 31.1876 111.788 31.5981C111.636 31.1876 111.468 30.7984 111.281 30.4307Z" fill="#F7CE69"/>
<path fill-rule="evenodd" clip-rule="evenodd" d="M110.368 29.0066C110.424 29.0752 110.476 29.1449 110.529 29.2156C110.476 29.1449 110.424 29.0752 110.368 29.0066Z" fill="#F7CE69"/>
<path fill-rule="evenodd" clip-rule="evenodd" d="M110.77 29.561C110.819 29.632 110.865 29.7037 110.911 29.7771C110.865 29.7037 110.819 29.632 110.77 29.561Z" fill="#F7CE69"/>
<path fill-rule="evenodd" clip-rule="evenodd" d="M110.575 29.2793C110.625 29.3486 110.674 29.4189 110.723 29.4903C110.674 29.4189 110.625 29.3486 110.575 29.2793Z" fill="#F7CE69"/>
<path fill-rule="evenodd" clip-rule="evenodd" d="M135.663 105.306C135.548 106.007 135.419 106.705 135.288 107.404C135.419 106.705 135.548 106.007 135.663 105.306Z" fill="#F7CE69"/>
<path fill-rule="evenodd" clip-rule="evenodd" d="M72.4741 113.796C72.4347 113.751 72.3953 113.703 72.3525 113.655C72.3953 113.703 72.4347 113.751 72.4741 113.796Z" fill="#F7CE69"/>
<path fill-rule="evenodd" clip-rule="evenodd" d="M110.463 46.1939C110.463 46.1928 110.463 46.1918 110.463 46.1908C110.664 45.4512 110.885 44.7174 111.116 43.9856C110.885 44.7174 110.664 45.4512 110.463 46.1908C110.463 46.1918 110.463 46.1928 110.463 46.1939Z" fill="#F7CE69"/>
<path fill-rule="evenodd" clip-rule="evenodd" d="M73.3174 114.325C73.2648 114.324 73.2089 114.315 73.1531 114.298C73.2089 114.315 73.2648 114.324 73.3174 114.325Z" fill="#F7CE69"/>
<path fill-rule="evenodd" clip-rule="evenodd" d="M73.07 114.267C73.0142 114.243 72.9583 114.212 72.8992 114.175C72.9583 114.212 73.0142 114.243 73.07 114.267Z" fill="#F7CE69"/>
<path fill-rule="evenodd" clip-rule="evenodd" d="M72.2631 113.541C72.2236 113.49 72.1842 113.438 72.1448 113.385C72.1842 113.438 72.2236 113.49 72.2631 113.541Z" fill="#F7CE69"/>
<path fill-rule="evenodd" clip-rule="evenodd" d="M71.9072 113.04C71.871 112.985 71.8381 112.931 71.802 112.876C71.8381 112.931 71.871 112.985 71.9072 113.04Z" fill="#F7CE69"/>
<path fill-rule="evenodd" clip-rule="evenodd" d="M128.875 51.6501C129.129 51.684 129.382 51.7195 129.633 51.756C129.382 51.7191 129.129 51.684 128.875 51.6501Z" fill="#F7CE69"/>
<path fill-rule="evenodd" clip-rule="evenodd" d="M74.8699 114.547C74.7117 114.532 74.5635 114.515 74.425 114.499C74.5635 114.515 74.7117 114.532 74.8699 114.547Z" fill="#F7CE69"/>
<path fill-rule="evenodd" clip-rule="evenodd" d="M69.6907 103.638C69.677 103.277 69.6702 102.916 69.6667 102.554C69.6702 102.916 69.677 103.277 69.6907 103.638Z" fill="#F7CE69"/>
<path fill-rule="evenodd" clip-rule="evenodd" d="M129.936 51.8005C130.282 51.8519 130.625 51.9054 130.971 51.9622C130.625 51.9054 130.282 51.8519 129.936 51.8005Z" fill="#F7CE69"/>
<path fill-rule="evenodd" clip-rule="evenodd" d="M127.748 51.5093C128.014 51.54 128.285 51.5728 128.552 51.607C128.285 51.5728 128.014 51.5404 127.748 51.5093Z" fill="#F7CE69"/>
<path fill-rule="evenodd" clip-rule="evenodd" d="M74.1015 114.456C74.026 114.446 73.9537 114.435 73.8879 114.424C73.9537 114.435 74.026 114.446 74.1015 114.456Z" fill="#F7CE69"/>
<path fill-rule="evenodd" clip-rule="evenodd" d="M67.2441 92.6978C67.1553 92.6383 67.0666 92.5815 66.9746 92.5298C67.0666 92.5815 67.1553 92.6383 67.2441 92.6978Z" fill="#F7CE69"/>
<path fill-rule="evenodd" clip-rule="evenodd" d="M48.3655 86.4951C48.3918 86.753 48.4312 86.9989 48.4838 87.2337C48.4312 86.9989 48.3918 86.753 48.3655 86.4951Z" fill="#F7CE69"/>
<path fill-rule="evenodd" clip-rule="evenodd" d="M48.9288 88.5177C48.7376 88.1299 48.586 87.7041 48.4839 87.2339C48.586 87.7041 48.7376 88.1299 48.9288 88.5177Z" fill="#F7CE69"/>
<path fill-rule="evenodd" clip-rule="evenodd" d="M64.918 92.0317C64.9209 92.0317 64.9209 92.032 64.9238 92.0317C64.9209 92.032 64.9209 92.0317 64.918 92.0317Z" fill="#F7CE69"/>
<path fill-rule="evenodd" clip-rule="evenodd" d="M66.3512 92.2509C66.1931 92.1978 66.0316 92.1552 65.8635 92.1211C66.0316 92.1552 66.1931 92.1978 66.3512 92.2509Z" fill="#F7CE69"/>
<path fill-rule="evenodd" clip-rule="evenodd" d="M75.6239 114.613C75.522 114.605 75.4234 114.597 75.3281 114.589C75.4234 114.597 75.522 114.605 75.6239 114.613Z" fill="#F7CE69"/>
<path fill-rule="evenodd" clip-rule="evenodd" d="M73.4004 114.32C73.4661 114.339 73.5417 114.357 73.6271 114.375C73.5417 114.357 73.4661 114.339 73.4004 114.32Z" fill="#F7CE69"/>
<path fill-rule="evenodd" clip-rule="evenodd" d="M145.586 71.4648C145.19 71.6827 144.798 71.9266 144.412 72.1966C143.671 72.715 142.89 73.1235 142.089 73.4869C142.89 73.1235 143.671 72.715 144.412 72.1966C144.798 71.9266 145.19 71.6827 145.586 71.4648Z" fill="#F7CE69"/>
<path fill-rule="evenodd" clip-rule="evenodd" d="M136.2 71.6414C136.144 71.232 136.144 70.7879 136.203 70.3163C136.233 70.0578 136.263 69.7989 136.292 69.54C136.263 69.7989 136.233 70.0578 136.203 70.3163C136.144 70.7879 136.144 71.232 136.2 71.6414Z" fill="#F7CE69"/>
<path fill-rule="evenodd" clip-rule="evenodd" d="M69.6673 102.554C69.6604 102.192 69.6604 101.831 69.657 101.469C69.6604 101.831 69.6604 102.192 69.6673 102.554Z" fill="#F7CE69"/>
<path fill-rule="evenodd" clip-rule="evenodd" d="M157.324 72.0036C156.47 71.322 155.508 70.8386 154.493 70.5543C154.052 70.4304 153.607 70.329 153.168 70.251C153.607 70.329 154.052 70.4304 154.493 70.5543C155.508 70.8386 156.47 71.322 157.324 72.0036Z" fill="#F7CE69"/>
<path fill-rule="evenodd" clip-rule="evenodd" d="M133.264 113.538C133.478 113.302 133.679 113.034 133.874 112.738C133.999 112.544 134.108 112.343 134.203 112.138C134.108 112.343 133.999 112.544 133.874 112.738C133.679 113.034 133.478 113.302 133.264 113.538Z" fill="#F7CE69"/>
<path fill-rule="evenodd" clip-rule="evenodd" d="M144.956 91.3459C144.537 91.1148 144.106 90.9347 143.667 90.7993C144.106 90.9347 144.537 91.1148 144.956 91.3459C147.675 92.2412 149.942 92.5699 151.833 92.4783C149.942 92.5699 147.675 92.2412 144.956 91.3459Z" fill="#F7CE69"/>
<path fill-rule="evenodd" clip-rule="evenodd" d="M81.2435 114.863C81.0952 114.859 80.9502 114.855 80.8052 114.851C80.9502 114.855 81.0952 114.859 81.2435 114.863Z" fill="#F7CE69"/>
<path fill-rule="evenodd" clip-rule="evenodd" d="M151.204 70.0598C151.854 70.07 152.506 70.1339 153.168 70.2502C152.506 70.1339 151.854 70.07 151.204 70.0598Z" fill="#F7CE69"/>
<path fill-rule="evenodd" clip-rule="evenodd" d="M145.586 71.4647C146.377 71.0291 147.191 70.6973 148.021 70.4656C147.191 70.6973 146.377 71.0291 145.586 71.4647Z" fill="#F7CE69"/>
<path fill-rule="evenodd" clip-rule="evenodd" d="M158.059 72.6707C158.372 72.9909 158.662 73.3424 158.932 73.7258C158.662 73.3424 158.372 72.9909 158.059 72.6707Z" fill="#F7CE69"/>
<path fill-rule="evenodd" clip-rule="evenodd" d="M158.932 73.7256C159.133 74.0133 159.321 74.3186 159.495 74.6416C159.321 74.3186 159.133 74.0133 158.932 73.7256Z" fill="#F7CE69"/>
<path fill-rule="evenodd" clip-rule="evenodd" d="M137.258 73.7632C137.36 73.8518 137.468 73.9322 137.58 74.0039C137.468 73.9322 137.36 73.8518 137.258 73.7632Z" fill="#F7CE69"/>
<path fill-rule="evenodd" clip-rule="evenodd" d="M136.388 95.5422C136.339 95.9924 136.293 96.4433 136.26 96.8942C136.293 96.4433 136.339 95.9924 136.388 95.5422Z" fill="#F7CE69"/>
<path fill-rule="evenodd" clip-rule="evenodd" d="M136.493 67.2073C136.44 67.9859 136.375 68.7635 136.292 69.54C136.375 68.7635 136.44 67.9859 136.493 67.2073Z" fill="#F7CE69"/>
<path fill-rule="evenodd" clip-rule="evenodd" d="M140.257 90.5166C140.023 90.5399 139.789 90.57 139.558 90.6066C139.789 90.57 140.023 90.5399 140.257 90.5166Z" fill="#F7CE69"/>
<path fill-rule="evenodd" clip-rule="evenodd" d="M137.514 91.4543C137.399 91.5677 137.298 91.6935 137.206 91.834C137.298 91.6935 137.399 91.5677 137.514 91.4543Z" fill="#F7CE69"/>
<path fill-rule="evenodd" clip-rule="evenodd" d="M76.4477 114.67C76.3425 114.663 76.2374 114.657 76.1355 114.65C76.2374 114.657 76.3425 114.663 76.4477 114.67Z" fill="#F7CE69"/>
<path fill-rule="evenodd" clip-rule="evenodd" d="M159.97 75.6641C160.065 75.9029 160.15 76.1495 160.233 76.4043C160.15 76.1495 160.065 75.9029 159.97 75.6641Z" fill="#F7CE69"/>
<path fill-rule="evenodd" clip-rule="evenodd" d="M159.663 74.9705C159.772 75.1937 159.874 75.4247 159.969 75.6639C159.874 75.4247 159.772 75.1937 159.663 74.9705Z" fill="#F7CE69"/>
<path fill-rule="evenodd" clip-rule="evenodd" d="M160.349 76.792C160.493 77.3172 160.605 77.8736 160.684 78.4615C160.605 77.8736 160.493 77.3172 160.349 76.792Z" fill="#F7CE69"/>
<path fill-rule="evenodd" clip-rule="evenodd" d="M136.167 101.07C136.124 101.783 136.058 102.491 135.97 103.197C136.058 102.491 136.124 101.783 136.167 101.07Z" fill="#F7CE69"/>
<path fill-rule="evenodd" clip-rule="evenodd" d="M69.6543 100.927C69.6509 100.565 69.6475 100.204 69.6372 99.8428C69.6475 100.204 69.6509 100.565 69.6543 100.927Z" fill="#F7CE69"/>
<path fill-rule="evenodd" clip-rule="evenodd" d="M79.9877 114.827C79.7174 114.818 79.4538 114.809 79.1968 114.8C79.4538 114.809 79.7174 114.818 79.9877 114.827Z" fill="#F7CE69"/>
<path fill-rule="evenodd" clip-rule="evenodd" d="M100.716 115C100.515 115.002 100.314 115.002 100.113 115.003C100.314 115.002 100.515 115.002 100.716 115Z" fill="#F7CE69"/>
<path fill-rule="evenodd" clip-rule="evenodd" d="M77.3977 114.723C77.1769 114.712 76.9627 114.7 76.7551 114.688C76.9627 114.7 77.1769 114.712 77.3977 114.723Z" fill="#F7CE69"/>
<path fill-rule="evenodd" clip-rule="evenodd" d="M77.7493 114.74C77.631 114.735 77.5127 114.729 77.3977 114.723C77.5127 114.729 77.631 114.735 77.7493 114.74Z" fill="#F7CE69"/>
<path fill-rule="evenodd" clip-rule="evenodd" d="M118.023 114.86C117.677 114.864 117.327 114.868 116.975 114.872C117.327 114.868 117.677 114.864 118.023 114.86Z" fill="#F7CE69"/>
<path fill-rule="evenodd" clip-rule="evenodd" d="M132.747 52.4126C133.28 52.6067 133.752 52.8462 134.167 53.1356C133.752 52.8462 133.28 52.6067 132.747 52.4126Z" fill="#F7CE69"/>
<path fill-rule="evenodd" clip-rule="evenodd" d="M135.023 108.801C134.935 109.266 134.849 109.732 134.764 110.198C134.849 109.732 134.935 109.266 135.023 108.801Z" fill="#F7CE69"/>
<path fill-rule="evenodd" clip-rule="evenodd" d="M136.259 96.8943C136.226 97.3448 136.207 97.7954 136.2 98.2452C136.207 97.7954 136.226 97.3448 136.259 96.8943Z" fill="#F7CE69"/>
<path fill-rule="evenodd" clip-rule="evenodd" d="M125.78 114.757C125.527 114.761 125.266 114.764 124.996 114.768C125.266 114.764 125.527 114.761 125.78 114.757Z" fill="#F7CE69"/>
<path fill-rule="evenodd" clip-rule="evenodd" d="M134.628 110.858C134.575 111.077 134.516 111.294 134.447 111.508C134.516 111.294 134.575 111.077 134.628 110.858Z" fill="#F7CE69"/>
<path fill-rule="evenodd" clip-rule="evenodd" d="M64.964 43.5644C64.9607 38.8805 60.1066 31.7176 54.0102 32.1811C48.0455 32.0169 43.9724 36.8256 43.9856 43.0175C43.9988 49.7441 48.4311 53.591 54.7088 53.9611C60.0176 54.2743 64.9706 48.3863 64.964 43.5644Z" fill="white"/>
<path fill-rule="evenodd" clip-rule="evenodd" d="M62.3841 94.4856C61.1055 95.0376 59.7874 94.7851 58.5055 94.8961C58.1331 94.8686 57.7838 94.8388 57.4345 94.8174C54.9695 94.6654 55.0255 94.6681 54.9366 97.2126C54.808 100.911 54.9761 104.622 54.4423 108.305C54.3302 109.099 54.3665 109.933 54.4521 110.736C54.6663 112.76 55.2496 113.38 56.9665 113.575C59.85 113.901 60.3772 113.663 61.089 111.531C62.1502 108.356 62.5423 105.029 63.0531 101.737C63.3694 99.6926 63.4914 97.6149 63.6561 95.5482C63.7286 94.6386 63.2937 94.0934 62.3841 94.4856Z" fill="white"/>
<path fill-rule="evenodd" clip-rule="evenodd" d="M43.6793 71.8897C42.7665 74.3917 42.7368 76.8931 44.1868 79.1767C45.5511 81.3209 47.4327 82.99 49.5451 84.3244C50.9884 85.2353 52.5603 85.1203 53.1634 84.2032C54.0136 82.911 53.0876 81.9644 52.4318 81.0505C51.1301 79.232 49.7032 77.5082 48.4081 75.6857C47.0505 73.7773 47.0999 73.7526 48.3851 71.7329C49.0705 70.6514 49.4396 69.1182 51.2619 69.7981C51.43 69.8605 51.7563 69.6169 51.9474 69.4432C59.016 64.2841 65.1388 68.7539 66.3581 69.4629C67.2775 69.9979 67.7191 69.5664 67.8575 68.7325C68.0025 67.8487 67.9827 66.932 67.9893 66.0296C68.0091 64.3109 67.8476 56.3463 67.8344 54.0838C67.8278 53.1528 67.9267 52.2673 68.6286 51.5864C69.8578 50.3949 73.7892 50.5649 74.992 51.8334C76.2508 53.1603 76.6364 54.801 76.6001 56.5723C76.554 58.9322 76.6397 61.2823 77.0252 63.6086C77.2229 64.7882 77.5426 66.0129 78.8937 66.2847C80.0702 66.5218 80.8775 65.6974 81.563 64.8489C81.8925 64.4428 82.1561 63.9495 82.3407 63.4532C83.7148 59.7583 83.1975 56.1763 81.6948 52.6548C81.3619 51.8738 80.8446 51.2719 80.146 50.8591C76.3134 48.5945 72.2173 47.0586 67.8871 46.1599C67.0139 45.9787 66.5492 46.2888 66.2394 47.0607C66.1373 47.3107 66.0088 47.5492 65.8803 47.7877C63.2703 52.723 59.6981 56.1278 53.7928 55.7407C52.8338 55.678 52.6262 56.3768 52.3329 57.015C50.4414 61.115 48.0786 64.9209 45.5247 68.6066C44.8063 69.6431 44.1143 70.6951 43.6793 71.8897Z" fill="white"/>
<path fill-rule="evenodd" clip-rule="evenodd" d="M110.285 47.5869V47.5862C110.282 47.479 110.282 47.3697 110.289 47.2585C110.289 47.2571 110.289 47.2558 110.289 47.2544C110.295 47.1492 110.302 47.0424 110.318 46.9335C110.318 46.9243 110.318 46.9148 110.322 46.9056C110.332 46.8059 110.351 46.7048 110.371 46.6023C110.374 46.5844 110.374 46.5667 110.378 46.5487C110.404 46.4324 110.43 46.314 110.463 46.1935C110.463 46.1925 110.463 46.1915 110.463 46.1905C110.664 45.4509 110.885 44.717 111.116 43.9853C111.343 43.2535 111.577 42.524 111.808 41.7929C112.434 39.7981 112.968 37.7584 112.704 35.6628C112.684 35.5057 112.665 35.3507 112.642 35.1973C112.635 35.1457 112.625 35.0949 112.619 35.0433C112.602 34.9435 112.589 34.8438 112.572 34.7454C112.563 34.683 112.553 34.6219 112.543 34.5598C112.526 34.4743 112.513 34.3888 112.497 34.3047C112.487 34.2389 112.474 34.1744 112.46 34.1096C112.447 34.0316 112.431 33.9536 112.418 33.8766C112.404 33.809 112.388 33.7425 112.375 33.6761C112.358 33.6038 112.345 33.5315 112.329 33.4603C112.312 33.3924 112.296 33.3249 112.282 33.2577C112.266 33.1902 112.25 33.1234 112.233 33.0569C112.213 32.988 112.197 32.9195 112.18 32.8513C112.164 32.7896 112.147 32.7281 112.131 32.6671C112.111 32.5972 112.091 32.5273 112.072 32.4584C112.055 32.4018 112.035 32.3465 112.019 32.2905C111.999 32.2193 111.976 32.1477 111.953 32.0771C111.936 32.0279 111.92 31.9794 111.903 31.9305C111.88 31.8559 111.854 31.7813 111.828 31.708C111.815 31.671 111.801 31.6347 111.788 31.5981C111.637 31.1876 111.468 30.7981 111.281 30.4307C111.271 30.4154 111.264 30.4001 111.258 30.3855C111.215 30.3038 111.169 30.2237 111.126 30.144C111.113 30.1216 111.099 30.0985 111.09 30.0761C111.043 29.9998 111.001 29.9248 110.954 29.8505C110.941 29.8261 110.925 29.8017 110.912 29.7776C110.865 29.704 110.819 29.632 110.77 29.5608C110.757 29.5374 110.74 29.514 110.724 29.4909C110.674 29.4193 110.625 29.3487 110.575 29.2792C110.559 29.2582 110.546 29.2368 110.529 29.2161C110.477 29.1452 110.424 29.0753 110.368 29.0064C110.355 28.9888 110.341 28.9715 110.325 28.9542C110.269 28.8829 110.21 28.8124 110.15 28.7435C110.14 28.7313 110.131 28.7191 110.117 28.7069C110.055 28.6336 109.989 28.561 109.92 28.4901C109.916 28.487 109.916 28.484 109.913 28.4809C109.386 27.9276 108.773 27.4482 108.058 27.0384C108.054 27.0363 108.051 27.0346 108.048 27.0326C107.952 26.9766 107.85 26.9223 107.751 26.8691C107.741 26.865 107.735 26.8609 107.728 26.8569C107.626 26.8046 107.524 26.7537 107.422 26.7038C107.412 26.6998 107.405 26.6957 107.395 26.692C107.293 26.6421 107.184 26.5932 107.076 26.5457C107.069 26.5427 107.063 26.54 107.056 26.5369C106.944 26.4884 106.832 26.4409 106.717 26.3948C107.461 28.1542 107.939 30.0527 108.183 31.9119C108.667 35.6153 106.315 45.6242 110.285 47.5869Z" fill="#C4BF69"/>
<path fill-rule="evenodd" clip-rule="evenodd" d="M130.2 57.3446C130.796 60.7043 130.572 64.1774 130.572 67.5734C130.572 75.7429 130.493 84.0341 129.425 92.1412L129.699 90.0401C129.359 92.8954 129.369 95.8748 128.526 98.6367C127.138 103.198 124.103 106.453 119.753 108.096C115.285 109.785 110.862 108.404 106.325 108.27C103.408 108.185 100.485 108.097 97.5754 107.917C94.336 107.718 90.978 107.466 87.8178 106.711C85.0002 106.038 82.4166 104.693 80.2516 102.721C78.3271 100.972 77.3615 98.5916 76.3367 96.2229C72.3427 86.9779 66.3747 87.3175 65.3663 87.4729C60.8517 88.1674 56.3205 88.5704 51.8421 87.3243C51.2094 87.1486 50.5899 86.923 49.9802 86.6644C49.4595 86.6112 48.929 86.5511 48.3655 86.4951C48.3918 86.753 48.4314 86.999 48.4841 87.2337C48.5863 87.7039 48.7379 88.1297 48.929 88.5175C49.2157 89.0993 49.5979 89.5953 50.056 90.0265C50.3625 90.3142 50.7019 90.5728 51.071 90.8089C53.0449 92.0716 55.2067 92.7875 57.5332 92.9459C59.4841 93.0782 61.3657 92.8102 63.2606 92.2816C63.8505 92.1178 64.4041 92.0357 64.9182 92.0319C64.9215 92.0319 64.9215 92.0323 64.9248 92.0319C65.2543 92.0299 65.5674 92.0608 65.8639 92.1212C66.032 92.1554 66.1935 92.1982 66.3517 92.2514C66.4967 92.3013 66.6384 92.359 66.7735 92.4248C66.8427 92.4577 66.9086 92.493 66.9745 92.5296C67.0668 92.5815 67.1557 92.6385 67.2447 92.6982C67.3436 92.7664 67.4424 92.838 67.538 92.9161C67.594 92.9652 67.6533 93.0158 67.7094 93.0687C67.8214 93.1739 67.9301 93.2872 68.0323 93.408C68.0817 93.4684 68.1345 93.5305 68.1806 93.5946C68.2795 93.7228 68.3717 93.8585 68.4574 94.0017C68.5464 94.1449 68.6288 94.2952 68.7046 94.4529C68.9352 94.9258 69.1165 95.4636 69.245 96.062C69.3603 96.5994 69.446 97.1382 69.5053 97.6783C69.5811 98.3982 69.6207 99.1202 69.6372 99.8428C69.647 100.204 69.6503 100.565 69.6536 100.927C69.6536 101.108 69.6569 101.289 69.6569 101.47C69.6602 101.831 69.6602 102.193 69.6668 102.554C69.6701 102.916 69.6767 103.276 69.6899 103.637C69.7064 103.998 69.7228 104.359 69.7525 104.719C69.7756 105.011 69.7953 105.304 69.8151 105.597C69.9469 107.648 70.0491 109.705 71.0706 111.581C71.1333 111.696 71.2123 111.845 71.3046 112.014C71.3244 112.048 71.3442 112.082 71.3606 112.118C71.4892 112.351 71.6407 112.614 71.8022 112.876C71.8385 112.931 71.8714 112.986 71.9077 113.04C71.9835 113.158 72.0626 113.274 72.1449 113.385C72.1845 113.438 72.224 113.49 72.2636 113.541C72.2932 113.58 72.3229 113.618 72.3525 113.655C72.3954 113.703 72.4349 113.752 72.4745 113.797C72.6162 113.952 72.7579 114.083 72.8996 114.175C72.9589 114.213 73.0149 114.244 73.0709 114.268C73.0973 114.279 73.127 114.29 73.1533 114.298C73.2093 114.315 73.2654 114.324 73.3181 114.325C73.3477 114.326 73.3741 114.324 73.4005 114.32C73.4664 114.339 73.5422 114.358 73.6279 114.375C73.7069 114.392 73.7926 114.408 73.8882 114.424C73.9541 114.435 74.0266 114.446 74.1024 114.457C74.2013 114.471 74.31 114.485 74.4253 114.499C74.5637 114.516 74.712 114.532 74.8702 114.548C75.0152 114.562 75.1701 114.576 75.3283 114.589C75.4238 114.597 75.5227 114.606 75.6249 114.613C75.7896 114.626 75.9577 114.638 76.1356 114.65C76.2378 114.657 76.3433 114.664 76.4487 114.67C76.5476 114.676 76.6497 114.683 76.7552 114.688C76.9628 114.7 77.177 114.712 77.3978 114.723C77.5131 114.729 77.6317 114.735 77.7504 114.74C77.9778 114.751 78.2084 114.761 78.4457 114.771C78.6896 114.781 78.94 114.79 79.197 114.8C79.4541 114.809 79.7177 114.818 79.9879 114.827C80.2549 114.835 80.5251 114.843 80.8052 114.851C80.9502 114.855 81.0952 114.859 81.2435 114.863C81.3885 114.867 81.5335 114.871 81.6785 114.874C82.2683 114.889 82.878 114.902 83.5074 114.914C83.6656 114.917 83.8238 114.92 83.9852 114.922C84.786 114.937 85.6165 114.949 86.4765 114.959C87.162 114.967 87.8639 114.975 88.5823 114.981C91.0934 115.002 93.7791 115.011 96.5373 115.009C97.7171 115.009 98.9133 115.007 100.113 115.003C100.314 115.002 100.515 115.001 100.716 115C101.115 114.999 101.517 114.998 101.919 114.996C102.12 114.995 102.321 114.994 102.522 114.993C107.537 114.97 112.55 114.923 116.975 114.872C117.328 114.868 117.677 114.864 118.023 114.86C119.236 114.845 120.396 114.83 121.497 114.816C122.123 114.808 122.732 114.8 123.316 114.792C123.754 114.786 124.179 114.78 124.591 114.774C124.726 114.772 124.864 114.77 124.996 114.768C125.266 114.764 125.527 114.761 125.781 114.757C126.166 114.751 126.532 114.746 126.884 114.741C127.118 114.737 127.346 114.734 127.567 114.731C127.675 114.729 127.784 114.727 127.89 114.726C128.104 114.723 128.308 114.72 128.506 114.716C128.605 114.715 128.7 114.713 128.796 114.712C128.987 114.709 129.168 114.706 129.34 114.704C129.86 114.695 130.305 114.689 130.668 114.683C131.834 114.665 132.618 114.246 133.264 113.538C133.479 113.302 133.68 113.034 133.874 112.738C133.999 112.544 134.108 112.343 134.204 112.138C134.299 111.932 134.378 111.721 134.447 111.508C134.517 111.294 134.576 111.077 134.629 110.858C134.678 110.64 134.724 110.419 134.764 110.198C134.849 109.732 134.935 109.267 135.024 108.801C135.113 108.335 135.202 107.87 135.288 107.404C135.42 106.705 135.548 106.007 135.663 105.306C135.779 104.605 135.884 103.902 135.97 103.197C136.059 102.491 136.125 101.783 136.168 101.07C136.207 100.358 136.224 99.6409 136.207 98.9186C136.201 98.6944 136.197 98.4698 136.201 98.2452C136.207 97.7953 136.227 97.3448 136.26 96.8943C136.293 96.4434 136.339 95.9925 136.388 95.5423C136.441 95.0924 136.5 94.6429 136.563 94.1951C136.593 93.9715 136.626 93.7479 136.655 93.5247C136.761 92.8044 136.932 92.2548 137.206 91.8338C137.298 91.6933 137.4 91.5675 137.515 91.4542C137.973 91.0012 138.633 90.7519 139.559 90.607C139.789 90.5704 140.023 90.5402 140.257 90.5168C140.952 90.4472 141.648 90.4411 142.327 90.5202C142.554 90.5466 142.778 90.5826 143.002 90.6287C143.226 90.6752 143.447 90.7319 143.668 90.7994C144.106 90.9348 144.538 91.1149 144.956 91.3459C147.675 92.2413 149.942 92.57 151.834 92.4784C157.99 92.1802 160.112 87.4091 160.659 83.1995C160.672 83.0917 160.685 82.9841 160.698 82.8772C160.748 82.4491 160.777 82.0284 160.797 81.6199C160.804 81.5182 160.807 81.4167 160.81 81.3163C160.817 81.1154 160.82 80.9183 160.82 80.7253C160.82 80.2429 160.804 79.7862 160.774 79.3665C160.754 79.0571 160.725 78.7552 160.685 78.4614C160.606 77.8734 160.494 77.3171 160.349 76.7919C160.313 76.6609 160.273 76.5317 160.234 76.4041C160.151 76.1493 160.066 75.9027 159.97 75.6638C159.875 75.4246 159.772 75.1936 159.664 74.9704C159.608 74.8587 159.552 74.7492 159.496 74.6416C159.321 74.3186 159.133 74.0133 158.932 73.7256C158.662 73.3422 158.372 72.9908 158.059 72.6705C157.825 72.4303 157.578 72.2081 157.324 72.0035C156.47 71.3219 155.508 70.8385 154.493 70.5542C154.052 70.4303 153.607 70.3289 153.168 70.2509C152.506 70.1342 151.854 70.07 151.204 70.0599C150.769 70.0531 150.341 70.0704 149.916 70.1118C149.277 70.1742 148.644 70.2916 148.021 70.4656C147.191 70.6973 146.377 71.0291 145.586 71.4648C145.19 71.6826 144.798 71.9265 144.413 72.1965C143.671 72.7149 142.89 73.1234 142.089 73.4868C141.612 73.7046 141.127 73.9061 140.643 74.1049C139.446 74.5958 138.375 74.51 137.581 74.0048C137.469 73.9329 137.36 73.8521 137.258 73.7633C136.698 73.2754 136.319 72.5423 136.201 71.6412C136.145 71.2317 136.145 70.7876 136.204 70.316C136.233 70.0575 136.263 69.7986 136.293 69.5398C136.375 68.7632 136.441 67.9856 136.494 67.207C136.543 66.4284 136.576 65.6494 136.596 64.8698C136.609 64.3501 136.619 63.83 136.619 63.3102C136.619 62.5306 136.609 61.7506 136.586 60.9713C136.57 60.4516 136.55 59.9325 136.523 59.4134C136.497 58.8944 136.467 58.376 136.434 57.8576C136.405 57.4101 136.352 56.9911 136.276 56.5996C136.237 56.4038 136.191 56.2152 136.141 56.033C136.039 55.6686 135.914 55.3311 135.766 55.019C135.39 54.2386 134.859 53.6181 134.167 53.1357C133.752 52.8463 133.281 52.6068 132.747 52.4127C132.216 52.2187 131.623 52.0701 130.971 51.9625C130.625 51.9055 130.282 51.8519 129.936 51.8004C129.834 51.7851 129.735 51.7708 129.633 51.7563C129.382 51.7196 129.129 51.684 128.875 51.6501C128.769 51.6355 128.661 51.6216 128.552 51.6073C128.285 51.5731 128.015 51.5401 127.748 51.5093C127.665 51.5001 127.586 51.4899 127.504 51.4808C127.148 51.4411 126.789 51.4038 126.433 51.3708C128.334 52.8161 129.765 54.889 130.2 57.3446Z" fill="#C4BF69"/>
<path fill-rule="evenodd" clip-rule="evenodd" d="M52.3332 57.0149C52.6264 56.3767 52.8341 55.6778 53.793 55.7406C59.6983 56.1277 63.2705 52.7228 65.8805 47.7876C66.009 47.5491 66.1375 47.3106 66.2397 47.0605C66.5494 46.2887 67.0141 45.9786 67.8873 46.1598C72.2175 47.0585 76.3136 48.5943 80.1462 50.8589C80.8448 51.2718 81.3621 51.8736 81.695 52.6546C83.1977 56.1762 83.715 59.7581 82.3409 63.4531C82.1563 63.9494 81.8927 64.4427 81.5632 64.8488C80.8777 65.6973 80.0704 66.5217 78.8939 66.2846C77.5428 66.0128 77.2232 64.7881 77.0254 63.6084C76.6399 61.2821 76.5542 58.932 76.6003 56.5721C76.6366 54.8008 76.251 53.1601 74.9922 51.8333C73.7894 50.5648 69.858 50.3948 68.6288 51.5863C67.9269 52.2672 67.828 53.1527 67.8346 54.0836C67.8478 56.3462 68.0093 64.3107 67.9895 66.0294C67.9829 66.9319 68.0027 67.8486 67.8577 68.7323C67.7193 69.5662 67.2777 69.9978 66.3583 69.4628C65.139 68.7537 59.0162 64.2839 51.9476 69.4431C51.7565 69.6168 51.4302 69.8604 51.2622 69.798C49.4398 69.1181 49.0707 70.6512 48.3853 71.7328C47.1001 73.7524 47.0507 73.7772 48.4084 75.6855C49.7034 77.5081 51.1303 79.2319 52.432 81.0503C53.0878 81.9643 54.0138 82.9108 53.1636 84.2031C52.5605 85.1201 50.9886 85.2351 49.5453 84.3242C47.4329 82.9899 45.5513 81.3207 44.187 79.1766C42.737 76.893 42.7667 74.3916 43.6795 71.8895C44.1145 70.695 44.8065 69.6429 45.5249 68.6065C48.0788 64.9207 50.4416 61.1149 52.3332 57.0149ZM43.986 43.0175C43.9728 36.8256 48.0459 32.0169 54.0105 32.1811C60.107 31.7177 64.961 38.8805 64.9643 43.5644C64.9709 48.3864 60.018 54.2743 54.7091 53.9611C48.4314 53.591 43.9991 49.7441 43.986 43.0175ZM86.905 51.0944C87.8112 51.2287 88.6351 51.0272 89.449 50.598C91.5877 49.4693 92.1018 48.2306 91.1428 45.9562C90.2333 43.8002 89.1722 41.7168 88.8493 39.3409C88.5757 37.3443 88.5757 35.3797 89.0635 33.4143C90.4146 27.9529 94.3756 25.0121 99.902 25.1889C101.853 25.251 103.734 25.4535 105.606 26.0109C105.998 26.1273 106.364 26.2559 106.717 26.395C106.832 26.4411 106.944 26.4886 107.056 26.5371C107.063 26.5402 107.069 26.5429 107.076 26.5459C107.185 26.5934 107.293 26.6423 107.396 26.6921C107.406 26.6959 107.412 26.7 107.422 26.704C107.524 26.7539 107.626 26.8048 107.728 26.857C107.735 26.8611 107.742 26.8652 107.752 26.8692C107.85 26.9225 107.953 26.9768 108.048 27.0328C108.051 27.0348 108.055 27.0365 108.058 27.0385C108.773 27.4487 109.386 27.9277 109.913 28.4811C109.917 28.4841 109.917 28.4872 109.92 28.4902C109.989 28.5612 110.055 28.6338 110.118 28.707C110.131 28.7192 110.141 28.7315 110.151 28.7437C110.21 28.8125 110.269 28.8831 110.325 28.9544C110.342 28.9717 110.355 28.989 110.368 29.0066C110.424 29.0755 110.477 29.1454 110.53 29.2163C110.546 29.237 110.559 29.2583 110.576 29.2794C110.625 29.3489 110.675 29.4195 110.724 29.4911C110.74 29.5141 110.757 29.5376 110.77 29.561C110.82 29.6322 110.866 29.7041 110.912 29.7778C110.925 29.8018 110.941 29.8263 110.955 29.8507C111.001 29.925 111.044 30 111.09 30.0763C111.1 30.0987 111.113 30.1218 111.126 30.1442C111.169 30.2239 111.215 30.3039 111.258 30.3857C111.264 30.4003 111.271 30.4156 111.281 30.4308C111.469 30.7986 111.637 31.1877 111.788 31.5982C111.802 31.6349 111.815 31.6712 111.828 31.7082C111.854 31.7814 111.881 31.8561 111.904 31.9307C111.92 31.9796 111.937 32.0281 111.953 32.0773C111.976 32.1478 111.999 32.2194 112.019 32.2907C112.036 32.3467 112.055 32.402 112.072 32.4586C112.092 32.5275 112.111 32.5974 112.131 32.6673C112.148 32.7283 112.164 32.7897 112.181 32.8515C112.197 32.9197 112.213 32.9882 112.233 33.0571C112.25 33.1236 112.266 33.1904 112.283 33.2579C112.296 33.3251 112.312 33.3926 112.329 33.4605C112.345 33.5317 112.358 33.604 112.375 33.6762C112.388 33.7427 112.405 33.8092 112.418 33.8767C112.431 33.9537 112.447 34.0318 112.461 34.1098C112.474 34.1746 112.487 34.2391 112.497 34.3049C112.513 34.389 112.527 34.4745 112.543 34.56C112.553 34.6221 112.563 34.6832 112.573 34.7456C112.589 34.844 112.602 34.9437 112.619 35.0435C112.625 35.095 112.635 35.1459 112.642 35.1975C112.665 35.3508 112.685 35.5059 112.704 35.663C112.968 37.7586 112.434 39.7982 111.808 41.7931C111.577 42.5242 111.344 43.2536 111.116 43.9854C110.885 44.7172 110.665 45.451 110.464 46.1906C110.464 46.1917 110.464 46.1927 110.464 46.1937C110.431 46.3141 110.404 46.4325 110.378 46.5489C110.375 46.5672 110.375 46.5845 110.371 46.6025C110.352 46.705 110.332 46.8061 110.322 46.9058C110.319 46.915 110.319 46.9245 110.319 46.9336C110.302 47.0425 110.296 47.1494 110.289 47.2546C110.289 47.2559 110.289 47.2573 110.289 47.2586C110.282 47.3699 110.282 47.4792 110.286 47.5864C110.325 48.7358 110.892 49.6617 112.012 50.3619C113.383 51.2192 114.83 51.7189 116.524 51.4937C120.192 51.0045 123.856 51.0737 127.504 51.4808C127.586 51.4899 127.666 51.5001 127.748 51.5093C128.015 51.5405 128.285 51.5731 128.552 51.6073C128.661 51.6216 128.769 51.6355 128.875 51.6501C129.129 51.684 129.382 51.7193 129.633 51.7563C129.735 51.7709 129.834 51.7851 129.936 51.8004C130.282 51.8519 130.625 51.9055 130.971 51.9625C131.623 52.0701 132.216 52.2187 132.747 52.4127C133.281 52.6068 133.752 52.8463 134.167 53.1357C134.859 53.6181 135.39 54.2387 135.766 55.019C135.914 55.3311 136.039 55.6687 136.141 56.033C136.191 56.2152 136.237 56.4038 136.276 56.5996C136.352 56.9911 136.405 57.4101 136.435 57.8576C136.467 58.376 136.497 58.8944 136.524 59.4134C136.55 59.9325 136.57 60.4516 136.586 60.9713C136.609 61.7506 136.619 62.5306 136.619 63.3102C136.619 63.83 136.609 64.3501 136.596 64.8698C136.576 65.6494 136.543 66.4284 136.494 67.207C136.441 67.9856 136.375 68.7632 136.293 69.5398C136.263 69.7986 136.234 70.0575 136.204 70.316C136.145 70.7876 136.145 71.2317 136.201 71.6412C136.319 72.5423 136.698 73.2754 137.258 73.7633C137.361 73.8522 137.469 73.9329 137.581 74.0048C138.376 74.51 139.447 74.5958 140.643 74.1049C141.127 73.9061 141.612 73.7046 142.089 73.4868C142.89 73.1234 143.671 72.715 144.413 72.1966C144.798 71.9265 145.19 71.6826 145.586 71.4648C146.377 71.0292 147.191 70.6974 148.021 70.4656C148.644 70.2916 149.277 70.1742 149.916 70.1118C150.341 70.0704 150.769 70.0531 151.204 70.0599C151.854 70.0701 152.506 70.1342 153.168 70.2509C153.607 70.3289 154.052 70.4304 154.493 70.5542C155.508 70.8385 156.47 71.3219 157.324 72.0035C157.578 72.2081 157.825 72.4303 158.059 72.6705C158.372 72.9908 158.662 73.3423 158.932 73.7256C159.133 74.0133 159.321 74.3187 159.496 74.6416C159.552 74.7492 159.608 74.8588 159.664 74.9704C159.772 75.1936 159.875 75.4247 159.97 75.6638C160.066 75.9027 160.151 76.1493 160.234 76.4041C160.273 76.5317 160.313 76.6609 160.349 76.7919C160.494 77.3171 160.606 77.8735 160.685 78.4614C160.725 78.7552 160.754 79.0571 160.774 79.3666C160.804 79.7862 160.82 80.2429 160.82 80.7253C160.82 80.9184 160.817 81.1155 160.81 81.3163C160.807 81.4167 160.804 81.5182 160.797 81.6199C160.777 82.0284 160.748 82.4491 160.698 82.8773C160.685 82.9841 160.672 83.0917 160.659 83.1996C160.112 87.4091 157.99 92.1802 151.834 92.4784C149.942 92.57 147.675 92.2413 144.956 91.346C144.538 91.1149 144.106 90.9348 143.668 90.7994C143.447 90.7319 143.226 90.6752 143.002 90.6288C142.778 90.5826 142.554 90.5466 142.327 90.5202C141.648 90.4411 140.952 90.4472 140.257 90.5168C140.023 90.5402 139.789 90.5704 139.559 90.607C138.633 90.7519 137.973 91.0013 137.515 91.4542C137.4 91.5675 137.298 91.6934 137.206 91.8338C136.932 92.2548 136.761 92.8045 136.655 93.5247C136.626 93.7479 136.593 93.9715 136.563 94.1951C136.5 94.6429 136.441 95.0924 136.388 95.5423C136.339 95.9925 136.293 96.4434 136.26 96.8943C136.227 97.3448 136.207 97.7954 136.201 98.2452C136.197 98.4698 136.201 98.6944 136.207 98.9187C136.224 99.641 136.207 100.358 136.168 101.07C136.125 101.783 136.059 102.491 135.97 103.197C135.884 103.902 135.779 104.605 135.663 105.306C135.548 106.007 135.42 106.705 135.288 107.404C135.202 107.87 135.113 108.335 135.024 108.801C134.935 109.267 134.849 109.732 134.764 110.199C134.724 110.419 134.678 110.64 134.629 110.858C134.576 111.077 134.517 111.294 134.447 111.508C134.378 111.721 134.299 111.932 134.204 112.138C134.108 112.343 133.999 112.544 133.874 112.738C133.68 113.034 133.479 113.302 133.264 113.538C132.618 114.246 131.834 114.665 130.668 114.683C130.305 114.689 129.86 114.695 129.34 114.704C129.168 114.706 128.987 114.709 128.796 114.712C128.7 114.713 128.605 114.715 128.506 114.716C128.308 114.72 128.104 114.723 127.89 114.726C127.784 114.727 127.675 114.729 127.567 114.731C127.346 114.734 127.118 114.738 126.885 114.741C126.532 114.746 126.166 114.751 125.781 114.757C125.527 114.761 125.266 114.764 124.996 114.768C124.864 114.77 124.726 114.772 124.591 114.774C124.179 114.78 123.754 114.786 123.316 114.792C122.732 114.8 122.123 114.808 121.497 114.816C120.396 114.83 119.236 114.845 118.023 114.86C117.677 114.864 117.328 114.868 116.975 114.872C112.55 114.923 107.537 114.97 102.522 114.993C102.321 114.994 102.12 114.995 101.919 114.996C101.517 114.998 101.115 114.999 100.716 115C100.515 115.001 100.314 115.002 100.113 115.003C98.9133 115.007 97.7171 115.009 96.5374 115.009C93.7791 115.011 91.0934 115.002 88.5823 114.981C87.8639 114.975 87.162 114.967 86.4766 114.959C85.6165 114.949 84.786 114.937 83.9853 114.922C83.8238 114.92 83.6656 114.917 83.5074 114.914C82.878 114.902 82.2684 114.889 81.6785 114.874C81.5335 114.871 81.3885 114.867 81.2435 114.863C81.0952 114.859 80.9502 114.855 80.8052 114.851C80.5251 114.843 80.2549 114.835 79.988 114.827C79.7178 114.818 79.4541 114.809 79.1971 114.8C78.94 114.79 78.6896 114.781 78.4457 114.771C78.2085 114.761 77.9778 114.751 77.7504 114.74C77.6318 114.735 77.5131 114.729 77.3978 114.723C77.177 114.712 76.9628 114.7 76.7552 114.688C76.6498 114.683 76.5476 114.676 76.4487 114.67C76.3433 114.664 76.2378 114.657 76.1357 114.65C75.9577 114.638 75.7897 114.626 75.6249 114.613C75.5227 114.606 75.4239 114.597 75.3283 114.589C75.1701 114.576 75.0153 114.562 74.8703 114.548C74.7121 114.532 74.5638 114.516 74.4254 114.499C74.31 114.485 74.2013 114.471 74.1024 114.457C74.0266 114.446 73.9541 114.435 73.8882 114.424C73.7927 114.408 73.707 114.392 73.6279 114.376C73.5422 114.358 73.4664 114.339 73.4005 114.32C73.3741 114.324 73.3478 114.326 73.3181 114.325C73.2654 114.324 73.2094 114.315 73.1534 114.298C73.127 114.29 73.0973 114.279 73.071 114.268C73.015 114.244 72.9589 114.213 72.8996 114.175C72.7579 114.083 72.6162 113.952 72.4745 113.797C72.435 113.752 72.3954 113.703 72.3526 113.655C72.3229 113.618 72.2933 113.58 72.2636 113.541C72.2241 113.49 72.1845 113.438 72.145 113.385C72.0626 113.274 71.9835 113.158 71.9077 113.04C71.8715 112.986 71.8385 112.931 71.8023 112.876C71.6408 112.614 71.4892 112.351 71.3607 112.118C71.3442 112.082 71.3244 112.048 71.3047 112.014C71.2124 111.845 71.1333 111.696 71.0707 111.581C70.0491 109.705 69.947 107.648 69.8151 105.597C69.7954 105.304 69.7756 105.011 69.7525 104.719C69.7229 104.359 69.7064 103.998 69.6899 103.637C69.6767 103.277 69.6701 102.916 69.6668 102.554C69.6603 102.193 69.6603 101.831 69.657 101.47C69.657 101.289 69.6537 101.108 69.6537 100.927C69.6504 100.565 69.6471 100.204 69.6372 99.8428C69.6207 99.1202 69.5812 98.3982 69.5054 97.6783C69.4461 97.1382 69.3604 96.5995 69.245 96.0621C69.1165 95.4636 68.9353 94.9259 68.7046 94.4529C68.6288 94.2952 68.5464 94.1449 68.4574 94.0017C68.3718 93.8585 68.2795 93.7228 68.1806 93.5946C68.1345 93.5305 68.0818 93.4684 68.0323 93.408C67.9302 93.2872 67.8214 93.1739 67.7094 93.0687C67.6534 93.0158 67.5941 92.9653 67.538 92.9161C67.4425 92.838 67.3436 92.7665 67.2447 92.6983C67.1558 92.6385 67.0668 92.5816 66.9745 92.5296C66.9086 92.493 66.8427 92.4577 66.7735 92.4248C66.6384 92.359 66.4967 92.3013 66.3517 92.2515C66.1935 92.1982 66.032 92.1554 65.864 92.1212C65.5674 92.0608 65.2543 92.0299 64.9248 92.032C64.9215 92.0323 64.9215 92.032 64.9182 92.032C64.4041 92.0357 63.8505 92.1178 63.2606 92.2816C61.3658 92.8102 59.4841 93.0782 57.5333 92.9459C55.2067 92.7875 53.045 92.0716 51.071 90.8089C50.7019 90.5728 50.3625 90.3143 50.056 90.0266C49.598 89.5954 49.2157 89.0994 48.929 88.5175C48.7379 88.1297 48.5863 87.704 48.4842 87.2337C48.4314 86.999 48.3919 86.753 48.3655 86.4952C48.929 86.5511 49.4596 86.6112 49.9803 86.6645C50.3856 86.7058 50.7843 86.7438 51.1798 86.771C52.6627 86.8721 54.0336 86.6041 54.808 85.1225C55.5956 83.6226 55.411 82.1037 54.4719 80.764C53.4437 79.2994 52.2607 77.9539 51.193 76.5167C49.9143 74.7936 49.9473 74.7739 51.1633 72.9938C53.0417 70.24 58.4889 66.9451 65.5344 71.0102C66.958 72.0995 68.3685 71.9699 69.2912 70.3659C69.8448 69.4 70.0689 68.3347 69.9437 67.2311C69.5186 63.4391 69.8942 59.6336 69.7328 55.8379C69.7097 55.3029 69.7393 54.7299 69.9041 54.2288C70.5006 52.3951 72.3888 51.9876 73.674 53.3925C74.5803 54.3852 74.7286 55.6256 74.7483 56.9273C74.7912 59.4531 74.6659 61.9762 75.1306 64.498C75.4634 66.311 76.3103 67.4431 77.9811 68.0155C79.7342 68.6146 81.1018 67.9256 82.2453 66.6574C84.786 63.8351 85.1716 60.361 84.7399 56.7668C84.529 55.0146 83.9062 53.3148 83.4646 51.5578C84.6443 50.9824 85.7615 50.9244 86.905 51.0944ZM63.6561 95.5481C63.4913 97.6149 63.3694 99.6925 63.053 101.737C62.5422 105.028 62.1501 108.356 61.089 111.53C60.3772 113.663 59.8499 113.901 56.9665 113.575C55.2496 113.38 54.6663 112.76 54.4521 110.736C54.3664 109.933 54.3302 109.099 54.4422 108.305C54.9761 104.622 54.808 100.911 54.9365 97.2125C55.0255 94.668 54.9695 94.6653 57.4344 94.8173C57.7837 94.8387 58.133 94.8685 58.5054 94.896C59.7873 94.7851 61.1055 95.0375 62.3841 94.4855C63.2936 94.0933 63.7286 94.6385 63.6561 95.5481ZM42.4866 69.9472C40.216 73.7154 40.45 77.8928 43.2478 81.2498C44.7307 83.0292 45.6732 84.9417 46.2927 87.1445C46.8925 89.2707 47.6043 90.2912 49.9143 92.2426C53.3317 94.3566 53.5228 95.7479 53.157 98.6666C53.0779 99.2929 53.1175 99.9341 53.0812 100.567C52.8802 104.182 52.6133 107.795 52.488 111.414C52.4089 113.69 53.2559 114.684 55.3913 115.267C56.6929 115.623 58.0144 115.457 59.3325 115.449C60.8286 115.438 61.7678 114.678 62.3841 113.296C63.1684 111.544 63.5572 109.687 63.8406 107.814C64.4404 103.881 64.9479 99.9327 65.5015 95.9925C65.5707 95.4867 65.485 94.7671 66.2001 94.7522C66.7406 94.741 67.225 95.1861 67.3008 95.7625C67.4655 97.011 67.9005 98.194 67.9137 99.4907C67.9401 102.748 67.9467 106.02 68.2465 109.258C68.6716 113.837 70.606 116.222 73.3906 116.387C78.3897 116.683 125.299 117.044 128.638 116.996C133.914 116.92 135.92 114.932 136.886 110.158C137.828 105.503 137.825 100.815 138.247 96.1438C138.534 92.971 139.097 92.3848 142.205 92.7023C142.811 92.7644 150.707 96.7355 157.093 92.7254C161.974 89.6622 163.022 84.3795 162.573 78.5357C162.221 73.9044 159.08 69.6826 155.449 68.6163C151.234 67.3787 147.253 67.9415 143.585 70.431C142.538 71.1418 141.374 71.5204 140.247 72.0215C139.255 72.4625 138.705 71.9401 138.471 71.0512C138.316 70.4568 138.379 69.7973 138.372 69.1663C138.336 65.5473 138.273 61.9277 138.293 58.3091C138.319 53.6751 136.23 51.3814 131.515 49.9789C128.433 49.0622 125.227 49.4198 122.077 49.2501C121.108 49.2501 120.139 49.2118 119.173 49.2606C118.119 49.3136 117.071 49.509 116.02 49.5334C113.706 49.5863 112.813 48.6045 112.909 46.2605C112.971 44.7949 113.416 43.4155 113.779 42.018C114.392 39.6388 114.715 37.2229 114.583 34.7619C114.29 29.2716 111.403 25.6357 106.321 24.1388C102.261 22.9423 93.8747 20.9752 88.5626 28.7196C86.6875 32.5383 85.8702 36.521 87.0599 40.8072C87.6431 42.9076 88.5955 44.8594 89.1458 46.956C89.5248 48.3965 89.047 49.11 87.6366 49.0639C84.562 48.9634 81.3094 49.8608 78.5874 47.5151C78.3996 47.3543 78.0931 47.338 77.8394 47.2607C74.9823 46.385 72.1417 45.4304 69.2549 44.6697C67.8511 44.2999 66.9416 43.8701 66.7076 42.1514C66.3616 39.6052 65.1324 37.3471 63.6264 35.3203C58.8877 28.9476 51.071 28.5805 45.9632 33.3987C39.5767 39.4271 41.0564 50.3897 47.9767 53.7942C48.4545 54.028 48.906 54.3157 49.3673 54.5796C51.1995 55.6269 51.1633 55.6076 50.1285 57.576C47.8613 61.8853 44.9878 65.7953 42.4866 69.9472Z" fill="black"/>
<path fill-rule="evenodd" clip-rule="evenodd" d="M35.9176 80.4695C36.1021 80.517 36.4547 80.3253 36.5536 80.1428C36.6524 79.962 36.5832 79.621 36.4778 79.409C36.3625 79.1817 36.1351 79.0036 35.9308 78.8377C32.609 76.1364 32.0356 72.6512 33.0901 68.6384C33.4329 67.323 33.8217 66.0508 34.4742 64.8634C34.6983 64.4597 34.7807 64 34.3457 63.6529C33.9206 63.3119 33.4922 63.4894 33.1659 63.7984C32.7178 64.2218 32.2235 64.6564 31.9433 65.1942C30.8559 67.3003 30.444 69.5903 30.3682 72.8093C30.1507 74.7957 31.3238 77.0318 33.156 79.007C33.9173 79.8293 34.8927 80.2066 35.9176 80.4695Z" fill="black"/>
<path fill-rule="evenodd" clip-rule="evenodd" d="M168.524 89.0062C167.816 88.7006 167.388 89.2345 167.071 89.8154C166.986 89.9684 166.962 90.1567 166.916 90.3307C165.545 95.6449 162.131 98.7801 157.047 100.129C156.536 100.265 156.019 100.38 155.702 101.053C155.864 101.269 155.903 101.378 155.966 101.395C156.21 101.46 156.463 101.53 156.714 101.536C160.724 101.626 163.443 99.156 165.918 96.4069C167.417 94.7435 168.389 92.672 168.917 90.4315C169.039 89.9022 169.108 89.2593 168.524 89.0062Z" fill="black"/>
<path fill-rule="evenodd" clip-rule="evenodd" d="M153.626 115.363C151.676 114.233 150.084 114.34 148.525 114.306C145.457 114.24 142.389 114.219 139.318 114.206C138.801 114.204 138.132 114.265 138.059 114.913C137.964 115.761 138.735 115.835 139.308 115.941C139.733 116.019 140.185 115.975 140.62 115.946C142.547 115.819 144.469 115.87 146.4 115.96C148.634 116.065 150.885 116.085 153.626 115.363Z" fill="black"/>
<path fill-rule="evenodd" clip-rule="evenodd" d="M31.1601 115.439C34.8806 115.747 38.6176 115.405 42.3743 115.713C41.4713 114.364 40.2784 113.769 38.9735 113.716C36.3503 113.612 33.7206 113.674 31.0942 113.692C30.5274 113.695 29.9902 113.974 30.0001 114.605C30.0133 115.275 30.6296 115.395 31.1601 115.439Z" fill="black"/>
</svg>
