<svg width="220" height="141" viewBox="0 0 220 141" fill="none" xmlns="http://www.w3.org/2000/svg">
<circle cx="90" cy="64" r="60" fill="#707986"/>
<path fill-rule="evenodd" clip-rule="evenodd" d="M112.332 104.732C112.251 104.532 112.169 104.331 112.091 104.131C112.169 104.331 112.251 104.532 112.332 104.732Z" fill="#719496"/>
<path fill-rule="evenodd" clip-rule="evenodd" d="M111.711 103.13C111.62 102.882 111.531 102.63 111.447 102.383C111.531 102.63 111.62 102.882 111.711 103.13Z" fill="#719496"/>
<path fill-rule="evenodd" clip-rule="evenodd" d="M112.025 103.968C111.924 103.703 111.823 103.438 111.728 103.174C111.823 103.438 111.924 103.703 112.025 103.968Z" fill="#719496"/>
<path fill-rule="evenodd" clip-rule="evenodd" d="M113.106 106.498C112.989 106.25 112.874 105.999 112.763 105.747C112.874 105.999 112.989 106.25 113.106 106.498Z" fill="#719496"/>
<path fill-rule="evenodd" clip-rule="evenodd" d="M162.953 91.4287C162.999 91.4526 163.042 91.473 163.087 91.4935C163.042 91.473 162.999 91.4526 162.953 91.4287Z" fill="#719496"/>
<path fill-rule="evenodd" clip-rule="evenodd" d="M112.666 105.52C112.587 105.34 112.509 105.156 112.431 104.973C112.509 105.156 112.587 105.34 112.666 105.52Z" fill="#719496"/>
<path fill-rule="evenodd" clip-rule="evenodd" d="M138.022 86.7532C142.794 87.0384 144.343 89.2115 144.098 92.556C143.86 95.7884 140.804 98.4878 137.663 98.2433C134.695 98.009 132.087 95.3878 132.159 92.7054C132.253 89.2352 135.238 86.5868 138.022 86.7532ZM122.494 108.511C125.857 109.951 129.58 110.671 133.211 110.779C137.365 110.901 141.173 109.744 144.945 108.09C146.935 107.217 148.886 106.301 150.661 105.007C153.269 103.106 155.185 101.218 157.064 98.5761C159.159 95.6356 160.054 92.2028 160.205 88.6852C159.93 88.0672 159.741 87.3678 159.643 86.563C159.332 84.0572 158.11 81.84 155.923 80.5294C154.482 79.6635 154.302 78.757 155.466 77.6908C156.842 76.4345 157.034 75.2766 156.021 73.6061C153.929 70.1461 150.655 68.5673 147.21 67.1853C146.232 66.7949 145.54 67.1514 145.059 68.0715C144.435 69.2667 143.552 69.355 142.327 69.0426C138.705 68.1225 135.019 68.5401 131.407 69.0562C129.73 69.2973 128.416 69.4229 126.838 68.4586C125.736 67.7829 124.135 66.6421 122.7 68.2074C120.543 70.5638 118.006 72.4686 115.549 74.6689C116.438 76.2715 118.65 78.1492 118.065 78.903C116.598 80.3494 112.8 87.6564 113.025 90.3557C113.159 91.9991 112.568 92.6578 111.283 93.011C109.894 93.3946 109.228 94.2944 109.567 95.7375C109.885 97.0821 110.224 98.4165 110.61 99.7407C111.087 100.413 111.604 101.062 112.15 101.679C114.993 104.892 118.673 106.881 122.494 108.511Z" fill="#719496"/>
<path fill-rule="evenodd" clip-rule="evenodd" d="M162.463 91.1707C162.489 91.1877 162.519 91.2013 162.548 91.2184C162.519 91.2013 162.489 91.1877 162.463 91.1707Z" fill="#719496"/>
<path fill-rule="evenodd" clip-rule="evenodd" d="M161.95 90.8347C161.97 90.8484 161.989 90.8654 162.009 90.8791C161.989 90.8654 161.97 90.8484 161.95 90.8347Z" fill="#719496"/>
<path fill-rule="evenodd" clip-rule="evenodd" d="M161.515 90.4849C161.538 90.5053 161.558 90.5224 161.581 90.5428C161.558 90.5224 161.538 90.5053 161.515 90.4849Z" fill="#719496"/>
<path fill-rule="evenodd" clip-rule="evenodd" d="M111.119 101.404C110.94 100.854 110.77 100.298 110.61 99.7407C110.77 100.298 110.94 100.854 111.119 101.404Z" fill="#719496"/>
<path fill-rule="evenodd" clip-rule="evenodd" d="M160.763 89.6565C160.777 89.6698 160.787 89.6865 160.797 89.6998C160.787 89.6865 160.777 89.6698 160.763 89.6565Z" fill="#719496"/>
<path fill-rule="evenodd" clip-rule="evenodd" d="M111.387 102.212C111.312 101.992 111.237 101.771 111.166 101.55C111.237 101.771 111.312 101.992 111.387 102.212Z" fill="#719496"/>
<path fill-rule="evenodd" clip-rule="evenodd" d="M124.537 28.8947C124.537 28.8947 124.537 28.8947 124.54 28.8918C124.537 28.8947 124.537 28.8947 124.537 28.8947Z" fill="#AFCBBE"/>
<path fill-rule="evenodd" clip-rule="evenodd" d="M98.5922 32.542C103.9 34.3111 107.204 40.2191 106.011 45.8283C105.564 47.9403 104.024 49.2883 102.658 50.6804C96.3043 57.1521 86.8652 54.5206 83.2895 47.2341C82.711 46.0592 82.8745 44.8301 82.8156 43.7402C82.8418 35.8424 91.101 30.043 98.5922 32.542ZM83.9694 70.1634C86.5514 70.5267 89.1302 70.8085 91.7416 70.761C97.2031 70.6625 102.308 69.4707 107.257 67.1279C111.911 64.9276 115.585 61.1994 118.562 56.9653C121.438 52.8773 123.239 47.7637 124.128 42.8132C124.87 38.6979 125.047 34.5114 124.638 30.3758C124.717 30.6847 124.795 30.9903 124.87 31.2959C124.769 30.8817 124.667 30.4674 124.556 30.0566C124.429 29.571 124.331 29.2043 124.478 28.9667C124.197 26.8207 123.756 24.6884 123.151 22.5934C122.396 19.9891 121.442 17.4799 120.317 15.0692C120.324 15.076 120.327 15.0794 120.33 15.0828C120.258 15.0013 120.19 14.9232 120.118 14.8383C117.882 12.8112 116.467 13.4835 113.267 16.0471C112.372 16.7635 111.463 17.3713 110.411 16.3051C106.391 12.2476 101.227 11.6737 96.033 11.3206C93.7746 11.1644 93.7648 11.3003 93.6732 9.04569C93.5785 6.70284 93.1013 5.72836 90.9703 6.37009C87.0122 7.55849 82.9006 8.77066 78.9197 9.80966C75.9324 10.5906 75.3146 10.8826 76.5076 13.7144C77.2855 15.5615 76.9554 16.7058 75.4585 17.6837C73.4092 19.0215 71.8534 20.821 70.5134 22.9126C69.0753 25.1536 68.3824 25.2792 65.8657 24.3828C65.2545 24.1655 64.6629 23.8803 64.0387 23.7105C61.2115 22.933 59.9303 23.5849 58.7471 26.4472C57.6457 29.1127 56.6292 31.8154 55.5179 34.474C54.7597 36.2804 54.7695 38.192 54.642 40.0833C54.5636 41.197 54.9035 42.2258 56.1357 42.2564C58.6491 42.3209 59.0936 44.0016 59.2276 46.0898C59.2831 46.9624 59.2701 47.8758 59.7244 48.6669C60.3258 48.7552 60.7735 48.4191 61.2573 48.178C63.7935 46.9081 66.2089 47.3427 68.0817 49.3901C69.9153 51.3934 69.5655 53.4918 68.9674 56.2625C68.4772 58.5442 67.7908 60.7512 66.9443 62.9006C69.9806 65.0906 73.2556 66.863 76.7527 68.3163C79.1027 69.2907 81.4658 69.8136 83.9694 70.1634Z" fill="#AFCBBE"/>
<path fill-rule="evenodd" clip-rule="evenodd" d="M126.155 44.0183C126.148 44.1439 126.145 44.2696 126.135 44.3952C126.145 44.2696 126.148 44.1439 126.155 44.0183Z" fill="#AFCBBE"/>
<path fill-rule="evenodd" clip-rule="evenodd" d="M126.201 42.9558C126.197 43.1154 126.194 43.275 126.187 43.4346C126.194 43.275 126.197 43.1154 126.201 42.9558Z" fill="#AFCBBE"/>
<path fill-rule="evenodd" clip-rule="evenodd" d="M125.592 28.6541C125.507 28.6541 125.426 28.6541 125.354 28.6575C125.426 28.6541 125.507 28.6541 125.592 28.6541Z" fill="#AFCBBE"/>
<path fill-rule="evenodd" clip-rule="evenodd" d="M126.988 23.6663C127.037 23.7613 127.089 23.853 127.138 23.9481C127.089 23.853 127.037 23.7613 126.988 23.6663Z" fill="#AFCBBE"/>
<path fill-rule="evenodd" clip-rule="evenodd" d="M127.357 24.3928C127.396 24.4743 127.439 24.5524 127.478 24.6339C127.439 24.5524 127.396 24.4743 127.357 24.3928Z" fill="#AFCBBE"/>
<path fill-rule="evenodd" clip-rule="evenodd" d="M126.609 22.9905C126.667 23.0889 126.726 23.184 126.782 23.2825C126.726 23.184 126.667 23.0889 126.609 22.9905Z" fill="#AFCBBE"/>
<path fill-rule="evenodd" clip-rule="evenodd" d="M66.137 64.8291C66.2773 64.5099 66.4177 64.1907 66.5515 63.8682C66.4144 64.1907 66.2773 64.5099 66.137 64.8291Z" fill="#AFCBBE"/>
<path fill-rule="evenodd" clip-rule="evenodd" d="M125.255 28.6643C125.22 28.6677 125.18 28.6711 125.148 28.6745C125.18 28.6711 125.22 28.6677 125.255 28.6643Z" fill="#AFCBBE"/>
<path fill-rule="evenodd" clip-rule="evenodd" d="M125.037 28.688C125.017 28.6914 124.994 28.6948 124.975 28.6982C124.994 28.6948 125.017 28.6914 125.037 28.688Z" fill="#AFCBBE"/>
<path fill-rule="evenodd" clip-rule="evenodd" d="M123.037 18.1863C123.066 18.2204 123.095 18.2545 123.125 18.2886C123.095 18.2545 123.066 18.2204 123.037 18.1863Z" fill="#AFCBBE"/>
<path fill-rule="evenodd" clip-rule="evenodd" d="M126.217 22.3489C126.279 22.4439 126.341 22.5424 126.403 22.6409C126.341 22.5424 126.279 22.4439 126.217 22.3489Z" fill="#AFCBBE"/>
<path fill-rule="evenodd" clip-rule="evenodd" d="M126.213 41.937C126.213 42.117 126.217 42.2969 126.213 42.4803C126.217 42.2969 126.213 42.117 126.213 41.937Z" fill="#AFCBBE"/>
<path fill-rule="evenodd" clip-rule="evenodd" d="M125.808 21.7273C125.873 21.819 125.939 21.914 126.001 22.0091C125.939 21.914 125.873 21.819 125.808 21.7273Z" fill="#AFCBBE"/>
<path fill-rule="evenodd" clip-rule="evenodd" d="M124.481 19.9277C124.543 20.0062 124.608 20.088 124.67 20.1664C124.608 20.088 124.543 20.0062 124.481 19.9277Z" fill="#AFCBBE"/>
<path fill-rule="evenodd" clip-rule="evenodd" d="M123.52 18.7561C123.569 18.8141 123.618 18.872 123.667 18.93C123.618 18.872 123.569 18.8141 123.52 18.7561Z" fill="#AFCBBE"/>
<path fill-rule="evenodd" clip-rule="evenodd" d="M125.383 21.1165C125.448 21.2081 125.517 21.2998 125.579 21.3915C125.517 21.2998 125.448 21.2081 125.383 21.1165Z" fill="#AFCBBE"/>
<path fill-rule="evenodd" clip-rule="evenodd" d="M124.942 20.5188C125.007 20.6037 125.073 20.692 125.138 20.7769C125.073 20.692 125.007 20.6037 124.942 20.5188Z" fill="#AFCBBE"/>
<path fill-rule="evenodd" clip-rule="evenodd" d="M124.007 19.3369C124.066 19.4085 124.125 19.4801 124.18 19.5517C124.125 19.4801 124.066 19.4085 124.007 19.3369Z" fill="#AFCBBE"/>
<path fill-rule="evenodd" clip-rule="evenodd" d="M125.089 32.2432C125.154 32.5386 125.216 32.8374 125.278 33.1362C125.216 32.8374 125.154 32.5386 125.089 32.2432Z" fill="#AFCBBE"/>
<path fill-rule="evenodd" clip-rule="evenodd" d="M125.785 36.0459C125.824 36.3073 125.86 36.5688 125.893 36.8336C125.86 36.5688 125.824 36.3073 125.785 36.0459Z" fill="#AFCBBE"/>
<path fill-rule="evenodd" clip-rule="evenodd" d="M125.471 34.1309C125.523 34.4127 125.576 34.6945 125.621 34.9797C125.576 34.6945 125.523 34.4127 125.471 34.1309Z" fill="#AFCBBE"/>
<path fill-rule="evenodd" clip-rule="evenodd" d="M125.288 33.1836C125.347 33.4722 125.406 33.7642 125.458 34.0562C125.406 33.7642 125.347 33.4722 125.288 33.1836Z" fill="#AFCBBE"/>
<path fill-rule="evenodd" clip-rule="evenodd" d="M124.87 31.3059C124.945 31.6081 125.013 31.9103 125.082 32.2159C125.013 31.9103 124.945 31.6081 124.87 31.3059Z" fill="#AFCBBE"/>
<path fill-rule="evenodd" clip-rule="evenodd" d="M124.73 28.7695C124.724 28.7729 124.713 28.7764 124.707 28.7798C124.713 28.7764 124.724 28.7729 124.73 28.7695Z" fill="#AFCBBE"/>
<path fill-rule="evenodd" clip-rule="evenodd" d="M124.622 28.8274C124.618 28.8274 124.615 28.8307 124.612 28.8341C124.615 28.8307 124.618 28.8274 124.622 28.8274Z" fill="#AFCBBE"/>
<path fill-rule="evenodd" clip-rule="evenodd" d="M126.164 39.9438C126.174 40.1544 126.187 40.3683 126.194 40.5822C126.187 40.3683 126.174 40.1544 126.164 39.9438Z" fill="#AFCBBE"/>
<path fill-rule="evenodd" clip-rule="evenodd" d="M125.913 37.0137C125.942 37.2615 125.971 37.5128 125.997 37.7641C125.971 37.5128 125.942 37.2615 125.913 37.0137Z" fill="#AFCBBE"/>
<path fill-rule="evenodd" clip-rule="evenodd" d="M126.204 40.9353C126.207 41.1322 126.214 41.3292 126.214 41.5295C126.214 41.3292 126.207 41.1322 126.204 40.9353Z" fill="#AFCBBE"/>
<path fill-rule="evenodd" clip-rule="evenodd" d="M126.021 37.9814C126.043 38.2225 126.066 38.4602 126.086 38.6979C126.066 38.4602 126.043 38.2225 126.021 37.9814Z" fill="#AFCBBE"/>
<path fill-rule="evenodd" clip-rule="evenodd" d="M126.102 38.9626C126.122 39.1867 126.138 39.4142 126.151 39.6383C126.138 39.4142 126.122 39.1867 126.102 38.9626Z" fill="#AFCBBE"/>
<path fill-rule="evenodd" clip-rule="evenodd" d="M125.638 35.085C125.684 35.36 125.726 35.6316 125.765 35.9033C125.726 35.6316 125.684 35.36 125.638 35.085Z" fill="#AFCBBE"/>
<path fill-rule="evenodd" clip-rule="evenodd" d="M124.867 28.7256C124.854 28.7289 124.841 28.7289 124.827 28.7356C124.841 28.7289 124.854 28.7289 124.867 28.7256Z" fill="#AFCBBE"/>
<path fill-rule="evenodd" clip-rule="evenodd" d="M66.7971 51.2711C65.7381 49.6481 63.5352 49.278 62.1232 50.6056C61.3127 51.3696 60.7505 52.3407 60.3093 53.3695C59.4268 55.4135 58.5443 57.4576 57.7534 59.539C56.8252 61.9837 55.678 64.2009 53.413 65.6202C47.556 69.2839 41.0747 70.238 34.4464 69.8882C32.3491 69.7762 30.8898 70.1633 29.5798 71.6539C28.1874 73.2361 26.9631 74.9882 26.3365 77.0288C24.5605 82.8044 23.1476 88.6853 22.5128 94.7224C21.6461 102.97 20.8084 111.221 20.1478 119.489C19.8096 123.719 19.2621 127.553 20.2076 131.763C20.6986 133.95 22.0265 135.121 24.2078 134.982C26.0986 134.863 27.2115 133.957 27.4945 131.919C27.8799 129.149 29.0778 111.947 30.2005 106.219C30.8116 103.096 32.589 101.897 34.3379 101.938C37.167 102.002 38.2244 103.598 38.7996 106.362C38.9134 106.909 38.9634 107.472 39.0464 108.026C39.5304 111.258 39.2765 125.549 39.872 130.011C40.4962 134.707 41.784 134.911 44.6079 134.948C49.3013 134.992 46.7683 114.827 46.9611 108.542C47.2161 100.25 47.0592 91.9483 47.7096 83.6669C47.8599 81.7688 48.5561 80.1526 49.906 78.9506C52.8508 76.3328 55.7074 73.5791 59.1392 71.6267C60.2178 71.0155 61.1198 70.1972 61.6983 69.1141C63.898 64.9886 65.8165 60.7342 66.9409 56.1266C67.4082 54.2014 67.7972 52.8058 66.7971 51.2711Z" fill="white"/>
<path fill-rule="evenodd" clip-rule="evenodd" d="M48.0921 55.4883C47.6279 45.7875 40.1564 43.971 36.8952 43.7401C26.4804 43.0203 22.4021 53.1149 24.7871 59.719C26.2794 63.8546 29.1654 65.8817 32.7897 67.3078C41.7742 70.3093 48.4614 63.1008 48.0921 55.4883Z" fill="white"/>
<path fill-rule="evenodd" clip-rule="evenodd" d="M42.9475 43.6993C44.4575 44.7281 45.7126 46.144 47.5919 46.9962C48.9613 45.1831 50.4452 43.4412 51.6741 41.5194C52.9553 39.5195 52.2428 38.1511 49.9255 37.669C47.569 37.18 43.8365 39.8522 42.6141 42.2936C42.2938 42.9319 42.467 43.3699 42.9475 43.6993Z" fill="white"/>
<path fill-rule="evenodd" clip-rule="evenodd" d="M164.365 97.4424C163.833 96.4679 163.829 95.4221 164.532 94.6038C165.908 92.9977 165.081 92.2779 163.614 91.7177C163.431 91.6498 163.257 91.5717 163.088 91.4936C163.042 91.4732 162.999 91.4528 162.954 91.4291C162.813 91.3611 162.679 91.2932 162.548 91.2185C162.519 91.2016 162.489 91.188 162.463 91.171C162.306 91.0793 162.153 90.9809 162.009 90.879C161.989 90.8654 161.97 90.8484 161.95 90.8348C161.823 90.7432 161.698 90.6447 161.581 90.5428C161.558 90.5225 161.538 90.5055 161.515 90.4851C161.247 90.2474 161.009 89.986 160.796 89.7008C160.787 89.6872 160.777 89.6702 160.764 89.6566C160.548 89.3612 160.362 89.0387 160.205 88.6855C160.054 92.2032 159.159 95.636 157.064 98.5764C155.185 101.218 153.269 103.106 150.661 105.007C148.886 106.301 146.935 107.218 144.945 108.09C141.173 109.744 137.365 110.902 133.211 110.78C129.58 110.671 125.857 109.951 122.494 108.511C118.673 106.882 114.993 104.892 112.15 101.68C111.604 101.062 111.087 100.413 110.61 99.7411C110.77 100.298 110.94 100.855 111.12 101.405C111.136 101.452 111.153 101.5 111.166 101.551C111.238 101.772 111.313 101.992 111.388 102.213C111.408 102.271 111.427 102.325 111.447 102.383C111.532 102.631 111.62 102.882 111.712 103.13C111.718 103.143 111.721 103.16 111.728 103.174C111.823 103.439 111.924 103.704 112.025 103.968C112.048 104.023 112.071 104.077 112.091 104.131C112.169 104.332 112.251 104.532 112.333 104.732C112.365 104.814 112.398 104.892 112.431 104.973C112.509 105.157 112.587 105.34 112.666 105.52C112.699 105.595 112.731 105.673 112.764 105.748C112.875 105.999 112.99 106.25 113.107 106.498C113.571 107.486 114.343 107.69 115.274 107.367C115.876 107.16 116.454 106.865 117.399 106.454C119.536 111.18 122.935 114.185 127.511 115.489C129.194 115.971 130.008 116.436 129.694 118.338C129.41 120.073 130.204 120.881 131.904 121.336C135.202 122.219 138.99 121.842 142.17 121.316C144.023 121.01 144.497 119.584 144.304 117.472C144.186 116.202 144.618 115.734 145.925 115.645C150.422 115.336 153.42 112.389 155.776 108.814C156.662 107.469 157.368 106.953 158.848 107.194C160.103 107.398 161.669 107.741 162.414 106.359C163.892 103.625 166.317 101.021 164.365 97.4424Z" fill="#5E8484"/>
<path fill-rule="evenodd" clip-rule="evenodd" d="M122.935 64.8085C123.494 64.2551 123.981 63.7899 124.847 64.5199C126.965 66.3093 127.508 66.1497 128.809 63.7593C129.462 62.5607 131.368 54.8803 131.796 52.3473C132.378 48.8941 131.616 48.378 128.357 47.4341C128.155 47.373 127.933 47.3628 127.717 47.3526C126.488 47.2915 125.949 46.5343 126.06 45.3595C126.089 45.0369 126.115 44.7144 126.135 44.3952C126.145 44.2696 126.148 44.1439 126.155 44.0183C126.168 43.8248 126.177 43.6278 126.187 43.4343C126.194 43.2747 126.197 43.1151 126.2 42.9555C126.204 42.796 126.21 42.6398 126.213 42.4802C126.217 42.2968 126.213 42.1169 126.213 41.9369C126.213 41.8011 126.217 41.6653 126.213 41.5295C126.213 41.3291 126.207 41.1322 126.204 40.9353C126.2 40.8164 126.197 40.6976 126.194 40.5821C126.187 40.3682 126.174 40.1543 126.164 39.9438C126.161 39.8419 126.155 39.7401 126.151 39.6382C126.138 39.4141 126.122 39.1866 126.102 38.9625C126.096 38.8742 126.092 38.786 126.086 38.6977C126.066 38.46 126.043 38.2223 126.021 37.9812C126.011 37.9099 126.008 37.8386 125.998 37.7639C125.972 37.5127 125.942 37.2614 125.913 37.0135C125.906 36.9524 125.9 36.8913 125.893 36.8336C125.86 36.5687 125.824 36.3073 125.785 36.0458C125.779 35.9983 125.772 35.9508 125.766 35.9032C125.726 35.6316 125.684 35.36 125.638 35.0849C125.632 35.051 125.628 35.0136 125.622 34.9797C125.576 34.6945 125.524 34.4127 125.471 34.1308C125.468 34.1037 125.465 34.0799 125.458 34.0561C125.406 33.7641 125.347 33.4721 125.288 33.1835C125.285 33.1665 125.282 33.1496 125.279 33.136C125.217 32.8372 125.154 32.5384 125.089 32.243C125.086 32.2328 125.083 32.2226 125.083 32.2158C125.014 31.9102 124.945 31.608 124.87 31.3058C124.87 31.3024 124.87 31.299 124.87 31.2956C124.795 30.9901 124.716 30.6845 124.638 30.3755C125.047 34.5111 124.87 38.6977 124.128 42.8129C123.239 47.7635 121.438 52.877 118.562 56.9651C115.585 61.1992 111.911 64.9274 107.257 67.1276C102.308 69.4704 97.2031 70.6622 91.7416 70.7607C89.1301 70.8082 86.5514 70.5264 83.9693 70.1631C81.4657 69.8134 79.1027 69.2905 76.7527 68.316C73.2555 66.8627 69.9806 65.0903 66.9442 62.9003C66.8168 63.2228 66.686 63.5454 66.552 63.868C66.418 64.1905 66.2775 64.5097 66.1369 64.8289C64.7381 67.973 65.1695 69.7862 67.8725 71.9423C69.4119 73.1681 71.0167 74.3055 72.5692 75.5143C73.9517 76.5906 75.2394 76.9404 76.4618 75.2562C77.475 73.8607 78.6517 73.8302 80.1551 74.5975C84.5609 76.8487 89.2118 78.6856 94.17 78.6313C95.7879 78.6109 96.2847 78.9437 96.0722 80.475C95.9938 81.0319 95.9284 81.5921 95.9153 82.1524C95.8434 84.5767 96.4579 85.1709 98.7589 84.8042C102.073 84.2745 105.325 83.48 108.427 82.1286C111.241 80.8994 111.666 80.1185 109.914 77.7587C109.1 76.6653 109.332 76.0847 110.407 75.3819C113.333 73.477 116.189 71.45 118.742 69.0087C120.167 67.6403 121.533 66.204 122.935 64.8085Z" fill="#96BCA9"/>
<path fill-rule="evenodd" clip-rule="evenodd" d="M123.151 22.5934C123.755 24.6883 124.197 26.8207 124.478 28.9666C124.494 28.9428 124.514 28.919 124.537 28.8953C124.537 28.8953 124.537 28.8953 124.54 28.8919C124.56 28.8715 124.582 28.8511 124.612 28.8342C124.615 28.8308 124.618 28.8274 124.622 28.8274C124.648 28.8104 124.677 28.7934 124.707 28.7798C124.713 28.7764 124.723 28.773 124.729 28.7696C124.759 28.7561 124.792 28.7459 124.828 28.7357C124.841 28.7289 124.854 28.7289 124.867 28.7255C124.899 28.7153 124.935 28.7051 124.975 28.6983C124.994 28.6949 125.017 28.6915 125.037 28.6881C125.073 28.6848 125.109 28.678 125.148 28.6746C125.181 28.6712 125.22 28.6678 125.256 28.6644C125.288 28.661 125.318 28.661 125.354 28.6576C125.426 28.6542 125.507 28.6542 125.592 28.6542C127.383 28.661 128.478 26.9836 127.795 25.3504C127.691 25.106 127.586 24.8683 127.478 24.634C127.439 24.5525 127.396 24.4744 127.357 24.3929C127.285 24.2435 127.213 24.0941 127.138 23.9481C127.089 23.8531 127.037 23.7614 126.988 23.6663C126.919 23.5373 126.851 23.4083 126.782 23.2826C126.726 23.1842 126.668 23.0891 126.609 22.9906C126.54 22.8752 126.475 22.7563 126.403 22.6409C126.341 22.5424 126.279 22.444 126.217 22.3489C126.145 22.2368 126.076 22.1214 126.001 22.0093C125.939 21.9143 125.873 21.8192 125.808 21.7275C125.733 21.6155 125.658 21.5 125.579 21.3914C125.517 21.2997 125.449 21.208 125.383 21.1163C125.301 21.0043 125.22 20.8922 125.138 20.7768C125.073 20.6919 125.007 20.6036 124.942 20.5188C124.85 20.4033 124.762 20.2845 124.671 20.1656C124.609 20.0875 124.543 20.006 124.481 19.9279C124.383 19.8023 124.282 19.6767 124.18 19.5511C124.125 19.4798 124.066 19.4084 124.007 19.3371C123.893 19.2013 123.782 19.0655 123.667 18.9297C123.618 18.872 123.569 18.8142 123.52 18.7565C123.389 18.6003 123.259 18.4441 123.125 18.288C123.095 18.254 123.066 18.22 123.036 18.1861C122.21 17.2252 121.307 16.21 120.33 15.0827C120.327 15.0793 120.324 15.0759 120.317 15.0691C121.441 17.4798 122.396 19.9891 123.151 22.5934Z" fill="#96BCA9"/>
<path fill-rule="evenodd" clip-rule="evenodd" d="M200.756 66.9714C203.096 64.7576 204.874 61.2637 204.501 57.943C203.897 50.1811 198.347 45.312 191.817 46.0454C186.871 46.3578 182.178 50.1675 181.413 54.9924C180.508 60.6933 182.335 65.4299 187.11 67.7626C193.477 71.5383 199.52 68.1429 200.756 66.9714Z" fill="white"/>
<path fill-rule="evenodd" clip-rule="evenodd" d="M174.631 92.9159C172.517 93.3844 170.451 93.5067 168.408 94.1756C167.457 94.488 166.078 95.1976 166.218 96.6814C166.352 98.0871 167.215 99.4147 168.497 99.9308C169.17 100.199 169.98 99.9614 170.726 99.9444C175.318 99.8391 179.678 98.576 183.956 96.9734C185.509 96.3928 187.27 95.3504 188.218 93.982C190.483 90.7021 193.111 88.0978 195.042 84.5461C195.32 84.0368 195.755 83.626 196.333 84.081C196.745 84.4069 196.585 84.8993 196.369 85.3033C195.376 87.1912 193.99 88.7735 192.64 90.3761C191.333 91.9278 190.365 93.5304 190.401 95.7612C190.427 97.5303 190.143 99.3536 189.708 101.072C187.532 109.632 186.064 118.351 184.289 126.996C184.002 128.405 183.191 133.919 185.911 133.997C189.699 134.36 190.496 132.734 191.303 130.951C192.601 128.082 195.392 112.185 196.673 107.425C197.278 105.177 198.902 103.808 200.752 104.022C202.491 104.226 203.671 105.785 203.674 108.219C203.681 112.368 201.802 127.016 201.406 130.238C201.295 131.155 201.315 134.133 203.459 134.021C207.381 134.68 207.472 132.758 208.155 130.714C209.502 126.68 211.28 111.115 211.022 100.42C211.064 97.605 210.505 93.2215 209.973 90.4542C208.995 85.4052 208.149 81.9385 206.028 77.1917C203.596 71.7488 201.197 70.1733 195.693 70.7336C193.908 70.9169 192.608 71.6537 191.803 73.2971C190.872 75.1951 189.588 76.8555 188.653 78.7705C187.192 81.7585 185.688 84.7465 183.583 87.3576C181.207 90.3048 178.106 92.1417 174.631 92.9159Z" fill="white"/>
<path fill-rule="evenodd" clip-rule="evenodd" d="M163.251 86.3729C166.699 87.6461 170.088 89.0892 173.507 90.4576C174.01 90.6613 174.513 90.8073 175.076 90.6307C179.138 89.3506 182.449 87.1199 183.874 82.5089C182.413 83.1947 180.926 83.8297 179.498 84.5835C177.507 85.6327 175.674 85.5478 173.683 84.4137C171.131 82.9605 168.418 81.8128 165.797 80.4818C164.411 79.7755 162.93 79.5311 161.433 79.3545C160.025 79.1915 159.155 79.9589 159.58 81.1745C160.302 83.2355 160.829 85.4799 163.251 86.3729Z" fill="white"/>
<path fill-rule="evenodd" clip-rule="evenodd" d="M158.848 107.194C157.368 106.953 156.662 107.469 155.776 108.813C153.419 112.389 150.422 115.336 145.925 115.645C144.618 115.733 144.186 116.202 144.304 117.472C144.497 119.584 144.023 121.01 142.169 121.315C138.989 121.842 135.201 122.219 131.903 121.336C130.204 120.881 129.41 120.073 129.694 118.338C130.008 116.436 129.194 115.971 127.511 115.489C122.935 114.185 119.536 111.18 117.398 106.454C116.454 106.864 115.875 107.16 115.274 107.367C114.342 107.69 113.571 107.486 113.107 106.498C112.989 106.25 112.875 105.999 112.764 105.747C112.731 105.673 112.698 105.595 112.666 105.52C112.587 105.34 112.509 105.157 112.43 104.973C112.398 104.892 112.365 104.814 112.332 104.732C112.251 104.532 112.169 104.331 112.09 104.131C112.071 104.077 112.048 104.022 112.025 103.968C111.924 103.703 111.822 103.438 111.728 103.174C111.721 103.16 111.718 103.143 111.711 103.13C111.62 102.882 111.532 102.63 111.447 102.383C111.427 102.325 111.407 102.27 111.388 102.213C111.313 101.992 111.237 101.771 111.165 101.551C111.152 101.5 111.136 101.452 111.12 101.405C110.94 100.855 110.77 100.298 110.61 99.7409C110.224 98.4166 109.884 97.0822 109.567 95.7377C109.227 94.2946 109.894 93.3948 111.283 93.0111C112.568 92.658 113.159 91.9993 113.025 90.3559C112.8 87.6565 116.598 80.3496 118.065 78.9031C118.65 78.1493 116.437 76.2717 115.548 74.669C118.006 72.4688 120.542 70.564 122.7 68.2075C124.134 66.6422 125.736 67.7831 126.837 68.4588C128.416 69.4231 129.73 69.2975 131.407 69.0564C135.018 68.5403 138.705 68.1226 142.326 69.0428C143.552 69.3552 144.434 69.2669 145.059 68.0717C145.539 67.1516 146.232 66.795 147.209 67.1855C150.654 68.5674 153.929 70.1463 156.021 73.6063C157.034 75.2768 156.841 76.4347 155.465 77.691C154.302 78.7571 154.482 79.6637 155.923 80.5295C158.109 81.8402 159.332 84.0574 159.642 86.5632C159.74 87.3679 159.93 88.0674 160.205 88.6854C160.361 89.0385 160.548 89.361 160.763 89.6564C160.776 89.67 160.786 89.687 160.796 89.7006C161.009 89.9858 161.247 90.2472 161.515 90.4849C161.538 90.5053 161.558 90.5223 161.581 90.5426C161.698 90.6445 161.822 90.743 161.95 90.8347C161.969 90.8482 161.989 90.8652 162.009 90.8788C162.152 90.9807 162.306 91.0791 162.463 91.1708C162.489 91.1878 162.519 91.2014 162.548 91.2183C162.679 91.293 162.813 91.3609 162.953 91.4289C162.999 91.4526 163.041 91.473 163.087 91.4934C163.257 91.5715 163.43 91.6496 163.613 91.7175C165.081 92.2777 165.908 92.9975 164.532 94.6036C163.829 95.4219 163.832 96.4677 164.365 97.4422C166.316 101.021 163.891 103.625 162.414 106.359C161.669 107.74 160.103 107.398 158.848 107.194ZM110.407 75.3821C109.332 76.0849 109.1 76.6655 109.914 77.7589C111.666 80.1187 111.241 80.8996 108.427 82.1288C105.325 83.4802 102.073 84.2747 98.7586 84.8044C96.4576 85.1711 95.8432 84.5769 95.9151 82.1525C95.9282 81.5923 95.9935 81.0321 96.072 80.4752C96.2844 78.9439 95.7876 78.6111 94.1698 78.6315C89.2116 78.6858 84.5607 76.8489 80.1549 74.5977C78.6514 73.8304 77.4748 73.8609 76.4616 75.2564C75.2392 76.9406 73.9514 76.5908 72.5689 75.5145C71.0164 74.3057 69.4116 73.1683 67.8722 71.9425C65.1693 69.7864 64.7378 67.9732 66.1367 64.8291C66.2772 64.5099 66.4145 64.1907 66.5518 63.8682C66.6858 63.5456 66.8165 63.223 66.944 62.9005C67.7905 60.7512 68.4769 58.5441 68.9671 56.2624C69.5653 53.4917 69.915 51.3934 68.0814 49.3901C66.2086 47.3426 63.7933 46.908 61.257 48.1779C60.7733 48.419 60.3255 48.7551 59.7241 48.6668C59.2698 47.8757 59.2829 46.9623 59.2273 46.0897C59.0933 44.0015 58.6488 42.3208 56.1354 42.2563C54.9032 42.2257 54.5633 41.1969 54.6417 40.0832C54.7692 38.1919 54.7594 36.2803 55.5177 34.474C56.6289 31.8153 57.6454 29.1126 58.7468 26.4472C59.93 23.5848 61.2112 22.9329 64.0384 23.7105C64.6627 23.8802 65.2542 24.1654 65.8654 24.3827C68.3821 25.2791 69.075 25.1535 70.5131 22.9125C71.8531 20.8209 73.4089 19.0214 75.4582 17.6836C76.9551 16.7057 77.2852 15.5614 76.5073 13.7143C75.3144 10.8825 75.9321 10.5905 78.9194 9.80958C82.9003 8.77058 87.012 7.55841 90.97 6.37001C93.101 5.72827 93.5782 6.70276 93.673 9.0456C93.7645 11.3002 93.7743 11.1644 96.0328 11.3205C101.226 11.6737 106.39 12.2475 110.41 16.305C111.463 17.3712 112.371 16.7634 113.267 16.047C116.467 13.4834 117.882 12.8111 120.118 14.8382C120.19 14.9231 120.258 15.0012 120.33 15.0827C121.307 16.21 122.209 17.2252 123.036 18.1861C123.066 18.22 123.095 18.254 123.125 18.288C123.259 18.4441 123.389 18.6003 123.52 18.7565C123.569 18.8142 123.618 18.872 123.667 18.9297C123.781 19.0655 123.893 19.2013 124.007 19.3371C124.066 19.4084 124.125 19.4798 124.18 19.5511C124.282 19.6767 124.383 19.8023 124.481 19.9279C124.543 20.006 124.608 20.0875 124.67 20.1656C124.762 20.2845 124.85 20.4033 124.942 20.5188C125.007 20.6036 125.072 20.6919 125.138 20.7768C125.22 20.8923 125.301 21.0043 125.383 21.1163C125.448 21.208 125.517 21.2997 125.579 21.3914C125.658 21.5 125.733 21.6155 125.808 21.7275C125.873 21.8192 125.939 21.9143 126.001 22.0093C126.076 22.1214 126.145 22.2368 126.216 22.3489C126.279 22.444 126.341 22.5424 126.403 22.6409C126.475 22.7563 126.54 22.8752 126.609 22.9906C126.667 23.0891 126.726 23.1842 126.782 23.2826C126.851 23.4083 126.919 23.5373 126.988 23.6663C127.037 23.7614 127.089 23.8531 127.138 23.9481C127.213 24.0941 127.285 24.2435 127.357 24.3929C127.396 24.4744 127.439 24.5525 127.478 24.634C127.586 24.8683 127.69 25.106 127.795 25.3504C128.478 26.9836 127.383 28.661 125.592 28.6542C125.507 28.6542 125.425 28.6542 125.354 28.6576C125.318 28.661 125.288 28.661 125.256 28.6644C125.22 28.6678 125.18 28.6712 125.148 28.6746C125.108 28.678 125.072 28.6848 125.037 28.6882C125.017 28.6915 124.994 28.6949 124.974 28.6983C124.935 28.7051 124.899 28.7153 124.867 28.7255C124.854 28.7289 124.84 28.7289 124.827 28.7357C124.791 28.7459 124.759 28.7561 124.729 28.7696C124.723 28.773 124.713 28.7764 124.706 28.7798C124.677 28.7934 124.648 28.8104 124.621 28.8274C124.618 28.8274 124.615 28.8308 124.612 28.8342C124.582 28.8511 124.559 28.8715 124.54 28.8919C124.536 28.8953 124.536 28.8953 124.536 28.8953C124.514 28.919 124.494 28.9428 124.478 28.9666C124.331 29.2043 124.429 29.571 124.556 30.0565C124.667 30.4674 124.769 30.8816 124.87 31.2958C124.87 31.2992 124.87 31.3026 124.87 31.306C124.945 31.6082 125.014 31.9104 125.082 32.216C125.082 32.2228 125.086 32.233 125.089 32.2432C125.154 32.5386 125.216 32.8374 125.278 33.1362C125.282 33.1497 125.285 33.1667 125.288 33.1837C125.347 33.4723 125.406 33.7643 125.458 34.0563C125.465 34.0801 125.468 34.1039 125.471 34.131C125.524 34.4128 125.576 34.6947 125.622 34.9799C125.628 35.0138 125.631 35.0512 125.638 35.0851C125.684 35.3602 125.726 35.6318 125.765 35.9034C125.772 35.951 125.778 35.9985 125.785 36.046C125.824 36.3075 125.86 36.5689 125.893 36.8338C125.899 36.8915 125.906 36.9526 125.912 37.0137C125.942 37.2616 125.971 37.5129 125.997 37.7641C126.007 37.8388 126.011 37.9101 126.02 37.9814C126.043 38.2225 126.066 38.4602 126.086 38.6979C126.092 38.7861 126.095 38.8744 126.102 38.9627C126.122 39.1868 126.138 39.4143 126.151 39.6384C126.154 39.7403 126.161 39.8421 126.164 39.944C126.174 40.1545 126.187 40.3684 126.194 40.5823C126.197 40.6978 126.2 40.8166 126.203 40.9355C126.207 41.1324 126.213 41.3293 126.213 41.5297C126.216 41.6655 126.213 41.8013 126.213 41.9371C126.213 42.1171 126.216 42.297 126.213 42.4804C126.21 42.64 126.203 42.7962 126.2 42.9557C126.197 43.1153 126.194 43.2749 126.187 43.4345C126.177 43.628 126.167 43.825 126.154 44.0185C126.148 44.1441 126.145 44.2698 126.135 44.3954C126.115 44.7146 126.089 45.0371 126.06 45.3597C125.948 46.5345 126.488 47.2917 127.717 47.3528C127.932 47.363 128.155 47.3732 128.357 47.4343C131.616 48.3782 132.377 48.8943 131.796 52.3475C131.367 54.8805 129.462 62.5609 128.808 63.7595C127.507 66.1499 126.965 66.3095 124.847 64.5201C123.981 63.7901 123.494 64.2552 122.935 64.8087C121.533 66.2042 120.167 67.6405 118.742 69.0089C116.189 71.4502 113.332 73.4772 110.407 75.3821ZM61.6982 69.1141C61.1197 70.1973 60.2176 71.0155 59.1391 71.6267C55.7072 73.5791 52.8507 76.3328 49.9058 78.9507C48.556 80.1526 47.8598 81.7689 47.7095 83.6669C47.059 91.9484 47.2159 100.25 46.961 108.542C46.7682 114.827 49.3012 134.992 44.6077 134.948C41.7838 134.911 40.4961 134.707 39.8718 130.011C39.2763 125.549 39.5303 111.258 39.0462 108.026C38.9632 107.472 38.9132 106.909 38.7995 106.362C38.2242 103.598 37.1669 102.002 34.3378 101.938C32.5889 101.897 30.8115 103.096 30.2003 106.219C29.0776 111.947 27.8797 129.149 27.4944 131.919C27.2114 133.957 26.0985 134.863 24.2077 134.982C22.0264 135.121 20.6984 133.95 20.2075 131.763C19.262 127.553 19.8094 123.719 20.1477 119.489C20.8082 111.221 21.6459 102.97 22.5127 94.7224C23.1474 88.6853 24.5604 82.8045 26.3364 77.0289C26.963 74.9882 28.1873 73.2362 29.5796 71.6539C30.8896 70.1633 32.349 69.7762 34.4463 69.8883C41.0746 70.238 47.5558 69.2839 53.4128 65.6202C55.6778 64.2009 56.825 61.9837 57.7533 59.539C58.5442 57.4576 59.4267 55.4136 60.3091 53.3695C60.7504 52.3407 61.3125 51.3696 62.1231 50.6056C63.5351 49.278 65.738 49.6481 66.7969 51.2711C67.797 52.8059 67.4081 54.2014 66.9407 56.1266C65.8164 60.7342 63.8978 64.9887 61.6982 69.1141ZM24.7869 59.719C22.4019 53.1149 26.4802 43.0202 36.895 43.7401C40.1562 43.971 47.6278 45.7875 48.0919 55.4883C48.4612 63.1008 41.774 70.3093 32.7895 67.3077C29.1652 65.8817 26.2792 63.8546 24.7869 59.719ZM42.614 42.2936C43.8364 39.8523 47.5689 37.1801 49.9254 37.6691C52.2427 38.1512 52.9552 39.5196 51.674 41.5195C50.4451 43.4413 48.9613 45.1831 47.5918 46.9963C45.7125 46.144 44.4574 44.7281 42.9474 43.6993C42.4669 43.37 42.2937 42.932 42.614 42.2936ZM54.6646 43.9268C56.2596 44.4973 57.3578 45.2476 57.3839 47.1355C57.3872 47.4683 58.4233 51.4851 58.5736 51.7465C58.5736 51.7465 57.7859 54.0384 56.5832 56.8396C56.3217 57.4542 55.9328 58.028 55.7824 58.6664C54.56 63.8614 50.0431 64.5948 46.3171 66.4827C47.667 63.875 49.3469 61.583 49.6378 58.5883C49.896 55.9059 50.2359 53.2133 49.1639 50.6667C48.5004 49.0913 48.824 47.9097 49.9189 46.7824C50.3732 46.3138 50.8471 45.8317 51.187 45.2714C52.0336 43.8827 53.0043 43.3292 54.6646 43.9268ZM161.433 79.3547C162.93 79.5313 164.411 79.7757 165.797 80.482C168.418 81.813 171.131 82.9607 173.683 84.4139C175.674 85.548 177.507 85.6329 179.498 84.5837C180.926 83.8299 182.413 83.1949 183.874 82.5091C182.449 87.1201 179.138 89.3509 175.076 90.6309C174.514 90.8075 174.01 90.6615 173.507 90.4578C170.088 89.0894 166.699 87.6463 163.251 86.3731C160.829 85.4801 160.303 83.2357 159.58 81.1747C159.155 79.9591 160.025 79.1917 161.433 79.3547ZM188.653 78.7707C189.587 76.8557 190.872 75.1953 191.803 73.2973C192.607 71.6539 193.908 70.9171 195.693 70.7337C201.197 70.1735 203.596 71.749 206.027 77.1918C208.149 81.9386 208.995 85.4054 209.972 90.4544C210.505 93.2216 211.064 97.6051 211.022 100.42C211.28 111.116 209.502 126.68 208.155 130.714C207.472 132.758 207.381 134.68 203.459 134.021C201.314 134.133 201.295 131.155 201.406 130.239C201.801 127.016 203.681 112.368 203.674 108.219C203.671 105.785 202.491 104.226 200.752 104.022C198.902 103.809 197.278 105.177 196.673 107.425C195.392 112.185 192.601 128.082 191.303 130.952C190.496 132.734 189.699 134.361 185.91 133.997C183.191 133.919 184.002 128.405 184.289 126.996C186.064 118.351 187.532 109.632 189.708 101.072C190.143 99.3538 190.427 97.5304 190.401 95.7614C190.365 93.5306 191.333 91.928 192.64 90.3763C193.99 88.7736 195.376 87.1914 196.369 85.3035C196.585 84.8994 196.745 84.4071 196.333 84.0812C195.755 83.6262 195.32 84.037 195.042 84.5463C193.111 88.0979 190.483 90.7022 188.218 93.9822C187.27 95.3506 185.508 96.393 183.956 96.9736C179.678 98.5762 175.318 99.8393 170.725 99.9446C169.98 99.9616 169.17 100.199 168.496 99.931C167.215 99.4149 166.352 98.0873 166.218 96.6816C166.078 95.1978 167.457 94.4881 168.408 94.1758C170.451 93.5069 172.517 93.3846 174.631 92.9161C178.106 92.1419 181.207 90.305 183.583 87.3577C185.688 84.7467 187.192 81.7587 188.653 78.7707ZM187.11 67.7627C182.335 65.4301 180.508 60.6934 181.413 54.9925C182.178 50.1676 186.871 46.358 191.816 46.0456C198.347 45.3122 203.896 50.1812 204.501 57.9431C204.874 61.2639 203.096 64.7578 200.756 66.9716C199.52 68.143 193.477 71.5384 187.11 67.7627ZM166.153 91.0486C165.689 90.0911 164.012 90.125 163.048 88.4782C165.849 89.3033 169.251 90.709 172.111 91.6292C170.199 92.3932 167.346 93.5103 166.153 91.0486ZM164.061 107.058C164.767 105.547 165.591 104.087 166.189 102.532C166.64 101.354 167.264 101.588 168.411 101.761C176.756 101.547 181.027 100.956 186.688 97.4489C187.175 97.1434 187.672 96.5152 188.499 97.2215C187.228 106.25 185.054 115.16 183.103 124.113C182.531 126.741 182.132 128.673 181.92 131.352C181.707 133.994 183.688 135.895 188.852 135.814C191.042 135.736 192.532 133.8 193.17 131.777C194.212 128.463 194.931 125.081 195.611 121.679C196.438 117.506 196.981 113.272 198.164 109.18C198.543 107.873 198.775 106.246 200.468 106.474C202.288 106.718 201.841 108.532 201.847 109.757C201.867 112.671 199.474 127.03 199.419 131.441C199.386 134.12 200.001 135.61 204.178 136.119C207.658 136.221 208.789 134.985 209.116 134.021C211.868 125.889 212.747 110.124 212.777 104.179C212.809 97.0754 211.862 90.0503 210.067 83.1882C208.639 77.7181 206.632 72.316 201.648 68.6218C205.55 65.9598 206.619 62.1637 206.498 57.5697C206.374 52.8025 203.344 45.7366 196.523 44.2426C189.022 42.7724 181.354 47.0099 179.877 52.4527C178.246 58.4525 179.155 68.9647 189.185 70.53C190.826 71.0936 190.934 70.9069 190.176 72.5265C187.885 77.4057 184.221 80.6789 179.387 82.6449C177.481 83.4224 175.736 83.582 173.811 82.5125C171.252 81.0898 168.595 79.8233 165.882 78.7469C163.574 77.8302 161.097 76.343 158.848 79.0559C158.596 79.3615 158.074 79.572 157.685 79.1985C157.113 78.6451 157.547 78.0882 157.933 77.7962C159.466 76.6282 158.878 75.5145 158.26 74.0341C156.25 69.2363 152.04 67.4164 147.974 65.3316C146.53 64.5914 145.278 64.4997 144.359 66.1261C143.8 67.121 143.003 67.6133 141.931 67.2398C138.842 66.1635 135.708 67.2229 132.606 66.9546C131.678 66.8731 130.727 67.6099 129.563 66.7C131.57 63.5762 131.799 59.8412 132.622 56.2794C132.949 54.8635 133.067 53.3967 133.449 52.0045C134.384 48.6023 133.972 47.2815 130.688 46.0456C129.011 45.414 128.547 44.3818 128.387 42.8539C128.001 39.1732 127.635 35.4926 127.226 31.8153C127.141 31.0751 127.213 30.4538 127.893 30.1108C130.746 28.6882 130.612 26.2095 129.158 23.3743C128.194 21.4966 122.497 14.2949 119.542 11.6125C117.375 10.7162 115.019 11.9113 113.394 13.4189C112.355 14.3866 111.695 14.3221 110.656 13.5513C106.296 10.3223 101.203 9.50059 96.0491 8.92337C95.6896 8.42764 95.8595 7.85041 95.8072 7.30375C95.5817 5.04919 95.1764 4.0034 92.9474 4C92.4081 4 91.859 4.2241 91.3328 4.32936C86.7766 5.23933 82.2009 6.98118 77.6741 8.04056C73.3141 9.05919 73.1409 8.99128 74.409 13.4631C74.7522 14.6752 74.8568 15.7482 73.8697 16.5088C71.925 17.9993 70.4641 19.9381 68.9541 21.843C68.3657 22.59 67.6925 23.0246 66.7119 22.4372C66.1596 22.1044 65.5222 21.8939 64.898 21.7207C60.721 20.5663 58.7109 21.6698 57.0865 25.8258C55.7105 29.3469 54.1188 32.7729 53.1056 36.389C52.1218 36.7115 51.3374 36.1615 50.4974 36.0596C47.8696 35.7371 45.5556 36.3414 43.6501 38.3108C42.882 39.0985 42.0453 39.8489 41.4309 40.7555C40.5582 42.0492 39.6038 42.2665 38.1089 41.9643C32.2359 40.7827 26.191 44.0491 23.9743 48.5786C20.9135 54.8295 21.8188 62.802 28.5001 67.4809C29.0034 67.8306 29.7509 67.98 29.6852 69.0768C27.3944 70.6998 25.8383 73.1173 24.812 75.8676C22.6127 81.7587 21.2482 87.901 20.5304 94.1452C19.5577 102.61 18.8214 111.109 18.1468 119.604C17.819 123.733 17.6513 127.889 18.101 132.038C18.405 134.839 19.8673 137.23 25.0692 136.853C27.4052 136.557 29.2597 134.924 29.494 132.486C29.7944 129.363 30.3373 126.273 30.4043 123.115C30.5213 117.621 30.737 112.127 32.1342 106.763C32.5271 105.252 33.0621 104.403 34.7244 104.454C36.5175 104.511 36.7374 105.662 36.9711 107.106C37.6595 111.346 37.3829 115.618 37.4271 119.879C37.4722 124.249 37.2509 128.636 38.0798 132.958C38.691 136.147 40.2379 137.498 45.4477 136.836C47.6441 136.608 48.9776 133.576 49.1083 131.868C49.7424 123.556 49.1476 115.727 49.1606 107.656C49.177 99.9106 49.2358 92.1725 49.7751 84.4411C49.8862 82.8316 50.5562 81.7723 51.491 80.6246C54.7038 76.6825 59.2633 74.5977 63.0056 71.4026C63.8913 70.6454 64.3816 71.3279 64.8784 71.8746C67.2022 74.4313 70.0522 76.2445 72.8402 78.1731C74.3829 79.2393 75.6314 79.2766 76.8244 77.8438C77.867 76.5976 78.9423 76.7029 80.2921 77.3005C84.0835 78.9812 88.0252 80.156 92.1695 80.3666C93.405 80.4311 93.9475 80.937 93.8789 82.2103C93.8462 82.7705 93.8658 83.3342 93.9083 83.8944C94.1011 86.604 95.8203 88.0572 98.2618 87.2491C99.8241 86.7296 101.426 86.5734 102.975 86.1592C106.103 85.3205 109.185 84.3053 111.986 82.5091C113.483 81.5482 113.823 80.4345 113.14 78.8556C112.966 78.4447 112.809 78.0237 112.607 77.6264C112.368 77.1647 112.443 76.7368 112.793 76.4279C113.126 76.1358 113.558 76.0374 114.006 76.2072C115.869 76.9032 116.382 78.5296 115.241 80.3258C113.46 83.1406 111.643 85.9215 111.031 89.3305C110.79 90.6819 109.884 91.4153 108.632 91.7616C107.417 92.0978 106.881 92.7633 107.207 94.2233C108.332 99.2655 109.881 104.131 112.244 108.701C112.796 109.768 113.519 110.246 114.584 109.51C116.039 108.504 116.774 109.173 117.663 110.494C119.699 113.509 122.412 115.767 125.926 116.589C127.416 116.939 127.753 117.523 127.795 119.034C127.88 122.045 128.269 122.147 131.155 122.979C135.427 124.212 139.493 123.882 143.601 122.871C145.075 122.504 145.899 120.976 145.876 119.397C145.86 118.361 146.19 117.577 147.186 117.377C151.151 116.575 153.805 113.71 156.511 110.98C157.672 109.812 158.832 108.929 160.489 109.234C162.319 109.574 163.332 108.617 164.061 107.058Z" fill="black"/>
<path fill-rule="evenodd" clip-rule="evenodd" d="M216.888 83.6632C216.8 84.0774 216.748 84.5596 217.29 84.7667C217.388 84.7769 217.558 84.8346 217.581 84.7939C219.13 82.3254 219.686 79.5921 218.833 76.8078C217.781 73.3649 215.875 70.3633 213.414 67.7998C212.845 67.209 211.852 67.8779 211.868 68.7573C211.891 69.8472 212.554 70.5908 213.195 71.3616C216.137 74.903 217.892 78.8349 216.888 83.6632Z" fill="black"/>
<path fill-rule="evenodd" clip-rule="evenodd" d="M51.5694 136.442C55.7693 136.252 59.9463 137.063 64.1495 136.741C65.0875 136.666 66.1138 136.989 67.127 135.59C65.3326 135.512 63.8815 135.07 62.4139 134.877C58.8906 134.418 55.3411 134.191 51.808 133.817C50.8504 133.715 50.3993 134.031 50.3111 135.026C50.2228 136.028 50.5693 136.489 51.5694 136.442Z" fill="black"/>
<path fill-rule="evenodd" clip-rule="evenodd" d="M13.5089 58.232C13.8504 56.6055 14.1956 54.9418 15.0846 53.4885C15.4108 52.9521 15.9334 52.2662 15.0153 51.8519C14.3227 51.5362 13.7756 51.9742 13.4478 52.6431C12.4646 54.6532 11.7427 56.7448 11.3642 58.9823C10.5438 63.8378 12.6303 67.3351 16.3472 70.8867C16.389 68.9819 15.6288 68.2247 15.0915 67.5083C12.9605 64.6731 12.8193 61.5153 13.5089 58.232Z" fill="black"/>
<path fill-rule="evenodd" clip-rule="evenodd" d="M181.096 134.449C179.704 133.518 178.455 133.726 177.315 133.58C173.049 133.026 168.761 132.663 164.45 132.816C163.62 132.843 162.868 133.029 162.94 134.062C162.999 134.955 163.803 134.951 164.427 134.921C169.863 134.669 175.331 135.997 181.096 134.449Z" fill="black"/>
<path fill-rule="evenodd" clip-rule="evenodd" d="M0.920469 133.885C0.50669 133.78 0.115789 134.099 0.0223127 134.625C-0.0652804 135.121 0.106637 135.542 0.509631 135.743C0.982895 135.98 1.50551 136.181 2.02323 136.238C6.80882 136.771 11.5398 135.63 16.3395 135.671C14.8507 134.415 13.158 134.201 11.4859 134.031C7.974 133.675 4.43857 134.799 0.920469 133.885Z" fill="black"/>
<path fill-rule="evenodd" clip-rule="evenodd" d="M148.2 55.7528C147.798 55.8038 147.353 55.9124 147.246 56.4693C147.144 56.982 147.396 57.3419 147.742 57.5966C148.089 57.8478 148.484 58.0685 148.886 58.1772C152.544 59.1652 155.881 60.8562 158.93 63.2771C159.531 62.5403 159.437 62.1159 159.224 61.7152C157.91 59.1924 150.939 55.4133 148.2 55.7528Z" fill="black"/>
<path fill-rule="evenodd" clip-rule="evenodd" d="M211.836 133.586C211.267 133.61 210.845 134.055 210.842 134.68C210.839 135.406 211.427 135.549 211.956 135.552C214.545 135.566 217.196 135.973 220 134.408C217.101 133.08 214.447 133.488 211.836 133.586Z" fill="black"/>
<path fill-rule="evenodd" clip-rule="evenodd" d="M85.4631 41.0167C86.6397 36.8403 92.33 33.3464 96.471 34.0357C102.103 34.9694 104.018 38.9421 104.26 44.2831C104.178 46.7584 102.152 49.1182 99.5074 50.714C94.0296 54.0212 88.1072 50.8397 85.6167 46.867C84.4433 44.9927 84.9205 42.9453 85.4631 41.0167ZM102.658 50.6801C104.024 49.288 105.564 47.94 106.012 45.828C107.204 40.2188 103.9 34.3107 98.5922 32.5417C91.1011 30.0427 82.8418 35.8421 82.8157 43.7398C82.8745 44.8298 82.7111 46.0589 83.2896 47.2337C86.8652 54.5203 96.3044 57.1518 102.658 50.6801Z" fill="black"/>
<path fill-rule="evenodd" clip-rule="evenodd" d="M137.555 88.451C141.192 88.434 142.264 89.945 142.389 91.8668C142.536 94.1859 140.516 96.6102 138.365 96.6917C136.26 96.7766 134.244 94.9974 134.142 93.2216C134.012 90.9093 135.744 88.6004 137.555 88.451ZM137.662 98.2434C140.803 98.4879 143.859 95.7885 144.098 92.5561C144.343 89.2116 142.794 87.0385 138.022 86.7533C135.237 86.5869 132.253 89.2353 132.158 92.7055C132.087 95.3878 134.695 98.0091 137.662 98.2434Z" fill="black"/>
</svg>
