<svg width="220" height="141" viewBox="0 0 220 141" fill="none" xmlns="http://www.w3.org/2000/svg">
<circle cx="110" cy="70" r="50" fill="#707986"/>
<path fill-rule="evenodd" clip-rule="evenodd" d="M125.5 77.7255C124.506 77.7709 120.39 78.9239 119.396 78.9693C117.988 79.0341 117.89 76.5573 119.292 76.4928C120.286 76.4474 122.792 76.54 123.786 76.4942C125.194 76.4298 126.902 77.661 125.5 77.7255ZM154.917 74.6711C145.902 75.1686 127.429 75.5508 127.426 75.5165C124.848 75.5165 122.27 75.3368 119.692 75.2758C117.154 75.2158 116.459 76.0964 116.554 78.6834C116.564 78.9822 116.593 79.2606 116.629 79.5254C119.582 80.459 122.714 80.8591 125.771 81.0813C128.935 81.3112 132.11 81.1854 135.274 80.986C142.379 80.538 149.428 79.1189 156.025 76.2911C156.618 76.0367 157.204 75.7766 157.791 75.5131C157.814 75.5389 157.83 75.5688 157.85 75.5959C157.289 74.8305 156.367 74.5911 154.917 74.6711Z" fill="#F4C653"/>
<path fill-rule="evenodd" clip-rule="evenodd" d="M117.18 81.2291C117.131 81.15 117.089 81.0665 117.046 80.981C117.089 81.0665 117.131 81.15 117.18 81.2291Z" fill="#F4C653"/>
<path fill-rule="evenodd" clip-rule="evenodd" d="M158.423 77.0759C158.433 77.13 158.443 77.1831 158.453 77.2392C158.443 77.1831 158.433 77.1297 158.423 77.0759Z" fill="#F4C653"/>
<path fill-rule="evenodd" clip-rule="evenodd" d="M120.029 82.7099C119.976 82.7072 119.931 82.7015 119.878 82.6978C119.931 82.7015 119.976 82.7072 120.029 82.7099Z" fill="#F4C653"/>
<path fill-rule="evenodd" clip-rule="evenodd" d="M158.495 77.5273C158.502 77.5767 158.509 77.6237 158.516 77.6748C158.509 77.6237 158.502 77.5767 158.495 77.5273Z" fill="#F4C653"/>
<path fill-rule="evenodd" clip-rule="evenodd" d="M119.605 82.6709C119.546 82.6635 119.491 82.6537 119.435 82.6445C119.491 82.6537 119.546 82.6635 119.605 82.6709Z" fill="#F4C653"/>
<path fill-rule="evenodd" clip-rule="evenodd" d="M158.104 76.0249C158.124 76.0678 158.143 76.1138 158.163 76.1595C158.143 76.1138 158.124 76.0678 158.104 76.0249Z" fill="#F4C653"/>
<path fill-rule="evenodd" clip-rule="evenodd" d="M158.335 76.6826C158.349 76.735 158.362 76.7878 158.375 76.8425C158.362 76.7878 158.349 76.735 158.335 76.6826Z" fill="#F4C653"/>
<path fill-rule="evenodd" clip-rule="evenodd" d="M119.214 82.6039C119.155 82.5913 119.096 82.5768 119.041 82.5623C119.096 82.5768 119.155 82.5913 119.214 82.6039Z" fill="#F4C653"/>
<path fill-rule="evenodd" clip-rule="evenodd" d="M157.957 75.7517C157.98 75.7882 158.003 75.8288 158.023 75.8677C158.003 75.8288 157.98 75.7882 157.957 75.7517Z" fill="#F4C653"/>
<path fill-rule="evenodd" clip-rule="evenodd" d="M158.228 76.3347C158.247 76.3827 158.264 76.4328 158.277 76.4835C158.264 76.4328 158.247 76.3827 158.228 76.3347Z" fill="#F4C653"/>
<path fill-rule="evenodd" clip-rule="evenodd" d="M117.02 80.9279C116.981 80.8437 116.945 80.7558 116.909 80.6655C116.945 80.7558 116.981 80.8441 117.02 80.9279Z" fill="#F4C653"/>
<path fill-rule="evenodd" clip-rule="evenodd" d="M118.852 82.51C118.793 82.4917 118.735 82.4724 118.679 82.4521C118.735 82.4724 118.793 82.4917 118.852 82.51Z" fill="#F4C653"/>
<path fill-rule="evenodd" clip-rule="evenodd" d="M117.193 81.25C117.349 81.5053 117.535 81.7271 117.753 81.9153C117.535 81.7268 117.349 81.5057 117.193 81.25Z" fill="#F4C653"/>
<path fill-rule="evenodd" clip-rule="evenodd" d="M116.776 80.252C116.746 80.1496 116.724 80.0444 116.701 79.9355C116.724 80.0444 116.746 80.1496 116.776 80.252Z" fill="#F4C653"/>
<path fill-rule="evenodd" clip-rule="evenodd" d="M116.691 79.8876C116.668 79.7702 116.645 79.6502 116.629 79.5254C116.645 79.6502 116.668 79.7702 116.691 79.8876Z" fill="#F4C653"/>
<path fill-rule="evenodd" clip-rule="evenodd" d="M116.887 80.6012C116.851 80.5092 116.821 80.4142 116.792 80.3162C116.821 80.4142 116.851 80.5096 116.887 80.6012Z" fill="#F4C653"/>
<path fill-rule="evenodd" clip-rule="evenodd" d="M118.52 82.3882C118.464 82.3639 118.405 82.3392 118.353 82.3125C118.405 82.3392 118.464 82.3639 118.52 82.3882Z" fill="#F4C653"/>
<path fill-rule="evenodd" clip-rule="evenodd" d="M117.956 82.0735C117.897 82.033 117.842 81.9927 117.786 81.9478C117.842 81.9927 117.897 82.033 117.956 82.0735Z" fill="#F4C653"/>
<path fill-rule="evenodd" clip-rule="evenodd" d="M118.22 82.241C118.165 82.2099 118.109 82.1788 118.057 82.1443C118.109 82.1788 118.165 82.2099 118.22 82.241Z" fill="#F4C653"/>
<path fill-rule="evenodd" clip-rule="evenodd" d="M131.81 55.0411C131.708 55.0404 131.607 55.0404 131.503 55.04C131.607 55.0404 131.708 55.0404 131.81 55.0411Z" fill="#FFD880"/>
<path fill-rule="evenodd" clip-rule="evenodd" d="M155.181 51.8501C155.22 51.8653 155.259 51.8805 155.302 51.8957C155.259 51.8805 155.22 51.8653 155.181 51.8501Z" fill="#FFD880"/>
<path fill-rule="evenodd" clip-rule="evenodd" d="M154.708 51.6858C154.764 51.7041 154.819 51.7226 154.875 51.7412C154.819 51.7226 154.764 51.7041 154.708 51.6858Z" fill="#FFD880"/>
<path fill-rule="evenodd" clip-rule="evenodd" d="M155.969 52.1855C155.996 52.1981 156.018 52.2102 156.045 52.2227C156.018 52.2102 155.996 52.1981 155.969 52.1855Z" fill="#FFD880"/>
<path fill-rule="evenodd" clip-rule="evenodd" d="M155.572 52.0063C155.601 52.0185 155.631 52.0304 155.66 52.0425C155.631 52.0304 155.601 52.0185 155.572 52.0063Z" fill="#FFD880"/>
<path fill-rule="evenodd" clip-rule="evenodd" d="M154.18 51.5254C154.252 51.5457 154.324 51.5666 154.396 51.5879C154.327 51.5666 154.252 51.546 154.18 51.5254Z" fill="#FFD880"/>
<path fill-rule="evenodd" clip-rule="evenodd" d="M153.6 51.3713C153.74 51.4052 153.873 51.4403 154.004 51.4762C153.873 51.4403 153.74 51.4052 153.6 51.3713Z" fill="#FFD880"/>
<path fill-rule="evenodd" clip-rule="evenodd" d="M122.633 55.0559C122.558 55.0545 122.479 55.0525 122.401 55.0498C122.479 55.0525 122.558 55.0545 122.633 55.0559Z" fill="#FFD880"/>
<path fill-rule="evenodd" clip-rule="evenodd" d="M156.331 52.3779C156.351 52.3874 156.367 52.3975 156.384 52.4073C156.367 52.3975 156.351 52.3874 156.331 52.3779Z" fill="#FFD880"/>
<path fill-rule="evenodd" clip-rule="evenodd" d="M120.488 53.4677C120.546 53.1964 126.647 51.8888 126.794 52.1221C126.954 52.3802 124.636 54.1411 122.293 54.1405C121.355 54.1401 120.426 53.7586 120.488 53.4677ZM121.055 54.9374C120.334 54.8346 119.64 54.6532 119.174 54.3429C120.686 54.742 122.212 54.9631 123.75 55.0537C125.073 55.0421 126.4 55.0364 127.723 55.0343C131.239 54.8194 134.789 54.1588 138.318 53.625C142.917 53.0234 147.496 52.5378 152 51.2984C152.189 51.2469 152.375 51.1923 152.564 51.1384C152.88 51.2018 153.183 51.2693 153.476 51.3401C143.49 48.9176 119.213 50.9356 118.588 53.2832C118.513 54.3002 119.738 54.7505 121.055 54.9374Z" fill="#FFD880"/>
<path fill-rule="evenodd" clip-rule="evenodd" d="M121.586 54.9996C121.41 54.9831 121.231 54.9628 121.055 54.9377C121.231 54.9628 121.41 54.9831 121.586 54.9996Z" fill="#FFD880"/>
<path fill-rule="evenodd" clip-rule="evenodd" d="M122.12 55.0379C121.951 55.0291 121.781 55.0173 121.609 55.0017C121.781 55.0173 121.951 55.0291 122.12 55.0379Z" fill="#FFD880"/>
<path fill-rule="evenodd" clip-rule="evenodd" d="M122.851 55.0587C122.789 55.0583 122.73 55.0577 122.668 55.0566C122.73 55.0577 122.789 55.0583 122.851 55.0587Z" fill="#FFD880"/>
<path fill-rule="evenodd" clip-rule="evenodd" d="M123.105 55.0583C123.04 55.059 122.971 55.059 122.902 55.059C122.971 55.059 123.04 55.059 123.105 55.0583Z" fill="#FFD880"/>
<path fill-rule="evenodd" clip-rule="evenodd" d="M122.369 55.0487C122.297 55.046 122.225 55.0429 122.153 55.0396C122.225 55.0429 122.297 55.046 122.369 55.0487Z" fill="#FFD880"/>
<path fill-rule="evenodd" clip-rule="evenodd" d="M131.112 108.086C131.096 108.034 131.083 107.982 131.07 107.928C131.083 107.982 131.096 108.034 131.112 108.086Z" fill="#BFB897"/>
<path fill-rule="evenodd" clip-rule="evenodd" d="M148.594 101.262C148.854 101.886 149.057 102.559 149.197 103.269C149.057 102.558 148.854 101.886 148.594 101.262Z" fill="#BFB897"/>
<path fill-rule="evenodd" clip-rule="evenodd" d="M131.256 108.518C131.246 108.488 131.233 108.457 131.22 108.426C131.233 108.457 131.246 108.488 131.256 108.518Z" fill="#BFB897"/>
<path fill-rule="evenodd" clip-rule="evenodd" d="M131.178 108.305C131.164 108.263 131.151 108.221 131.138 108.177C131.151 108.221 131.164 108.263 131.178 108.305Z" fill="#BFB897"/>
<path fill-rule="evenodd" clip-rule="evenodd" d="M132.927 109.418C134.583 110.432 136.323 111.055 138.276 111.052C143.011 111.046 146.677 107.606 148.137 103.134C148.336 102.533 148.483 101.903 148.594 101.261C147.808 99.3996 146.492 97.9672 144.699 97.2479C140.876 95.7131 137.027 96.3137 133.902 98.3965C131.637 99.9055 130.424 105.215 131.07 107.928C131.096 107.944 131.119 107.961 131.145 107.977C131.692 108.495 132.246 109.002 132.927 109.418Z" fill="#BFB897"/>
<path fill-rule="evenodd" clip-rule="evenodd" d="M149.337 104.15C149.347 104.256 149.36 104.362 149.37 104.469C149.36 104.362 149.347 104.256 149.337 104.15Z" fill="#BFB897"/>
<path fill-rule="evenodd" clip-rule="evenodd" d="M149.236 103.478C149.259 103.598 149.279 103.721 149.295 103.844C149.279 103.721 149.259 103.599 149.236 103.478Z" fill="#BFB897"/>
<path fill-rule="evenodd" clip-rule="evenodd" d="M149.399 104.873C149.406 104.958 149.412 105.041 149.416 105.127C149.412 105.041 149.406 104.958 149.399 104.873Z" fill="#BFB897"/>
<path fill-rule="evenodd" clip-rule="evenodd" d="M115.766 91.1449C115.684 91.1449 115.609 91.1425 115.534 91.1384C115.609 91.1425 115.684 91.1449 115.766 91.1449Z" fill="#F4C653"/>
<path fill-rule="evenodd" clip-rule="evenodd" d="M116.091 91.1372C115.997 91.1423 115.902 91.145 115.814 91.1457C115.902 91.145 115.997 91.1423 116.091 91.1372Z" fill="#F4C653"/>
<path fill-rule="evenodd" clip-rule="evenodd" d="M156.328 85.1653C156.36 85.2437 156.387 85.3259 156.413 85.4108C156.387 85.3256 156.36 85.2441 156.328 85.1653Z" fill="#F4C653"/>
<path fill-rule="evenodd" clip-rule="evenodd" d="M116.424 91.1116C116.329 91.1207 116.241 91.1278 116.153 91.1329C116.241 91.1278 116.329 91.1207 116.424 91.1116Z" fill="#F4C653"/>
<path fill-rule="evenodd" clip-rule="evenodd" d="M114.984 91.0612C114.912 91.044 114.843 91.023 114.778 91C114.843 91.023 114.912 91.044 114.984 91.0612Z" fill="#F4C653"/>
<path fill-rule="evenodd" clip-rule="evenodd" d="M156.497 85.7749C156.514 85.8797 156.527 85.9879 156.536 86.1005C156.527 85.9879 156.514 85.8801 156.497 85.7749Z" fill="#F4C653"/>
<path fill-rule="evenodd" clip-rule="evenodd" d="M116.785 91.0703C116.674 91.0849 116.567 91.0977 116.463 91.1082C116.567 91.0977 116.674 91.0849 116.785 91.0703Z" fill="#F4C653"/>
<path fill-rule="evenodd" clip-rule="evenodd" d="M115.206 91.1043C115.134 91.0931 115.062 91.0799 114.993 91.0637C115.062 91.0799 115.134 91.0931 115.206 91.1043Z" fill="#F4C653"/>
<path fill-rule="evenodd" clip-rule="evenodd" d="M117.209 91.0078C117.088 91.0271 116.974 91.044 116.864 91.0595C116.974 91.044 117.088 91.0271 117.209 91.0078Z" fill="#F4C653"/>
<path fill-rule="evenodd" clip-rule="evenodd" d="M115.094 85.7484L120.165 85.9484C121.573 85.9484 121.423 87.1875 120.015 87.1875L115.534 88.017C114.126 88.017 113.689 85.7484 115.094 85.7484ZM113.526 89.5684C117.678 90.1866 121.993 89.9421 126.178 89.7057C129.375 89.5257 132.572 89.5562 135.766 89.3093C139.983 88.9834 144.223 88.4124 148.349 87.4259C151.022 86.7864 153.636 85.921 156.191 84.888C156.24 84.9674 156.279 85.0515 156.318 85.1393C155.907 84.1637 154.936 83.7046 153.199 83.8951C146.436 84.6368 139.635 83.927 132.66 84.6195C127.39 84.398 121.896 85.0556 116.407 84.3919C113.484 84.0386 112.744 84.9352 113.178 87.9773C113.265 88.6162 113.38 89.1418 113.526 89.5684Z" fill="#F4C653"/>
<path fill-rule="evenodd" clip-rule="evenodd" d="M113.621 89.8117C113.589 89.7343 113.556 89.6542 113.526 89.5686C113.556 89.6542 113.589 89.7343 113.621 89.8117Z" fill="#F4C653"/>
<path fill-rule="evenodd" clip-rule="evenodd" d="M114.736 90.9843C114.671 90.9603 114.608 90.9339 114.549 90.9038C114.608 90.9339 114.671 90.9603 114.736 90.9843Z" fill="#F4C653"/>
<path fill-rule="evenodd" clip-rule="evenodd" d="M114.012 90.4776C113.97 90.4259 113.927 90.3708 113.888 90.3123C113.927 90.3708 113.97 90.4259 114.012 90.4776Z" fill="#F4C653"/>
<path fill-rule="evenodd" clip-rule="evenodd" d="M113.862 90.2757C113.826 90.2192 113.79 90.1604 113.754 90.0981C113.79 90.1604 113.826 90.2192 113.862 90.2757Z" fill="#F4C653"/>
<path fill-rule="evenodd" clip-rule="evenodd" d="M113.745 90.0777C113.709 90.0097 113.673 89.9377 113.641 89.8623C113.673 89.9377 113.709 90.0101 113.745 90.0777Z" fill="#F4C653"/>
<path fill-rule="evenodd" clip-rule="evenodd" d="M114.537 90.8965C114.482 90.8674 114.426 90.8353 114.374 90.8008C114.426 90.8353 114.482 90.8677 114.537 90.8965Z" fill="#F4C653"/>
<path fill-rule="evenodd" clip-rule="evenodd" d="M114.342 90.7773C114.286 90.7401 114.237 90.6999 114.188 90.6562C114.237 90.6999 114.286 90.7401 114.342 90.7773Z" fill="#F4C653"/>
<path fill-rule="evenodd" clip-rule="evenodd" d="M115.493 91.1362C115.411 91.1308 115.332 91.1223 115.257 91.1118C115.332 91.1223 115.411 91.1308 115.493 91.1362Z" fill="#F4C653"/>
<path fill-rule="evenodd" clip-rule="evenodd" d="M114.166 90.6347C114.12 90.5942 114.077 90.5509 114.038 90.5049C114.077 90.5509 114.12 90.5942 114.166 90.6347Z" fill="#F4C653"/>
<path fill-rule="evenodd" clip-rule="evenodd" d="M156.426 85.4619C156.448 85.5414 156.468 85.6242 156.484 85.7088C156.468 85.6239 156.448 85.5414 156.426 85.4619Z" fill="#F4C653"/>
<path fill-rule="evenodd" clip-rule="evenodd" d="M167.177 88.7311C167.23 88.7277 167.285 88.7233 167.341 88.7219C167.285 88.7233 167.23 88.7277 167.177 88.7311Z" fill="#AFCBBE"/>
<path fill-rule="evenodd" clip-rule="evenodd" d="M166.861 88.7607C166.926 88.753 166.988 88.7445 167.051 88.7388C166.988 88.7445 166.926 88.753 166.861 88.7607Z" fill="#AFCBBE"/>
<path fill-rule="evenodd" clip-rule="evenodd" d="M166.558 88.808C166.627 88.7951 166.699 88.7826 166.767 88.7725C166.699 88.7826 166.627 88.7951 166.558 88.808Z" fill="#AFCBBE"/>
<path fill-rule="evenodd" clip-rule="evenodd" d="M166.261 88.8693C166.337 88.8517 166.415 88.8345 166.491 88.8196C166.415 88.8345 166.337 88.8517 166.261 88.8693Z" fill="#AFCBBE"/>
<path fill-rule="evenodd" clip-rule="evenodd" d="M165.688 89.0272C165.776 88.9998 165.864 88.9738 165.952 88.9495C165.864 88.9738 165.776 88.9998 165.688 89.0272Z" fill="#AFCBBE"/>
<path fill-rule="evenodd" clip-rule="evenodd" d="M149.122 98.9994C149.077 98.9449 149.034 98.8908 148.991 98.8374C149.034 98.8908 149.077 98.9446 149.122 98.9994Z" fill="#AFCBBE"/>
<path fill-rule="evenodd" clip-rule="evenodd" d="M149.439 99.4139C149.383 99.3375 149.324 99.2614 149.268 99.187C149.324 99.2614 149.383 99.3375 149.439 99.4139Z" fill="#AFCBBE"/>
<path fill-rule="evenodd" clip-rule="evenodd" d="M149.833 99.9613C149.738 99.8253 149.644 99.6931 149.549 99.5625C149.644 99.6931 149.738 99.8253 149.833 99.9613Z" fill="#AFCBBE"/>
<path fill-rule="evenodd" clip-rule="evenodd" d="M167.51 88.7219C167.552 88.7222 167.591 88.7209 167.634 88.7225C167.591 88.7209 167.552 88.7222 167.51 88.7219Z" fill="#AFCBBE"/>
<path fill-rule="evenodd" clip-rule="evenodd" d="M102.443 98.0172C102.384 97.9699 102.322 97.9218 102.263 97.8745C102.322 97.9218 102.384 97.9695 102.443 98.0172Z" fill="#AFCBBE"/>
<path fill-rule="evenodd" clip-rule="evenodd" d="M102.003 97.6669C101.944 97.6196 101.882 97.5722 101.823 97.5249C101.882 97.5722 101.944 97.6196 102.003 97.6669Z" fill="#AFCBBE"/>
<path fill-rule="evenodd" clip-rule="evenodd" d="M101.442 97.219C101.38 97.169 101.318 97.1182 101.253 97.0679C101.318 97.1182 101.38 97.169 101.442 97.219Z" fill="#AFCBBE"/>
<path fill-rule="evenodd" clip-rule="evenodd" d="M103.958 99.1991C103.906 99.1606 103.857 99.1224 103.808 99.0835C103.857 99.1224 103.906 99.1606 103.958 99.1991Z" fill="#AFCBBE"/>
<path fill-rule="evenodd" clip-rule="evenodd" d="M96.1587 92.707C97.2472 93.742 98.8083 95.075 100.461 96.4246C100.451 96.4179 100.444 96.4111 100.435 96.404C105.34 97.5376 110.352 98.2087 115.345 98.7109C120.413 99.2206 125.539 99.5871 130.633 99.6716C131.96 97.484 133.772 96.2473 136.177 95.3561C141.167 94.0031 144.771 94.7027 147.691 97.4355C148.271 97.2853 148.851 97.131 149.432 96.9713C152.492 96.1276 155.484 95.037 158.326 93.5697C160.868 92.2574 163.283 90.5961 165.685 89.0281C164.948 89.2597 164.244 89.574 163.524 89.8006C160.646 90.708 157.83 92.0085 154.793 92.1038C146.612 92.3598 138.429 92.5802 130.245 92.5687C127.237 92.5643 124.242 92.5049 121.228 92.6897C117.685 92.9071 100.937 92.2526 96.1587 92.707Z" fill="#AFCBBE"/>
<path fill-rule="evenodd" clip-rule="evenodd" d="M101.012 96.8713C100.947 96.8192 100.881 96.7672 100.816 96.7151C100.881 96.7672 100.947 96.8192 101.012 96.8713Z" fill="#AFCBBE"/>
<path fill-rule="evenodd" clip-rule="evenodd" d="M148.813 98.6218C148.787 98.5913 148.76 98.5616 148.734 98.5315C148.76 98.5616 148.787 98.5913 148.813 98.6218Z" fill="#AFCBBE"/>
<path fill-rule="evenodd" clip-rule="evenodd" d="M103.43 98.7913C103.371 98.7463 103.312 98.7013 103.257 98.656C103.312 98.7013 103.371 98.7463 103.43 98.7913Z" fill="#AFCBBE"/>
<path fill-rule="evenodd" clip-rule="evenodd" d="M102.994 98.4507C102.938 98.4064 102.882 98.3624 102.823 98.3181C102.882 98.3624 102.938 98.4064 102.994 98.4507Z" fill="#AFCBBE"/>
<path fill-rule="evenodd" clip-rule="evenodd" d="M165.971 88.944C166.053 88.9213 166.134 88.8993 166.219 88.8794C166.134 88.8993 166.053 88.9213 165.971 88.944Z" fill="#AFCBBE"/>
<path fill-rule="evenodd" clip-rule="evenodd" d="M107.527 101.843C107.504 101.829 107.484 101.815 107.461 101.8C107.484 101.815 107.504 101.829 107.527 101.843Z" fill="#AFCBBE"/>
<path fill-rule="evenodd" clip-rule="evenodd" d="M108.456 102.448C108.449 102.444 108.445 102.442 108.439 102.438C108.445 102.442 108.449 102.444 108.456 102.448Z" fill="#AFCBBE"/>
<path fill-rule="evenodd" clip-rule="evenodd" d="M108.059 102.201C108.045 102.193 108.032 102.185 108.018 102.177C108.032 102.185 108.045 102.193 108.059 102.201Z" fill="#AFCBBE"/>
<path fill-rule="evenodd" clip-rule="evenodd" d="M107.79 102.026C107.774 102.013 107.751 101.999 107.732 101.986C107.751 101.999 107.774 102.013 107.79 102.026Z" fill="#AFCBBE"/>
<path fill-rule="evenodd" clip-rule="evenodd" d="M108.273 102.338C108.256 102.329 108.24 102.318 108.224 102.308C108.24 102.318 108.256 102.329 108.273 102.338Z" fill="#AFCBBE"/>
<path fill-rule="evenodd" clip-rule="evenodd" d="M130.308 100.255C130.262 100.341 130.216 100.428 130.17 100.518C130.216 100.428 130.262 100.341 130.308 100.255Z" fill="#AFCBBE"/>
<path fill-rule="evenodd" clip-rule="evenodd" d="M130.077 100.709C130.002 100.871 129.923 101.036 129.851 101.207C129.923 101.036 130.002 100.871 130.077 100.709Z" fill="#AFCBBE"/>
<path fill-rule="evenodd" clip-rule="evenodd" d="M108.606 102.528C108.596 102.524 108.586 102.518 108.576 102.513C108.586 102.518 108.596 102.524 108.606 102.528Z" fill="#AFCBBE"/>
<path fill-rule="evenodd" clip-rule="evenodd" d="M106.122 100.837C106.086 100.81 106.05 100.782 106.011 100.755C106.05 100.782 106.086 100.81 106.122 100.837Z" fill="#AFCBBE"/>
<path fill-rule="evenodd" clip-rule="evenodd" d="M105.285 100.213C105.242 100.179 105.196 100.146 105.15 100.111C105.196 100.146 105.242 100.179 105.285 100.213Z" fill="#AFCBBE"/>
<path fill-rule="evenodd" clip-rule="evenodd" d="M104.851 99.8833C104.805 99.8495 104.759 99.816 104.714 99.7815C104.759 99.816 104.805 99.8495 104.851 99.8833Z" fill="#AFCBBE"/>
<path fill-rule="evenodd" clip-rule="evenodd" d="M105.662 100.495C105.639 100.478 105.617 100.461 105.594 100.444C105.617 100.461 105.639 100.478 105.662 100.495Z" fill="#AFCBBE"/>
<path fill-rule="evenodd" clip-rule="evenodd" d="M104.385 99.5288C104.333 99.4876 104.277 99.446 104.222 99.4041C104.277 99.446 104.333 99.4876 104.385 99.5288Z" fill="#AFCBBE"/>
<path fill-rule="evenodd" clip-rule="evenodd" d="M106.872 101.382C106.845 101.362 106.816 101.343 106.79 101.322C106.816 101.343 106.845 101.362 106.872 101.382Z" fill="#AFCBBE"/>
<path fill-rule="evenodd" clip-rule="evenodd" d="M107.184 101.606C107.165 101.591 107.142 101.574 107.119 101.559C107.142 101.574 107.165 101.591 107.184 101.606Z" fill="#AFCBBE"/>
<path fill-rule="evenodd" clip-rule="evenodd" d="M106.47 101.092C106.444 101.074 106.418 101.055 106.395 101.037C106.418 101.055 106.444 101.074 106.47 101.092Z" fill="#AFCBBE"/>
<path fill-rule="evenodd" clip-rule="evenodd" d="M153.893 66.1328C153.9 66.1362 153.903 66.1396 153.91 66.143C153.903 66.1396 153.9 66.1362 153.893 66.1328Z" fill="#F4C653"/>
<path fill-rule="evenodd" clip-rule="evenodd" d="M153.509 65.9695C153.522 65.9728 153.535 65.9768 153.549 65.9807C153.535 65.9768 153.522 65.9728 153.509 65.9695Z" fill="#F4C653"/>
<path fill-rule="evenodd" clip-rule="evenodd" d="M153.704 66.0361C153.717 66.0408 153.727 66.0457 153.738 66.0504C153.727 66.0457 153.717 66.0408 153.704 66.0361Z" fill="#F4C653"/>
<path fill-rule="evenodd" clip-rule="evenodd" d="M153.303 65.9272C153.317 65.9296 153.333 65.9315 153.35 65.9339C153.333 65.9315 153.317 65.9296 153.303 65.9272Z" fill="#F4C653"/>
<path fill-rule="evenodd" clip-rule="evenodd" d="M112.78 71.3965C112.725 71.3326 112.672 71.266 112.623 71.198C112.672 71.266 112.725 71.3326 112.78 71.3965Z" fill="#F4C653"/>
<path fill-rule="evenodd" clip-rule="evenodd" d="M113.462 72.0033C113.387 71.9546 113.315 71.9025 113.246 71.8474C113.315 71.9025 113.387 71.9546 113.462 72.0033Z" fill="#F4C653"/>
<path fill-rule="evenodd" clip-rule="evenodd" d="M113.7 72.1434C113.634 72.1096 113.572 72.0731 113.51 72.0342C113.572 72.0731 113.634 72.1096 113.7 72.1434Z" fill="#F4C653"/>
<path fill-rule="evenodd" clip-rule="evenodd" d="M113.204 71.812C113.146 71.7643 113.09 71.7149 113.034 71.6628C113.09 71.7149 113.146 71.7643 113.204 71.812Z" fill="#F4C653"/>
<path fill-rule="evenodd" clip-rule="evenodd" d="M114 72.2819C113.918 72.2505 113.836 72.2143 113.758 72.175C113.836 72.2143 113.918 72.2505 114 72.2819Z" fill="#F4C653"/>
<path fill-rule="evenodd" clip-rule="evenodd" d="M112.986 71.6174C112.92 71.5535 112.858 71.4875 112.799 71.4182C112.858 71.4875 112.92 71.5535 112.986 71.6174Z" fill="#F4C653"/>
<path fill-rule="evenodd" clip-rule="evenodd" d="M114.257 72.3646C114.185 72.3447 114.11 72.3217 114.038 72.2957C114.11 72.3217 114.185 72.3447 114.257 72.3646Z" fill="#F4C653"/>
<path fill-rule="evenodd" clip-rule="evenodd" d="M111.923 69.718C111.897 69.6216 111.874 69.5242 111.858 69.4265C111.874 69.5246 111.897 69.6216 111.923 69.718Z" fill="#F4C653"/>
<path fill-rule="evenodd" clip-rule="evenodd" d="M112.011 70.0112C111.982 69.9294 111.959 69.8469 111.936 69.7637C111.959 69.8469 111.982 69.9294 112.011 70.0112Z" fill="#F4C653"/>
<path fill-rule="evenodd" clip-rule="evenodd" d="M112.132 70.3364C112.093 70.2461 112.06 70.1541 112.027 70.0608C112.06 70.1541 112.093 70.2461 112.132 70.3364Z" fill="#F4C653"/>
<path fill-rule="evenodd" clip-rule="evenodd" d="M111.851 69.3935C111.835 69.3055 111.822 69.2166 111.809 69.1277C111.822 69.2166 111.835 69.3052 111.851 69.3935Z" fill="#F4C653"/>
<path fill-rule="evenodd" clip-rule="evenodd" d="M154.053 66.2498C154.06 66.2552 154.066 66.2599 154.073 66.2656C154.066 66.2599 154.06 66.2552 154.053 66.2498Z" fill="#F4C653"/>
<path fill-rule="evenodd" clip-rule="evenodd" d="M112.256 70.6014C112.216 70.524 112.18 70.4452 112.144 70.3647C112.18 70.4452 112.216 70.524 112.256 70.6014Z" fill="#F4C653"/>
<path fill-rule="evenodd" clip-rule="evenodd" d="M112.584 71.1442C112.474 70.991 112.373 70.8282 112.285 70.658C112.373 70.8282 112.474 70.991 112.584 71.1442Z" fill="#F4C653"/>
<path fill-rule="evenodd" clip-rule="evenodd" d="M114.595 72.4342C114.504 72.4224 114.416 72.4041 114.328 72.3828C114.416 72.4041 114.504 72.4224 114.595 72.4342Z" fill="#F4C653"/>
<path fill-rule="evenodd" clip-rule="evenodd" d="M154.209 66.405C154.216 66.414 154.226 66.4226 154.233 66.4322C154.226 66.4226 154.216 66.414 154.209 66.405Z" fill="#F4C653"/>
<path fill-rule="evenodd" clip-rule="evenodd" d="M154.49 66.8484C154.493 66.8583 154.5 66.8692 154.503 66.8795C154.5 66.8692 154.493 66.8583 154.49 66.8484Z" fill="#F4C653"/>
<path fill-rule="evenodd" clip-rule="evenodd" d="M114.452 66.5313C115.449 66.4781 117.496 66.9474 118.49 67.039C119.08 67.0932 121.726 66.768 121.726 67.4283C121.726 68.0037 115.094 69.2771 114.097 69.3303C112.689 69.4056 113.054 66.6059 114.452 66.5313ZM123.336 71.1076C126.902 71.3914 130.565 71.4104 134.133 71.1489C140.795 70.661 147.134 68.7827 153.137 65.9084C152.652 65.8721 152.117 65.9711 151.618 65.9911C139.263 66.4811 126.908 66.8386 114.579 65.5578C113.399 65.4357 112.685 65.9433 112.197 66.8494C111.835 67.5219 111.721 68.3076 111.802 69.0743C111.792 68.9743 111.786 68.8735 111.779 68.7728C115.459 70.23 119.432 70.7966 123.336 71.1076Z" fill="#F4C653"/>
<path fill-rule="evenodd" clip-rule="evenodd" d="M154.356 66.6033C154.363 66.6145 154.369 66.6258 154.376 66.6374C154.369 66.6258 154.363 66.6145 154.356 66.6033Z" fill="#F4C653"/>
<path fill-rule="evenodd" clip-rule="evenodd" d="M155.84 63.002C155.774 63.0473 155.712 63.0939 155.647 63.1365C155.712 63.0939 155.774 63.0473 155.84 63.002Z" fill="#F4C653"/>
<path fill-rule="evenodd" clip-rule="evenodd" d="M156.276 62.6587C156.214 62.7145 156.149 62.7706 156.083 62.8237C156.149 62.7706 156.214 62.7145 156.276 62.6587Z" fill="#F4C653"/>
<path fill-rule="evenodd" clip-rule="evenodd" d="M119.295 62.9983C120.204 64.2693 121.384 63.881 122.489 64.1587C121.384 63.881 120.204 64.2693 119.295 62.9983Z" fill="#F4C653"/>
<path fill-rule="evenodd" clip-rule="evenodd" d="M155.338 63.3193C155.279 63.3515 155.223 63.3859 155.164 63.4164C155.223 63.3859 155.279 63.3515 155.338 63.3193Z" fill="#F4C653"/>
<path fill-rule="evenodd" clip-rule="evenodd" d="M156.664 62.2842C156.602 62.3498 156.54 62.415 156.474 62.4776C156.54 62.415 156.602 62.3498 156.664 62.2842Z" fill="#F4C653"/>
<path fill-rule="evenodd" clip-rule="evenodd" d="M157.3 61.4375C157.247 61.5258 157.192 61.6116 157.133 61.6962C157.192 61.6116 157.247 61.5258 157.3 61.4375Z" fill="#F4C653"/>
<path fill-rule="evenodd" clip-rule="evenodd" d="M157.554 60.9661C157.505 61.0692 157.452 61.1686 157.397 61.267C157.452 61.1686 157.505 61.0689 157.554 60.9661Z" fill="#F4C653"/>
<path fill-rule="evenodd" clip-rule="evenodd" d="M157.769 60.4644C157.723 60.5871 157.671 60.7055 157.618 60.8228C157.671 60.7055 157.723 60.5871 157.769 60.4644Z" fill="#F4C653"/>
<path fill-rule="evenodd" clip-rule="evenodd" d="M120.002 58.1238H123.786C124.399 58.1238 126.765 58.0098 126.794 58.626C126.82 59.2398 120.328 60.3975 120.328 60.3975C119.715 60.3975 119.318 59.41 119.292 58.7942C119.266 58.1801 119.432 58.1238 120.002 58.1238ZM119.292 62.9947C121.69 63.0642 124.092 63.072 126.501 63.2799C130.223 63.6003 133.889 63.7136 137.604 63.249C144.774 62.3524 151.993 60.3351 158.172 56.357C158.313 57.8986 158.195 59.2496 157.794 60.3822C158.283 59.0004 158.358 57.2943 158.042 55.3123C155.852 55.6731 153.639 56.2173 151.403 56.375C140.665 57.1322 129.916 57.5103 119.174 56.4706C118.04 56.3608 117.476 56.7121 117.408 57.7765C117.278 59.7864 118.164 61.4029 119.288 62.9883C119.288 62.9906 119.292 62.9923 119.292 62.9947Z" fill="#F4C653"/>
<path fill-rule="evenodd" clip-rule="evenodd" d="M157.003 61.8765C156.947 61.9529 156.885 62.0279 156.826 62.101C156.885 62.0279 156.947 61.9529 157.003 61.8765Z" fill="#F4C653"/>
<path fill-rule="evenodd" clip-rule="evenodd" d="M156.025 76.2908C149.428 79.1187 142.379 80.5378 135.274 80.9858C132.11 81.1852 128.935 81.311 125.771 81.0811C122.714 80.8589 119.582 80.4588 116.629 79.5252C116.645 79.65 116.668 79.7701 116.691 79.8874C116.694 79.9033 116.697 79.9196 116.701 79.9356C116.724 80.0448 116.746 80.1502 116.776 80.253C116.782 80.274 116.789 80.2954 116.792 80.316C116.821 80.4144 116.851 80.5097 116.886 80.6019C116.893 80.6236 116.903 80.6443 116.909 80.6653C116.945 80.7559 116.981 80.844 117.02 80.9285C117.027 80.9464 117.036 80.9631 117.046 80.9807C117.089 81.0665 117.131 81.1502 117.18 81.2296C117.183 81.2367 117.186 81.2428 117.193 81.2499C117.349 81.5056 117.535 81.7267 117.753 81.9153C117.763 81.9258 117.776 81.9373 117.786 81.9475C117.841 81.9926 117.897 82.0329 117.955 82.0736C117.988 82.0974 118.021 82.1221 118.057 82.1442C118.109 82.1787 118.164 82.2099 118.219 82.2411C118.265 82.2656 118.307 82.29 118.353 82.3124C118.405 82.3391 118.464 82.3639 118.519 82.3883C118.571 82.4104 118.624 82.4317 118.679 82.4517C118.734 82.4721 118.793 82.4914 118.852 82.5097C118.914 82.5287 118.976 82.546 119.041 82.5623C119.096 82.5769 119.155 82.5914 119.213 82.604C119.285 82.6192 119.36 82.6321 119.435 82.6443C119.491 82.6535 119.546 82.6633 119.605 82.6708C119.693 82.6823 119.787 82.6901 119.878 82.6976C119.93 82.7013 119.976 82.7071 120.028 82.7098C120.175 82.7179 120.325 82.722 120.481 82.721C131.973 82.6284 143.468 82.7569 154.94 81.8807C157.312 81.6992 158.714 80.2604 158.56 78.1515C158.547 77.9854 158.531 77.8273 158.515 77.6751C158.508 77.6239 158.502 77.5767 158.495 77.5272C158.482 77.4289 158.469 77.3316 158.453 77.2393C158.443 77.183 158.433 77.1298 158.423 77.0755C158.407 76.9962 158.391 76.9179 158.375 76.8429C158.362 76.788 158.349 76.7351 158.335 76.6825C158.316 76.6144 158.296 76.5479 158.277 76.4835C158.264 76.4326 158.247 76.3824 158.228 76.3343C158.208 76.2739 158.186 76.2162 158.163 76.1596C158.143 76.1138 158.124 76.0677 158.104 76.0247C158.078 75.9701 158.052 75.9189 158.023 75.868C158.003 75.829 157.98 75.7883 157.957 75.7517C157.925 75.6964 157.889 75.6459 157.85 75.5957C157.83 75.5686 157.814 75.5387 157.791 75.5129C157.205 75.7764 156.618 76.0365 156.025 76.2908Z" fill="#E2B144"/>
<path fill-rule="evenodd" clip-rule="evenodd" d="M158.055 88.4101C158.267 89.9686 158.668 89.7211 159.362 89.501C161.181 88.9262 166.239 87.3084 168.031 86.6532C166.134 85.3565 161.595 85.8583 159.711 85.7841C158.518 85.7373 157.847 86.897 158.055 88.4101Z" fill="#7BAA92"/>
<path fill-rule="evenodd" clip-rule="evenodd" d="M78.5531 91.2945C78.2337 91.2541 77.9078 91.2433 77.5949 91.1677C76.5129 90.9042 75.9654 91.325 75.923 92.4936C75.7796 96.5055 74.0588 100.017 72.6216 103.613C71.6341 106.083 70.0437 108.484 69.1083 110.974C68.3848 112.891 69.7438 114.375 71.6765 114.691C73.5439 114.996 74.9062 113.238 75.6199 111.864C77.7057 107.838 79.0485 103.758 80.3847 99.3788C80.8703 97.7897 81.4895 96.22 81.382 94.4953C81.4048 91.654 81.4048 91.654 78.5531 91.2945Z" fill="white"/>
<path fill-rule="evenodd" clip-rule="evenodd" d="M121.055 54.9377C121.231 54.9628 121.41 54.9832 121.586 54.9998C121.593 55.0004 121.602 55.0011 121.609 55.0018C121.782 55.0174 121.951 55.0293 122.121 55.0381C122.13 55.0384 122.143 55.0391 122.153 55.0398C122.225 55.0432 122.297 55.0462 122.368 55.0489C122.378 55.0493 122.391 55.0496 122.401 55.05C122.479 55.0527 122.557 55.0547 122.632 55.0561C122.642 55.0564 122.655 55.0564 122.668 55.0567C122.73 55.0578 122.789 55.0584 122.851 55.0588C122.867 55.0588 122.886 55.0591 122.903 55.0591C122.971 55.0591 123.04 55.0591 123.105 55.0584C123.32 55.0564 123.535 55.0557 123.75 55.054C122.212 54.9635 120.687 54.7424 119.174 54.3433C119.64 54.6535 120.335 54.835 121.055 54.9377Z" fill="#F4C653"/>
<path fill-rule="evenodd" clip-rule="evenodd" d="M152 51.2982C147.496 52.5377 142.917 53.0233 138.318 53.6248C134.789 54.1586 131.239 54.8192 127.723 55.0342C128.984 55.0321 130.242 55.0338 131.503 55.0396C131.608 55.0399 131.709 55.0399 131.81 55.0406C133.097 55.0471 134.384 55.0559 135.669 55.0691C141.587 55.1305 147.476 54.6367 153.359 54.0901C154.457 53.988 157.732 54.0331 156.657 52.5811C156.572 52.5217 156.478 52.4637 156.383 52.4071C156.367 52.3973 156.351 52.3871 156.331 52.3776C156.24 52.3247 156.145 52.2732 156.044 52.2226C156.018 52.2101 155.995 52.1979 155.969 52.1853C155.868 52.1365 155.767 52.0887 155.66 52.0422C155.63 52.03 155.601 52.0182 155.572 52.006C155.484 51.9683 155.392 51.9317 155.301 51.8954C155.259 51.8801 155.22 51.8649 155.181 51.8496C155.083 51.8127 154.979 51.7767 154.874 51.7411C154.819 51.7225 154.763 51.7038 154.708 51.6855C154.607 51.6523 154.503 51.6197 154.395 51.5878C154.323 51.5665 154.252 51.5455 154.18 51.5251C154.121 51.5085 154.063 51.4925 154.004 51.4763C153.874 51.4403 153.74 51.4051 153.6 51.3711C153.561 51.3606 153.518 51.3501 153.476 51.34C153.183 51.2691 152.88 51.2016 152.564 51.1382C152.375 51.1921 152.189 51.2467 152 51.2982Z" fill="#F4C653"/>
<path fill-rule="evenodd" clip-rule="evenodd" d="M149.399 104.873C149.392 104.738 149.383 104.603 149.37 104.469C149.36 104.362 149.347 104.256 149.337 104.15C149.324 104.047 149.311 103.945 149.295 103.844C149.278 103.721 149.259 103.598 149.236 103.478C149.223 103.407 149.21 103.338 149.197 103.268C149.057 102.559 148.855 101.886 148.594 101.262C148.594 101.262 148.594 101.261 148.594 101.261C148.483 101.902 148.336 102.533 148.138 103.134C146.678 107.605 143.011 111.045 138.276 111.052C136.323 111.054 134.583 110.432 132.927 109.418C132.246 109.002 131.692 108.494 131.145 107.976C131.119 107.961 131.096 107.943 131.07 107.928V107.928C131.083 107.982 131.096 108.035 131.112 108.087C131.119 108.117 131.128 108.147 131.138 108.177C131.151 108.221 131.164 108.263 131.177 108.305C131.19 108.347 131.207 108.387 131.22 108.426C131.233 108.457 131.246 108.489 131.256 108.518C131.285 108.589 131.318 108.657 131.35 108.721C135.805 116.723 143.461 116.313 147.88 110.928C149.089 109.643 149.34 107.063 149.428 105.81C149.431 105.579 149.425 105.352 149.415 105.127C149.412 105.042 149.405 104.958 149.399 104.873Z" fill="#AAA17D"/>
<path fill-rule="evenodd" clip-rule="evenodd" d="M148.35 87.4258C144.224 88.4123 139.984 88.9833 135.766 89.3092C132.572 89.5561 129.375 89.5256 126.178 89.7056C121.993 89.942 117.678 90.1865 113.526 89.5683V89.5686C113.556 89.6544 113.588 89.7348 113.621 89.8124C113.627 89.8294 113.634 89.846 113.64 89.8623C113.673 89.9379 113.709 90.0101 113.745 90.0783C113.748 90.0851 113.751 90.0912 113.755 90.098C113.79 90.1604 113.826 90.2194 113.862 90.276C113.872 90.2882 113.878 90.3004 113.888 90.3123C113.927 90.3709 113.97 90.4262 114.012 90.4781C114.022 90.4873 114.028 90.4957 114.038 90.5046C114.077 90.5507 114.12 90.5941 114.165 90.6348C114.172 90.6419 114.178 90.6497 114.188 90.6565C114.237 90.7002 114.286 90.7406 114.341 90.7779C114.351 90.7857 114.364 90.7931 114.374 90.8006C114.426 90.8352 114.481 90.8674 114.537 90.8966C114.54 90.8989 114.543 90.9013 114.55 90.9037C114.608 90.9339 114.67 90.9603 114.735 90.9844C114.749 90.9898 114.765 90.9949 114.778 91C114.843 91.023 114.911 91.0441 114.983 91.0614C114.986 91.0624 114.99 91.0631 114.993 91.0637C115.061 91.08 115.133 91.0932 115.205 91.1044C115.221 91.1072 115.241 91.1099 115.257 91.1119C115.332 91.1224 115.41 91.1309 115.492 91.1363C115.505 91.137 115.521 91.1373 115.534 91.1383C115.609 91.1424 115.684 91.1448 115.765 91.1448C115.782 91.1451 115.798 91.1455 115.814 91.1455C115.902 91.1448 115.997 91.1421 116.091 91.137C116.111 91.136 116.13 91.1343 116.153 91.1329C116.241 91.1278 116.329 91.1207 116.424 91.1116C116.437 91.1102 116.45 91.1092 116.463 91.1082C116.567 91.0977 116.675 91.0848 116.785 91.0702C116.812 91.0668 116.838 91.0634 116.864 91.0597C116.974 91.0441 117.089 91.0271 117.209 91.0078C119.139 90.6948 138.302 90.7453 145.951 90.6592C148.532 90.63 152.443 90.8457 155.001 90.3384C156.703 90.0017 156.69 88.0077 156.536 86.1013C156.527 85.9883 156.514 85.8798 156.497 85.7747C156.491 85.7523 156.488 85.7313 156.484 85.7093C156.468 85.6245 156.448 85.5414 156.426 85.4617C156.422 85.4447 156.416 85.4281 156.413 85.4112C156.387 85.3261 156.36 85.2437 156.328 85.165C156.325 85.1565 156.321 85.1477 156.318 85.1392C156.279 85.0514 156.24 84.9673 156.191 84.8879C153.636 85.9209 151.022 86.7863 148.35 87.4258Z" fill="#E2B144"/>
<path fill-rule="evenodd" clip-rule="evenodd" d="M149.432 96.9715C148.852 97.1313 148.271 97.2856 147.691 97.4358C148.05 97.7705 148.395 98.136 148.734 98.5318C148.76 98.562 148.786 98.5918 148.812 98.6223C148.871 98.6932 148.933 98.7651 148.992 98.8377C149.034 98.8912 149.076 98.9455 149.122 99.0001C149.171 99.0618 149.22 99.1239 149.269 99.1869C149.324 99.2615 149.383 99.3378 149.438 99.4145C149.477 99.4636 149.513 99.5125 149.549 99.5627C149.643 99.6932 149.738 99.8255 149.832 99.9614C151.253 102.017 151.26 102.027 153.382 100.813C153.945 100.489 154.473 100.098 155.008 99.7159C158.727 97.0411 162.139 93.9321 165.968 91.4058C166.832 90.8368 167.692 90.0731 167.937 88.7431C167.836 88.7326 167.735 88.7259 167.634 88.7225C167.591 88.7208 167.552 88.7221 167.51 88.7218C167.454 88.7214 167.396 88.7201 167.34 88.7218C167.285 88.7231 167.229 88.7276 167.177 88.7309C167.135 88.7337 167.093 88.735 167.05 88.7387C166.988 88.7445 166.926 88.753 166.861 88.7608C166.832 88.7649 166.799 88.7676 166.767 88.7723C166.698 88.7825 166.627 88.795 166.558 88.8079C166.535 88.812 166.512 88.8154 166.49 88.8198C166.415 88.8347 166.336 88.852 166.262 88.8696C166.248 88.873 166.232 88.8757 166.219 88.8795C166.134 88.8995 166.053 88.9215 165.971 88.9442C165.965 88.9463 165.958 88.9476 165.952 88.9497C165.864 88.9741 165.776 89.0002 165.688 89.0277C165.688 89.028 165.688 89.028 165.685 89.0283C163.283 90.5964 160.868 92.2576 158.326 93.57C155.484 95.0373 152.492 96.1279 149.432 96.9715Z" fill="#95B7A6"/>
<path fill-rule="evenodd" clip-rule="evenodd" d="M100.435 96.4043C100.444 96.4114 100.451 96.4182 100.461 96.425C100.578 96.5216 100.699 96.6183 100.816 96.7153C100.881 96.7675 100.946 96.8197 101.012 96.8719C101.093 96.9374 101.171 97.0028 101.253 97.0683C101.318 97.1188 101.38 97.1697 101.442 97.2198C101.569 97.3219 101.696 97.4236 101.823 97.525C101.882 97.5725 101.944 97.62 102.002 97.6675C102.09 97.7366 102.175 97.8058 102.263 97.8747C102.322 97.9221 102.384 97.9703 102.442 98.0178C102.569 98.1185 102.696 98.2188 102.824 98.3182C102.882 98.3626 102.938 98.4067 102.993 98.4511C103.081 98.5196 103.169 98.5881 103.257 98.656C103.312 98.7014 103.371 98.7465 103.43 98.7916C103.557 98.8899 103.681 98.9876 103.808 99.0839C103.857 99.1229 103.906 99.1612 103.958 99.1999C104.046 99.2687 104.134 99.3369 104.222 99.4044C104.277 99.4464 104.333 99.4881 104.385 99.5295C104.496 99.6146 104.606 99.6987 104.714 99.7815C104.759 99.816 104.805 99.8496 104.851 99.8835C104.952 99.9605 105.05 100.036 105.151 100.111C105.196 100.146 105.242 100.18 105.284 100.213C105.388 100.291 105.493 100.368 105.594 100.444C105.617 100.461 105.639 100.479 105.662 100.496C105.78 100.584 105.897 100.67 106.011 100.755C106.05 100.782 106.086 100.81 106.122 100.837C106.216 100.905 106.304 100.972 106.396 101.037C106.418 101.055 106.444 101.074 106.471 101.092C106.578 101.172 106.686 101.248 106.79 101.323C106.816 101.343 106.845 101.362 106.871 101.382C106.956 101.443 107.038 101.502 107.119 101.559C107.142 101.574 107.165 101.591 107.184 101.607C107.282 101.674 107.373 101.738 107.461 101.8C107.484 101.815 107.504 101.829 107.526 101.844C107.598 101.893 107.667 101.941 107.732 101.986C107.751 102 107.774 102.013 107.79 102.026C107.872 102.08 107.947 102.131 108.019 102.177C108.032 102.186 108.045 102.193 108.058 102.201C108.116 102.24 108.172 102.276 108.224 102.308C108.24 102.319 108.256 102.329 108.273 102.339C108.331 102.376 108.39 102.41 108.439 102.439C108.446 102.442 108.449 102.445 108.455 102.449C108.501 102.474 108.54 102.495 108.576 102.513C108.586 102.519 108.595 102.524 108.605 102.529C108.644 102.548 108.68 102.563 108.706 102.573C116.548 103.171 121.505 102.837 128.274 102.638C128.984 102.617 129.574 101.853 129.851 101.207C129.923 101.036 130.001 100.871 130.076 100.709C130.109 100.645 130.138 100.581 130.171 100.518C130.216 100.429 130.262 100.341 130.307 100.255C130.412 100.053 130.523 99.8584 130.633 99.6719C125.539 99.5875 120.413 99.2209 115.345 98.7112C110.352 98.209 105.34 97.5379 100.435 96.4043Z" fill="#95B7A6"/>
<path fill-rule="evenodd" clip-rule="evenodd" d="M121.925 73.541C129.769 73.3552 149.764 73.167 151.915 73.1226C152.544 73.1094 153.684 72.5834 154.219 72.2779C154.991 71.8336 155.014 68.3751 154.607 67.1442C154.574 67.0489 154.538 66.962 154.502 66.8803C154.499 66.8698 154.493 66.8586 154.489 66.8484C154.454 66.7725 154.414 66.703 154.375 66.6382C154.369 66.6263 154.362 66.6148 154.356 66.6033C154.317 66.5416 154.274 66.4849 154.232 66.433C154.225 66.4232 154.216 66.4144 154.209 66.4052C154.163 66.354 154.118 66.3072 154.072 66.2659C154.066 66.2601 154.059 66.2554 154.053 66.2499C154.007 66.2103 153.958 66.1746 153.909 66.1431C153.903 66.1397 153.9 66.1363 153.893 66.1329C153.844 66.1017 153.792 66.0753 153.737 66.0509C153.727 66.0461 153.717 66.041 153.704 66.0363C153.655 66.0149 153.603 65.9966 153.548 65.981C153.534 65.9769 153.521 65.9729 153.508 65.9695C153.453 65.9552 153.401 65.9437 153.349 65.9342C153.332 65.9318 153.316 65.9298 153.303 65.9274C153.248 65.9196 153.192 65.9129 153.137 65.9084C147.134 68.7827 140.795 70.661 134.133 71.149C130.565 71.4104 126.901 71.3915 123.336 71.1076C119.431 70.7967 115.459 70.23 111.779 68.7729C111.786 68.8736 111.792 68.9743 111.802 69.0743C111.805 69.0923 111.809 69.1099 111.809 69.1276C111.822 69.2168 111.835 69.3059 111.851 69.3941C111.854 69.405 111.854 69.4158 111.857 69.4267C111.874 69.5247 111.897 69.6223 111.923 69.719C111.926 69.7339 111.932 69.7488 111.936 69.7637C111.958 69.8472 111.981 69.9299 112.011 70.012C112.014 70.0282 112.02 70.0449 112.027 70.0611C112.059 70.1547 112.092 70.247 112.131 70.3375C112.134 70.3467 112.141 70.3555 112.144 70.3646C112.18 70.4453 112.216 70.5244 112.255 70.602C112.265 70.6207 112.275 70.6397 112.284 70.658C112.372 70.8282 112.473 70.991 112.584 71.1442C112.597 71.1622 112.61 71.1802 112.623 71.1982C112.672 71.2663 112.724 71.3331 112.78 71.3972C112.786 71.404 112.793 71.4115 112.799 71.4182C112.858 71.4878 112.92 71.5539 112.985 71.618C113.001 71.6332 113.018 71.6482 113.034 71.6631C113.089 71.7153 113.145 71.7648 113.203 71.8126C113.216 71.8242 113.229 71.8364 113.246 71.8476C113.314 71.9028 113.386 71.955 113.461 72.0039C113.477 72.0144 113.493 72.0242 113.51 72.0344C113.572 72.0734 113.634 72.11 113.699 72.1439C113.718 72.1544 113.738 72.1653 113.757 72.1751C113.836 72.2145 113.917 72.2507 113.999 72.2823C114.012 72.2874 114.025 72.2911 114.038 72.2958C114.109 72.322 114.184 72.345 114.256 72.365C114.279 72.3711 114.305 72.3776 114.328 72.383C114.416 72.4044 114.504 72.4227 114.595 72.4345C117.046 72.756 119.422 73.6007 121.925 73.541Z" fill="#E2B144"/>
<path fill-rule="evenodd" clip-rule="evenodd" d="M158.172 56.3572C151.993 60.3352 144.774 62.3526 137.604 63.2492C133.889 63.7137 130.222 63.6005 126.501 63.28C124.092 63.0722 121.69 63.0644 119.292 62.9948C119.292 62.9962 119.295 62.9972 119.295 62.9986C120.204 64.2695 121.384 63.8813 122.489 64.159C127.139 65.3269 142.597 64.6436 151.511 63.9732C152.57 63.8938 153.652 64.0678 154.639 63.6615C154.822 63.5859 154.998 63.5038 155.164 63.4167C155.223 63.3862 155.278 63.3516 155.337 63.3194C155.441 63.2604 155.546 63.2014 155.647 63.1373C155.712 63.0945 155.774 63.0477 155.839 63.0023C155.92 62.9443 156.005 62.886 156.083 62.8243C156.148 62.771 156.214 62.7147 156.276 62.6588C156.344 62.5998 156.412 62.5404 156.474 62.4784C156.54 62.4156 156.601 62.3502 156.663 62.2844C156.719 62.2244 156.771 62.164 156.826 62.102C156.885 62.0287 156.947 61.9534 157.002 61.8768C157.048 61.8181 157.09 61.7581 157.133 61.6971C157.191 61.6123 157.247 61.5262 157.299 61.4377C157.335 61.382 157.364 61.3251 157.397 61.2681C157.452 61.1694 157.504 61.0697 157.553 60.9663C157.576 60.9195 157.595 60.8707 157.618 60.8229C157.67 60.7055 157.723 60.5872 157.768 60.4644C157.778 60.4376 157.784 60.4095 157.794 60.3824C158.195 59.2498 158.312 57.8988 158.172 56.3572Z" fill="#E2B144"/>
<path fill-rule="evenodd" clip-rule="evenodd" d="M111.893 90.9989C111.574 89.2237 111.942 88.0009 109.928 87.6468C103.417 86.503 101.481 89.0748 98.3943 91.1095C102.321 91.5154 107.761 90.5191 111.893 90.9989Z" fill="#7BAA92"/>
<path fill-rule="evenodd" clip-rule="evenodd" d="M59.9536 88.2017C58.8097 88.3834 58.122 88.8232 58.0634 90.0094C57.9363 92.4808 56.2904 93.5734 54.4979 94.7298C51.9396 96.3822 49.1498 97.5264 46.5067 98.9859C45.6495 99.4589 44.7631 99.8628 44.9945 101.205C45.6821 105.23 49.1889 107.227 52.65 105.334C59.204 101.75 64.3338 96.7515 66.7847 88.9253C64.4153 88.0151 62.2382 87.8395 59.9536 88.2017Z" fill="white"/>
<path fill-rule="evenodd" clip-rule="evenodd" d="M60.3415 86.4545C61.8863 85.9245 62.7859 84.2605 62.7402 82.2221C62.6979 80.2295 61.7136 78.6008 60.9901 76.8653C60.2144 75.0083 59.2335 73.05 59.8494 71.0567C60.8793 67.7101 62.8771 64.9002 65.266 62.4109C65.6213 62.0416 66.0286 61.9324 66.3937 62.2311C66.8727 62.6201 66.977 63.2329 66.5957 63.7185C65.9178 64.5805 65.1259 65.3411 64.4219 66.1807C61.5735 69.5755 60.2112 73.0913 62.9488 77.397C64.2427 79.4374 65.077 81.8315 64.3795 84.4321C64.0764 85.5491 64.5783 86.0245 65.5724 86.348C67.7788 87.0659 68.3035 86.9048 69.4604 84.7912C69.8352 84.1116 70.1351 83.3876 70.5392 82.7298C71.0085 81.9668 71.5234 81.2465 72.5989 81.4849C73.5702 81.6996 74.0851 82.3547 74.3132 83.2791C74.6619 84.6847 74.8901 86.5803 75.2975 87.9649C75.6657 89.2152 79.2996 89.1222 80.9194 89.4088C81.7211 89.5502 80.9813 87.5617 80.9129 86.5993C80.5935 82.1326 80.1013 77.6791 80.2447 73.1907C80.2447 70.5036 80.2317 67.8162 80.2513 65.1295C80.2578 64.2359 80.2904 63.3319 80.4338 62.4539C80.5055 62.0107 80.9552 61.7632 81.4245 61.775C81.9101 61.7876 82.2491 62.0921 82.2719 62.5747C82.311 63.3546 82.2654 64.141 82.2263 64.923C82.0535 68.1679 82.0275 71.4107 82.1643 74.6601C82.2132 75.8225 82.3762 76.9216 83.0476 77.8249C84.9313 80.3608 87.5614 81.9522 90.1556 83.5307C91.1236 84.1208 93.1702 83.9689 93.9687 82.978C94.7118 82.059 95.3897 79.9009 94.1708 78.9348C90.7846 76.1806 86.6032 69.3693 85.6548 64.2271C85.0519 60.9497 85.0551 57.6458 83.7743 54.5226C82.9139 52.4222 82.1089 51.0362 79.9221 50.3729C76.9726 49.478 72.9118 50.0321 69.9037 49.9226C67.0259 49.8178 64.0471 50.179 62.2448 52.3126C58.6077 56.6139 56.271 61.4346 53.5855 66.4591C52.5849 68.3306 52.1091 70.1961 52.1906 72.2026C52.3698 76.77 53.4714 80.9742 56.1471 84.6593C56.8478 85.6254 58.536 87.0645 60.3415 86.4545Z" fill="white"/>
<path fill-rule="evenodd" clip-rule="evenodd" d="M74.2054 47.8369C79.4069 47.8525 82.5128 44.4957 83.8001 40.8269C85.0777 37.1924 84.9897 32.0522 82.5324 28.9887C80.6584 26.6519 75.8512 23.0137 67.948 25.8994C62.5509 27.7432 59.4679 38.2639 64.9985 44.0545C67.2342 46.3923 70.816 48.0332 74.2054 47.8369Z" fill="white"/>
<path fill-rule="evenodd" clip-rule="evenodd" d="M120.328 60.3972C120.328 60.3972 126.82 59.2395 126.794 58.6258C126.765 58.0096 124.399 58.1235 123.786 58.1235H120.002C119.432 58.1235 119.265 58.1798 119.292 58.794C119.318 59.4098 119.715 60.3972 120.328 60.3972Z" fill="#FFEDCA"/>
<path fill-rule="evenodd" clip-rule="evenodd" d="M114.097 69.3303C115.094 69.277 121.726 68.0037 121.726 67.4282C121.726 66.768 119.08 67.0932 118.49 67.0389C117.496 66.9474 115.449 66.4781 114.452 66.5313C113.054 66.6059 112.689 69.4056 114.097 69.3303Z" fill="#FFEDCA"/>
<path fill-rule="evenodd" clip-rule="evenodd" d="M123.786 76.494C122.792 76.5398 120.285 76.4472 119.291 76.4927C117.89 76.5571 117.988 79.0339 119.396 78.9692C120.39 78.9237 124.506 77.7708 125.5 77.7253C126.901 77.6609 125.194 76.4296 123.786 76.494Z" fill="#FFEDCA"/>
<path fill-rule="evenodd" clip-rule="evenodd" d="M115.534 88.0172L120.015 87.1877C121.423 87.1877 121.573 85.9486 120.165 85.9486L115.094 85.7485C113.689 85.7485 114.126 88.0172 115.534 88.0172Z" fill="#FFEDCA"/>
<path fill-rule="evenodd" clip-rule="evenodd" d="M122.293 54.1406C124.636 54.1413 126.954 52.3803 126.794 52.1222C126.647 51.8889 120.546 53.1965 120.488 53.4678C120.426 53.7587 121.354 54.1402 122.293 54.1406Z" fill="#FFF7E9"/>
<path fill-rule="evenodd" clip-rule="evenodd" d="M53.5854 66.459C56.2709 61.4345 58.6077 56.6137 62.2448 52.3125C64.0471 50.1789 67.0259 49.8177 69.9037 49.9225C72.9118 50.032 76.9726 49.4779 79.9221 50.3728C82.1089 51.0361 82.9139 52.4221 83.7743 54.5225C85.0551 57.6456 85.0519 60.9495 85.6548 64.227C86.6032 69.3692 90.7846 76.1805 94.1708 78.9347C95.3897 79.9008 94.7118 82.0589 93.9687 82.9779C93.1702 83.9687 91.1235 84.1206 90.1556 83.5306C87.5614 81.9521 84.9313 80.3606 83.0475 77.8248C82.3762 76.9214 82.2132 75.8224 82.1643 74.6599C82.0274 71.4106 82.0535 68.1678 82.2262 64.9228C82.2653 64.1409 82.311 63.3545 82.2719 62.5745C82.2491 62.092 81.9101 61.7875 81.4245 61.7749C80.9552 61.7631 80.5054 62.0106 80.4337 62.4538C80.2903 63.3318 80.2578 64.2358 80.2512 65.1294C80.2317 67.8161 80.2447 70.5035 80.2447 73.1906C80.1013 77.679 80.5934 82.1325 80.9128 86.5992C80.9813 87.5616 81.7211 89.5501 80.9193 89.4087C79.2996 89.1221 75.6657 89.215 75.2974 87.9648C74.89 86.5802 74.6619 84.6846 74.3132 83.279C74.0851 82.3546 73.5701 81.6994 72.5989 81.4848C71.5234 81.2464 71.0085 81.9667 70.5392 82.7296C70.1351 83.3875 69.8352 84.1115 69.4604 84.7911C68.3034 86.9047 67.7787 87.0658 65.5723 86.3479C64.5783 86.0244 64.0764 85.549 64.3795 84.4319C65.077 81.8313 64.2426 79.4373 62.9488 77.3969C60.2112 73.0912 61.5735 69.5754 64.4219 66.1806C65.1258 65.341 65.9178 64.5804 66.5957 63.7183C66.977 63.2327 66.8727 62.62 66.3936 62.231C66.0286 61.9323 65.6212 62.0415 65.266 62.4108C62.8771 64.9001 60.8793 67.71 59.8494 71.0566C59.2334 73.0499 60.2144 75.0082 60.9901 76.8651C61.7136 78.6007 62.6978 80.2294 62.7402 82.222C62.7858 84.2604 61.8863 85.9244 60.3415 86.4544C58.536 87.0644 56.8478 85.6253 56.1471 84.6591C53.4714 80.9741 52.3698 76.7699 52.1906 72.2024C52.1091 70.1959 52.5849 68.3305 53.5854 66.459ZM64.9987 44.0546C59.4681 38.264 62.5512 27.7433 67.9482 25.8996C75.8515 23.0138 80.6586 26.652 82.5326 28.9888C84.9899 32.0523 85.0779 37.1925 83.8004 40.827C82.513 44.4958 79.4071 47.8526 74.2056 47.837C70.8162 48.0333 67.2345 46.3924 64.9987 44.0546ZM100.93 86.924C100.8 88.0471 99.9524 88.1028 99.3266 88.4283C94.715 90.8292 89.8818 90.8807 84.9476 89.8926C84.211 89.7447 83.2887 89.685 83.2268 88.7149C83.0606 86.1166 82.2197 83.3071 82.4772 80.2145C84.4815 81.5641 86.4044 82.8778 88.0437 84.0576C89.9209 85.4062 91.7721 85.9488 94.073 85.0298C96.7031 83.9796 98.7335 85.9542 100.93 86.924ZM109.928 87.647C111.943 88.001 111.574 89.2239 111.894 90.9991C107.761 90.5192 102.322 91.5155 98.3945 91.1096C101.481 89.075 103.417 86.5032 109.928 87.647ZM121.228 92.6898C124.242 92.505 127.237 92.5644 130.246 92.5688C138.429 92.5803 146.613 92.3599 154.793 92.1039C157.83 92.0086 160.646 90.7081 163.524 89.8007C164.244 89.5741 164.948 89.2598 165.685 89.0282C165.688 89.0278 165.688 89.0278 165.688 89.0275C165.776 89 165.864 88.9739 165.952 88.9495C165.958 88.9475 165.965 88.9461 165.972 88.9441C166.053 88.9214 166.134 88.8993 166.219 88.8793C166.232 88.8756 166.249 88.8729 166.262 88.8695C166.337 88.8519 166.415 88.8346 166.49 88.8196C166.513 88.8152 166.535 88.8118 166.558 88.8078C166.627 88.7949 166.698 88.7823 166.767 88.7722C166.799 88.7674 166.832 88.7647 166.861 88.7606C166.926 88.7528 166.988 88.7444 167.05 88.7386C167.093 88.7349 167.135 88.7335 167.177 88.7308C167.23 88.7274 167.285 88.723 167.34 88.7216C167.396 88.7199 167.454 88.7213 167.51 88.7216C167.552 88.722 167.591 88.7206 167.634 88.7223C167.735 88.7257 167.836 88.7325 167.937 88.743C167.692 90.073 166.832 90.8366 165.968 91.4057C162.139 93.932 158.727 97.0409 155.008 99.7158C154.474 100.098 153.946 100.489 153.382 100.812C151.26 102.027 151.254 102.017 149.833 99.9613C149.738 99.8253 149.644 99.6931 149.549 99.5625C149.513 99.5123 149.477 99.4635 149.438 99.4143C149.383 99.3377 149.324 99.2614 149.269 99.1868C149.22 99.1237 149.171 99.0617 149.122 98.9999C149.076 98.945 149.034 98.8911 148.992 98.8375C148.933 98.7649 148.871 98.693 148.812 98.6222C148.786 98.5916 148.76 98.5618 148.734 98.5316C148.395 98.1359 148.05 97.7703 147.691 97.4356C144.771 94.7028 141.167 94.0032 136.177 95.3562C133.772 96.2474 131.96 97.4841 130.633 99.6717C130.523 99.8582 130.412 100.053 130.307 100.255C130.262 100.341 130.216 100.429 130.171 100.518C130.138 100.581 130.109 100.645 130.076 100.709C130.001 100.871 129.923 101.036 129.851 101.207C129.574 101.853 128.984 102.617 128.274 102.638C121.505 102.837 116.548 103.171 108.706 102.572C108.68 102.563 108.644 102.547 108.605 102.529C108.595 102.524 108.586 102.518 108.576 102.513C108.54 102.495 108.501 102.473 108.455 102.448C108.449 102.445 108.446 102.442 108.439 102.438C108.39 102.41 108.331 102.375 108.273 102.338C108.257 102.329 108.24 102.318 108.224 102.308C108.172 102.275 108.116 102.24 108.058 102.201C108.045 102.193 108.032 102.185 108.019 102.177C107.947 102.131 107.872 102.08 107.79 102.026C107.774 102.013 107.751 101.999 107.732 101.986C107.667 101.941 107.598 101.893 107.526 101.843C107.504 101.829 107.484 101.815 107.461 101.8C107.373 101.738 107.282 101.674 107.184 101.606C107.165 101.591 107.142 101.574 107.119 101.558C107.038 101.502 106.956 101.443 106.871 101.382C106.845 101.362 106.816 101.343 106.79 101.322C106.686 101.248 106.578 101.172 106.471 101.092C106.444 101.074 106.418 101.055 106.396 101.037C106.304 100.971 106.216 100.905 106.122 100.837C106.086 100.81 106.05 100.782 106.011 100.754C105.897 100.67 105.78 100.584 105.662 100.495C105.639 100.478 105.617 100.461 105.594 100.444C105.493 100.368 105.389 100.291 105.284 100.213C105.242 100.179 105.196 100.145 105.151 100.111C105.05 100.036 104.952 99.9603 104.851 99.8833C104.805 99.8494 104.76 99.8158 104.714 99.7812C104.606 99.6985 104.496 99.6144 104.385 99.5293C104.333 99.4879 104.277 99.4462 104.222 99.4042C104.134 99.3367 104.046 99.2685 103.958 99.1997C103.906 99.161 103.857 99.1227 103.808 99.0837C103.681 98.9874 103.557 98.8897 103.43 98.7914C103.371 98.7463 103.312 98.7012 103.257 98.6557C103.169 98.5879 103.081 98.5194 102.993 98.4509C102.938 98.4065 102.882 98.3624 102.824 98.318C102.697 98.2186 102.569 98.1183 102.442 98.0175C102.384 97.9697 102.322 97.9219 102.263 97.8744C102.175 97.8056 102.09 97.7364 102.002 97.6672C101.944 97.6198 101.882 97.5723 101.823 97.5248C101.696 97.4234 101.569 97.3217 101.442 97.2196C101.38 97.1694 101.318 97.1186 101.253 97.068C101.171 97.0026 101.093 96.9371 101.012 96.8717C100.946 96.8195 100.881 96.7673 100.816 96.715C100.699 96.618 100.578 96.5214 100.461 96.4248C98.8084 95.0751 97.2473 93.7421 96.1588 92.7071C100.937 92.2527 117.685 92.9072 121.228 92.6898ZM116.407 84.3919C121.896 85.0556 127.391 84.398 132.66 84.6195C139.635 83.927 146.437 84.6368 153.199 83.8951C154.936 83.7046 155.908 84.1637 156.318 85.1393C156.321 85.1478 156.325 85.1566 156.328 85.1651C156.361 85.2441 156.387 85.3258 156.413 85.4113C156.416 85.4282 156.422 85.4449 156.426 85.4618C156.449 85.5415 156.468 85.6242 156.484 85.7094C156.488 85.7314 156.491 85.7524 156.497 85.7748C156.514 85.8803 156.527 85.9884 156.537 86.1014C156.69 88.0078 156.703 90.0018 155.001 90.3385C152.443 90.8458 148.532 90.6301 145.951 90.6593C138.302 90.7454 119.139 90.6949 117.209 91.0079C117.089 91.0272 116.975 91.0442 116.864 91.0598C116.838 91.0635 116.812 91.0669 116.786 91.0703C116.675 91.0849 116.567 91.0977 116.463 91.1083C116.45 91.1093 116.437 91.1103 116.424 91.1117C116.329 91.1208 116.241 91.1279 116.153 91.133C116.13 91.1344 116.111 91.1361 116.091 91.1371C115.997 91.1422 115.902 91.1449 115.814 91.1456C115.798 91.1456 115.782 91.1452 115.765 91.1449C115.684 91.1449 115.609 91.1425 115.534 91.1384C115.521 91.1374 115.505 91.1371 115.492 91.1364C115.41 91.131 115.332 91.1225 115.257 91.112C115.241 91.11 115.221 91.1072 115.205 91.1045C115.133 91.0933 115.061 91.0801 114.993 91.0638C114.99 91.0632 114.987 91.0625 114.983 91.0615C114.912 91.0442 114.843 91.0231 114.778 91.0001C114.765 90.995 114.749 90.9899 114.736 90.9845C114.67 90.9604 114.608 90.934 114.55 90.9038C114.543 90.9014 114.54 90.899 114.537 90.8967C114.481 90.8678 114.426 90.8353 114.374 90.8007C114.364 90.7932 114.351 90.7858 114.341 90.778C114.286 90.7407 114.237 90.7003 114.188 90.6566C114.178 90.6498 114.172 90.642 114.165 90.6349C114.12 90.5942 114.077 90.5508 114.038 90.5046C114.028 90.4958 114.022 90.4874 114.012 90.4782C113.97 90.4263 113.927 90.371 113.888 90.3124C113.878 90.3005 113.872 90.2883 113.862 90.2761C113.826 90.2195 113.79 90.1605 113.755 90.0981C113.751 90.0913 113.748 90.0852 113.745 90.0784C113.709 90.0106 113.673 89.938 113.641 89.8624C113.634 89.8461 113.627 89.8295 113.621 89.8125C113.588 89.7349 113.556 89.6545 113.526 89.5687C113.38 89.1418 113.266 88.6162 113.178 87.9773C112.744 84.9352 113.484 84.0386 116.407 84.3919ZM114.595 72.4344C114.504 72.4225 114.416 72.4042 114.328 72.3828C114.305 72.3774 114.279 72.371 114.256 72.3649C114.185 72.3449 114.11 72.3218 114.038 72.2957C114.025 72.2909 114.012 72.2872 113.999 72.2821C113.918 72.2506 113.836 72.2143 113.758 72.175C113.738 72.1651 113.719 72.1543 113.699 72.1438C113.634 72.1099 113.572 72.0732 113.51 72.0342C113.494 72.0241 113.478 72.0142 113.461 72.0037C113.386 71.9549 113.315 71.9027 113.246 71.8474C113.23 71.8362 113.217 71.824 113.204 71.8125C113.145 71.7646 113.09 71.7151 113.034 71.6629C113.018 71.648 113.002 71.6331 112.985 71.6178C112.92 71.5537 112.858 71.4876 112.8 71.4181C112.793 71.4113 112.787 71.4038 112.78 71.3971C112.725 71.333 112.673 71.2662 112.624 71.198C112.611 71.18 112.598 71.1621 112.585 71.1441C112.474 70.9908 112.373 70.828 112.285 70.6578C112.275 70.6395 112.265 70.6205 112.255 70.6019C112.216 70.5242 112.18 70.4452 112.145 70.3645C112.141 70.3553 112.135 70.3465 112.132 70.3374C112.092 70.2468 112.06 70.1546 112.027 70.061C112.021 70.0447 112.014 70.0281 112.011 70.0118C111.982 69.9297 111.959 69.847 111.936 69.7636C111.933 69.7487 111.926 69.7337 111.923 69.7188C111.897 69.6222 111.874 69.5249 111.858 69.4265C111.855 69.4157 111.855 69.4048 111.851 69.394C111.835 69.3055 111.822 69.2166 111.809 69.1274C111.809 69.1098 111.806 69.0922 111.802 69.0742C111.721 68.3075 111.835 67.5218 112.197 66.8493C112.686 65.9432 113.399 65.4356 114.579 65.5577C126.908 66.8385 139.263 66.481 151.619 65.991C152.117 65.971 152.652 65.872 153.137 65.9083C153.193 65.9127 153.248 65.9195 153.304 65.9273C153.317 65.9297 153.333 65.9317 153.349 65.9341C153.401 65.9436 153.453 65.9551 153.509 65.9693C153.522 65.9727 153.535 65.9768 153.548 65.9809C153.603 65.9965 153.655 66.0148 153.704 66.0361C153.717 66.0409 153.727 66.046 153.737 66.0507C153.792 66.0751 153.845 66.1016 153.893 66.1328C153.9 66.1362 153.903 66.1396 153.91 66.143C153.959 66.1745 154.007 66.2101 154.053 66.2498C154.06 66.2552 154.066 66.2599 154.073 66.2657C154.118 66.3071 154.164 66.3539 154.21 66.4051C154.216 66.4142 154.226 66.4231 154.232 66.4329C154.275 66.4848 154.317 66.5414 154.356 66.6031C154.363 66.6146 154.369 66.6262 154.376 66.638C154.415 66.7028 154.454 66.7723 154.49 66.8483C154.493 66.8585 154.5 66.8697 154.503 66.8802C154.539 66.9619 154.575 67.0487 154.607 67.144C155.015 68.3749 154.992 71.8335 154.219 72.2777C153.685 72.5833 152.544 73.1092 151.915 73.1224C149.764 73.1669 129.77 73.3551 121.925 73.5409C119.422 73.6006 117.046 72.7559 114.595 72.4344ZM117.408 57.7765C117.476 56.7121 118.04 56.3608 119.174 56.4706C129.916 57.5103 140.665 57.1322 151.403 56.375C153.639 56.2173 155.852 55.6731 158.042 55.3122C158.358 57.2943 158.283 59.0004 157.795 60.3822C157.785 60.4094 157.778 60.4375 157.768 60.4643C157.723 60.587 157.671 60.7054 157.619 60.8227C157.596 60.8705 157.576 60.9194 157.553 60.9662C157.504 61.0693 157.452 61.1693 157.397 61.268C157.364 61.3249 157.335 61.3819 157.299 61.4375C157.247 61.526 157.192 61.6122 157.133 61.6969C157.091 61.758 157.048 61.818 157.003 61.8767C156.947 61.9533 156.885 62.0286 156.827 62.1018C156.771 62.1639 156.719 62.2242 156.664 62.2843C156.602 62.3501 156.54 62.4155 156.475 62.4782C156.413 62.5403 156.344 62.5996 156.276 62.6586C156.214 62.7146 156.149 62.7709 156.084 62.8241C156.005 62.8858 155.921 62.9442 155.839 63.0022C155.774 63.0476 155.712 63.0944 155.647 63.1371C155.546 63.2012 155.441 63.2602 155.337 63.3192C155.279 63.3514 155.223 63.386 155.164 63.4165C154.998 63.5037 154.822 63.5858 154.64 63.6614C153.652 64.0676 152.57 63.8937 151.511 63.973C142.597 64.6434 127.14 65.3267 122.489 64.1588C121.384 63.8811 120.204 64.2694 119.295 62.9984C119.295 62.9971 119.292 62.996 119.292 62.9947C119.292 62.9923 119.288 62.9906 119.288 62.9882C118.164 61.4029 117.278 59.7864 117.408 57.7765ZM118.588 53.2834C119.214 50.9357 143.49 48.9177 153.476 51.3403C153.519 51.3505 153.561 51.361 153.6 51.3715C153.74 51.4054 153.874 51.4407 154.004 51.4766C154.063 51.4929 154.122 51.5088 154.18 51.5255C154.252 51.5461 154.327 51.5668 154.395 51.5882C154.503 51.6201 154.607 51.6526 154.708 51.6858C154.764 51.7042 154.819 51.7228 154.874 51.7415C154.979 51.7771 155.083 51.813 155.181 51.85C155.22 51.8652 155.259 51.8805 155.301 51.8958C155.393 51.932 155.484 51.9687 155.572 52.0063C155.601 52.0185 155.63 52.0304 155.66 52.0426C155.767 52.089 155.868 52.1369 155.969 52.1857C155.995 52.1982 156.018 52.2104 156.044 52.223C156.145 52.2735 156.24 52.3251 156.331 52.378C156.351 52.3875 156.367 52.3976 156.383 52.4075C156.478 52.4641 156.572 52.5221 156.657 52.5814C157.733 54.0335 154.457 53.9884 153.359 54.0905C147.476 54.6371 141.587 55.1308 135.669 55.0695C134.385 55.0562 133.097 55.0474 131.81 55.041C131.709 55.0403 131.608 55.0403 131.504 55.0399C130.242 55.0342 128.984 55.0325 127.723 55.0345C126.4 55.0366 125.073 55.0423 123.75 55.0539C123.535 55.0555 123.32 55.0562 123.105 55.0583C123.04 55.0589 122.971 55.0589 122.903 55.0589C122.887 55.0589 122.867 55.0586 122.851 55.0586C122.789 55.0583 122.73 55.0576 122.668 55.0566C122.655 55.0562 122.642 55.0562 122.632 55.0559C122.557 55.0545 122.479 55.0525 122.401 55.0498C122.391 55.0494 122.378 55.0491 122.368 55.0488C122.297 55.0461 122.225 55.043 122.153 55.0396C122.143 55.0389 122.13 55.0383 122.121 55.0379C121.951 55.0291 121.782 55.0172 121.609 55.0016C121.602 55.0009 121.593 55.0003 121.586 54.9996C121.41 54.983 121.231 54.9626 121.055 54.9375C119.738 54.7507 118.513 54.3004 118.588 53.2834ZM157.85 75.5959C157.889 75.6461 157.925 75.6966 157.957 75.7519C157.98 75.7885 158.003 75.8292 158.023 75.8682C158.052 75.919 158.078 75.9702 158.104 76.0248C158.124 76.0679 158.143 76.114 158.163 76.1598C158.186 76.2164 158.208 76.2741 158.228 76.3344C158.248 76.3826 158.264 76.4328 158.277 76.4836C158.296 76.5481 158.316 76.6145 158.336 76.6827C158.349 76.7353 158.362 76.7882 158.375 76.8431C158.391 76.918 158.407 76.9964 158.424 77.0757C158.433 77.1296 158.443 77.1832 158.453 77.2395C158.469 77.3317 158.482 77.4291 158.495 77.5274C158.502 77.5769 158.508 77.6241 158.515 77.6753C158.531 77.8275 158.547 77.9855 158.56 78.1517C158.714 80.2606 157.312 81.6994 154.94 81.8809C143.468 82.7571 131.973 82.6286 120.481 82.7212C120.325 82.7222 120.175 82.7181 120.028 82.71C119.976 82.7073 119.931 82.7015 119.878 82.6978C119.787 82.6903 119.693 82.6825 119.605 82.671C119.546 82.6635 119.491 82.6537 119.435 82.6445C119.36 82.6323 119.285 82.6194 119.214 82.6042C119.155 82.5916 119.096 82.577 119.041 82.5625C118.976 82.5462 118.914 82.5289 118.852 82.5099C118.793 82.4916 118.734 82.4723 118.679 82.4519C118.624 82.4319 118.571 82.4105 118.519 82.3885C118.464 82.3641 118.405 82.3393 118.353 82.3125C118.308 82.2902 118.265 82.2657 118.22 82.2413C118.164 82.2101 118.109 82.1789 118.057 82.1443C118.021 82.1223 117.988 82.0975 117.956 82.0738C117.897 82.0331 117.841 81.9928 117.786 81.9477C117.776 81.9375 117.763 81.926 117.753 81.9154C117.535 81.7272 117.349 81.5055 117.193 81.2501C117.186 81.243 117.183 81.2369 117.18 81.2298C117.131 81.1504 117.089 81.0667 117.046 80.9809C117.036 80.9632 117.027 80.9466 117.02 80.9286C116.981 80.8445 116.945 80.756 116.909 80.6655C116.903 80.6445 116.893 80.6238 116.887 80.6021C116.851 80.5102 116.821 80.4146 116.792 80.3162C116.789 80.2955 116.782 80.2742 116.776 80.2531C116.746 80.1504 116.724 80.0449 116.701 79.9357C116.698 79.9198 116.694 79.9035 116.691 79.8876C116.668 79.7703 116.645 79.6502 116.629 79.5254C116.593 79.2606 116.564 78.9822 116.554 78.6834C116.46 76.0964 117.154 75.2157 119.693 75.2758C122.271 75.3368 124.848 75.5165 127.426 75.5165C127.43 75.5508 145.902 75.1686 154.917 74.6711C156.367 74.5911 157.289 74.8305 157.85 75.5959ZM159.711 85.784C161.595 85.8582 166.134 85.3563 168.031 86.6531C166.239 87.3082 161.181 88.9261 159.362 89.5009C158.668 89.721 158.267 89.9685 158.055 88.41C157.847 86.8969 158.518 85.7372 159.711 85.784ZM147.88 110.929C143.461 116.313 135.806 116.724 131.35 108.721C131.318 108.657 131.285 108.589 131.256 108.519C131.246 108.489 131.233 108.457 131.22 108.426C131.207 108.387 131.191 108.347 131.178 108.306C131.165 108.264 131.152 108.221 131.139 108.177C131.129 108.148 131.119 108.117 131.112 108.087C131.096 108.035 131.083 107.983 131.07 107.928V107.928C130.425 105.214 131.637 99.9053 133.902 98.3963C137.028 96.3135 140.877 95.713 144.7 97.2478C146.492 97.967 147.809 99.3994 148.594 101.261C148.594 101.261 148.594 101.262 148.594 101.262C148.855 101.886 149.057 102.558 149.197 103.269C149.21 103.338 149.223 103.407 149.236 103.478C149.259 103.599 149.279 103.721 149.295 103.844C149.311 103.945 149.324 104.048 149.337 104.15C149.347 104.256 149.36 104.362 149.37 104.469C149.383 104.603 149.393 104.738 149.399 104.873C149.406 104.958 149.412 105.042 149.415 105.127C149.425 105.352 149.432 105.58 149.428 105.81C149.34 107.063 149.09 109.643 147.88 110.929ZM80.3849 99.3787C79.0486 103.758 77.7059 107.838 75.6201 111.864C74.9063 113.238 73.5441 114.996 71.6766 114.691C69.744 114.375 68.3849 112.891 69.1084 110.974C70.0438 108.484 71.6342 106.083 72.6217 103.612C74.059 100.017 75.7798 96.5055 75.9232 92.4935C75.9655 91.325 76.5131 90.9041 77.5951 91.1676C77.908 91.2432 78.2339 91.2541 78.5533 91.2944C81.4049 91.6539 81.4049 91.6539 81.3821 94.4953C81.4897 96.2199 80.8705 97.7897 80.3849 99.3787ZM73.1888 87.879C72.6739 88.0936 71.4778 87.8901 71.0606 87.5273C69.8776 87.0644 71.4582 84.8077 72.2013 84.5696C73.065 83.8527 74.0785 88.0258 73.1888 87.879ZM52.6501 105.334C49.1889 107.227 45.6822 105.23 44.9945 101.205C44.7631 99.863 45.6496 99.4591 46.5067 98.986C49.1498 97.5265 51.9396 96.3824 54.498 94.7299C56.2905 93.5736 57.9363 92.481 58.0634 90.0096C58.1221 88.8234 58.8098 88.3835 59.9537 88.2018C62.2383 87.8396 64.4154 88.0153 66.7847 88.9254C64.3339 96.7517 59.2041 101.75 52.6501 105.334ZM54.8793 92.2226C54.2438 92.8058 53.504 93.3077 52.7446 93.7004C50.1439 95.0415 47.5007 96.2962 44.8935 97.6293C43.8343 98.1715 42.7229 98.728 42.7718 100.276C42.9152 104.801 48.0678 109.93 52.7511 107.215C58.9923 103.596 64.7641 99.7175 67.4854 92.4125C67.6027 92.0995 67.7559 91.8014 67.9058 91.503C68.9976 89.3191 68.9976 89.3198 71.3833 89.9461C73.7526 90.5684 74.0818 90.5776 74.0785 90.857C74.0459 92.4386 73.5766 96.1267 73.0096 97.5821C71.8754 100.485 70.6402 103.345 69.4311 106.215C68.7825 107.753 68.0395 109.251 67.4528 110.813C67.0585 111.863 66.8075 113.071 67.5408 114.044C69.6918 116.901 74.5739 117.132 76.1644 114.295C79.8113 107.78 82.3892 101.228 83.1257 93.5512C83.2398 92.3694 83.758 91.5745 85.0519 91.717C87.5157 91.9879 89.9763 92.2863 92.4369 92.5769C93.2159 92.6688 93.8677 92.9388 94.2653 93.7367C94.8356 94.8706 103.009 99.9918 104.391 101.47C108.429 104.908 109.44 104.26 113.953 104.297C118.047 104.33 122.143 104.338 126.24 104.307C128.104 104.292 128.756 104.352 129.121 106.833C129.854 111.772 133.661 116.629 140.179 116.493C147.141 116.629 150.475 111.869 151.312 105.44C151.394 104.806 151.221 104.071 151.997 103.718C156.005 101.891 158.87 98.3668 162.546 96.028C165.313 94.2643 167.79 92.0839 169.729 89.3469C171.31 87.1166 170.87 85.6924 168.377 84.7331C166.949 84.1834 165.424 84.1552 163.922 84.0125C162.149 83.8439 160.314 84.0213 158.498 83.3482C161.044 79.8852 161.627 74.6565 156.99 72.568C156.347 72.7392 156.475 70.0301 156.279 67.0701C156.145 65.0297 156.077 64.8611 157.746 64.0181C159.73 63.0154 159.906 57.0573 159.91 56.4971C159.926 53.1247 159.6 51.6882 156.52 50.4586C154.796 49.7706 153.007 49.3901 151.192 49.1056C144.436 48.0452 129.326 48.4769 119.719 50.7509C117.815 51.0934 116.844 52.0524 116.28 54.0138C115.342 57.2787 115.378 60.3663 117.056 63.3976C116.261 63.8289 112.865 62.834 111.754 64.1863C110.968 65.1406 110.316 65.4861 110.072 66.7191C109.423 70.0054 110.352 73.3944 113.992 73.8946C114.4 73.9502 114.791 74.1214 115.475 74.3232C114.651 76.6349 113.986 78.8872 114.987 81.2698C112.924 81.7683 111.564 82.8578 111.219 84.9921C111.115 85.6198 110.779 85.981 110.134 85.964C107.471 85.8938 104.756 86.5656 102.185 85.1844C100.855 84.4699 98.7954 83.866 97.3647 83.4017C96.0447 82.9721 95.8818 82.2712 96.1751 80.7676C96.4977 79.1365 94.9432 77.8638 93.9817 76.6284C90.9084 72.6728 88.3468 69.5761 87.4277 64.4637C87.1898 63.1466 86.9063 60.6979 86.5706 59.4042C85.2996 54.5021 85.0649 49.6844 78.9606 48.4186C86.0035 45.6562 89.5429 32.1401 82.1871 26.3217C77.6603 22.7415 72.4979 21.9649 67.3648 24.4343C62.8543 26.6032 60.3252 30.881 60.1786 35.871C60.0482 40.3512 61.7723 45.7684 68.952 48.2293C65.7907 48.2073 63.4898 48.5023 61.694 50.6275C58.1416 54.8304 54.6544 60.2456 51.8679 65.0632C50.8609 66.8032 50.4535 68.6907 50.3427 70.7979C50.0265 76.8451 51.9592 81.9961 55.4105 86.689C56.8967 88.7128 56.7305 90.5294 54.8793 92.2226Z" fill="black"/>
<path fill-rule="evenodd" clip-rule="evenodd" d="M42.5076 77.1205C40.2263 71.644 40.3306 68.3825 42.7847 64.6655C43.3257 63.8452 44.072 63.1731 44.6977 62.4094C45.0432 61.9886 45.4278 61.5257 44.8933 60.9662C44.3621 60.4118 43.8928 60.7848 43.4984 61.1507C40.7314 63.715 38.8673 66.8195 39.0074 70.7738C39.0921 73.193 39.3724 75.7468 42.5076 77.1205Z" fill="black"/>
<path fill-rule="evenodd" clip-rule="evenodd" d="M178.773 93.8673C181.132 90.7323 181.338 87.1486 180.666 83.4354C180.487 82.4557 180.559 80.67 179.193 81.0077C177.841 81.3424 178.76 82.8789 178.929 83.8596C179.575 87.6233 179.386 91.1653 176.785 94.1932C176.599 94.4102 176.557 94.7602 176.312 95.4031C177.652 95.1925 178.245 94.5703 178.773 93.8673Z" fill="black"/>
<path fill-rule="evenodd" clip-rule="evenodd" d="M116.006 115.264C121.759 117.066 126.875 115.822 131.979 115.015C127.035 114.111 118.584 114.255 116.006 115.264Z" fill="black"/>
<path fill-rule="evenodd" clip-rule="evenodd" d="M51.5353 116.463C55.8307 117.069 60.1197 117.411 64.7769 116.099C60.0838 114.732 55.8047 115.161 51.5353 116.463Z" fill="black"/>
<path fill-rule="evenodd" clip-rule="evenodd" d="M157.934 115.788C155.845 114.839 153.704 114.249 151.39 114.854C153.408 116.321 155.614 116.46 157.934 115.788Z" fill="black"/>
</svg>
