<svg width="100" height="100" viewBox="0 0 100 100" fill="none" xmlns="http://www.w3.org/2000/svg">
    <path d="M83.3334 29.1667H66.6667V20.8333L58.3334 12.5H41.6667L33.3334 20.8333V29.1667H16.6667C12.0834 29.1667 8.33337 32.9167 8.33337 37.5V58.3333C8.33337 61.4583 10 64.0833 12.5 65.5417V79.1667C12.5 83.7917 16.2084 87.5 20.8334 87.5H79.1667C83.7917 87.5 87.5 83.7917 87.5 79.1667V65.5C89.9584 64.0417 91.6667 61.375 91.6667 58.3333V37.5C91.6667 32.9167 87.9167 29.1667 83.3334 29.1667ZM41.6667 20.8333H58.3334V29.1667H41.6667V20.8333ZM16.6667 37.5H83.3334V58.3333H62.5V45.8333H37.5V58.3333H16.6667V37.5ZM54.1667 62.5H45.8334V54.1667H54.1667V62.5ZM79.1667 79.1667H20.8334V66.6667H37.5V70.8333H62.5V66.6667H79.1667V79.1667Z" fill="#F10E6C"/>
</svg>
