<svg width="232" height="92" viewBox="0 0 232 92" fill="none" xmlns="http://www.w3.org/2000/svg">
<path d="M27.8 25.7C30.9 27.4 32.4 30.6 32.4 35.1L32.3 51.3C32.3 54.1 30.8 56.2 28 57.5C25.2 58.8 21.1 59.4 15.7 59.4C5.7 59.4 0.699997 55.5 0.699997 47.7C0.699997 44.4 1.7 41.8 3.8 40C5.9 38.2 8.9 37.2 13 37.2C14.7 37.2 16.3 37.4 18 37.8C19.7 38.2 21.1 38.8 22.3 39.5V37.3C22.3 33.4 19.8 31.4 14.7 31.4C12.8 31.4 10.8 31.8 8.7 32.4C6.6 33.1 5 33.9 3.8 34.9V26C5 25.2 6.9 24.5 9.4 23.9C11.9 23.3 14.6 23 17.5 23C21.3 23.1 24.7 24 27.8 25.7ZM21 51.8C21.9 51.5 22.4 50.9 22.4 49.9V44.6C20.8 44.1 19.1 43.8 17.2 43.8C15 43.8 13.4 44.1 12.4 44.8C11.4 45.5 10.9 46.5 10.9 47.9C10.9 49.2 11.4 50.3 12.5 51.1C13.6 51.9 14.8 52.3 16.3 52.3C18.5 52.3 20.1 52.1 21 51.8Z" fill="#DBE2EA"/>
<path d="M46.5 56.9C44.5 55 43.6 52.4 43.6 48.9V31.8H38.6V24.1H43.6V14.7H54.2V24.1H61.7V31.8H54.2V47.6C54.2 48.8 54.4 49.6 54.9 50.2C55.4 50.8 56.2 51 57.4 51C58.1 51 58.9 50.9 59.6 50.6C60.4 50.4 61 50 61.6 49.6V58.2C59.9 59.1 57.8 59.6 55.3 59.6C51.4 59.7 48.5 58.8 46.5 56.9Z" fill="#DBE2EA"/>
<path d="M98.4 26.1C100.6 28.1 101.7 31.3 101.7 35.8V58.3H91.6V38C91.6 33.7 89.4 31.5 85.1 31.5C84.1 31.5 83 31.7 81.9 32C80.8 32.3 80 32.7 79.4 33.2L79.3 58.4H69.3V10.6H79.5V25.7C82.6 24 85.8 23.2 89.2 23.2C93.1 23.2 96.2 24.2 98.4 26.1Z" fill="#DBE2EA"/>
<path d="M156.2 36.1C156.2 32.2 151.4 31.5 147 31.5C145.1 31.5 143.6 31.9 142.3 32.8C142.4 33.9 142.4 34.7 142.4 35.4V58.4H132.3V37.4C132.3 33.5 130.1 31.5 125.7 31.5C123.9 31.5 122.2 31.9 120.7 32.7V58.4H110.6V27C112.4 26.1 115 25.2 118.7 24.4C122.3 23.6 125.5 23.2 128.4 23.2C133 23.2 136.3 24 138.5 25.6C140.3 24.8 142.1 24.2 144.1 23.8C146.1 23.4 147.9 23.2 149.7 23.2C154.5 23.2 158 24.1 160.3 26" fill="#DBE2EA"/>
<path d="M162 78.8C158.9 75.5 157.4 70.7 157.4 64.3C157.4 57.6 158.9 52.7 162 49.6C165 46.5 169.7 45 175.9 45C182.1 45 186.7 46.6 189.9 49.7C193 52.8 194.6 57.7 194.6 64.3C194.6 70.6 193 75.5 189.8 78.8C186.6 82.1 182 83.8 176 83.8C169.7 83.7 165.1 82.1 162 78.8ZM181.8 72.4C183.1 70.6 183.8 67.9 183.8 64.3C183.8 60.4 183.1 57.6 181.8 56C180.5 54.3 178.5 53.5 175.8 53.5C173 53.5 171 54.3 169.8 56C168.6 57.7 168 60.4 168 64.3C168 68 168.6 70.7 169.9 72.5C171.2 74.3 173.1 75.2 175.8 75.2C178.5 75.2 180.4 74.3 181.8 72.4Z" fill="url(#paint0_linear)"/>
<path d="M144.4 91.3L185 0.699997H176.2L135.5 91.3H144.4Z" fill="url(#paint1_linear)"/>
<path d="M204.8 46.9C208.7 46 212.3 45.6 215.4 45.6C220.7 45.6 224.6 46.6 227.3 48.7C230 50.8 231.3 54.2 231.3 58.9V84H220.3V61.1C220.3 56.8 217.9 54.7 213.1 54.7C212 54.7 210.9 54.8 209.8 55.1C208.7 55.3 207.8 55.6 207.1 56V84H196.1V49.8C197.9 48.8 200.8 47.8 204.8 46.9Z" fill="#DBE2EA"/>
<defs>
<linearGradient id="paint0_linear" x1="175.924" y1="9.45909" x2="175.924" y2="79.7602" gradientUnits="userSpaceOnUse">
<stop stop-color="#3BF615"/>
<stop offset="1" stop-color="#31C981"/>
</linearGradient>
<linearGradient id="paint1_linear" x1="160.239" y1="9.4591" x2="160.239" y2="79.7602" gradientUnits="userSpaceOnUse">
<stop stop-color="#3BF615"/>
<stop offset="1" stop-color="#31C981"/>
</linearGradient>
</defs>
</svg>
