<svg width="269" height="92" viewBox="0 0 269 92" fill="none" xmlns="http://www.w3.org/2000/svg">
<path d="M198.5 36.1C198.5 32.2 193.7 31.5 189.3 31.5C187.4 31.5 185.9 31.9 184.6 32.8C184.7 33.9 184.7 34.7 184.7 35.4V58.4H174.6V37.4C174.6 33.5 172.4 31.5 168 31.5C166.2 31.5 164.5 31.9 163 32.7V58.4H152.9V27C154.7 26.1 157.3 25.2 161 24.4C164.6 23.6 167.8 23.2 170.7 23.2C175.3 23.2 178.6 24 180.8 25.6C182.6 24.8 184.4 24.2 186.4 23.8C188.4 23.4 190.2 23.2 192 23.2C196.8 23.2 200.3 24.1 202.6 26" fill="#4C5767"/>
<path d="M204.3 78.8C201.2 75.5 199.7 70.7 199.7 64.3C199.7 57.6 201.2 52.7 204.3 49.6C207.3 46.5 212 45 218.2 45C224.4 45 229 46.6 232.2 49.7C235.3 52.8 236.9 57.7 236.9 64.3C236.9 70.6 235.3 75.5 232.1 78.8C228.9 82.1 224.3 83.8 218.3 83.8C212 83.7 207.4 82.1 204.3 78.8ZM224.1 72.4C225.4 70.6 226.1 67.9 226.1 64.3C226.1 60.4 225.4 57.6 224.1 56C222.8 54.3 220.8 53.5 218.1 53.5C215.3 53.5 213.3 54.3 212.1 56C210.9 57.7 210.3 60.4 210.3 64.3C210.3 68 210.9 70.7 212.2 72.5C213.5 74.3 215.4 75.2 218.1 75.2C220.8 75.2 222.7 74.3 224.1 72.4Z" fill="url(#paint0_linear)"/>
<path d="M186.7 91.3L227.3 0.699997H218.5L177.8 91.3H186.7Z" fill="url(#paint1_linear)"/>
<path d="M26.6 26.3C29.6 28 31.1 31.1 31.1 35.5L31 51.4C31 54.2 29.6 56.2 26.8 57.5C24.1 58.8 20 59.4 14.8 59.4C5 59.4 0 55.6 0 47.9C0 44.7 1 42.1 3 40.3C5 38.5 8 37.6 12 37.6C13.6 37.6 15.3 37.8 16.9 38.2C18.5 38.6 20 39.2 21.2 39.8V37.7C21.2 33.8 18.7 31.9 13.8 31.9C11.9 31.9 9.9 32.2 7.9 32.9C5.9 33.6 4.3 34.4 3.1 35.4V26.6C4.3 25.8 6.1 25.1 8.6 24.5C11.1 23.9 13.7 23.6 16.5 23.6C20.2 23.7 23.6 24.6 26.6 26.3ZM19.9 51.9C20.8 51.6 21.2 51 21.2 50V44.8C19.6 44.3 17.9 44 16.1 44C13.9 44 12.3 44.3 11.3 45C10.3 45.6 9.8 46.7 9.8 48C9.8 49.3 10.3 50.3 11.4 51.1C12.4 51.9 13.7 52.3 15.1 52.3C17.5 52.4 19.1 52.2 19.9 51.9Z" fill="#4C5767"/>
<path d="M39.9 28.2C40.6 27.6 41.7 27 43.4 26.3C45.1 25.6 46.9 25 49 24.5C51.1 24 53 23.7 54.9 23.7C58.6 23.7 61.1 24.3 62.5 25.4V32.6C60.7 32.2 58.2 32 54.9 32C52.8 32 51.1 32.1 49.8 32.3V58.3H39.9V28.2Z" fill="#4C5767"/>
<path d="M68.3 12.5H78.5V20.1H68.3V12.5ZM68.5 25.2H78.4L78.5 58.4H68.5V25.2Z" fill="#4C5767"/>
<path d="M92.4 57C90.5 55.2 89.5 52.6 89.5 49.2V32.3H84.6V24.7H89.5V15.5H99.9V24.7H107.3V32.3H99.9V47.9C99.9 49.1 100.1 49.9 100.6 50.5C101.1 51.1 101.9 51.3 103.1 51.3C103.8 51.3 104.5 51.2 105.3 50.9C106.1 50.7 106.7 50.3 107.3 49.9V58.3C105.6 59.2 103.6 59.7 101.1 59.7C97.2 59.7 94.4 58.8 92.4 57Z" fill="#4C5767"/>
<path d="M143.4 26.7C145.6 28.7 146.7 31.8 146.7 36.3V58.4H136.8V38.4C136.8 34.1 134.7 32 130.4 32C129.4 32 128.3 32.2 127.3 32.5C126.2 32.8 125.4 33.2 124.8 33.6L124.7 58.4H114.9V11.4H124.9V26.2C128 24.6 131.1 23.7 134.4 23.7C138.2 23.8 141.2 24.8 143.4 26.7Z" fill="#4C5767"/>
<path d="M245.4 84.1C243.6 83.6 241.7 83 239.6 82.1V72.6C243.5 75.6 247.7 77 252 77C253.7 77 254.9 76.7 255.6 76.2C256.4 75.6 256.7 74.9 256.7 73.9C256.7 72.8 256.1 72 254.9 71.4C253.7 70.9 251.7 70.3 249.1 69.7C246.3 69.1 244 68 242.1 66.2C240.3 64.5 239.4 61.9 239.4 58.6C239.4 55.7 240.1 53.4 241.6 51.5C243.1 49.7 244.9 48.3 247.1 47.5C249.3 46.7 251.6 46.2 254 46.2C256.9 46.2 259.3 46.5 261.1 47C262.9 47.5 264.7 48.3 266.5 49.4V57.9C264 56.5 262.1 55.6 260.7 55C259.3 54.4 257.8 54.1 256 54.1C254.2 54.1 252.9 54.4 252 54.9C251.1 55.5 250.7 56.2 250.7 57.3C250.7 58.5 251.2 59.4 252.2 60C253.2 60.6 254.7 61.1 256.9 61.7C259.3 62.3 261.3 62.9 262.7 63.6C264.1 64.2 265.4 65.2 266.5 66.7C267.6 68.2 268.2 70.3 268.2 72.9C268.1 77.1 266.5 80.1 263.5 82C260.5 83.9 256.5 84.9 251.8 84.9C249.2 84.8 247.1 84.6 245.4 84.1Z" fill="#4C5767"/>
<defs>
<linearGradient id="paint0_linear" x1="218.222" y1="9.45909" x2="218.222" y2="79.7602" gradientUnits="userSpaceOnUse">
<stop stop-color="#FF1440"/>
<stop offset="1" stop-color="#FF066B"/>
</linearGradient>
<linearGradient id="paint1_linear" x1="202.537" y1="9.4591" x2="202.537" y2="79.7602" gradientUnits="userSpaceOnUse">
<stop stop-color="#FF1440"/>
<stop offset="1" stop-color="#FF066B"/>
</linearGradient>
</defs>
</svg>
