<svg width="100" height="89" viewBox="0 0 100 89" fill="none" xmlns="http://www.w3.org/2000/svg">
<path fill-rule="evenodd" clip-rule="evenodd" d="M1.84476 46.5364C1.22816 45.8052 0.755024 44.9315 0.45262 44.0832C-0.0686752 42.6214 -0.14815 40.9936 0.258311 39.4951C0.434097 38.8474 1.04463 38.3875 1.73026 38.5303C2.35865 38.6612 2.87186 39.3504 2.6954 40.0018C2.28759 41.505 2.5186 43.0735 3.35241 44.3713C3.62046 44.1528 3.90872 43.9593 4.2118 43.7943C5.32376 43.189 7.01797 42.4402 8.10299 43.4644C9.32507 44.6174 8.69972 46.3624 7.50795 47.2289C6.56706 47.913 5.3571 48.344 4.22123 48.1214C4.47817 49.6277 5.04156 50.3229 6.54752 50.4979C7.46282 50.6043 9.66687 50.4542 10.2151 49.5135C10.5707 48.9042 10.2572 47.2946 10.2949 46.5539C10.4003 44.4979 10.729 42.4551 11.2678 40.4684C12.3619 36.4355 14.3171 32.6723 16.8354 29.3471C22.5221 21.8375 30.848 16.6054 39.6191 13.4199C40.1033 13.2439 40.5896 13.0742 41.0779 12.9102C47.1452 10.8738 53.2768 10.0146 59.173 10.3072C60.0819 8.08114 61.3997 6.03794 63.1255 4.35833C66.9773 0.610262 72.9203 -1.06026 77.9966 0.705538C75.0904 5.57906 73.153 12.1827 72.8463 13.2637C78.8883 15.6961 84.3127 19.5913 88.6777 24.919C88.769 25.0304 88.8538 25.1358 88.9353 25.2391L95.9028 25.1546C95.9028 25.1546 100.722 38.0165 99.9071 42.2894C99.9071 42.2894 95.0073 45.3635 91.9563 46.7795C90.4979 52.626 87.2903 58.2694 82.696 63.1517C82.3919 63.4749 82.081 63.7944 81.7648 64.1109L85.2341 74.442C85.2341 74.442 77.8016 79.936 73.3164 79.9418L68.4607 73.4815C66.4873 74.4346 64.4203 75.281 62.2665 76.0038C59.7193 76.8586 57.1744 77.5353 54.6552 78.0329L54.6834 86.1959C51.1031 88.8973 41.8605 89 41.8605 89L38.393 78.6752C26.0769 77.0162 16.0268 70.1058 11.8969 57.8075C11.545 56.7599 11.252 55.7162 11.0152 54.6789C9.10955 54.9587 7.15806 54.7968 5.43186 53.8386C4.10235 53.1003 3.1315 52.019 2.49638 50.6413C1.9239 49.3981 1.42921 47.8959 1.84476 46.5364Z" fill="#D67086"/>
<path fill-rule="evenodd" clip-rule="evenodd" d="M32.5612 24L29 22.3021C29 22.3021 36.9922 12 53.7735 12C54.8157 12 55.8899 12.0396 57 12.124L56.8632 16.1781C56.8632 16.1781 43.9468 16.7918 32.5612 24Z" fill="#AB5A6B"/>
<path fill-rule="evenodd" clip-rule="evenodd" d="M46.4486 78C31.512 78.001 18.8253 70.8576 14 56.3543C14.3385 56.7404 14.6958 57.1099 15.0494 57.4811C22.1442 64.928 32.1855 68.4229 42.1163 69.3272C44.1882 69.5158 46.29 69.6152 48.4019 69.6152C53.7853 69.6152 59.236 68.9691 64.4317 67.5043C74.2608 64.7332 82.5357 58.8216 90 52C88.2737 55.9144 85.8048 59.6489 82.7044 63.0281C82.4003 63.3596 82.0895 63.6873 81.7733 64.0119L81.9295 64.4895C77.1211 68.8904 71.15 72.5048 64.3186 74.8567C58.2435 76.9478 52.1795 77.9997 46.4486 78Z" fill="#CF6C82"/>
<path fill-rule="evenodd" clip-rule="evenodd" d="M94.162 46C97.8862 37.9593 93.465 27.9287 92 25.0035L92.2565 25C97.5369 31.8151 97.0205 43.2093 96.958 44.2958C96.5679 44.5519 96.1539 44.82 95.73 45.0896L94.162 46Z" fill="#CF6C82"/>
</svg>
